<svg width="53" height="49" viewBox="0 0 53 49" fill="none" xmlns="http://www.w3.org/2000/svg">
<g clip-path="url(#clip0_218_5195)">
<path d="M29.733 47.9298H27.5666C27.4487 47.3665 27.1383 46.9451 26.5507 46.9201C25.9031 46.893 25.5658 47.3248 25.4313 47.9298H22.8511C22.6753 46.9973 22.0235 46.8742 21.2207 46.8867C17.5708 46.8992 13.9188 46.9159 10.2669 46.8867C3.85266 46.8325 0.0703423 40.3004 3.24641 34.6946C8.63849 25.1771 14.0747 15.6853 19.5551 6.21922C22.7166 0.761562 30.2792 0.761562 33.4449 6.21922C38.9322 15.6804 44.3305 25.2042 49.766 34.6883C50.4848 35.9013 50.8746 37.2836 50.8961 38.6964C50.9177 40.1093 50.5702 41.503 49.8887 42.7376C49.2072 43.9723 48.2155 45.0044 47.0133 45.7305C45.8111 46.4566 44.4406 46.851 43.0393 46.8742C39.1494 46.9347 35.2554 46.8971 31.3634 46.8867C30.571 46.8763 29.9088 46.9994 29.733 47.9298ZM30.4303 19.9885C30.4303 18.0796 30.4303 16.1707 30.4303 14.2618C30.4178 11.777 28.7336 9.9578 26.4721 9.97867C24.2457 9.99953 22.5759 11.7958 22.5697 14.2096C22.5615 18.0622 22.5615 21.9149 22.5697 25.7675C22.5697 28.2126 24.2126 29.9588 26.4741 29.9692C28.7791 29.9692 30.4199 28.2209 30.4303 25.7153C30.4303 23.8064 30.4303 21.8975 30.4303 19.9885ZM26.499 41.2288C27.016 41.2315 27.5284 41.1309 28.0066 40.9327C28.4848 40.7344 28.9193 40.4426 29.2849 40.0739C29.6505 39.7053 29.94 39.2672 30.1366 38.7851C30.3332 38.3029 30.433 37.7862 30.4303 37.2649C30.4303 36.2136 30.0161 35.2053 29.2788 34.462C28.5415 33.7186 27.5416 33.301 26.499 33.301C25.4563 33.301 24.4564 33.7186 23.7191 34.462C22.9819 35.2053 22.5677 36.2136 22.5677 37.2649C22.5652 37.7861 22.6652 38.3027 22.8619 38.7847C23.0586 39.2668 23.3481 39.7047 23.7136 40.0733C24.0792 40.4419 24.5135 40.7338 24.9916 40.9321C25.4697 41.1304 25.982 41.2312 26.499 41.2288ZM7.99086 35.3872C8.10033 35.3875 8.20864 35.3647 8.3088 35.3201C8.40895 35.2755 8.49871 35.2103 8.57227 35.1285C8.67287 35.0338 8.7593 34.9249 8.82885 34.8052C10.76 31.4087 12.6912 28.0109 14.6223 24.6117C14.8623 24.1944 14.9037 23.7542 14.6016 23.3433C14.5033 23.1984 14.3678 23.0832 14.2097 23.0097C14.0516 22.9363 13.8767 22.9073 13.7036 22.926C13.1574 22.9823 12.905 23.4058 12.6691 23.8377L7.85637 32.3225C7.56669 32.8336 7.23564 33.3302 6.99976 33.8643C6.6356 34.657 7.11149 35.4102 7.98672 35.3831L7.99086 35.3872ZM17.0142 20.1116C16.9542 19.4732 16.6356 19.0935 15.9797 19.0935C15.8502 19.084 15.7201 19.1017 15.5978 19.1456C15.4755 19.1894 15.3635 19.2585 15.2691 19.3484C15.1747 19.4383 15.0999 19.547 15.0495 19.6676C14.9991 19.7882 14.9741 19.9182 14.9761 20.049C14.959 20.1878 14.9719 20.3287 15.014 20.4619C15.0562 20.5952 15.1265 20.7176 15.2201 20.8208C15.3138 20.924 15.4285 21.0054 15.5565 21.0594C15.6844 21.1135 15.8224 21.1389 15.961 21.1339C16.5673 21.1485 16.9501 20.7667 17.0101 20.1075L17.0142 20.1116Z" fill="#F65B36"/>
<path d="M29.733 47.9297C29.9088 46.9992 30.5606 46.8866 31.3634 46.8866C35.2554 46.8866 39.1494 46.9345 43.0393 46.874C44.4406 46.8509 45.8111 46.4564 47.0133 45.7304C48.2155 45.0043 49.2072 43.9721 49.8887 42.7375C50.5702 41.5028 50.9177 40.1091 50.8961 38.6963C50.8746 37.2834 50.4848 35.9011 49.766 34.6882C44.3305 25.1957 38.9322 15.6803 33.4449 6.21908C30.2792 0.75934 22.7167 0.75934 19.5551 6.21908C14.0706 15.6768 8.63435 25.1686 3.24642 34.6945C0.0703477 40.3002 3.86714 46.8323 10.2669 46.8866C13.9188 46.9179 17.5708 46.9012 21.2207 46.8866C22.0132 46.8866 22.6691 47.0055 22.8511 47.9297C22.7353 48.7433 22.2304 48.9874 21.4669 48.9853C17.608 48.9666 13.7471 49.0438 9.8903 48.952C2.30912 48.7725 -2.42292 40.6424 1.29319 33.9768C6.73078 24.2214 12.2808 14.5266 17.9432 4.89223C21.7897 -1.63986 31.2041 -1.63986 35.0547 4.89223C40.7254 14.5141 46.2761 24.2068 51.7068 33.9705C55.4208 40.6466 50.6888 48.7684 43.1076 48.9457C39.1122 49.0396 35.1147 48.9603 31.1172 48.9791C30.3578 48.9874 29.8488 48.7433 29.733 47.9297Z" fill="#060404"/>
<path d="M25.4313 47.9276C25.5658 47.3225 25.903 46.8844 26.5507 46.9178C27.1383 46.9428 27.4486 47.3643 27.5666 47.9276C27.4528 48.5263 27.1755 48.9707 26.4989 48.9707C25.8223 48.9707 25.5451 48.5263 25.4313 47.9276Z" fill="#060404"/>
<path d="M30.4303 19.9886C30.4303 21.8975 30.4303 23.8064 30.4303 25.7154C30.4303 28.2189 28.775 29.9797 26.4742 29.9692C24.223 29.9588 22.5677 28.2126 22.5677 25.7675C22.5595 21.9163 22.5595 18.0636 22.5677 14.2096C22.5677 11.7958 24.2437 9.99956 26.47 9.97869C28.7316 9.95783 30.4158 11.777 30.4282 14.2618C30.4303 16.1707 30.4303 18.0796 30.4303 19.9886ZM28.3612 19.9594C28.3612 18.0504 28.3612 16.1415 28.3612 14.2347C28.3612 12.9287 27.5998 12.067 26.499 12.0691C25.3983 12.0712 24.6368 12.9308 24.6368 14.2409C24.6286 18.0574 24.6286 21.8739 24.6368 25.6903C24.6368 27.038 25.3258 27.8559 26.4473 27.8809C27.6205 27.908 28.3488 27.0777 28.355 25.6841C28.3612 23.7751 28.3612 21.8662 28.3612 19.9594Z" fill="#060404"/>
<path d="M26.4989 41.2285C25.9808 41.231 25.4672 41.1297 24.9882 40.9305C24.5092 40.7313 24.0742 40.4381 23.7084 40.0679C23.3427 39.6978 23.0535 39.2581 22.8577 38.7744C22.6618 38.2906 22.5633 37.7725 22.5676 37.25C22.5676 36.1987 22.9818 35.1905 23.7191 34.4471C24.4563 33.7038 25.4563 33.2861 26.4989 33.2861C27.5416 33.2861 28.5415 33.7038 29.2788 34.4471C30.016 35.1905 30.4302 36.1987 30.4302 37.25C30.4349 37.7726 30.3365 38.2908 30.1408 38.7747C29.945 39.2586 29.6559 39.6984 29.2901 40.0686C28.9243 40.4387 28.4892 40.7319 28.01 40.9311C27.5308 41.1302 27.0172 41.2313 26.4989 41.2285ZM28.3611 37.2646C28.3512 36.7667 28.1456 36.293 27.7894 35.9479C27.4332 35.6029 26.9556 35.4146 26.4617 35.4245C25.9678 35.4345 25.4981 35.6419 25.1558 36.0011C24.8136 36.3602 24.6269 36.8418 24.6367 37.3397C24.6466 37.8377 24.8523 38.3113 25.2085 38.6564C25.3849 38.8273 25.5929 38.9615 25.8207 39.0513C26.0485 39.1411 26.2916 39.1847 26.5362 39.1798C26.7807 39.1749 27.0219 39.1214 27.246 39.0225C27.47 38.9236 27.6726 38.7812 27.842 38.6033C28.0115 38.4255 28.1446 38.2157 28.2336 37.986C28.3227 37.7563 28.366 37.5112 28.3611 37.2646Z" fill="#060404"/>
<path d="M7.98673 35.3829C7.1115 35.41 6.63147 34.6568 6.99149 33.8661C7.23358 33.3321 7.55842 32.8355 7.8481 32.3244L12.6608 23.8396C12.905 23.4077 13.1574 22.9842 13.6954 22.9279C13.8685 22.9092 14.0434 22.9381 14.2015 23.0116C14.3596 23.0851 14.495 23.2003 14.5934 23.3451C14.8955 23.7624 14.8541 24.1901 14.6141 24.6136C12.6829 28.0114 10.7517 31.4092 8.82058 34.807C8.75103 34.9268 8.66461 35.0357 8.56401 35.1304C8.49037 35.2105 8.40103 35.2743 8.30166 35.3177C8.20229 35.3612 8.09504 35.3834 7.98673 35.3829Z" fill="#060404"/>
<path d="M17.0101 20.1075C16.9501 20.7668 16.5735 21.1507 15.9507 21.1298C15.8121 21.1348 15.6741 21.1094 15.5462 21.0553C15.4183 21.0013 15.3035 20.9199 15.2098 20.8167C15.1162 20.7135 15.0459 20.5911 15.0037 20.4579C14.9616 20.3246 14.9487 20.1837 14.9659 20.045C14.9638 19.9141 14.9888 19.7842 15.0392 19.6635C15.0897 19.5429 15.1645 19.4342 15.2589 19.3443C15.3533 19.2544 15.4652 19.1853 15.5875 19.1415C15.7098 19.0976 15.8399 19.0799 15.9694 19.0894C16.6315 19.0894 16.9501 19.4691 17.0101 20.1075Z" fill="#060404"/>
</g>
<defs>
<clipPath id="clip0_218_5195">
<rect width="53" height="49" fill="white"/>
</clipPath>
</defs>
</svg>
