<svg width="231" height="191" viewBox="0 0 231 191" fill="none" xmlns="http://www.w3.org/2000/svg">
<g clip-path="url(#clip0_1135_12863)">
<path d="M10.2403 4.53027L2.22681 43.1993C5.79204 46.8194 9.57118 50.2365 15.6705 51.5255L45.0151 56.6814L51.9097 11.2274L10.2403 4.53027Z" fill="#FAFAFA"/>
<path d="M8.56726 2.13867L0.553711 40.8132L13.9974 49.1394L43.342 54.2953L52.0082 10.6568L8.56726 2.13867Z" fill="#F5F5F5"/>
<path d="M6.02233 38.751L0.537354 40.8133C0.537354 40.8133 2.51194 44.033 5.39156 45.7498C8.01662 47.4031 10.9312 48.544 13.981 49.1121C13.981 49.1121 7.59103 45.9527 6.02233 38.751Z" fill="#E0E0E0"/>
<path d="M4.1027 10.4434L24.1612 4.22343L22.8832 0L2.49561 5.92377L4.1027 10.4434Z" fill="#EBEBEB"/>
<path d="M55.4803 21.0949L42.4754 4.60156L38.9924 7.31114L51.8382 24.2158L55.4803 21.0949Z" fill="#EBEBEB"/>
<path d="M44.461 23.5087C44.461 23.5855 37.0398 22.2033 27.9183 20.4207C18.7968 18.6381 11.414 17.1297 11.4304 17.0474C11.4469 16.9651 18.8516 18.3528 27.9731 20.1355C37.0946 21.9181 44.4774 23.4319 44.461 23.5087Z" fill="#E0E0E0"/>
<path d="M43.15 29.4374C43.15 29.5142 35.7289 28.132 26.6074 26.3439C17.4859 24.5558 10.0811 23.0803 10.1195 22.9761C10.1579 22.8719 17.5407 24.2816 26.6622 26.0642C35.7837 27.8468 43.1665 29.3606 43.15 29.4374Z" fill="#E0E0E0"/>
<path d="M42.3 34.7529C42.3 34.8297 34.8789 33.4474 25.7629 31.6648C16.6468 29.8822 9.25857 28.3738 9.26954 28.2916C9.28051 28.2093 16.6907 29.597 25.8177 31.3851C34.9447 33.1732 42.3165 34.6761 42.3 34.7529Z" fill="#E0E0E0"/>
<path d="M41.2742 39.8315C41.2742 39.9083 33.853 38.5261 24.7315 36.738C15.61 34.9499 8.22722 33.447 8.24368 33.3702C8.26013 33.2934 15.6648 34.6757 24.7864 36.4583C33.9079 38.2409 41.2852 39.7547 41.2742 39.8315Z" fill="#E0E0E0"/>
<path d="M186.736 94.4892C178.333 87.6439 177.175 76.0048 178.294 65.704C178.481 63.9818 178.426 62.1553 179.358 60.7017C180.291 59.2482 182.282 58.3597 183.746 59.1989C184.98 59.8955 185.43 61.4258 186.055 62.7092C186.889 64.424 188.192 65.8674 189.813 66.8723C190.866 67.525 192.199 67.9693 193.329 67.4537C194.875 66.7462 195.204 64.7113 195.32 62.989C195.539 59.7931 195.757 56.5953 195.972 53.3958C195.997 51.6748 196.299 49.969 196.866 48.3441C197.519 46.7535 198.808 45.3328 200.475 44.9928C202.143 44.6527 204.085 45.7497 204.315 47.4555C204.325 48.1684 204.288 48.8811 204.205 49.5892C204.205 50.3077 204.469 51.1195 205.132 51.3663C205.796 51.6131 206.525 51.1853 207.074 50.7191C208.972 49.123 210.337 46.9783 211.626 44.8447C212.915 42.711 214.171 40.5225 215.916 38.7509C217.66 36.9792 219.991 35.6519 222.459 35.6903C224.928 35.7287 227.429 37.4455 227.867 39.9027C228.306 42.36 226.721 44.713 225.043 46.556C222.551 49.2904 219.676 51.6496 216.508 53.5603C215.9 53.8416 215.397 54.3082 215.071 54.8932C214.616 55.9901 215.62 57.2243 216.717 57.685C217.967 58.2061 219.36 58.1786 220.688 58.431C222.015 58.6833 223.43 59.3853 223.831 60.6853C224.379 62.4898 222.799 64.2231 221.269 65.3146C218.202 67.5131 214.779 69.1646 211.149 70.1962C209.855 70.5692 208.495 70.8709 207.414 71.6827C206.333 72.4944 205.604 73.9918 206.125 75.2424C206.646 76.493 208.204 77.0031 209.542 76.855C210.88 76.7069 212.115 76.0761 213.409 75.6977C215.833 74.9791 218.861 75.3686 220.221 77.5187C221.115 78.9283 221.061 80.8097 220.441 82.3564C219.749 83.8861 218.759 85.2623 217.528 86.4043C213.461 90.6107 208.351 93.6635 202.719 95.2516C197.113 96.7435 192.012 96.8971 186.725 94.4892" fill="#F5F5F5"/>
<path d="M186.034 102.136C186.863 97.3828 188.148 92.7209 189.873 88.2149C192.003 82.7162 194.448 77.3449 197.196 72.1275L199.335 68.0083C200.037 66.659 200.733 65.3152 201.501 64.0481C202.972 61.6176 204.576 59.2701 206.306 57.0164C207.952 54.8553 209.597 52.8643 211.116 50.9829C212.636 49.1016 214.133 47.4396 215.543 45.9477C217.752 43.5872 220.145 41.4065 222.701 39.4261C223.606 38.724 224.346 38.2029 224.812 37.8574L225.361 37.4625C225.423 37.4157 225.489 37.3753 225.558 37.3418C225.502 37.3954 225.441 37.4449 225.377 37.4899L224.829 37.9067C224.352 38.2688 223.644 38.8063 222.756 39.5248C220.236 41.5366 217.872 43.7369 215.685 46.1068C214.287 47.5987 212.828 49.299 211.297 51.153C209.767 53.0069 208.144 54.9924 206.515 57.1864C204.798 59.4369 203.205 61.7788 201.743 64.2017C200.986 65.4632 200.295 66.7906 199.587 68.1454C198.879 69.5002 198.177 70.8879 197.453 72.2591C194.711 77.4677 192.263 82.8258 190.12 88.3082C188.389 92.7941 187.083 97.4328 186.22 102.163" fill="#E0E0E0"/>
<path d="M201.6 64.0425C201.535 63.8006 201.499 63.5522 201.49 63.302C201.435 62.8193 201.375 62.1227 201.32 61.2616C201.205 59.5338 201.123 57.1479 201.046 54.5151C200.969 51.8823 200.859 49.5018 200.717 47.7795C200.651 46.9239 200.585 46.2273 200.536 45.7446C200.496 45.4962 200.483 45.2443 200.497 44.9932C200.577 45.2317 200.63 45.4781 200.657 45.7281C200.744 46.2053 200.843 46.9019 200.942 47.7576C201.139 49.4799 201.287 51.8658 201.364 54.5041C201.441 57.1424 201.496 59.4406 201.545 61.2506C201.545 62.0569 201.594 62.7425 201.611 63.291C201.637 63.5411 201.633 63.7933 201.6 64.0425Z" fill="#E0E0E0"/>
<path d="M223.951 61.5576C223.657 61.6011 223.359 61.6158 223.063 61.6014C222.514 61.6014 221.669 61.6014 220.655 61.6563C218.62 61.7276 215.811 61.9196 212.723 62.2651C209.635 62.6107 206.849 63.0605 204.847 63.4334C203.843 63.6144 203.037 63.7845 202.477 63.8996C202.19 63.9768 201.896 64.0246 201.6 64.0423C201.874 63.9261 202.159 63.8361 202.45 63.7735C202.999 63.6254 203.805 63.4225 204.803 63.225C206.8 62.7917 209.586 62.3145 212.685 61.958C215.329 61.6522 217.987 61.4801 220.649 61.4424C221.669 61.4424 222.498 61.4424 223.068 61.4863C223.364 61.4828 223.66 61.5067 223.951 61.5576Z" fill="#E0E0E0"/>
<path d="M190.18 87.8306C190.128 87.7421 190.086 87.6483 190.054 87.5509L189.736 86.7227C189.462 86.0041 189.094 84.9565 188.639 83.6511C187.761 81.0512 186.664 77.4147 185.507 73.3887C184.35 69.3627 183.313 65.7097 182.468 63.0989C182.068 61.8264 181.733 60.7787 181.487 59.9999C181.382 59.6598 181.295 59.3801 181.229 59.1552C181.19 59.0589 181.165 58.9572 181.157 58.8535C181.212 58.9416 181.256 59.0354 181.289 59.1332L181.602 59.956C181.876 60.6745 182.243 61.7222 182.699 63.0276C183.576 65.6329 184.673 69.264 185.831 73.2954C186.988 77.3269 188.025 80.9744 188.869 83.5852C189.27 84.8578 189.604 85.9054 189.851 86.6788L190.114 87.5289C190.152 87.6255 190.174 87.7273 190.18 87.8306Z" fill="#E0E0E0"/>
<path d="M220.156 80.5576C220.059 80.6025 219.958 80.6357 219.854 80.6563L218.982 80.8812L215.768 81.6656C213.058 82.3293 209.323 83.2836 205.198 84.3477C201.073 85.4118 197.322 86.3388 194.596 86.9421C193.23 87.2493 192.127 87.4906 191.359 87.6277L190.476 87.7923C190.372 87.8177 190.265 87.8306 190.158 87.8307C190.254 87.7858 190.356 87.7526 190.46 87.7319L191.332 87.5071L194.546 86.7227C197.256 86.0645 200.991 85.1047 205.121 84.0406C209.251 82.9765 213.025 82.0495 215.768 81.4407C217.133 81.139 218.236 80.8922 219.004 80.7606L219.892 80.596C219.978 80.5743 220.067 80.5615 220.156 80.5576Z" fill="#E0E0E0"/>
<path d="M138.978 113.139L136.323 137.821C136.323 137.821 131.151 130.005 127.652 133.488C124.317 136.812 118.426 161.05 118.426 161.05C118.426 161.05 118.349 168.954 122.551 171.043C136.027 177.757 151.045 165.142 151.045 165.142L148.9 94.4951C143.313 99.198 139.758 105.877 138.978 113.139Z" fill="#F65B36"/>
<path d="M184.443 95.9813L161.126 94.1219C160.984 91.3794 161.176 80.8647 161.176 80.8647C161.176 80.8647 151.473 79.3563 151.357 69.6589C151.242 59.9615 152.915 37.6815 152.915 37.6815C158.43 35.3107 164.477 34.4557 170.432 35.205C176.388 35.9542 182.035 38.2805 186.79 41.9434L188.227 43.0404L184.443 95.9813Z" fill="#B78876"/>
<path d="M161.159 80.7284C165.638 80.813 170.041 79.5623 173.807 77.1357C173.807 77.1357 170.818 84.1126 161.137 83.2405L161.159 80.7284Z" fill="#AA6550"/>
<path d="M187.037 53.0948C187.202 53.0235 193.701 51.1257 193.488 57.757C193.274 64.3883 186.664 62.8087 186.659 62.6167C186.653 62.4247 187.037 53.0948 187.037 53.0948Z" fill="#B78876"/>
<path d="M188.76 60.17C188.792 60.17 188.875 60.2522 189.067 60.351C189.337 60.4777 189.646 60.4934 189.928 60.3948C190.641 60.159 191.266 59.0675 191.337 57.8718C191.367 57.3098 191.273 56.7483 191.063 56.2263C191.009 56.0167 190.904 55.8237 190.757 55.664C190.611 55.5044 190.428 55.3829 190.224 55.3103C190.092 55.2698 189.951 55.2774 189.824 55.3316C189.698 55.3859 189.594 55.4833 189.533 55.6065C189.44 55.7875 189.473 55.9191 189.44 55.9301C189.407 55.941 189.303 55.8149 189.363 55.5406C189.408 55.3794 189.504 55.237 189.637 55.1348C189.824 55.0055 190.054 54.9526 190.279 54.9867C190.553 55.0531 190.805 55.1889 191.012 55.381C191.218 55.5731 191.372 55.8151 191.458 56.0837C191.718 56.6675 191.835 57.305 191.798 57.9431C191.71 59.2759 190.986 60.5045 190.021 60.7514C189.841 60.7986 189.653 60.8044 189.471 60.7683C189.288 60.7322 189.116 60.6551 188.968 60.5429C188.771 60.329 188.738 60.1809 188.76 60.17Z" fill="#AA6550"/>
<path d="M155.054 52.6997C155.051 53.0613 155.19 53.4097 155.44 53.671C155.689 53.9322 156.032 54.0855 156.393 54.0984C156.569 54.1126 156.746 54.0912 156.914 54.0356C157.082 53.98 157.237 53.8912 157.37 53.7746C157.503 53.658 157.612 53.5159 157.689 53.3567C157.766 53.1975 157.81 53.0245 157.819 52.8478C157.822 52.4872 157.685 52.1395 157.436 51.8784C157.187 51.6174 156.846 51.4634 156.486 51.4491C156.31 51.4357 156.132 51.4576 155.964 51.5134C155.797 51.5693 155.641 51.658 155.508 51.7744C155.375 51.8908 155.266 52.0326 155.188 52.1914C155.11 52.3503 155.065 52.5231 155.054 52.6997Z" fill="#263238"/>
<path d="M154.753 51.3281C154.923 51.5091 155.976 50.7303 157.462 50.7357C158.949 50.7412 160.046 51.4872 160.205 51.2842C160.282 51.202 160.106 50.8729 159.656 50.5273C159.012 50.082 158.246 49.8464 157.462 49.8527C156.686 49.8498 155.93 50.0937 155.301 50.5493C154.824 50.9222 154.67 51.2459 154.753 51.3281Z" fill="#263238"/>
<path d="M169.656 53.2485C169.652 53.6092 169.79 53.9568 170.039 54.2179C170.287 54.479 170.628 54.633 170.988 54.6472C171.165 54.6606 171.342 54.6388 171.51 54.5829C171.678 54.5271 171.833 54.4384 171.966 54.322C172.1 54.2056 172.208 54.0638 172.286 53.9049C172.364 53.7461 172.41 53.5733 172.42 53.3966C172.422 53.0355 172.283 52.6878 172.033 52.4269C171.784 52.166 171.443 52.0122 171.082 51.998C170.906 51.9846 170.728 52.0065 170.561 52.0624C170.393 52.1183 170.239 52.207 170.106 52.3235C169.973 52.44 169.865 52.5818 169.787 52.7406C169.71 52.8995 169.665 53.0722 169.656 53.2485Z" fill="#263238"/>
<path d="M169.403 51.6024C169.579 51.7834 170.626 51.0046 172.118 51.01C173.61 51.0155 174.702 51.7615 174.861 51.5585C174.943 51.4818 174.768 51.1527 174.312 50.8071C173.668 50.3618 172.902 50.1245 172.118 50.127C171.343 50.126 170.586 50.3697 169.957 50.8236C169.48 51.202 169.321 51.5256 169.403 51.6024Z" fill="#263238"/>
<path d="M163.995 62.66C163.995 62.5777 163.073 62.4187 161.576 62.2267C161.192 62.1883 160.836 62.1115 160.77 61.8482C160.74 61.4566 160.827 61.0649 161.022 60.7238C161.388 59.8023 161.763 58.8351 162.146 57.8223C163.715 53.6976 164.845 50.3024 164.675 50.242C164.505 50.1817 163.106 53.4782 161.543 57.6029C161.17 58.6176 160.808 59.5884 160.446 60.5209C160.203 60.9783 160.133 61.5079 160.249 62.0128C160.303 62.1464 160.388 62.2654 160.497 62.3606C160.605 62.4558 160.734 62.5245 160.874 62.5613C161.085 62.6211 161.302 62.6525 161.521 62.6545C163.051 62.7423 163.989 62.7478 163.995 62.66Z" fill="#263238"/>
<path d="M169.019 45.7669C169.167 46.1728 170.665 45.9808 172.403 46.1893C174.142 46.3977 175.568 46.8749 175.799 46.5129C175.903 46.3374 175.656 45.9644 175.086 45.564C174.322 45.0887 173.462 44.7924 172.568 44.6974C171.674 44.6024 170.77 44.7111 169.924 45.0155C169.282 45.2568 168.959 45.5695 169.019 45.7669Z" fill="#263238"/>
<path d="M155.301 47.0173C155.565 47.3519 156.59 47.0173 157.824 46.9844C159.059 46.9515 160.106 47.2148 160.348 46.8583C160.452 46.6882 160.287 46.3482 159.832 46.03C159.219 45.6437 158.505 45.4489 157.781 45.4704C157.057 45.4918 156.356 45.7287 155.768 46.1507C155.329 46.5017 155.186 46.8473 155.301 47.0173Z" fill="#263238"/>
<path d="M148.193 31.5607C148.124 30.9585 148.209 30.3488 148.441 29.7886C148.672 29.2283 149.041 28.7359 149.515 28.3575C150.003 28.002 150.603 27.8316 151.205 27.8768C151.808 27.9221 152.375 28.1799 152.806 28.6043C152.714 28.1993 152.709 27.7796 152.791 27.3726C152.872 26.9655 153.038 26.58 153.278 26.2413C153.518 25.9025 153.827 25.618 154.184 25.4062C154.541 25.1943 154.938 25.0599 155.351 25.0116C156.936 24.9129 158.285 26.1086 159.81 26.5255C161.335 26.9423 162.903 26.5803 164.34 26.0044C165.778 25.4285 167.116 24.6277 168.569 24.0956C171.641 22.9741 175.03 23.11 178.002 24.474C180.973 25.838 183.286 28.3197 184.437 31.3797C186.56 30.716 188.968 31.7965 190.279 33.5737C191.59 35.3508 191.924 37.7313 191.661 39.9362C191.457 41.4239 191.089 42.8844 190.564 44.2913C190.564 44.4175 190.564 44.5381 190.564 44.6643C190.46 49.9957 189.857 56.2595 187.58 56.2979C183.615 56.3582 184.564 48.8822 184.564 48.8822C179.693 47.0064 181.508 39.7113 180.291 38.6034C179.073 37.4954 176.528 34.9284 166.337 40.1337C162.377 42.1576 157.117 42.0973 154.243 41.4446L153.99 41.3898H153.93C153.902 41.3802 153.875 41.3692 153.848 41.3568C152.924 41.1295 152.041 40.7594 151.231 40.2598C150.278 39.71 149.525 38.8703 149.081 37.8629C148.868 37.3588 148.806 36.8033 148.903 36.2645C149.001 35.7258 149.253 35.2271 149.63 34.8297C148.842 33.9038 148.342 32.7673 148.193 31.5607Z" fill="#263238"/>
<path d="M203.52 156.854L204.249 170.627L205.895 190.373H143.569L146.278 161.16L140.969 115.004C141.43 98.6917 147.694 91.9122 160.506 90.3545L159.497 90.4807C161.263 90.2722 159.497 90.4806 160.506 90.3545C168.597 92.9104 177.279 92.9104 185.37 90.3545C189.209 90.519 192.396 91.6983 195.665 92.3291C205.96 94.2982 214.435 102.251 216.508 109.179C218.203 114.878 230.462 164.308 230.462 164.308H206.059L203.52 156.854Z" fill="#F65B36"/>
<path d="M162.728 67.2461C162.936 67.849 163.227 68.4196 163.594 68.9409C163.78 69.201 164.019 69.4186 164.295 69.5794C164.571 69.7401 164.878 69.8403 165.196 69.8734C165.536 69.8721 165.869 69.7862 166.167 69.6234C166.465 69.4605 166.718 69.226 166.902 68.9409C167.264 68.3611 167.431 67.6808 167.379 66.9993C167.379 66.3849 167.072 65.6554 166.463 65.5841C166.207 65.5743 165.952 65.629 165.723 65.7432L162.525 67.0431" fill="#AA6550"/>
<path d="M164.006 69.8783C164.584 69.9172 165.165 69.8465 165.717 69.6699C166.276 69.4497 166.735 69.032 167.006 68.4961C167.159 68.17 167.242 67.8154 167.248 67.4553C167.255 67.0952 167.185 66.7378 167.044 66.4063C166.973 66.2349 166.881 66.0728 166.77 65.9236C166.639 65.792 166.666 65.7975 166.529 65.8194C166.353 65.8769 166.181 65.9446 166.013 66.0223L165.465 66.2363C164.779 66.5105 164.159 66.7518 163.638 66.9493C162.591 67.3387 161.927 67.5472 161.894 67.4978C161.861 67.4484 162.47 67.0864 163.479 66.5983C163.984 66.3569 164.576 66.0498 165.262 65.77L165.777 65.5397C165.969 65.449 166.165 65.3684 166.364 65.2983C166.517 65.2469 166.683 65.2469 166.836 65.2983C166.977 65.3567 167.099 65.4537 167.187 65.5781C167.335 65.7618 167.456 65.9648 167.549 66.1814C167.723 66.5891 167.805 67.0303 167.788 67.4732C167.771 67.9162 167.655 68.3499 167.45 68.7429C167.277 69.0601 167.043 69.3394 166.76 69.5646C166.477 69.7897 166.153 69.956 165.805 70.0538C165.356 70.2007 164.876 70.2197 164.417 70.1087C164.143 70.0209 163.995 69.9112 164.006 69.8783Z" fill="#263238"/>
<path d="M140.865 154.101L126.187 109.036L124.86 101.473C124.86 101.473 120.867 84.6007 120.686 82.9333C120.483 81.0026 119.501 80.6406 118.799 80.7393C117.702 80.9368 117.06 82.3848 117.186 84.0303C117.23 84.5788 118.283 93.629 118.283 93.629C117.666 92.8332 116.993 92.0817 116.27 91.3802C114.751 89.8334 111.509 89.1862 108.3 89.6524C105.092 90.1186 104.231 90.5136 104.351 91.7696C104.384 92.0056 104.47 92.2311 104.602 92.4295C104.734 92.628 104.909 92.7942 105.114 92.916C105.758 93.3493 106.539 93.5291 107.308 93.4206C112.458 92.7679 114.142 95.3787 114.142 95.3787L114.317 96.366C114.317 96.366 110.939 94.4682 108.547 95.6804C108.193 95.8595 107.876 96.1053 107.615 96.4044C106.912 96.4836 106.242 96.7451 105.671 97.1631C105.1 97.581 104.648 98.1409 104.361 98.7873C104.073 99.4336 103.959 100.144 104.031 100.848C104.102 101.552 104.356 102.225 104.768 102.8C105.163 103.348 105.865 103.842 106.496 103.639C106.831 103.496 107.125 103.272 107.352 102.986C107.48 102.844 107.622 102.714 107.774 102.597L108.646 105.301C108.646 105.301 110.939 111.274 111.641 113.984L118.771 159.361C119.007 160.855 119.538 162.288 120.333 163.575C121.128 164.862 122.172 165.978 123.403 166.858C124.634 167.737 126.027 168.363 127.503 168.699C128.978 169.034 130.505 169.072 131.996 168.812C133.599 168.529 135.123 167.907 136.465 166.986C137.807 166.065 138.936 164.868 139.777 163.474C140.617 162.08 141.149 160.522 141.337 158.905C141.524 157.288 141.363 155.65 140.865 154.101Z" fill="#B78876"/>
<path d="M124.635 108.575C123.719 108.937 122.671 108.345 122.068 107.566C121.464 106.787 121.152 105.816 120.609 104.993C118.963 102.525 115.596 101.631 114.093 99.0915C113.879 98.735 113.731 98.2359 114.032 97.9561C114.334 97.6764 114.762 97.83 115.129 97.9561L124.147 101.746" fill="#B78876"/>
<path d="M124.13 101.769C123.842 101.56 123.529 101.389 123.198 101.259C122.583 100.962 121.684 100.556 120.57 100.057L116.654 98.346L115.513 97.8579C115.084 97.5889 114.565 97.5002 114.071 97.611C113.92 97.6785 113.793 97.79 113.707 97.931C113.621 98.072 113.579 98.2359 113.588 98.4009C113.603 98.6708 113.68 98.9337 113.813 99.1688C114.059 99.5833 114.349 99.9696 114.68 100.321C116.023 101.725 117.647 102.515 118.865 103.518C119.454 103.966 119.972 104.501 120.4 105.104C120.79 105.652 121.059 106.283 121.366 106.82C121.571 107.279 121.873 107.687 122.252 108.017C122.631 108.346 123.077 108.589 123.56 108.729C124.284 108.866 124.657 108.586 124.624 108.576C124.287 108.62 123.945 108.601 123.615 108.521C123.183 108.356 122.79 108.103 122.462 107.778C122.133 107.453 121.876 107.064 121.706 106.634C121.426 106.085 121.157 105.476 120.773 104.846C120.334 104.192 119.796 103.611 119.177 103.123C117.927 102.065 116.314 101.242 115.08 99.9367C114.779 99.6217 114.514 99.274 114.29 98.9C114.087 98.549 114.071 98.1705 114.29 98.1102C114.51 98.0498 114.926 98.1815 115.31 98.346L116.451 98.8177L120.417 100.425C121.552 100.869 122.474 101.226 123.11 101.461C123.434 101.611 123.778 101.714 124.13 101.769Z" fill="#AA6550"/>
<path d="M114.438 96.4424C114.315 95.8292 114.048 95.254 113.659 94.764C113.214 94.2661 112.619 93.9256 111.964 93.7932C111.148 93.635 110.311 93.6054 109.485 93.7054C108.632 93.8087 107.77 93.8253 106.913 93.7548C106.192 93.6864 105.502 93.4311 104.911 93.0143C104.712 92.8638 104.55 92.6701 104.437 92.4477C104.324 92.2254 104.262 91.9802 104.258 91.7308C104.246 91.5525 104.288 91.3747 104.379 91.2207C104.412 91.2207 104.379 91.4072 104.379 91.7253C104.403 91.9459 104.476 92.1585 104.592 92.348C104.707 92.5376 104.863 92.6994 105.048 92.8223C105.614 93.1808 106.261 93.392 106.929 93.4366C107.766 93.4865 108.605 93.459 109.436 93.3543C110.3 93.2527 111.175 93.2972 112.025 93.486C112.738 93.6488 113.375 94.0468 113.835 94.6159C114.134 94.9978 114.334 95.4483 114.416 95.9268C114.467 96.094 114.475 96.2714 114.438 96.4424Z" fill="#AA6550"/>
<path d="M117.148 83.416C117.272 84.0066 117.345 84.6066 117.367 85.2096C117.482 86.4437 117.625 87.9137 117.784 89.5373C117.943 91.1608 118.13 92.6253 118.267 93.8594C118.372 94.4533 118.425 95.0553 118.426 95.6585C118.222 95.0891 118.084 94.4984 118.014 93.8978C117.822 92.8008 117.603 91.2705 117.427 89.5757C117.252 87.8808 117.148 86.3395 117.109 85.2261C117.055 84.6232 117.068 84.0161 117.148 83.416Z" fill="#AA6550"/>
<path d="M112.617 98.6967C112.429 98.6688 112.245 98.6191 112.069 98.5486C111.844 98.4585 111.602 98.4192 111.36 98.4334C111.119 98.4477 110.883 98.5151 110.67 98.6309C110.542 98.7189 110.438 98.8393 110.371 98.9799C110.304 99.1204 110.274 99.2763 110.286 99.4317C110.306 99.8248 110.376 100.214 110.495 100.589C110.652 101.059 110.631 101.571 110.434 102.026C110.301 102.263 110.114 102.465 109.888 102.615C109.662 102.766 109.404 102.861 109.134 102.893C108.869 102.92 108.601 102.893 108.347 102.814C108.092 102.735 107.856 102.605 107.653 102.432C107.276 102.124 106.998 101.712 106.853 101.247C106.668 100.49 106.596 99.7104 106.639 98.9326C106.648 98.4068 106.75 97.8869 106.94 97.3967C107.001 97.2103 107.111 97.0436 107.258 96.9141C107.258 96.9141 107.171 97.1006 107.072 97.4626C106.944 97.951 106.884 98.4551 106.896 98.96C106.89 99.7002 106.982 100.438 107.171 101.154C107.294 101.564 107.548 101.922 107.895 102.173C108.242 102.424 108.662 102.554 109.09 102.542C109.303 102.516 109.506 102.442 109.685 102.325C109.864 102.208 110.013 102.051 110.122 101.867C110.281 101.487 110.299 101.063 110.171 100.671C110.057 100.266 109.996 99.8473 109.99 99.4262C109.986 99.2256 110.035 99.0275 110.131 98.8514C110.227 98.6754 110.368 98.5275 110.539 98.4224C110.782 98.2978 111.052 98.2327 111.326 98.2327C111.599 98.2327 111.869 98.2978 112.113 98.4224C112.458 98.565 112.65 98.6747 112.617 98.6967Z" fill="#AA6550"/>
<path d="M107.779 102.141C107.779 102.141 107.867 102.322 107.779 102.657C107.712 102.892 107.591 103.108 107.427 103.289C107.262 103.47 107.058 103.61 106.831 103.699C106.484 103.816 106.113 103.84 105.755 103.77C105.396 103.7 105.062 103.537 104.785 103.299C104.127 102.712 103.72 101.895 103.649 101.017C103.555 100.152 103.733 99.2797 104.159 98.5213C104.51 97.909 105.02 97.4029 105.635 97.0568C106.039 96.8219 106.484 96.6638 106.946 96.5906C107.113 96.5505 107.288 96.5505 107.456 96.5906C106.864 96.7406 106.296 96.9713 105.766 97.2762C105.152 97.6643 104.661 98.2188 104.349 98.8751C104.037 99.5315 103.918 100.263 104.006 100.984C104.068 101.773 104.422 102.51 104.999 103.052C105.231 103.262 105.513 103.41 105.818 103.482C106.123 103.554 106.441 103.547 106.743 103.463C106.945 103.395 107.13 103.284 107.286 103.138C107.442 102.993 107.566 102.816 107.648 102.619C107.763 102.328 107.747 102.141 107.779 102.141Z" fill="#AA6550"/>
<path d="M114.652 107.511C114.924 107.395 115.225 107.366 115.513 107.429C116.267 107.507 116.972 107.838 117.515 108.367L117.225 108.487C117.22 108.077 117.243 107.666 117.296 107.259C117.565 104.878 118.684 103.227 118.749 103.288C118.815 103.348 117.91 105.01 117.652 107.303C117.604 107.696 117.577 108.091 117.57 108.487V108.899L117.285 108.608C116.793 108.119 116.17 107.784 115.491 107.643C114.97 107.55 114.652 107.55 114.652 107.511Z" fill="#AA6550"/>
<path d="M112.826 92.1536C112.913 92.1865 112.634 92.8722 111.877 93.2945C111.12 93.7168 110.396 93.6181 110.412 93.5249C110.429 93.4316 111.048 93.3603 111.701 92.9764C112.354 92.5924 112.732 92.0988 112.826 92.1536Z" fill="#AA6550"/>
<path d="M152.493 92.1475C152.493 92.1475 152.29 92.3669 151.945 92.7892C151.397 93.3841 150.965 94.0761 150.672 94.8296C150.585 95.086 150.537 95.3542 150.529 95.6249C150.53 95.9139 150.602 96.1983 150.738 96.4532C151.112 97.0162 151.67 97.4312 152.317 97.6269C153.94 98.1361 155.636 98.3751 157.336 98.3345C158.28 98.3345 159.3 98.3894 160.342 98.4497L161.938 98.6362C162.487 98.6965 163.035 98.8446 163.584 98.9433C165.965 99.4294 168.211 100.429 170.166 101.872C171.231 102.667 172.158 103.633 172.908 104.73C173.097 105.017 173.271 105.314 173.429 105.619C173.588 105.942 173.698 106.255 173.83 106.573C174.074 107.222 174.258 107.892 174.378 108.575C174.93 111.45 174.475 114.427 173.089 117.005C171.657 119.564 169.358 121.527 166.606 122.54C165.313 123.025 163.949 123.295 162.569 123.34C161.253 123.348 159.94 123.189 158.664 122.869C157.486 122.566 156.286 122.351 155.076 122.227C153.958 122.119 152.832 122.318 151.818 122.803C150.887 123.303 150.059 123.975 149.378 124.783C148.692 125.551 148.111 126.357 147.535 127.12C146.399 128.65 145.192 129.999 143.788 130.707C143.145 131.052 142.429 131.24 141.699 131.255C141.089 131.262 140.483 131.151 139.916 130.926C139.464 130.746 139.049 130.484 138.693 130.153C138.437 129.904 138.229 129.61 138.078 129.286C137.95 129.023 137.885 128.734 137.887 128.442C137.925 128.442 137.936 128.743 138.183 129.237C138.345 129.533 138.557 129.8 138.808 130.027C139.158 130.326 139.56 130.56 139.993 130.718C140.585 130.937 141.219 131.024 141.849 130.974C142.478 130.924 143.09 130.737 143.64 130.427C144.957 129.73 146.103 128.42 147.211 126.884C147.759 126.116 148.352 125.293 149.048 124.492C149.753 123.625 150.617 122.901 151.593 122.359C152.68 121.825 153.892 121.597 155.098 121.7C156.335 121.82 157.562 122.031 158.768 122.331C160.002 122.636 161.27 122.786 162.541 122.776C163.855 122.722 165.151 122.459 166.381 121.997C169.003 121.023 171.194 119.149 172.563 116.709C173.885 114.246 174.322 111.404 173.802 108.657C173.676 108.004 173.492 107.364 173.254 106.743C173.122 106.436 173.012 106.118 172.875 105.843C172.732 105.556 172.57 105.277 172.393 105.01C171.684 103.961 170.81 103.035 169.804 102.267C167.912 100.857 165.738 99.8729 163.43 99.3821C162.882 99.2779 162.333 99.1298 161.823 99.0695L160.254 98.8666C159.223 98.7952 158.236 98.7514 157.276 98.7184C155.535 98.7334 153.803 98.4571 152.153 97.9012C151.466 97.6628 150.881 97.1963 150.496 96.5793C150.345 96.2825 150.272 95.9523 150.283 95.6194C150.298 95.3247 150.359 95.0341 150.464 94.7583C150.784 93.9876 151.261 93.2912 151.862 92.7124C152.045 92.4955 152.257 92.3053 152.493 92.1475Z" fill="#FAFAFA"/>
<path d="M194.217 128.722C194.067 128.326 193.978 127.91 193.954 127.488C193.832 126.337 193.908 125.174 194.179 124.049C194.581 122.373 195.306 120.791 196.313 119.392C197.538 117.675 199.104 116.23 200.914 115.146C202.735 114.101 204.713 113.36 206.772 112.952C208.442 112.608 210.142 112.433 211.846 112.431C212.989 112.419 214.132 112.476 215.269 112.601C215.688 112.618 216.103 112.692 216.503 112.821C216.503 112.92 214.72 112.722 211.851 112.821C210.179 112.883 208.516 113.096 206.882 113.457C204.888 113.891 202.973 114.631 201.205 115.651C199.46 116.695 197.94 118.077 196.735 119.715C195.746 121.05 195.013 122.556 194.574 124.158C194.277 125.241 194.143 126.361 194.173 127.482C194.219 127.894 194.234 128.308 194.217 128.722Z" fill="#FAFAFA"/>
<path d="M224.187 138.265C224.02 138.617 223.802 138.942 223.54 139.231C222.887 140.058 222.152 140.817 221.346 141.496C220.145 142.514 218.815 143.369 217.391 144.041C213.879 145.73 209.906 146.21 206.092 145.407C204.548 145.093 203.052 144.576 201.644 143.871C200.696 143.405 199.797 142.845 198.962 142.198C198.638 141.982 198.349 141.717 198.106 141.414C198.172 141.326 199.422 142.417 201.819 143.509C204.929 144.953 208.381 145.5 211.785 145.089C215.189 144.678 218.411 143.326 221.088 141.183C223.145 139.543 224.099 138.183 224.187 138.265Z" fill="#FAFAFA"/>
<path d="M196.636 136.499C196.478 136.587 196.31 136.657 196.137 136.708C195.667 136.899 195.239 137.182 194.881 137.541C194.331 138.126 193.902 138.814 193.619 139.565C193.237 140.568 192.939 141.601 192.731 142.653C192.505 143.948 192.208 145.23 191.842 146.493C191.611 147.211 191.292 147.898 190.893 148.539C190.451 149.211 189.911 149.814 189.292 150.327C187.954 151.391 186.412 152.17 184.761 152.614C183.072 153.119 181.283 153.393 179.484 153.744C176.099 154.301 172.89 155.638 170.111 157.649C168.921 158.541 167.868 159.602 166.984 160.798C166.232 161.853 165.632 163.009 165.202 164.231C164.568 166.009 164.369 167.912 164.62 169.782C164.818 171.104 165.119 171.795 165.059 171.817C164.962 171.663 164.885 171.497 164.829 171.323C164.744 171.12 164.672 170.911 164.615 170.698C164.526 170.41 164.455 170.117 164.401 169.82C164.057 167.91 164.201 165.945 164.818 164.105C165.235 162.832 165.833 161.626 166.595 160.523C167.492 159.276 168.567 158.167 169.787 157.232C172.618 155.144 175.904 153.757 179.375 153.184C181.19 152.828 182.962 152.559 184.602 152.087C186.185 151.672 187.666 150.938 188.957 149.932C189.54 149.461 190.051 148.907 190.471 148.286C190.854 147.686 191.164 147.041 191.392 146.367C191.773 145.117 192.087 143.848 192.336 142.565C192.568 141.492 192.897 140.442 193.317 139.428C193.639 138.652 194.119 137.951 194.727 137.371C195.115 137.007 195.583 136.739 196.093 136.587C196.268 136.527 196.451 136.498 196.636 136.499Z" fill="#FAFAFA"/>
<path d="M181.942 134.211C182.131 134.556 182.229 134.943 182.227 135.336C182.282 136.417 181.973 137.484 181.349 138.369C180.93 138.993 180.365 139.507 179.704 139.866C179.331 140.07 178.93 140.216 178.514 140.3C178.072 140.381 177.622 140.4 177.175 140.355C176.216 140.25 175.305 139.882 174.543 139.291C173.705 138.658 173.106 137.761 172.842 136.746C172.674 136.084 172.665 135.393 172.815 134.727C172.977 134.095 173.276 133.507 173.692 133.005C174.048 132.529 174.45 132.089 174.894 131.694C175.108 131.497 175.341 131.322 175.59 131.173C175.847 131.001 176.144 130.898 176.451 130.871L176.523 131.359L176.254 131.425L176.117 130.953C177.114 130.67 178.178 130.728 179.139 131.118C179.872 131.399 180.527 131.852 181.048 132.44C181.381 132.81 181.645 133.237 181.827 133.701C181.942 134.025 181.969 134.206 181.947 134.211C181.65 133.642 181.281 133.114 180.85 132.637C180.331 132.124 179.703 131.734 179.013 131.496C178.131 131.176 177.168 131.151 176.27 131.425L176.133 130.953L176.402 130.877L176.479 131.37C176.008 131.483 175.581 131.731 175.25 132.083C174.846 132.467 174.479 132.887 174.153 133.339C173.772 133.787 173.506 134.32 173.378 134.894C173.25 135.467 173.264 136.063 173.418 136.63C173.654 137.521 174.177 138.309 174.905 138.874C175.585 139.405 176.396 139.744 177.252 139.855C177.648 139.901 178.049 139.892 178.442 139.828C178.812 139.76 179.17 139.64 179.507 139.472C180.116 139.159 180.644 138.708 181.048 138.155C181.658 137.35 182.001 136.373 182.03 135.363C182.013 134.623 181.887 134.228 181.942 134.211Z" fill="#FAFAFA"/>
<path d="M146.547 116.325C146.557 116.374 146.557 116.424 146.547 116.473C146.547 116.583 146.547 116.726 146.547 116.901C146.547 117.302 146.498 117.855 146.465 118.547C146.377 119.984 146.295 122.062 146.18 124.629C145.966 129.769 145.752 136.866 145.587 144.715C145.423 152.564 145.319 159.667 145.242 164.807C145.203 167.363 145.171 169.436 145.149 170.901C145.149 171.597 145.121 172.151 145.116 172.546C145.116 172.722 145.116 172.864 145.116 172.979C145.123 173.029 145.123 173.078 145.116 173.128C145.107 173.079 145.107 173.028 145.116 172.979C145.116 172.864 145.116 172.722 145.116 172.546C145.116 172.146 145.116 171.592 145.116 170.901V164.812C145.116 159.667 145.209 152.564 145.379 144.71C145.549 136.855 145.785 129.763 146.054 124.624C146.196 122.057 146.311 119.978 146.432 118.547C146.487 117.845 146.531 117.291 146.564 116.901C146.564 116.726 146.597 116.583 146.608 116.468C146.581 116.423 146.561 116.375 146.547 116.325Z" fill="#263238"/>
<g opacity="0.2">
<path opacity="0.2" d="M136.065 167.297C139.126 168.762 143.125 165.948 144.688 162.942C144.688 162.942 145.505 156.305 145.395 152.915C145.181 146.641 145.642 140.426 145.428 134.151C144.948 137.908 143.394 141.447 140.953 144.342C140.278 145.138 139.521 145.928 139.269 146.937C138.819 148.747 140.201 151.999 141.09 153.639C143.832 158.653 137.854 167.352 136.263 167.171" fill="black"/>
</g>
<g opacity="0.2">
<path opacity="0.2" d="M193.345 126.352C194.343 138.857 195.345 151.365 196.351 163.874C196.38 165.06 196.602 166.232 197.009 167.346C197.217 167.903 197.554 168.401 197.993 168.802C198.432 169.202 198.959 169.493 199.532 169.65C201.309 170.012 203.037 168.482 203.536 166.737C204.035 164.993 203.64 163.134 203.201 161.373C202.456 158.373 201.616 155.4 200.772 152.427C198.325 143.797 195.877 135.17 193.427 126.544" fill="black"/>
</g>
<path d="M158.965 190.411C159.344 189.794 159.627 189.123 159.805 188.42C160.112 187.065 159.92 184.97 158.867 182.705C158.351 181.569 157.622 180.39 156.887 179.096C156.046 177.722 155.421 176.227 155.033 174.664C154.705 172.89 154.837 171.062 155.417 169.354C155.965 167.588 156.76 165.872 157.402 164.072C158.69 160.709 158.787 157.006 157.676 153.58C157.198 152.096 156.497 150.694 155.598 149.422C154.803 148.317 153.873 147.316 152.828 146.444C151.298 145.183 149.553 144.21 147.677 143.57C146.344 143.125 145.566 143.021 145.577 142.955C145.761 142.945 145.946 142.961 146.125 143.005C146.665 143.083 147.199 143.202 147.721 143.361C149.661 143.922 151.473 144.853 153.058 146.104C154.152 146.977 155.128 147.989 155.96 149.115C156.905 150.419 157.645 151.86 158.154 153.388C159.329 156.923 159.244 160.757 157.912 164.237C157.254 166.069 156.453 167.775 155.927 169.492C155.365 171.108 155.225 172.841 155.521 174.527C155.882 176.045 156.474 177.499 157.276 178.838C157.984 180.138 158.702 181.334 159.212 182.513C160.243 184.866 160.386 187.054 159.991 188.448C159.845 188.98 159.617 189.487 159.316 189.951C159.113 190.28 158.982 190.422 158.965 190.411Z" fill="#FAFAFA"/>
<path d="M210.458 100.177C210.352 100.576 210.165 100.95 209.91 101.274C209.286 102.203 208.475 102.991 207.529 103.589C206.119 104.478 204.513 105.01 202.851 105.136C200.829 105.273 198.8 105.014 196.877 104.373C194.918 103.803 193.128 102.764 191.661 101.346C191.031 100.708 190.517 99.9655 190.142 99.1516C189.824 98.439 189.624 97.6795 189.549 96.9028C189.424 95.778 189.638 94.6415 190.164 93.6392C190.244 93.4845 190.336 93.336 190.438 93.1949C190.508 93.0863 190.589 92.9852 190.679 92.8932C190.816 92.7451 190.899 92.6684 190.915 92.6848C190.932 92.7013 190.668 93.0468 190.367 93.7379C189.95 94.7218 189.809 95.801 189.961 96.8589C190.054 97.5853 190.261 98.2924 190.575 98.9541C190.949 99.7061 191.446 100.39 192.045 100.978C193.464 102.313 195.181 103.29 197.053 103.83C198.908 104.451 200.864 104.717 202.818 104.615C204.405 104.521 205.949 104.053 207.321 103.249C208.246 102.703 209.064 101.993 209.734 101.154C209.958 100.816 210.2 100.49 210.458 100.177Z" fill="#FAFAFA"/>
<path d="M202.949 159.179C202.949 159.179 202.922 159.13 202.889 159.025C202.856 158.921 202.807 158.757 202.746 158.565C202.626 158.142 202.45 157.55 202.225 156.793L200.36 150.25C198.803 144.704 196.663 137.086 194.327 128.639C193.153 124.415 192.04 120.411 191.036 116.731C190.529 115 190.139 113.237 189.868 111.454C189.637 109.892 189.637 108.305 189.868 106.743C190.195 104.459 191.289 102.354 192.972 100.775C193.44 100.366 193.958 100.017 194.513 99.7384L194.958 99.5519C195.005 99.5254 195.057 99.5069 195.111 99.4971C194.36 99.8494 193.664 100.307 193.043 100.857C191.417 102.441 190.37 104.526 190.07 106.776C189.86 108.318 189.877 109.884 190.12 111.421C190.398 113.192 190.794 114.942 191.305 116.66C192.325 120.323 193.449 124.338 194.628 128.562C196.96 137.003 199.071 144.644 200.602 150.195C201.353 152.937 201.956 155.191 202.384 156.777C202.582 157.539 202.741 158.142 202.851 158.57C202.9 158.762 202.938 158.916 202.966 159.036C202.966 159.084 202.96 159.132 202.949 159.179Z" fill="#263238"/>
<path d="M180.609 37.7144C180.654 37.3245 180.654 36.9306 180.609 36.5406C180.442 35.477 179.906 34.506 179.095 33.7982C177.875 32.7668 176.301 32.2497 174.707 32.3556C172.914 32.3556 171.005 32.959 169.03 33.6226C168.043 33.9463 167.061 34.2589 166.096 34.4728C165.164 34.6787 164.214 34.7945 163.26 34.8184C161.643 34.8605 160.029 34.6495 158.477 34.1931C157.437 33.8798 156.435 33.4531 155.488 32.9206C155.229 32.7814 154.978 32.6276 154.736 32.4598C154.647 32.4079 154.564 32.3453 154.49 32.2733C154.49 32.2733 154.862 32.4818 155.543 32.8218C156.499 33.3104 157.503 33.7018 158.537 33.9901C160.071 34.4125 161.66 34.5975 163.249 34.5386C164.187 34.5072 165.119 34.3897 166.035 34.1876C166.984 33.9737 167.95 33.6391 168.942 33.3374C170.912 32.6737 172.859 32.0759 174.702 32.0759C176.35 31.9855 177.969 32.5447 179.21 33.6336C180.037 34.3745 180.567 35.3897 180.702 36.4913C180.767 36.9007 180.735 37.3196 180.609 37.7144Z" fill="#455A64"/>
<path d="M188.156 54.1097C188.156 54.1097 188.101 54.0438 188.025 53.9067C187.948 53.7696 187.849 53.5612 187.723 53.2869C187.385 52.5126 187.128 51.7057 186.955 50.879C186.692 49.647 186.607 48.3835 186.703 47.1273C186.886 45.6061 187.176 44.0995 187.569 42.6186C187.951 41.1586 187.951 39.6249 187.569 38.1648C187.387 37.5393 187.071 36.9609 186.642 36.47C186.26 36.0561 185.782 35.7433 185.249 35.5595C184.473 35.265 183.613 35.2867 182.852 35.6198C182.588 35.7668 182.34 35.9415 182.112 36.1409C182.285 35.8781 182.523 35.6645 182.803 35.5211C183.19 35.3287 183.612 35.216 184.043 35.1896C184.475 35.1632 184.907 35.2237 185.315 35.3675C185.887 35.5518 186.403 35.8761 186.818 36.3109C187.276 36.8222 187.619 37.4265 187.822 38.0826C188.22 39.5888 188.22 41.1728 187.822 42.679C187.431 44.1483 187.136 45.6416 186.939 47.1492C186.835 48.3807 186.898 49.6205 187.125 50.8351C187.28 51.6558 187.505 52.4615 187.8 53.243C188.036 53.797 188.178 54.0987 188.156 54.1097Z" fill="#455A64"/>
<path d="M181.541 36.9305C181.529 36.801 181.529 36.6706 181.541 36.5411C181.541 36.2613 181.541 35.8938 181.585 35.4441C181.646 34.085 181.494 32.7248 181.135 31.4126C180.866 30.5212 180.427 29.6904 179.841 28.9663C179.178 28.133 178.268 27.5318 177.241 27.2495C176.092 26.983 174.892 27.0323 173.769 27.3921C172.553 27.7758 171.387 28.3043 170.297 28.9663C169.191 29.6337 168.04 30.2239 166.853 30.7325C165.72 31.1746 164.519 31.4159 163.304 31.4455C162.208 31.4733 161.114 31.3402 160.057 31.0506C159.141 30.7846 158.258 30.4167 157.424 29.9536C156.222 29.2745 155.162 28.3693 154.303 27.2879C154.067 26.9983 153.854 26.6902 153.667 26.3664C153.593 26.2597 153.531 26.1457 153.48 26.0264C153.57 26.1198 153.649 26.2228 153.716 26.3335C153.918 26.6431 154.142 26.9382 154.385 27.2166C155.265 28.2518 156.327 29.1179 157.517 29.7726C158.343 30.2132 159.215 30.5609 160.117 30.8093C161.155 31.0815 162.226 31.2034 163.298 31.1713C164.48 31.1357 165.648 30.8963 166.748 30.4637C167.922 29.9543 169.06 29.3661 170.155 28.703C171.266 28.0336 172.454 27.4996 173.692 27.1124C174.863 26.7444 176.112 26.6989 177.307 26.9808C178.384 27.283 179.336 27.9232 180.022 28.8073C180.622 29.5581 181.066 30.4216 181.327 31.3468C181.68 32.6784 181.804 34.06 181.695 35.4331C181.667 35.9213 181.629 36.2942 181.596 36.5301C181.595 36.6653 181.576 36.7999 181.541 36.9305Z" fill="#455A64"/>
<path d="M167.056 174.082L208.089 167.966L207.43 164.313H229.48L230.122 169.93C230.592 172.371 230.52 174.886 229.911 177.296C229.302 179.706 228.171 181.953 226.597 183.878C225.024 185.802 223.047 187.358 220.806 188.433C218.564 189.509 216.114 190.08 213.629 190.104L165.789 189.555L167.056 174.082Z" fill="#B78876"/>
<path d="M170.017 174.79C169.798 174.861 167.034 173.621 164.56 172.475C161.933 171.254 159.05 170.69 156.157 170.829L144.754 171.411C144.754 171.411 145.456 173.292 146.668 173.961C147.88 174.631 154.967 174.773 154.967 174.773L154.599 175.146C153.107 176.685 151.071 177.577 148.928 177.631L147.831 177.658C147.022 177.594 146.223 177.438 145.45 177.192L142.636 176.057C141.786 175.673 140.887 175.733 140.514 176.605C140.179 177.379 140.426 178.448 142.752 179.616C144.046 180.269 148.862 181.937 148.862 181.937C148.893 182.62 148.987 183.299 149.142 183.966C149.35 184.668 151.242 185.365 151.242 185.365C151.733 186.407 152.294 187.415 152.921 188.381C153.14 188.628 154.857 189.16 156.678 189.676C159.619 190.503 162.735 190.478 165.662 189.605L170.012 188.31V175.075" fill="#B78876"/>
<path d="M154.413 183.434C152.403 183.381 150.434 182.863 148.659 181.92C148.692 181.843 149.937 182.326 151.522 182.737C153.107 183.149 154.424 183.352 154.413 183.434Z" fill="#AA6550"/>
<path d="M154.012 186.106C153.478 186.221 152.922 186.181 152.411 185.99C151.872 185.893 151.372 185.646 150.968 185.277C151.484 185.387 151.992 185.534 152.487 185.716C153.004 185.809 153.514 185.94 154.012 186.106Z" fill="#AA6550"/>
<path d="M218.911 177.532C218.856 177.532 218.587 176.737 217.929 175.536C217.543 174.833 217.103 174.162 216.612 173.528C216.012 172.754 215.346 172.033 214.621 171.373C213.886 170.724 213.097 170.139 212.263 169.623C211.58 169.204 210.867 168.837 210.129 168.526C208.862 168.005 208.023 167.819 208.039 167.764C208.243 167.78 208.443 167.821 208.637 167.884C208.868 167.93 209.095 167.99 209.317 168.065C209.581 168.148 209.866 168.23 210.206 168.362C210.966 168.648 211.7 169.001 212.4 169.415C213.257 169.926 214.064 170.516 214.813 171.175C215.548 171.846 216.221 172.58 216.826 173.369C217.311 174.022 217.739 174.716 218.104 175.443C218.274 175.744 218.384 176.04 218.499 176.293C218.596 176.507 218.678 176.726 218.746 176.951C218.825 177.137 218.88 177.332 218.911 177.532Z" fill="#AA6550"/>
<path d="M156.097 173.764C155.845 174.112 155.55 174.427 155.219 174.702C154.461 175.417 153.628 176.048 152.734 176.583C151.829 177.11 150.846 177.489 149.822 177.707C149.404 177.821 148.971 177.867 148.538 177.844C148.511 177.74 150.513 177.559 152.586 176.336C153.465 175.809 154.3 175.211 155.082 174.548C155.394 174.254 155.734 173.992 156.097 173.764Z" fill="#AA6550"/>
<path d="M38.0984 160.754C39.0747 160.754 30.6279 183.451 28.4503 189.248C28.209 189.89 28.0444 190.455 28.0444 190.455L87.1834 190.554L86.4868 135.523C86.4893 135.486 86.4893 135.45 86.4868 135.413L81.5503 96.053C81.526 95.8622 81.4459 95.6829 81.32 95.5375C81.1941 95.3921 81.0281 95.2871 80.8428 95.2357C78.5007 94.605 70.0593 92.4274 63.6035 92.1861C56.0397 91.9063 45.0917 93.4092 45.0917 93.4092C45.0917 93.4092 35.2572 94.3856 29.827 96.3602C29.6171 96.4351 29.4396 96.5804 29.3246 96.7714C29.2097 96.9623 29.1643 97.1872 29.1963 97.4078L38.0984 160.754Z" fill="#F8993A"/>
<path d="M65.408 136.345C65.3326 136.594 65.2335 136.834 65.1118 137.064C64.991 137.342 64.8518 137.611 64.695 137.87C64.5053 138.223 64.2966 138.566 64.0697 138.896C63.8035 139.305 63.5141 139.699 63.203 140.075C62.8611 140.514 62.4948 140.933 62.106 141.331C61.2025 142.241 60.2103 143.059 59.1442 143.772C58.0625 144.463 56.9163 145.047 55.7215 145.516C55.173 145.708 54.6245 145.906 54.1254 146.032C53.6565 146.165 53.1803 146.271 52.6993 146.35C52.3058 146.426 51.9085 146.481 51.5091 146.514C51.2074 146.556 50.9031 146.576 50.5986 146.575C50.3416 146.603 50.0822 146.603 49.8252 146.575C49.8252 146.514 50.9222 146.52 52.6609 146.169C53.1328 146.076 53.5997 145.959 54.0596 145.818C54.5642 145.686 55.0798 145.483 55.6228 145.269C56.7953 144.796 57.921 144.214 58.9851 143.531C60.0367 142.83 61.0193 142.031 61.9196 141.145C62.32 140.722 62.7149 140.333 63.0165 139.921C63.3315 139.558 63.6263 139.177 63.8996 138.781C64.9308 137.338 65.3531 136.318 65.408 136.345Z" fill="#263238"/>
<g opacity="0.2">
<path opacity="0.2" d="M30.052 184.942C32.8234 186.078 35.8411 186.479 38.8131 186.108C41.7852 185.736 44.6109 184.603 47.017 182.819C49.1507 181.273 50.9388 179.249 53.2425 177.96C56.4347 176.183 60.2358 176.013 63.8833 175.766C68.7594 175.415 73.6795 174.817 78.2649 173.116C79.2216 172.837 80.0892 172.313 80.7825 171.597C81.4133 170.835 81.6272 169.634 81.0074 168.855C80.3876 168.076 79.2083 168.021 78.1936 168.054C62.9015 168.504 48.9258 169.727 34.0396 173.265" fill="black"/>
</g>
<path d="M46.5342 35.5644C51.2622 30.7486 58.7218 27.8855 64.8979 30.628C69.0555 32.449 71.8748 36.3488 75.5223 39.0419C78.177 41.0055 81.457 42.5249 82.8502 45.5197C84.0788 48.1579 83.4864 51.235 83.1902 54.1311C82.8941 57.0271 83.1025 60.3675 85.3458 62.2269C86.5196 63.1977 88.0883 63.5872 89.3992 64.3441C92.0704 65.8744 93.6556 68.8527 94.226 71.875C94.7965 74.8972 94.4893 78.0126 94.1821 81.0787L81.4515 83.5031L79.3617 79.9872L78.6432 85.4996L62.3967 86.9641L46.5342 35.5644Z" fill="#263238"/>
<path d="M44.4334 40.8187V44.3565L43.4297 97.4565C43.3419 103.611 49.2328 108.849 55.8257 108.893C62.479 108.937 65.194 103.956 65.386 97.7198C65.5835 91.1982 65.9345 84.331 65.9345 84.331C65.9345 84.331 74.3759 83.1682 76.4218 72.264C77.4365 66.8339 77.4091 57.8879 77.1513 50.5655C77.0968 49.003 76.7267 47.4677 76.0633 46.052C75.3999 44.6363 74.457 43.3695 73.2912 42.3277C72.1255 41.2859 70.761 40.4908 69.2799 39.9902C67.7988 39.4895 66.2317 39.2937 64.673 39.4145L44.4334 40.8187Z" fill="#FFBE9D"/>
<path d="M74.2114 57.6029C74.2056 57.969 74.0565 58.3184 73.796 58.5758C73.5355 58.8332 73.1844 58.9782 72.8182 58.9796C72.639 58.9892 72.4597 58.9628 72.2909 58.9019C72.1221 58.8411 71.9671 58.7471 71.8352 58.6254C71.7033 58.5037 71.5971 58.3569 71.5229 58.1935C71.4487 58.0301 71.4079 57.8535 71.4031 57.6742C71.4102 57.3079 71.5596 56.9588 71.8196 56.7008C72.0797 56.4428 72.43 56.2962 72.7963 56.292C72.9759 56.2824 73.1556 56.3089 73.3248 56.3701C73.494 56.4313 73.6492 56.5258 73.7811 56.648C73.9131 56.7703 74.0192 56.9178 74.0931 57.0818C74.167 57.2458 74.2072 57.423 74.2114 57.6029Z" fill="#263238"/>
<path d="M75.0395 55.1462C74.8585 55.3272 73.8164 54.5044 72.297 54.4715C70.7777 54.4386 69.6533 55.1571 69.4942 54.9652C69.4174 54.8829 69.6039 54.5593 70.0975 54.2192C70.7632 53.7804 71.5498 53.5617 72.3464 53.5939C73.1413 53.6069 73.9108 53.8763 74.5404 54.3618C74.9792 54.7293 75.1273 55.0639 75.0395 55.1462Z" fill="#263238"/>
<path d="M59.3032 57.6029C59.2961 57.9686 59.1465 58.3171 58.8863 58.5742C58.6261 58.8314 58.2758 58.9768 57.91 58.9796C57.7308 58.9892 57.5515 58.9628 57.3827 58.9019C57.2139 58.8411 57.0589 58.7471 56.927 58.6254C56.7951 58.5037 56.6889 58.3569 56.6147 58.1935C56.5405 58.0301 56.4997 57.8535 56.4949 57.6742C56.502 57.3079 56.6514 56.9588 56.9114 56.7008C57.1715 56.4428 57.5218 56.2962 57.8881 56.292C58.0677 56.2824 58.2474 56.3089 58.4166 56.3701C58.5858 56.4313 58.741 56.5258 58.8729 56.648C59.0049 56.7703 59.111 56.9178 59.1849 57.0818C59.2588 57.2458 59.299 57.423 59.3032 57.6029Z" fill="#263238"/>
<path d="M60.1535 55.0191C59.9725 55.1947 58.9304 54.3774 57.411 54.339C55.8917 54.3006 54.7673 55.0301 54.6082 54.8381C54.5314 54.7559 54.7179 54.4268 55.2116 54.0922C55.8775 53.6535 56.6635 53.433 57.4604 53.4614C58.2551 53.476 59.0241 53.7451 59.6544 54.2293C60.0932 54.6023 60.2413 54.9369 60.1535 55.0191Z" fill="#263238"/>
<path d="M65.3367 66.4119C65.3367 66.3241 66.2801 66.187 67.8049 66.0334C68.1944 66.006 68.5619 65.9402 68.6332 65.6769C68.6781 65.279 68.5996 64.8768 68.4083 64.525C68.0737 63.5761 67.7172 62.5888 67.3442 61.5467C65.8742 57.3178 64.8211 53.8677 64.9912 53.78C65.1612 53.6922 66.494 57.1093 67.964 61.3437C68.3205 62.3859 68.6606 63.3787 68.9787 64.3331C69.212 64.8041 69.2685 65.3432 69.1378 65.8524C69.0782 65.9877 68.9884 66.1075 68.8753 66.2026C68.7621 66.2977 68.6286 66.3655 68.4851 66.4009C68.2699 66.4543 68.0485 66.4783 67.8269 66.4722C66.2911 66.4996 65.3422 66.4777 65.3367 66.4119Z" fill="#263238"/>
<path d="M65.8906 84.331C60.7243 84.2687 55.677 82.7723 51.3115 80.0088C51.3115 80.0088 54.6628 87.6384 65.6712 86.9144L65.8906 84.331Z" fill="#EB996E"/>
<path d="M64.5962 70.0207C64.3189 69.648 63.9515 69.3518 63.5284 69.1599C63.1053 68.968 62.6404 68.8868 62.1773 68.9237C61.8425 68.9453 61.5155 69.0341 61.2158 69.1849C60.9161 69.3357 60.6499 69.5453 60.4331 69.8013C60.2249 70.0482 60.097 70.3528 60.0666 70.6743C60.0362 70.9958 60.1048 71.3189 60.2631 71.6004C60.5009 71.877 60.8156 72.0768 61.1671 72.1744C61.5186 72.2721 61.8912 72.2632 62.2376 72.1489C62.9573 71.9146 63.6244 71.5419 64.2013 71.0519C64.3765 70.936 64.5275 70.7869 64.6455 70.6131C64.6991 70.5317 64.7276 70.4363 64.7276 70.3389C64.7276 70.2414 64.6991 70.1461 64.6455 70.0646" fill="#EB996E"/>
<path d="M60.8555 67.3166C61.1024 67.3166 61.0585 68.9621 62.4297 70.1578C63.801 71.3536 65.5616 71.2274 65.5671 71.4578C65.5671 71.562 65.1667 71.7704 64.4262 71.7649C63.464 71.7546 62.5368 71.4028 61.8099 70.7722C61.1104 70.1691 60.6736 69.3171 60.5922 68.3972C60.5429 67.7061 60.7403 67.3057 60.8555 67.3166Z" fill="#263238"/>
<path d="M60.6361 50.6151C60.4716 51.021 58.9906 50.7851 57.1861 50.9497C55.3815 51.1142 53.9554 51.5585 53.7305 51.1855C53.6318 51.0045 53.8896 50.637 54.482 50.2421C55.2686 49.776 56.1509 49.4948 57.0621 49.4198C57.9734 49.3447 58.8898 49.4777 59.7421 49.8088C60.3838 50.0885 60.7019 50.4231 60.6361 50.6151Z" fill="#263238"/>
<path d="M75.0945 52.0907C74.7599 52.4253 73.5039 52.0304 71.9736 51.97C70.4432 51.9097 69.1543 52.1236 68.8636 51.7561C68.7374 51.5806 68.9513 51.2405 69.5273 50.9334C70.319 50.5466 71.1989 50.3763 72.0778 50.4397C72.9531 50.4686 73.805 50.7298 74.546 51.1966C75.0726 51.5641 75.2426 51.9261 75.0945 52.0907Z" fill="#263238"/>
<path d="M33.118 95.3564C33.118 95.3564 15.4783 99.4921 12.0557 116.199C10.4815 123.878 8.28203 168.016 18.5609 174.889C31.829 183.741 48.7282 175.689 48.7282 175.689L46.5342 154.342H35.5643L34.0888 130.954C34.5166 132.78 33.118 95.3564 33.118 95.3564Z" fill="#F8993A"/>
<path d="M95.8662 168.822C99.3262 168.467 102.52 166.804 104.795 164.173C107.069 161.541 108.253 158.141 108.103 154.666L100.896 124.043C100.896 124.043 96.2227 97.7699 81.4517 95.4004L86.4869 135.441L86.0042 143.882C86.0042 143.882 86.2346 149.466 86.7995 159.931L95.8662 168.822Z" fill="#F8993A"/>
<path d="M97.7749 149.663C96.8841 149.696 95.9969 149.793 95.1202 149.954C93.0036 150.384 91.0644 151.438 89.5529 152.981C88.0414 154.524 87.0269 156.484 86.6404 158.609C86.497 159.491 86.4182 160.382 86.4045 161.275C86.3469 161.038 86.3192 160.795 86.3223 160.551C86.2929 159.888 86.3333 159.225 86.4429 158.571C86.7936 156.388 87.8156 154.369 89.3668 152.795C90.918 151.22 92.9213 150.167 95.0982 149.784C95.7512 149.664 96.4145 149.609 97.0783 149.619C97.3114 149.605 97.5454 149.62 97.7749 149.663Z" fill="#263238"/>
<path d="M52.266 34.3418C54.2515 37.0075 55.195 39.0534 56.3852 43.7979C56.9721 46.118 55.0798 47.758 53.2039 49.1786C53.0022 49.3319 52.7652 49.4319 52.5147 49.4694C52.2642 49.5069 52.0083 49.4808 51.7706 49.3933C51.5328 49.3059 51.3209 49.16 51.1545 48.9691C50.988 48.7782 50.8722 48.5484 50.8179 48.301C50.8179 48.301 51.4652 55.5686 48.8379 58.8267C47.6092 60.357 47.5544 62.3151 47.8451 63.9661C48.1748 65.6453 48.9912 67.1904 50.1927 68.4089C53.2423 71.6122 54.087 76.8393 51.9862 80.7666C51.3776 81.7317 50.8193 82.7277 50.3133 83.7504C50.0575 84.3607 49.9395 85.02 49.9678 85.6811C50 86.0691 49.8837 86.4548 49.6424 86.7602C49.401 87.0657 49.0527 87.2682 48.6678 87.3266C39.6415 88.6321 30.4959 88.9063 21.4075 88.1439C21.095 88.1187 20.7983 87.9962 20.5592 87.7935C20.3201 87.5908 20.1506 87.3181 20.0747 87.014C19.3616 83.9643 20.5519 80.6733 22.0712 77.9308C23.7715 74.8318 25.9107 71.859 26.5195 68.376C27.068 65.085 26.174 61.5637 27.4904 58.5031C29.1358 54.7568 33.5238 52.9852 35.7178 49.5461C37.7966 46.3045 37.6266 42.0536 39.486 38.6859C41.8774 34.3527 47.7518 32.3562 52.2824 34.3363" fill="#263238"/>
<path d="M52.7707 38.3618C56.2208 40.1389 57.8169 44.3568 61.1682 46.3095C64.2179 48.0866 68.0244 47.6204 71.5184 47.0938C71.3922 46.3205 71.2606 45.5416 71.1289 44.7682C71.4433 45.4683 71.8819 46.1057 72.4234 46.6496C72.6984 46.9179 73.0411 47.1066 73.4149 47.1955C73.7888 47.2843 74.1797 47.2701 74.5461 47.1542C75.7198 46.6825 75.8734 45.0699 75.5772 43.8632C75.0409 41.8992 73.9878 40.115 72.5276 38.6963C69.9187 36.0485 66.4437 34.4283 62.7383 34.1322C59.0329 33.8361 55.3447 34.8838 52.3484 37.0838" fill="#263238"/>
<path d="M85.1155 116.44C85.1408 116.583 85.1518 116.729 85.1484 116.874C85.1484 117.181 85.1484 117.592 85.1868 118.108C85.1868 119.205 85.2636 120.735 85.3459 122.649C85.505 126.489 85.8615 131.776 86.2948 137.618C86.7281 143.459 87.0517 148.758 87.1559 152.597C87.2108 154.517 87.2382 156.069 87.2218 157.144C87.2218 157.66 87.2218 158.071 87.2218 158.379C87.2348 158.523 87.2348 158.668 87.2218 158.812C87.1965 158.669 87.1855 158.524 87.1889 158.379C87.1889 158.071 87.1889 157.66 87.1505 157.144C87.1505 156.047 87.0737 154.523 86.9914 152.603C86.8378 148.763 86.4758 143.481 86.048 137.634C85.6202 131.787 85.2856 126.5 85.1814 122.66C85.1265 120.741 85.1046 119.183 85.1155 118.108C85.1155 117.592 85.1155 117.181 85.1155 116.874C85.106 116.729 85.106 116.585 85.1155 116.44Z" fill="#263238"/>
<path d="M35.5807 154.347C35.5557 154.246 35.5429 154.143 35.5423 154.039C35.5423 153.804 35.5094 153.491 35.482 153.156C35.4381 152.35 35.3778 151.259 35.3065 149.92C35.1474 147.178 34.9061 143.41 34.6209 139.235C34.3356 135.061 34.0724 131.326 33.8804 128.556C33.7926 127.223 33.7213 126.126 33.6665 125.32C33.6665 124.964 33.6336 124.673 33.6226 124.443C33.6095 124.339 33.6095 124.234 33.6226 124.13C33.6494 124.23 33.6659 124.333 33.672 124.437C33.672 124.667 33.7323 124.958 33.7707 125.315C33.8475 126.115 33.9517 127.207 34.0779 128.545C34.3192 131.288 34.6264 135.045 34.9006 139.219C35.1748 143.393 35.3942 147.172 35.4985 149.909C35.5478 151.281 35.5862 152.388 35.5917 153.151V154.034C35.6022 154.138 35.5985 154.243 35.5807 154.347Z" fill="#263238"/>
<path d="M35.5808 154.347C35.5808 154.396 35.0323 154.424 34.1437 154.714C33.0194 155.087 32.0205 155.764 31.2583 156.67C30.4961 157.577 30.0006 158.677 29.827 159.848C29.6899 160.748 29.7612 161.318 29.7118 161.324C29.6625 161.329 29.657 161.187 29.6241 160.929C29.5833 160.564 29.5833 160.196 29.6241 159.832C29.7524 158.602 30.2452 157.439 31.0392 156.492C31.8424 155.554 32.9025 154.871 34.0888 154.528C34.447 154.428 34.8147 154.365 35.1858 154.341C35.4381 154.314 35.5808 154.325 35.5808 154.347Z" fill="#263238"/>
<path d="M48.7008 175.694C48.6661 175.584 48.644 175.47 48.6349 175.354C48.602 175.102 48.5636 174.778 48.5088 174.378C48.4101 173.495 48.2729 172.283 48.1029 170.791C47.7793 167.73 47.3405 163.556 46.8578 158.949C46.6988 157.347 46.5397 155.795 46.3971 154.358L46.5342 154.484L37.7582 154.429L35.2077 154.391H34.5276C34.4493 154.4 34.3701 154.4 34.2917 154.391C34.3686 154.37 34.4481 154.361 34.5276 154.363H35.2077L37.7582 154.325L46.5342 154.275H46.6549V154.402L47.1266 158.987C47.5763 163.6 47.9822 167.763 48.2839 170.845C48.4155 172.337 48.5252 173.555 48.602 174.438C48.6349 174.839 48.6569 175.168 48.6788 175.42C48.6938 175.511 48.7011 175.602 48.7008 175.694Z" fill="#263238"/>
<path d="M48.7008 175.695C48.5651 175.753 48.4259 175.802 48.284 175.843L47.0828 176.227C46.0351 176.556 44.5158 177.017 42.618 177.521C40.3966 178.128 38.1398 178.597 35.8605 178.925C33.0512 179.305 30.1962 179.17 27.4356 178.525C26.005 178.216 24.5946 177.821 23.2122 177.34C22.5485 177.099 21.8958 176.858 21.265 176.594C20.9523 176.463 20.6397 176.337 20.3435 176.177L19.8937 175.953L19.4714 175.684C18.4402 174.986 17.5444 174.107 16.8277 173.089C16.1971 172.214 15.6464 171.283 15.1822 170.309C14.5304 168.9 13.9805 167.446 13.5367 165.959C13.3721 165.41 13.2514 165.027 13.1801 164.747C13.1354 164.605 13.1006 164.46 13.0759 164.313C13.1415 164.447 13.1948 164.587 13.235 164.73L13.6409 165.926C14.1275 167.391 14.7064 168.824 15.3741 170.215C15.8418 171.176 16.3924 172.093 17.0196 172.958C17.7275 173.945 18.6084 174.796 19.6195 175.47L20.0254 175.728L20.4587 175.947C20.7439 176.101 21.0566 176.221 21.3692 176.353C21.9945 176.611 22.6417 176.852 23.3054 177.082C24.6771 177.558 26.0765 177.95 27.4959 178.256C30.2256 178.894 33.0474 179.037 35.8276 178.679C38.0984 178.362 40.3492 177.915 42.5686 177.34C44.4664 176.858 45.9912 176.424 47.0498 176.134L48.2675 175.799C48.408 175.75 48.5532 175.715 48.7008 175.695Z" fill="#263238"/>
<path d="M39.3929 47.3351C39.9197 46.0406 40.0483 44.6182 39.762 43.2502C39.4757 41.8822 38.7875 40.6308 37.7858 39.6562C36.7561 38.7151 35.4952 38.0639 34.1318 37.769C32.7683 37.4742 31.3511 37.5462 30.0245 37.9778C28.8162 38.3415 27.7543 39.0789 26.9913 40.084C25.6475 41.9379 25.8943 44.6694 27.2985 46.4959C28.0331 47.3799 28.9479 48.0969 29.9817 48.5992C31.0155 49.1014 32.1446 49.3773 33.2936 49.4084C35.5959 49.4544 37.8791 48.982 39.9743 48.0262" fill="#263238"/>
<path d="M57.6304 134.327C61.4699 137.492 70.4982 144.984 70.4982 144.984L75.5498 144.085L60.2358 131.201C59.8389 130.869 59.3305 130.7 58.8139 130.73C58.2973 130.759 57.8113 130.985 57.4549 131.36C57.2614 131.561 57.1117 131.8 57.0151 132.062C56.9185 132.324 56.8772 132.603 56.8937 132.882C56.9102 133.161 56.9841 133.433 57.1109 133.682C57.2377 133.93 57.4146 134.15 57.6304 134.327Z" fill="#455A64"/>
<path d="M57.2518 132.682L55.2662 130.888C55.0795 130.719 54.9655 130.484 54.9481 130.232C54.9307 129.981 55.0113 129.732 55.173 129.539C55.2579 129.44 55.362 129.358 55.4789 129.3C55.5959 129.242 55.7233 129.207 55.8538 129.199C55.9842 129.191 56.1149 129.209 56.2383 129.252C56.3616 129.296 56.4749 129.363 56.5717 129.451L58.4859 131.206L57.2518 132.682Z" fill="#455A64"/>
<path d="M63.1426 133.646C62.8064 134.206 62.3907 134.714 61.9085 135.155C61.4931 135.658 61.0094 136.102 60.4714 136.471C60.8083 135.91 61.2239 135.4 61.7056 134.957C62.1182 134.453 62.6024 134.011 63.1426 133.646Z" fill="#263238"/>
<path d="M63.2853 139.954C62.7449 139.671 62.2326 139.336 61.755 138.956C60.8445 138.298 59.6103 137.344 58.3104 136.214C57.6447 135.718 57.0945 135.083 56.6978 134.354C56.4171 133.716 56.3993 132.993 56.6484 132.341C56.8149 131.909 57.0954 131.53 57.4602 131.244C57.718 131.052 57.8881 130.992 57.8935 131.008C57.899 131.025 57.7564 131.118 57.5315 131.332C57.2128 131.634 56.9751 132.011 56.8404 132.429C56.637 133.032 56.6723 133.689 56.9392 134.267C57.335 134.951 57.8671 135.546 58.5024 136.016C59.7913 137.141 60.998 138.117 61.8811 138.814C62.3724 139.164 62.8414 139.545 63.2853 139.954Z" fill="#263238"/>
<path d="M46.7043 156.053C50.3464 154.835 54.2078 155.658 57.8443 154.435C59.0929 154.106 60.2625 153.53 61.2834 152.74C62.4407 151.714 63.0276 150.206 63.9491 148.966C66.6916 145.258 71.842 144.49 76.4384 144.03C77.5042 143.858 78.5918 143.873 79.6526 144.073C80.1828 144.18 80.6765 144.422 81.0859 144.776C81.4952 145.13 81.8063 145.583 81.9892 146.092C82.2854 147.129 81.6162 148.423 80.5412 148.533C81.5504 148.577 82.2525 149.597 82.4389 150.59C82.6254 151.582 82.4389 152.603 82.5925 153.601C82.779 155.005 83.5469 156.316 83.503 157.731C83.4427 159.667 81.8575 161.263 80.0475 162.009C78.2375 162.755 76.2793 162.854 74.3651 163.106C64.9309 164.434 57.8005 169.782 48.7009 173.824" fill="#FFBE9D"/>
<path d="M82.5267 151.879C82.6194 152.03 82.7422 152.161 82.8875 152.263C83.0329 152.365 83.1976 152.435 83.3714 152.471C83.5453 152.506 83.7246 152.506 83.8982 152.469C84.0718 152.432 84.236 152.36 84.3806 152.258C84.6622 152.033 84.8774 151.737 85.003 151.399C85.1286 151.062 85.16 150.697 85.0936 150.343C84.9501 149.636 84.6377 148.973 84.1831 148.413C83.3818 147.375 82.5016 146.402 81.5503 145.5L78.6433 147.946L82.5267 151.879Z" fill="#FFBE9D"/>
<path d="M81.4516 148.686C81.4516 148.779 79.6635 148.631 77.5079 148.966C75.3523 149.301 73.6685 149.948 73.6685 149.865C73.9967 149.649 74.3553 149.483 74.7325 149.372C75.623 149.056 76.5412 148.825 77.475 148.681C78.4095 148.539 79.3556 148.489 80.2998 148.533C80.6891 148.528 81.0771 148.58 81.4516 148.686Z" fill="#EB996E"/>
<path d="M82.7351 154.402C82.7351 154.49 81.2377 154.183 79.3893 154.238C77.5409 154.292 76.0709 154.654 76.0544 154.567C78.2074 153.804 80.5473 153.746 82.7351 154.402Z" fill="#EB996E"/>
<path d="M82.4279 152.712C82.3786 152.712 82.4279 152.284 82.3457 151.615C82.2402 150.747 81.9382 149.914 81.4626 149.18C81.3485 149.002 81.2239 148.832 81.0896 148.67L81.0073 148.565L81.0951 148.478C81.3453 148.224 81.5418 147.922 81.6728 147.59C81.8038 147.258 81.8666 146.903 81.8575 146.547C81.8575 145.998 81.693 145.691 81.7313 145.675C81.9273 145.919 82.0355 146.223 82.0385 146.536C82.0805 146.926 82.0354 147.321 81.9064 147.692C81.7774 148.063 81.5677 148.4 81.2925 148.681V148.489C81.4365 148.664 81.5702 148.847 81.6929 149.037C82.1939 149.808 82.4851 150.697 82.5376 151.615C82.5811 151.984 82.5437 152.359 82.4279 152.712Z" fill="#EB996E"/>
<path d="M82.5321 151.566L87.315 156.053L87.9239 158.719L83.503 157.721C82.8667 155.472 82.4005 153.327 82.5321 151.566Z" fill="#455A64"/>
<path d="M76.0545 157.281C75.9557 157.457 50.2312 170.138 50.2312 170.138V172.881L76.4823 159.223L109.047 158.011V156.08L76.0545 157.281Z" fill="#F5F5F5"/>
<path d="M50.2312 173.26C50.4122 173.139 78.6324 170.594 78.6324 170.594L109.047 157.979L76.4823 159.207L50.2312 172.865V173.26Z" fill="#263238"/>
<path d="M77.25 166.507C77.0251 165.026 78.4402 163.764 79.8828 163.364C81.3253 162.964 82.8666 163.128 84.3256 162.815C85.2514 162.561 86.1571 162.238 87.0352 161.85C91.5329 160.128 96.4693 160.035 101.296 159.969C101.577 160.623 101.62 161.354 101.42 162.036C101.22 162.719 100.788 163.311 100.199 163.71C100.598 164.889 100.545 166.175 100.051 167.319C99.5535 168.451 98.8735 169.494 98.038 170.407C97.4074 171.242 96.5953 171.923 95.663 172.398C94.6877 172.755 93.6511 172.916 92.6134 172.869C89.3773 172.935 85.9108 172.941 83.2396 171.125C81.1608 169.71 79.7237 167.286 77.3158 166.573H77.8643" fill="#FFBE9D"/>
<path d="M98.806 164.714C98.6045 164.759 98.3982 164.779 98.1917 164.774L96.5023 164.829C95.0762 164.862 93.1071 164.884 90.9351 164.895H87.8635C87.4039 164.901 86.9462 164.833 86.5087 164.692C86.118 164.554 85.7766 164.304 85.5269 163.973C85.4221 163.837 85.3458 163.68 85.3024 163.513C85.2591 163.347 85.2496 163.173 85.2746 163.002C85.3157 162.748 85.4345 162.512 85.6147 162.328C85.6819 162.249 85.7661 162.186 85.8611 162.144C85.9562 162.102 86.0594 162.083 86.1632 162.086C85.9756 162.152 85.8063 162.261 85.6695 162.405C85.4936 162.605 85.3966 162.862 85.3966 163.129C85.3966 163.395 85.4936 163.652 85.6695 163.853C85.9018 164.14 86.2124 164.353 86.5636 164.467C86.9801 164.589 87.4132 164.644 87.847 164.631H90.9131C93.1071 164.631 95.0543 164.631 96.4804 164.631L98.1698 164.664C98.3831 164.653 98.597 164.669 98.806 164.714Z" fill="#EB996E"/>
<path d="M97.1496 167.423C96.8966 167.495 96.6378 167.545 96.3762 167.571C95.8716 167.654 95.1421 167.758 94.237 167.846C93.1709 167.952 92.0981 167.976 91.0283 167.917C89.7216 167.81 88.4262 167.594 87.1559 167.27C84.8628 166.71 82.512 166.421 80.1516 166.408C79.2466 166.408 78.5061 166.441 78.007 166.469C77.7424 166.492 77.4763 166.492 77.2117 166.469C77.4682 166.399 77.7309 166.355 77.996 166.337C78.7096 166.249 79.4273 166.198 80.1461 166.184C82.527 166.134 84.9041 166.398 87.2163 166.968C88.477 167.289 89.7606 167.513 91.0558 167.637C92.1131 167.709 93.1742 167.709 94.2315 167.637C95.1366 167.577 95.877 167.5 96.3707 167.456C96.6286 167.419 96.8895 167.408 97.1496 167.423Z" fill="#EB996E"/>
<path d="M94.4673 170.32C94.2694 170.38 94.0651 170.417 93.8585 170.429C93.4691 170.484 92.8986 170.556 92.213 170.616C90.3705 170.809 88.5101 170.748 86.6842 170.435C84.5176 170.024 82.8447 168.916 81.5447 168.405C80.8436 168.121 80.1186 167.899 79.3782 167.742C79.5833 167.716 79.7913 167.728 79.9925 167.775C80.5562 167.859 81.1083 168.008 81.638 168.219C82.9818 168.696 84.6547 169.755 86.761 170.155C88.5723 170.461 90.4139 170.548 92.2459 170.413L93.8914 170.32C94.0828 170.298 94.276 170.298 94.4673 170.32Z" fill="#EB996E"/>
<g opacity="0.2">
<path opacity="0.2" d="M87.1724 155.592C87.3832 153.581 87.9243 151.619 88.774 149.784C89.6335 147.949 91.0894 146.46 92.9042 145.56C93.8158 145.124 94.8234 144.928 95.8319 144.99C96.8405 145.051 97.8168 145.368 98.6689 145.911C99.1834 146.243 99.585 146.723 99.8207 147.288C99.9358 147.57 99.9706 147.877 99.9212 148.178C99.8718 148.478 99.7402 148.758 99.541 148.988C98.9376 149.635 97.8955 149.537 97.0289 149.493C95.0062 149.437 93.0101 149.963 91.2768 151.007C89.5436 152.051 88.1458 153.57 87.2492 155.384" fill="black"/>
</g>
<g opacity="0.2">
<path opacity="0.2" d="M39.5409 153.925C41.7349 149.992 40.9451 145.061 39.2722 140.893C37.5993 136.724 35.1036 132.884 33.8256 128.573C33.5851 137.319 34.8562 146.04 37.5828 154.353" fill="black"/>
</g>
<path d="M43.4023 93.7705C43.4023 93.7705 46.0625 100.04 55.6612 99.6394C65.2599 99.239 65.5671 91.7959 65.5671 91.7959L71.99 98.6247L65.8907 111.191L57.6962 117.307L46.5342 112.721L37.3359 105.591L43.4023 93.7705Z" fill="#F8993A"/>
<g opacity="0.5">
<path opacity="0.5" d="M20.9249 120.571C21.0236 120.691 19.7731 121.865 18.1221 123.187C16.4711 124.509 15.0615 125.48 14.9627 125.353C14.864 125.227 16.1146 124.064 17.7601 122.743C19.4056 121.421 20.8262 120.444 20.9249 120.571Z" fill="#FAFAFA"/>
</g>
<path d="M25.4391 113.807C25.3897 113.95 23.8759 113.522 22.2359 112.507C20.5959 111.492 19.5263 110.346 19.6305 110.236C19.7347 110.127 20.9414 111.054 22.5321 112.025C24.1227 112.995 25.483 113.654 25.4391 113.807Z" fill="#FAFAFA"/>
<path d="M33.6664 114.542C33.798 114.641 32.5694 116.402 31.2036 118.64C29.8379 120.877 28.7793 122.742 28.6367 122.671C28.494 122.6 29.3113 120.603 30.7209 118.338C32.1306 116.073 33.5512 114.444 33.6664 114.542Z" fill="#FAFAFA"/>
<path d="M26.6238 133.603C26.5141 133.701 25.2471 132.407 24.1391 130.493C23.0311 128.578 22.5265 126.84 22.6691 126.79C22.8117 126.741 23.5412 128.342 24.6328 130.202C25.7243 132.061 26.75 133.493 26.6238 133.603Z" fill="#FAFAFA"/>
<path d="M19.2629 142.823C19.1093 142.823 18.7857 141.452 18.5498 139.708C18.314 137.964 18.2481 136.532 18.4017 136.51C18.5553 136.488 18.8789 137.887 19.1148 139.631C19.3506 141.375 19.4055 142.801 19.2629 142.823Z" fill="#FAFAFA"/>
<g opacity="0.5">
<path opacity="0.5" d="M26.1959 145.335C26.0588 145.259 26.7444 143.789 27.7701 142.044C28.7958 140.3 29.7008 138.967 29.8379 139.044C29.975 139.121 29.2894 140.596 28.2637 142.335C27.238 144.074 26.333 145.396 26.1959 145.335Z" fill="#FAFAFA"/>
</g>
<path d="M18.1441 154.885C18.0289 154.989 16.8057 153.788 15.6155 152.054C14.4253 150.321 13.7506 148.763 13.8822 148.681C14.0139 148.599 14.9189 150.03 16.0762 151.731C17.2336 153.431 18.2647 154.78 18.1441 154.885Z" fill="#FAFAFA"/>
<path d="M29.0864 153.31C29.1961 153.42 27.9346 154.874 26.2726 156.552C24.6107 158.23 23.1681 159.508 23.053 159.399C22.9378 159.289 24.1993 157.835 25.8667 156.152C27.5342 154.468 28.9712 153.201 29.0864 153.31Z" fill="#FAFAFA"/>
<g opacity="0.5">
<path opacity="0.5" d="M22.8665 173.018C22.7623 173.127 21.5447 172.118 20.4367 170.527C19.3287 168.937 18.7912 167.456 18.9228 167.396C19.0545 167.335 19.8279 168.668 20.9084 170.198C21.9889 171.729 22.9817 172.902 22.8665 173.018Z" fill="#FAFAFA"/>
</g>
<path d="M36.9849 169.03C37.0617 169.167 35.7124 170.083 33.9736 171.076C32.2349 172.069 30.7539 172.765 30.6826 172.628C30.6113 172.491 31.9552 171.575 33.6939 170.582C35.4326 169.589 36.9081 168.893 36.9849 169.03Z" fill="#FAFAFA"/>
<path d="M42.4864 164.489C42.3877 164.604 41.1097 163.628 39.9469 162.032C38.7841 160.436 38.241 158.922 38.3836 158.867C38.5263 158.812 39.2832 160.161 40.4076 161.697C41.532 163.233 42.6016 164.368 42.4864 164.489Z" fill="#FAFAFA"/>
<path d="M52.1892 132.901C52.288 133.027 50.8344 134.278 48.9476 135.687C47.0608 137.097 45.4592 138.139 45.3604 138.013C45.2617 137.887 46.7207 136.642 48.6075 135.232C50.4944 133.823 52.096 132.78 52.1892 132.901Z" fill="#FAFAFA"/>
<path d="M41.9653 132.232C41.8063 132.232 41.8337 130.712 42.0202 128.875C42.2067 127.038 42.4864 125.584 42.6455 125.584C42.8045 125.584 42.7771 127.103 42.5906 128.941C42.4041 130.778 42.1189 132.259 41.9653 132.232Z" fill="#FAFAFA"/>
<g opacity="0.5">
<path opacity="0.5" d="M51.3939 119.391C51.3061 119.517 49.6058 118.47 47.7409 116.874C45.876 115.278 44.5706 113.769 44.6803 113.665C44.79 113.561 46.2654 114.866 48.1138 116.44C49.9623 118.015 51.4871 119.26 51.3939 119.391Z" fill="#FAFAFA"/>
</g>
<path d="M44.3128 103.364C44.4335 103.468 43.2158 105.081 41.6362 106.968C40.0565 108.855 38.6414 110.297 38.5207 110.198C38.4 110.1 39.6177 108.482 41.1974 106.595C42.777 104.708 44.1922 103.265 44.3128 103.364Z" fill="#FAFAFA"/>
<g opacity="0.5">
<path opacity="0.5" d="M36.2005 101.648C36.1128 101.79 34.8896 101.16 33.2935 100.628C31.6974 100.095 30.3755 99.8377 30.3755 99.6732C30.3755 99.5086 31.8235 99.5196 33.491 100.085C35.1584 100.649 36.2828 101.516 36.2005 101.648Z" fill="#FAFAFA"/>
</g>
<path d="M56.8186 109.036C56.6705 108.992 56.9283 107.659 57.4 106.058C57.8717 104.456 58.3764 103.195 58.497 103.238C58.6177 103.282 58.3873 104.615 57.9485 106.217C57.5097 107.818 56.9722 109.085 56.8186 109.036Z" fill="#FAFAFA"/>
<path d="M61.7494 121.662C61.5904 121.662 61.5355 120.346 61.6288 118.744C61.722 117.143 61.9249 115.854 62.0785 115.859C62.2321 115.865 62.2924 117.176 62.1992 118.777C62.106 120.379 61.903 121.673 61.7494 121.662Z" fill="#FAFAFA"/>
<path d="M69.8673 131.134C69.7685 131.26 68.5673 130.459 67.1851 129.346C65.8029 128.233 64.7608 127.234 64.8595 127.114C64.9582 126.993 66.1594 127.788 67.5416 128.902C68.9239 130.015 69.9495 131.013 69.8673 131.134Z" fill="#FAFAFA"/>
<path d="M78.4841 117.91C78.5883 118.025 77.5188 119.144 76.0927 120.4C74.6666 121.656 73.427 122.594 73.3502 122.463C73.2734 122.331 74.3155 121.228 75.7416 119.972C77.1677 118.716 78.3799 117.789 78.4841 117.91Z" fill="#FAFAFA"/>
<g opacity="0.5">
<path opacity="0.5" d="M74.5184 111.663C74.4307 111.794 73.0759 111.048 71.6169 109.836C70.1579 108.624 69.1706 107.428 69.2803 107.324C69.39 107.22 70.5418 108.207 71.9789 109.392C73.416 110.577 74.6062 111.531 74.5184 111.663Z" fill="#FAFAFA"/>
</g>
<path d="M84.4903 100.528C84.6165 100.616 83.9418 101.751 82.779 102.848C81.6162 103.945 80.4369 104.549 80.3547 104.417C80.2724 104.285 81.2597 103.495 82.3841 102.437C83.5085 101.378 84.3587 100.418 84.4903 100.528Z" fill="#FAFAFA"/>
<g opacity="0.5">
<path opacity="0.5" d="M77.6341 99.486C77.6341 99.6395 75.8625 99.5134 73.7946 98.9814C71.7268 98.4493 70.1032 97.7363 70.1581 97.5882C70.2129 97.4401 71.8749 97.9118 73.9372 98.4274C75.9996 98.943 77.656 99.3214 77.6341 99.486Z" fill="#FAFAFA"/>
</g>
<g opacity="0.5">
<path opacity="0.5" d="M90.37 117.213C90.2219 117.181 90.562 115.019 91.3464 112.485C92.1307 109.951 93.0357 107.966 93.1783 108.021C93.3209 108.075 92.6627 110.121 91.8948 112.65C91.127 115.179 90.5291 117.246 90.37 117.213Z" fill="#FAFAFA"/>
</g>
<path d="M93.1949 129.314C93.0797 129.418 91.7249 128.173 90.1672 126.522C88.6095 124.871 87.4247 123.45 87.5618 123.341C87.699 123.231 89.0263 124.482 90.5841 126.133C92.1418 127.784 93.3101 129.204 93.1949 129.314Z" fill="#FAFAFA"/>
<g opacity="0.5">
<path opacity="0.5" d="M97.5663 136.165C97.4072 136.165 97.3085 134.365 97.3469 132.15C97.3853 129.934 97.5444 128.146 97.7034 128.146C97.8625 128.146 97.9558 129.945 97.9174 132.161C97.879 134.376 97.7199 136.17 97.5663 136.165Z" fill="#FAFAFA"/>
</g>
<path d="M93.1291 147.453C93.003 147.541 91.8292 146.103 90.7431 144.096C89.6571 142.088 89.0976 140.317 89.2348 140.256C89.3719 140.196 90.1727 141.847 91.2478 143.816C92.3228 145.785 93.2607 147.36 93.1291 147.453Z" fill="#FAFAFA"/>
<path d="M104.456 149.515C104.571 149.625 103.808 150.546 102.761 151.572C101.713 152.597 100.77 153.332 100.66 153.217C100.55 153.102 101.313 152.181 102.36 151.155C103.408 150.129 104.346 149.4 104.456 149.515Z" fill="#FAFAFA"/>
<g opacity="0.5">
<path opacity="0.5" d="M76.8772 136.652C76.7345 136.608 77.2392 134.809 78.5226 132.933C79.8061 131.057 81.3145 129.944 81.4077 130.065C81.501 130.185 80.234 131.447 78.9944 133.262C77.7547 135.078 77.0307 136.712 76.8772 136.652Z" fill="#FAFAFA"/>
</g>
<path d="M44.8943 151.698C44.7407 151.66 45.0095 150.053 45.4922 148.056C45.9748 146.059 46.5014 144.507 46.655 144.546C46.8085 144.584 46.5343 146.219 46.0516 148.193C45.569 150.168 45.0424 151.736 44.8943 151.698Z" fill="#FAFAFA"/>
<path d="M58.3488 153.041C58.261 153.173 56.8953 152.432 55.2991 151.396C53.703 150.359 52.4744 149.405 52.5566 149.273C52.6389 149.141 54.0047 149.876 55.6063 150.919C57.2079 151.961 58.453 152.91 58.3488 153.041Z" fill="#FAFAFA"/>
<path d="M57.6906 143.322C57.559 143.41 56.9172 142.681 56.2535 141.677C55.5898 140.673 55.1565 139.818 55.2937 139.73C55.4308 139.642 56.067 140.372 56.7307 141.375C57.3944 142.379 57.8003 143.235 57.6906 143.322Z" fill="#FAFAFA"/>
<path d="M63.631 145.538C63.7187 145.664 63.1428 146.224 62.342 146.789C61.5412 147.353 60.8172 147.705 60.7239 147.578C60.6307 147.452 61.2121 146.887 62.0129 146.322C62.8137 145.757 63.5377 145.395 63.631 145.538Z" fill="#FAFAFA"/>
<g opacity="0.5">
<path opacity="0.5" d="M48.1193 184.97C47.9603 184.921 48.2181 183.676 48.4429 182.14C48.6678 180.604 48.794 179.337 48.9585 179.337C49.1231 179.337 49.2437 180.637 49.0079 182.222C48.772 183.807 48.2619 185.019 48.1193 184.97Z" fill="#FAFAFA"/>
</g>
<g opacity="0.5">
<path opacity="0.5" d="M61.788 180.499C61.6509 180.576 60.6088 179.002 59.4624 176.989C58.316 174.976 57.4933 173.27 57.6304 173.193C57.7675 173.116 58.8097 174.685 59.956 176.704C61.1024 178.722 61.9251 180.439 61.788 180.499Z" fill="#FAFAFA"/>
</g>
<g opacity="0.5">
<path opacity="0.5" d="M76.2848 174.405C76.4109 174.498 75.0397 176.506 73.2187 178.886C71.3977 181.267 69.818 183.115 69.6919 183.022C69.5657 182.929 70.9424 180.921 72.7634 178.541C74.5845 176.16 76.1641 174.306 76.2848 174.405Z" fill="#FAFAFA"/>
</g>
<g opacity="0.5">
<path opacity="0.5" d="M80.3709 186.051C80.3709 186.204 78.5773 186.599 76.3175 186.923C74.0577 187.246 72.2038 187.389 72.1818 187.235C72.1599 187.082 73.9699 186.687 76.2352 186.358C78.5005 186.029 80.349 185.892 80.3709 186.051Z" fill="#FAFAFA"/>
</g>
<path d="M81.0017 180.181C80.8427 180.142 81.0017 178.974 81.0401 177.537C81.0785 176.1 81.0401 174.921 81.2321 174.899C81.4241 174.877 81.6819 176.062 81.6106 177.559C81.5393 179.056 81.1498 180.219 81.0017 180.181Z" fill="#FAFAFA"/>
<path d="M61.4259 187.016C61.371 187.153 59.8846 186.665 58.3378 185.546C56.7911 184.427 55.8477 183.187 55.9628 183.094C56.078 183.001 57.175 184.015 58.6724 185.079C60.1698 186.144 61.4917 186.862 61.4259 187.016Z" fill="#FAFAFA"/>
<path d="M38.1642 186.149C38.0106 186.11 38.1642 184.854 38.5701 183.352C38.976 181.849 39.3818 180.653 39.5354 180.691C39.689 180.73 39.5025 181.98 39.1241 183.489C38.7456 184.997 38.3178 186.187 38.1642 186.149Z" fill="#FAFAFA"/>
<path d="M35.6355 47.4117C35.6684 47.3678 36.2937 47.9053 37.44 48.5087C38.1136 48.8718 38.8163 49.1782 39.5408 49.4247C40.4339 49.713 41.3521 49.9168 42.2833 50.0335C43.2145 50.1326 44.1531 50.1418 45.0861 50.0609C45.8505 49.991 46.6069 49.8515 47.3459 49.6441C48.6074 49.293 49.3315 48.9146 49.3589 48.9639C49.2047 49.0804 49.0371 49.178 48.8597 49.2546C48.6613 49.3611 48.4561 49.4546 48.2454 49.5344C47.9694 49.6515 47.6875 49.754 47.4007 49.8415C46.6561 50.0772 45.8899 50.2389 45.1135 50.3242C44.1617 50.4229 43.2022 50.4229 42.2504 50.3242C41.3015 50.2066 40.3676 49.9897 39.464 49.677C38.7279 49.4175 38.0188 49.0868 37.3468 48.6897C37.0561 48.5306 36.7983 48.3496 36.5953 48.2015C36.4034 48.0749 36.2202 47.9357 36.0469 47.7847C35.7726 47.5653 35.619 47.4281 35.6355 47.4117Z" fill="#455A64"/>
<path d="M49.8033 53.7248C49.6114 53.8072 49.4109 53.8679 49.2055 53.9058C48.816 54.0045 48.2511 54.1362 47.56 54.2568C45.7063 54.6192 43.8011 54.6304 41.9434 54.2897C40.0702 53.9275 38.3661 52.9647 37.0892 51.5472C36.7151 51.1105 36.4048 50.623 36.1677 50.0992C36.0711 49.9134 36.0045 49.7135 35.9702 49.5068C36.3175 50.1911 36.7447 50.8319 37.2427 51.4156C38.521 52.759 40.1844 53.673 42.0037 54.0319C43.8307 54.3601 45.7 54.3768 47.5325 54.0813C48.2401 53.9826 48.8105 53.8838 49.178 53.818C49.3821 53.7626 49.592 53.7313 49.8033 53.7248Z" fill="#455A64"/>
<path d="M30.2712 87.2927C30.2451 87.2695 30.2212 87.2437 30.1999 87.2159C30.1615 87.1611 30.0902 87.0843 30.0134 86.9691C29.8008 86.6342 29.6538 86.2619 29.5801 85.8721C29.4701 85.1463 29.5206 84.4052 29.7282 83.7011C29.9357 82.9969 30.2952 82.3469 30.7813 81.7968C31.4498 81.0437 32.2239 80.3916 33.0795 79.8606C33.9791 79.2682 34.9883 78.7252 35.9811 78.056C37.0328 77.3906 37.9319 76.5102 38.6193 75.4726C38.9629 74.9219 39.1872 74.3053 39.2775 73.6626C39.363 72.9962 39.3277 72.3199 39.1733 71.666C38.8132 70.371 38.3491 69.1072 37.7856 67.8869C37.252 66.7221 36.9378 65.4688 36.8587 64.19C36.7935 62.0115 37.4554 59.8733 38.74 58.1127C39.5746 56.9184 40.6822 55.9406 41.9707 55.2605L42.585 54.9643L43.0567 54.7998C43.1846 54.7496 43.3168 54.711 43.4516 54.6846C43.3322 54.7515 43.2075 54.8084 43.0786 54.8546L42.6234 55.0466L42.0255 55.3592C40.7797 56.0644 39.712 57.0458 38.9046 58.2279C37.676 59.9635 37.0499 62.0538 37.122 64.1791C37.2057 65.4248 37.5181 66.6445 38.0434 67.7772C38.618 69.0161 39.0894 70.3003 39.4531 71.6167C39.6107 72.3035 39.646 73.0128 39.5573 73.7119C39.4633 74.3939 39.2259 75.0482 38.8607 75.6317C38.1455 76.7014 37.2106 77.6064 36.1182 78.2864C35.109 78.9556 34.0942 79.4931 33.2002 80.0745C32.3572 80.5832 31.5923 81.2114 30.9294 81.9394C30.4538 82.4664 30.0962 83.0889 29.8805 83.7652C29.6648 84.4415 29.5961 85.1561 29.6788 85.8611C29.7786 86.3732 29.98 86.86 30.2712 87.2927Z" fill="#455A64"/>
<path d="M44.8833 87.4903C44.7706 87.4425 44.6638 87.3817 44.5651 87.3093C44.2796 87.104 44.0388 86.8427 43.8576 86.5414C43.5751 86.0592 43.4062 85.5189 43.3639 84.9617C43.3057 84.2217 43.3876 83.4774 43.6053 82.7677C44.0495 81.1606 45.3934 79.6961 46.4026 77.8312C46.9522 76.8815 47.2382 75.8021 47.2308 74.7048C47.1748 73.5276 46.8741 72.375 46.3478 71.3206C45.3056 69.1266 43.704 67.3604 42.596 65.5284C42.0517 64.6719 41.6168 63.7506 41.3016 62.786C41.036 61.9316 40.9446 61.0326 41.0328 60.1422C41.1178 58.839 41.6894 57.6154 42.6344 56.7141C42.8989 56.4897 43.1945 56.305 43.512 56.1656C43.6206 56.113 43.7347 56.0726 43.8521 56.0449C43.4381 56.2498 43.0527 56.508 42.7057 56.8128C41.8251 57.7188 41.3028 58.9134 41.2358 60.1751C41.1627 61.0383 41.2634 61.9074 41.5319 62.7311C41.8448 63.6802 42.278 64.5853 42.8209 65.4242C43.3694 66.3183 44.0496 67.2123 44.7242 68.1667C45.4442 69.1326 46.074 70.1627 46.6055 71.2438C47.154 72.334 47.4626 73.5292 47.5106 74.7487C47.5125 75.8909 47.2115 77.0132 46.6385 78.0013C45.5853 79.8716 44.2415 81.2923 43.7972 82.85C43.5794 83.5316 43.4865 84.247 43.523 84.9617C43.5531 85.4985 43.699 86.0224 43.9508 86.4975C44.1882 86.8904 44.506 87.2287 44.8833 87.4903Z" fill="#455A64"/>
<path d="M66.5269 46.3148C66.5269 46.3148 66.4501 46.3148 66.3185 46.227C66.1283 46.124 65.9451 46.0086 65.77 45.8815C65.1424 45.3954 64.6089 44.7987 64.1958 44.1208C63.5958 43.1191 63.0873 42.0654 62.6765 40.9724C62.4242 40.3691 62.128 39.7383 61.8208 39.1185C61.4771 38.4781 61.073 37.872 60.6141 37.3085C58.9766 35.3205 56.7604 33.8922 54.2735 33.2222C53.2388 32.9729 52.1828 32.8223 51.1196 32.7724C51.404 32.7248 51.6928 32.7082 51.9808 32.723C52.7697 32.7431 53.5546 32.8442 54.3229 33.0247C56.8795 33.6525 59.1639 35.092 60.8335 37.1275C61.3072 37.7059 61.7241 38.3286 62.0786 38.9869C62.4132 39.6231 62.6765 40.2649 62.9233 40.8737C63.3215 41.9582 63.8057 43.0092 64.3713 44.0166C64.7641 44.6847 65.2623 45.2848 65.8468 45.7937C66.2691 46.1502 66.5434 46.2928 66.5269 46.3148Z" fill="#455A64"/>
<path d="M74.1784 46.2714C74.0786 46.2751 73.9788 46.264 73.8822 46.2385C73.6015 46.1949 73.3258 46.1232 73.0595 46.0245C72.073 45.6595 71.1795 45.0807 70.4431 44.3297C69.3611 43.2185 68.4482 41.9544 67.7335 40.578C66.8724 39.0696 66.0387 37.3363 64.7497 35.828C63.5214 34.4182 61.8997 33.4078 60.093 32.9264C58.6162 32.5341 57.0958 32.3296 55.5679 32.3176C54.257 32.2902 53.1984 32.3176 52.4634 32.3724L51.6187 32.4053C51.5204 32.4187 51.4208 32.4187 51.3225 32.4053C51.4166 32.3752 51.5145 32.3586 51.6132 32.356L52.4579 32.2682C53.1874 32.2079 54.2515 32.1201 55.5679 32.1256C57.1175 32.1047 58.6631 32.2892 60.1643 32.6741C62.0283 33.1558 63.7021 34.1926 64.9636 35.647C66.291 37.1992 67.1192 38.9379 67.9584 40.4573C68.6539 41.8182 69.5384 43.0739 70.5857 44.1871C71.2917 44.9366 72.1477 45.529 73.0978 45.9258C73.778 46.1891 74.1839 46.2385 74.1784 46.2714Z" fill="#455A64"/>
<path d="M87.1286 81.8686C87.1012 81.8686 87.2712 81.4791 87.4522 80.7716C87.7153 79.7625 87.8262 78.7199 87.7813 77.678C87.7291 76.1325 87.3318 74.6183 86.6185 73.2462C86.1933 72.4414 85.666 71.6947 85.0498 71.0248C84.4135 70.3172 83.684 69.6481 82.9545 68.946C82.218 68.2709 81.5375 67.5371 80.9196 66.752C80.352 66.0161 79.8613 65.2239 79.4551 64.388C78.7718 62.9691 78.3341 61.4446 78.1607 59.8793C78.0399 58.8271 78.0509 57.764 78.1936 56.7145C78.2249 56.4301 78.2744 56.1479 78.3417 55.8698C78.3561 55.7697 78.3838 55.6719 78.424 55.5791C78.4514 55.5791 78.3636 55.9905 78.3033 56.7309C78.2037 57.77 78.2221 58.817 78.3581 59.8519C78.5634 61.3873 79.0134 62.8798 79.691 64.2728C80.0962 65.0885 80.5812 65.862 81.139 66.582C81.7526 67.3469 82.4237 68.0639 83.1465 68.7266C83.8815 69.4287 84.611 70.1033 85.2582 70.8273C85.8868 71.5164 86.4216 72.2855 86.8489 73.1146C87.5687 74.524 87.9571 76.0792 87.9843 77.6616C88.0106 78.7214 87.868 79.7786 87.5619 80.7935C87.4821 81.0696 87.3812 81.3391 87.2602 81.5998C87.2302 81.6955 87.1858 81.7861 87.1286 81.8686Z" fill="#455A64"/>
<path d="M27.0406 45.8377C27.0393 45.6525 27.0633 45.468 27.1119 45.2892C27.2228 44.8124 27.3981 44.353 27.633 43.9235C28.025 43.1947 28.5668 42.5571 29.2226 42.0524C29.8785 41.5478 30.6337 41.1876 31.4386 40.9954C32.2436 40.8032 33.08 40.7835 33.8931 40.9374C34.7062 41.0913 35.4776 41.4155 36.1566 41.8886C36.5675 42.1615 36.9369 42.4921 37.2536 42.8704C37.3803 43.0022 37.4841 43.1542 37.5608 43.3201C37.0969 42.8508 36.588 42.4282 36.0414 42.0586C35.378 41.6269 34.6336 41.3349 33.8536 41.2002C33.0736 41.0656 32.2744 41.0912 31.5046 41.2754C30.7348 41.4596 30.0106 41.7987 29.3761 42.2718C28.7416 42.745 28.2101 43.3424 27.814 44.0277C27.4983 44.6047 27.2393 45.2108 27.0406 45.8377Z" fill="#455A64"/>
<path d="M32.3557 48.1471C32.3518 47.7271 32.4034 47.3085 32.5093 46.902C32.678 45.8844 33.1283 44.9344 33.8092 44.1595C34.1822 43.7859 34.6495 43.5204 35.1613 43.3909C35.6731 43.2615 36.2104 43.2731 36.7162 43.4245C37.0202 43.5345 37.2891 43.7239 37.4951 43.973C37.6322 44.1485 37.6706 44.2692 37.6596 44.2747C37.3801 43.9849 37.0363 43.765 36.6559 43.633C36.1882 43.5216 35.6997 43.5316 35.237 43.6622C34.7743 43.7927 34.3526 44.0395 34.0121 44.3789C33.3698 45.1229 32.9213 46.0141 32.7067 46.9733C32.6257 47.3745 32.5082 47.7673 32.3557 48.1471Z" fill="#455A64"/>
<path d="M39.3269 40.1113C38.7768 41.0729 38.2948 42.0717 37.8843 43.1006C37.5671 44.1605 37.3179 45.2396 37.1384 46.3313C37.0171 44.0492 37.8062 41.8123 39.3324 40.1113H39.3269Z" fill="#E8505B"/>
<path d="M127.075 53.4841C127.075 53.8215 127.175 54.1513 127.363 54.4318C127.55 54.7124 127.817 54.931 128.128 55.0601C128.44 55.1892 128.783 55.223 129.114 55.1572C129.445 55.0914 129.749 54.9289 129.987 54.6903C130.226 54.4518 130.388 54.1478 130.454 53.8169C130.52 53.486 130.486 53.143 130.357 52.8313C130.228 52.5197 130.009 52.2532 129.729 52.0658C129.448 51.8784 129.119 51.7783 128.781 51.7783C128.557 51.7783 128.335 51.8224 128.128 51.9082C127.922 51.9939 127.733 52.1195 127.575 52.2779C127.417 52.4363 127.291 52.6244 127.205 52.8313C127.12 53.0383 127.075 53.2601 127.075 53.4841Z" fill="#455A64"/>
<path d="M121.947 55.19C122.889 55.19 123.653 54.4263 123.653 53.4841C123.653 52.542 122.889 51.7783 121.947 51.7783C121.005 51.7783 120.241 52.542 120.241 53.4841C120.241 54.4263 121.005 55.19 121.947 55.19Z" fill="#455A64"/>
<path d="M113.429 52.6284C113.26 52.9206 113.182 53.2563 113.205 53.5928C113.227 53.9294 113.348 54.2518 113.554 54.5193C113.759 54.7868 114.04 54.9874 114.359 55.0957C114.679 55.204 115.023 55.2152 115.349 55.1278C115.674 55.0404 115.967 54.8584 116.189 54.6048C116.412 54.3511 116.554 54.0373 116.598 53.7028C116.642 53.3684 116.586 53.0284 116.437 52.7259C116.288 52.4234 116.052 52.1718 115.76 52.0031C115.566 51.891 115.352 51.8182 115.129 51.789C114.907 51.7598 114.681 51.7746 114.465 51.8327C114.248 51.8907 114.045 51.9909 113.868 52.1274C113.69 52.264 113.541 52.4342 113.429 52.6284Z" fill="#455A64"/>
<path d="M121.843 33.546C121.728 33.5326 121.612 33.5326 121.497 33.546L120.483 33.5734C120.263 33.5734 120.011 33.5734 119.737 33.6063L118.843 33.7325L117.8 33.8806L116.632 34.1713C114.635 34.6787 112.734 35.5087 111.004 36.6285C108.434 38.2644 106.271 40.4667 104.683 43.0668C103.094 45.667 102.122 48.596 101.839 51.6299C101.76 52.5419 101.741 53.4581 101.784 54.3724C101.817 54.8386 101.784 55.3049 101.872 55.7711L102.086 57.1807C102.444 59.1191 103.083 60.9947 103.984 62.748C104.95 64.5794 106.175 66.2622 107.62 67.7448C109.161 69.2622 110.928 70.5315 112.858 71.5075C114.852 72.5263 117.009 73.1855 119.232 73.4546C119.797 73.5398 120.367 73.5893 120.938 73.6027C121.51 73.6329 122.083 73.6329 122.655 73.6027C123.815 73.5564 124.969 73.4115 126.105 73.1694C128.542 72.6479 130.861 71.6789 132.944 70.3117H132.736L139.724 73.1201L140.141 73.2846L140.02 72.8568C139.318 70.2898 138.627 67.7941 137.969 65.3808L137.93 65.5672C139.829 63.0541 141.107 60.1279 141.66 57.0271C141.928 55.5809 142.02 54.1075 141.934 52.6392C141.92 51.9348 141.852 51.2325 141.731 50.5384C141.682 50.1929 141.627 49.8528 141.578 49.5127C141.528 49.1727 141.408 48.8545 141.331 48.5254C140.161 43.9305 137.397 39.9007 133.531 37.1551C132.105 36.1298 130.543 35.3066 128.891 34.7088L127.849 34.3358L126.856 34.0835L125.946 33.8586C125.655 33.7983 125.397 33.7709 125.112 33.7325C124.563 33.6612 124.119 33.5734 123.713 33.5515L122.682 33.5186H122.057C121.914 33.5186 121.843 33.5186 121.843 33.5186H122.057L122.682 33.5679L123.702 33.6337C124.103 33.6667 124.563 33.7709 125.09 33.8477C128.884 34.5007 132.407 36.2416 135.231 38.8589C138.055 41.4762 140.058 44.8573 140.996 48.5913C141.073 48.9149 141.172 49.233 141.232 49.5621C141.293 49.8912 141.331 50.2313 141.386 50.5658C141.496 51.2498 141.557 51.9409 141.567 52.6337C141.647 54.0677 141.553 55.5061 141.287 56.9174C140.731 59.9681 139.465 62.8449 137.59 65.3149L137.53 65.3972L137.557 65.5014C138.215 67.9148 138.894 70.4068 139.592 72.9774L139.888 72.7142L132.906 69.9004L132.796 69.8565L132.692 69.9223C130.65 71.2695 128.375 72.2255 125.984 72.7416C124.875 72.9791 123.749 73.1222 122.616 73.1694C122.055 73.1914 121.492 73.1804 120.932 73.1365C120.381 73.1258 119.832 73.08 119.287 72.9994C117.111 72.7322 114.998 72.0862 113.045 71.0906C109.304 69.2401 106.255 66.2393 104.346 62.5286C103.45 60.8174 102.811 58.9842 102.448 57.0875C102.377 56.6213 102.305 56.166 102.24 55.7053C102.174 55.2445 102.179 54.7893 102.141 54.334C102.098 53.44 102.112 52.544 102.185 51.6519C102.452 48.6677 103.395 45.7834 104.942 43.2176C106.489 40.6518 108.6 38.4717 111.114 36.8424C112.821 35.713 114.699 34.8665 116.676 34.3358L117.828 34.0287L118.864 33.8586L119.748 33.7105C120.022 33.7105 120.269 33.6776 120.488 33.6557L121.497 33.5844C121.613 33.5812 121.729 33.5683 121.843 33.546Z" fill="#455A64"/>
</g>
<defs>
<clipPath id="clip0_1135_12863">
<rect width="229.892" height="190.537" fill="white" transform="translate(0.553711)"/>
</clipPath>
</defs>
</svg>
