<svg width="14" height="18" viewBox="0 0 14 18" fill="none" xmlns="http://www.w3.org/2000/svg">
<path d="M11.1418 15.0426C10.9475 15.6538 10.7627 16.2165 10.5889 16.7902C10.51 17.0539 10.4041 17.2793 10.0858 17.3153C9.76758 17.3513 9.58199 17.1588 9.43589 16.9076C8.67773 15.5844 7.91668 14.262 7.15273 12.9405C7.12114 12.8865 7.08086 12.8364 7.01531 12.7409C6.78313 13.1322 6.56752 13.4993 6.35508 13.8648C5.76592 14.8783 5.17046 15.8902 4.59079 16.9084C4.45495 17.1431 4.3191 17.3623 4.00083 17.331C3.66282 17.2981 3.50962 17.0759 3.42196 16.7761C3.25532 16.2033 3.07683 15.6342 2.89755 15.0434C2.25786 15.1866 1.65055 15.3478 1.03297 15.4448C0.834739 15.4762 0.529105 15.3987 0.42012 15.2578C0.311134 15.117 0.306395 14.7883 0.399585 14.6317C1.12615 13.3498 1.87536 12.0812 2.64721 10.8259C2.83122 10.5292 2.82726 10.3563 2.59982 10.0918C1.24066 8.50697 0.893175 6.67482 1.48154 4.71592C2.46162 1.45318 6.1608 -0.20515 9.31584 1.14017C10.3759 1.59669 11.2741 2.3568 11.895 3.32295C12.5159 4.28909 12.8311 5.41709 12.8002 6.56211C12.7694 7.94109 12.2664 9.12362 11.3929 10.1622C11.2128 10.3758 11.2097 10.5096 11.3455 10.7335C12.0681 11.927 12.7757 13.1306 13.4881 14.3335C13.5418 14.4235 13.6318 14.5112 13.6389 14.6044C13.6547 14.8243 13.7108 15.1052 13.6018 15.2516C13.4928 15.3979 13.188 15.4864 12.9929 15.4566C12.3817 15.3549 11.7878 15.1905 11.1418 15.0426ZM7.07059 1.77643C4.59552 1.77643 2.47978 3.57646 2.35184 6.21467C2.23022 8.73862 4.24725 10.9354 6.76023 11.034C9.38298 11.1374 11.5674 9.18627 11.6819 6.63884C11.8004 3.99515 9.80628 1.89226 7.07059 1.77643ZM9.79839 15.286C9.83788 15.2649 9.85604 15.2617 9.8592 15.2531C9.96503 14.9612 10.0724 14.6709 10.1751 14.3774C10.3409 13.8906 10.5139 13.7794 11.0296 13.8671C11.3336 13.9187 11.633 13.9962 12.0239 14.0808L10.3307 11.2101L7.99697 12.172L9.79839 15.286ZM2.05885 14.0776C2.3708 14.0064 2.67327 13.9329 2.97811 13.8687C3.51593 13.756 3.67862 13.8538 3.85158 14.3742C3.95582 14.6873 4.06402 15.0004 4.19196 15.3745C4.84166 14.2402 5.45581 13.1706 6.03443 12.1657L3.70311 11.2266C3.16924 12.1227 2.6164 13.0501 2.06594 13.9783C2.05331 13.9939 2.06043 14.0236 2.05727 14.0776H2.05885Z" fill="#F65B36"/>
</svg>
