<svg width="32" height="32" viewBox="0 0 32 32" fill="none" xmlns="http://www.w3.org/2000/svg">
<g clip-path="url(#clip0_903_12446)">
<path d="M26.8699 23.1192C26.8699 22.7143 26.8699 22.3093 26.8699 21.9043C27.32 21.8649 27.32 21.8649 27.32 21.3931C27.32 20.7681 27.3294 20.1431 27.3144 19.5181C27.3094 19.2994 27.3694 19.2388 27.5894 19.2413C28.6516 19.2533 29.7143 19.2533 30.7774 19.2413C30.993 19.2413 31.0562 19.2938 31.0555 19.515C31.0509 22.7111 31.0532 25.907 31.0624 29.1028C31.0656 29.174 31.0529 29.2451 31.0254 29.3109C30.9978 29.3767 30.956 29.4356 30.903 29.4834C30.4492 29.9271 29.9966 30.3733 29.5584 30.8327C29.4911 30.9087 29.4074 30.9685 29.3136 31.0077C29.2199 31.0468 29.1186 31.0644 29.0171 31.0589C22.0412 31.0527 15.0652 31.051 8.08925 31.0539C7.56918 31.0539 7.56917 31.0539 7.5398 31.5539L6.31463 31.5489C6.30516 31.4987 6.3018 31.4475 6.30463 31.3964C6.35776 31.1039 6.22587 31.0371 5.95208 31.0483C5.46889 31.0683 4.98383 31.0483 4.49939 31.0483C4.06183 30.6039 3.62426 30.1565 3.1817 29.7177C3.11967 29.6633 3.07039 29.5959 3.03733 29.5203C3.00428 29.4447 2.98826 29.3627 2.99043 29.2802C2.99835 25.9387 3.0023 22.597 3.0023 19.255C3.45049 19.2519 3.89867 19.2675 4.34498 19.2394C4.62377 19.2225 4.68691 19.3056 4.68566 19.5806C4.67378 22.0693 4.68128 24.5573 4.67378 27.046C4.67378 27.2691 4.71566 27.3484 4.96132 27.3484C12.324 27.3418 19.6869 27.3418 27.05 27.3484C27.2694 27.3484 27.3294 27.2859 27.3269 27.0697C27.3169 25.9248 27.3225 24.7792 27.3225 23.6323C27.3213 23.1574 27.3213 23.1574 26.8699 23.1192ZM15.7522 29.2509C15.7447 28.7203 15.8266 28.7509 15.3515 28.7553C14.752 28.7553 14.812 28.6834 14.8139 29.1752C14.8139 29.7952 14.7308 29.7327 15.244 29.7327C15.8291 29.7321 15.744 29.8027 15.7522 29.2509ZM16.8617 28.754C16.331 28.7596 16.3729 28.6915 16.376 29.1652C16.3804 29.7902 16.2904 29.7327 16.7967 29.7327C17.3643 29.7327 17.3161 29.8021 17.313 29.3234C17.3093 28.6871 17.4024 28.7628 16.8617 28.754Z" fill="#A9E599"/>
<path d="M19.7565 6.14833V7.37016C19.3014 7.40141 19.3014 7.40141 19.3014 7.87701C19.3014 10.0838 19.3014 12.29 19.2964 14.4968C19.2964 14.7105 19.3464 14.7805 19.5702 14.7774C20.5797 14.7655 21.5892 14.7711 22.5993 14.7742C22.7069 14.7742 22.8237 14.7367 22.9469 14.8286C22.8919 14.9067 22.8419 14.9817 22.7869 15.0536C21.3283 16.9748 19.8673 18.8955 18.4038 20.8159C17.9256 21.444 17.4368 22.0658 16.953 22.6871C16.9225 22.6221 16.8874 22.5594 16.8479 22.4996C15.324 20.4934 13.7938 18.4922 12.2767 16.4804C11.8535 15.918 11.3797 15.393 11.0303 14.7774C11.4447 14.7742 11.8598 14.7705 12.2742 14.7699C12.748 14.7699 12.748 14.7699 12.7743 14.3149C13.2843 14.3149 13.795 14.3149 14.3051 14.3086C14.8827 14.303 14.8052 14.3868 14.8052 13.8199C14.8081 9.52841 14.8097 5.23837 14.8102 0.949783C16.236 0.949783 17.6624 0.949785 19.0882 0.936035C19.3264 0.936035 19.2983 1.0654 19.2976 1.21227C19.2976 2.69013 19.2976 4.16924 19.2976 5.6496C19.2995 6.11771 19.2995 6.11771 19.7565 6.14833Z" fill="#A9E599"/>
<path d="M4.49812 31.0468C4.98256 31.0499 5.46762 31.0686 5.95081 31.0468C6.2246 31.0355 6.35649 31.1024 6.30336 31.3949C6.30054 31.4459 6.30389 31.4971 6.31336 31.5474C6.28585 31.9917 6.28586 31.9917 5.83392 31.9917C4.73002 31.9917 3.62675 31.988 2.52097 31.9949C2.44496 31.9989 2.369 31.986 2.29861 31.957C2.22822 31.928 2.16517 31.8837 2.11404 31.8274C1.47229 31.1745 0.824693 30.5264 0.17127 29.8831C0.11442 29.8327 0.0694198 29.7704 0.0394852 29.7006C0.00955048 29.6308 -0.00457146 29.5552 -0.00187179 29.4793C0.00562923 25.8466 0.00792029 22.2134 0.00500323 18.5798C0.00500323 18.3641 0.0525076 18.301 0.276288 18.3023C1.96277 18.3123 3.6505 18.3123 5.33948 18.3023C5.58951 18.3023 5.62264 18.3791 5.62202 18.6004C5.61452 21.1003 5.62202 23.6002 5.61264 26.0963C5.61264 26.3301 5.65702 26.4088 5.91331 26.4088C12.6396 26.4013 19.366 26.4013 26.0923 26.4088C26.3561 26.4088 26.3911 26.3188 26.388 26.0926C26.3767 25.2289 26.3986 24.3639 26.3755 23.5008C26.368 23.1989 26.4455 23.0777 26.7505 23.1321C26.7927 23.1333 26.8348 23.1282 26.8755 23.1171C27.3262 23.1552 27.3262 23.1552 27.3262 23.6321C27.3262 24.7776 27.3206 25.9232 27.3306 27.0694C27.3306 27.2869 27.2731 27.3488 27.0537 27.3482C19.691 27.3432 12.3281 27.3432 4.96505 27.3482C4.71939 27.3482 4.67689 27.2688 4.67751 27.0457C4.68502 24.557 4.67751 22.069 4.68939 19.5803C4.68939 19.3053 4.62688 19.2222 4.34872 19.2391C3.90241 19.2672 3.45422 19.2516 3.00604 19.2547C2.41408 19.2516 1.8215 19.2547 1.22954 19.2416C1.01326 19.2354 0.94888 19.2953 0.94888 19.5172C0.953881 22.7079 0.952418 25.8988 0.9445 29.09C0.93961 29.1612 0.950523 29.2327 0.976457 29.2992C1.00239 29.3658 1.04271 29.4258 1.09452 29.475C1.57771 29.9474 2.05341 30.4274 2.52785 30.908C2.56726 30.9552 2.61674 30.993 2.67266 31.0187C2.72857 31.0443 2.78951 31.0571 2.85101 31.0561C3.39671 31.048 3.94742 31.0499 4.49812 31.0468Z" fill="#040403"/>
<path d="M7.53851 31.5542C7.56789 31.0542 7.56789 31.0542 8.08796 31.0542C15.0639 31.0542 22.0399 31.0559 29.0158 31.0592C29.1173 31.0646 29.2186 31.0471 29.3124 31.008C29.4061 30.9688 29.4898 30.909 29.5572 30.833C29.9947 30.3736 30.4479 29.9274 30.9017 29.4836C30.9547 29.4359 30.9965 29.377 31.0241 29.3112C31.0517 29.2454 31.0643 29.1743 31.0611 29.103C31.0544 25.9069 31.0522 22.711 31.0542 19.5153C31.0542 19.294 30.9917 19.239 30.7761 19.2415C29.7143 19.2524 28.6516 19.2524 27.5881 19.2415C27.3681 19.2415 27.3081 19.2997 27.3131 19.5184C27.3281 20.1434 27.3187 20.7684 27.3187 21.3933C27.3187 21.8652 27.3187 21.8652 26.8687 21.9046C26.3811 21.8627 26.3811 21.8627 26.3811 21.369C26.3811 20.4427 26.3867 19.5165 26.3767 18.5903C26.3767 18.3878 26.4023 18.3035 26.6386 18.3047C28.3351 18.316 30.0318 18.316 31.7287 18.3047C31.9312 18.3047 31.9887 18.3547 31.9881 18.5616C31.9856 22.2039 31.9887 25.8465 31.9975 29.4893C32.0009 29.5602 31.9885 29.6311 31.9614 29.6967C31.9343 29.7624 31.8931 29.8213 31.8406 29.8692C31.1818 30.5205 30.5269 31.1754 29.876 31.8342C29.829 31.8869 29.7712 31.9288 29.7064 31.9568C29.6416 31.9849 29.5715 31.9985 29.5009 31.9967C22.2662 31.9917 15.0316 31.9917 7.79729 31.9967C7.37411 32.0004 7.62227 31.7017 7.53851 31.5542Z" fill="#010101"/>
<path d="M12.773 14.3158C12.7461 14.7701 12.7461 14.7695 12.2729 14.7708C11.8585 14.7708 11.4434 14.7751 11.029 14.7776H9.09125C9.18063 14.9076 9.23502 14.992 9.29565 15.072C10.1183 16.1553 10.9417 17.2398 11.766 18.3256C12.0554 18.7062 12.0554 18.7062 11.7297 19.0268C11.3003 19.2612 11.3009 19.2606 10.9796 18.8394C9.78321 17.2657 8.58743 15.6918 7.39226 14.1177C7.32975 14.0389 7.23787 13.9758 7.23724 13.8333H7.54103C8.86371 13.8333 10.1864 13.8258 11.5084 13.8402C11.766 13.8402 11.8322 13.7827 11.8316 13.5202C11.8229 9.14535 11.8208 4.77219 11.8254 0.400694C11.8294 0.338263 11.8294 0.275633 11.8254 0.213201C11.8022 0.0494576 11.8654 0.00133414 12.031 0.00195912C14.6981 0.00695892 17.3651 0.00695892 20.0321 0.00195912C20.2234 0.00195912 20.2471 0.0763299 20.2471 0.238824C20.2421 2.12333 20.2421 4.00805 20.2471 5.89298C20.2471 6.07673 20.2128 6.1686 20.0102 6.14297C19.9267 6.13863 19.843 6.14219 19.7602 6.1536C19.3033 6.12297 19.3033 6.12297 19.3033 5.65361C19.3033 4.17492 19.3033 2.69581 19.3033 1.21629C19.3033 1.06942 19.332 0.938174 19.0939 0.940048C17.668 0.953798 16.2416 0.951296 14.8158 0.953796C14.2438 0.953796 13.6712 0.963796 13.1005 0.938797C12.8243 0.926298 12.7567 1.0013 12.7574 1.28066C12.7674 5.53341 12.7699 9.78616 12.7649 14.0389C12.7611 14.1295 12.7686 14.2227 12.773 14.3158Z" fill="#040403"/>
<path d="M16.9511 22.687C17.4349 22.062 17.9237 21.4439 18.4019 20.8158C19.8654 18.8963 21.3265 16.9756 22.785 15.0536C22.84 14.9817 22.89 14.9067 22.945 14.8286C22.82 14.7367 22.705 14.7748 22.5975 14.7742C21.5873 14.7711 20.5778 14.7655 19.5683 14.7773C19.3445 14.7805 19.2939 14.7105 19.2945 14.4967C19.302 12.2899 19.2995 10.0838 19.2995 7.87697C19.2995 7.40137 19.2995 7.40137 19.7546 7.37012C20.2378 7.40324 20.2378 7.40324 20.2378 7.9101C20.2378 9.78502 20.2428 11.66 20.2322 13.5318C20.2322 13.7755 20.2947 13.8399 20.5372 13.838C21.9624 13.8255 23.3882 13.8317 24.8903 13.8317L16.0353 25.4838C15.8934 25.3013 15.7615 25.1357 15.6334 24.9669C14.5499 23.5432 13.4664 22.1189 12.383 20.694C12.0873 20.3052 12.0885 20.3046 12.4373 19.9978C12.4753 19.9823 12.5107 19.9612 12.5424 19.9353C12.7599 19.6934 12.8949 19.7878 13.0574 20.0184C13.3987 20.5034 13.7688 20.9677 14.1282 21.4402C14.757 22.267 15.3865 23.0933 16.036 23.9464L16.9511 22.687Z" fill="#040403"/>
<path d="M16.9511 22.6872L16.0385 23.9453C15.389 23.0922 14.7595 22.266 14.1307 21.4392C13.7713 20.9667 13.4012 20.5017 13.0599 20.0173C12.8974 19.7867 12.7624 19.6924 12.5449 19.9342C12.5132 19.9602 12.4778 19.9813 12.4398 19.9967L11.7266 19.028C12.0523 18.7074 12.0523 18.7074 11.7629 18.3268C10.939 17.2435 10.1156 16.159 9.29254 15.0732C9.23003 14.9932 9.17752 14.9088 9.08813 14.7788H11.0259C11.3753 15.395 11.8491 15.9213 12.2723 16.4825C13.7894 18.4943 15.3196 20.4955 16.8436 22.5016C16.8839 22.5608 16.9198 22.6228 16.9511 22.6872Z" fill="#5BCC3C"/>
<path d="M4.49748 31.0469C3.94688 31.05 3.39627 31.0469 2.84567 31.0581C2.78418 31.0591 2.72324 31.0463 2.66734 31.0206C2.61143 30.995 2.56196 30.9572 2.52255 30.91C2.0482 30.4294 1.57259 29.9494 1.08949 29.4769C1.03768 29.4278 0.997372 29.3678 0.971443 29.3012C0.945514 29.2347 0.934603 29.1632 0.939492 29.0919C0.945325 25.9008 0.946788 22.7099 0.943871 19.5192C0.943871 19.2973 1.00637 19.2373 1.22448 19.2436C1.81634 19.2598 2.40881 19.2536 3.00066 19.2567C2.99816 22.5983 2.99421 25.94 2.98879 29.2819C2.98663 29.3644 3.00264 29.4464 3.03569 29.522C3.06874 29.5976 3.11802 29.665 3.18003 29.7194C3.62376 30.1525 4.05938 30.6025 4.49748 31.0469Z" fill="#5BCC3C"/>
<path d="M15.752 29.2507C15.7438 29.8026 15.8288 29.7319 15.2439 29.7326C14.7307 29.7326 14.8164 29.7951 14.8139 29.1751C14.8139 28.6832 14.7514 28.7576 15.3514 28.7551C15.8263 28.7526 15.7445 28.7201 15.752 29.2507Z" fill="#F7F9FA"/>
<path d="M16.8616 28.7539C17.4022 28.7627 17.3091 28.6871 17.3128 29.3233C17.3128 29.802 17.3641 29.7326 16.7966 29.7326C16.2904 29.7326 16.3804 29.7914 16.376 29.1651C16.3729 28.6921 16.331 28.7595 16.8616 28.7539Z" fill="#F7F9FA"/>
<path d="M12.773 14.3159C12.7686 14.2228 12.7611 14.1284 12.7611 14.0359C12.7611 9.7836 12.7586 5.53086 12.7536 1.27769C12.7536 1.00145 12.8205 0.923331 13.0967 0.93583C13.6673 0.960829 14.2398 0.948329 14.8116 0.950829C14.8116 5.24233 14.81 9.53236 14.8066 13.8209C14.8066 14.3878 14.881 14.3041 14.3067 14.3097C13.7936 14.3147 13.283 14.3141 12.773 14.3159Z" fill="#5BCC3C"/>
</g>
<defs>
<clipPath id="clip0_903_12446">
<rect width="32" height="32" fill="white"/>
</clipPath>
</defs>
</svg>
