<svg viewBox="0 0 414 896" xmlns="http://www.w3.org/2000/svg" xmlns:xlink="http://www.w3.org/1999/xlink"><linearGradient id="a" gradientTransform="matrix(0 896 414 0 -1109450.28 2129370.03)" gradientUnits="userSpaceOnUse" x1="-2376.03" x2="-2376.03" y1="2680.76" y2="2679.92"><stop offset="0" stop-color="#fb9039"/><stop offset="1" stop-color="#fc7538"/></linearGradient><path d="m0 0h414v896h-414z" fill="none"/><path d="m0 0h414v896h-414z" fill="#fff"/><path d="m0 0h414v896h-414z" fill="url(#a)"/><path d="m234.44 306.27a40.66 40.66 0 0 1 -3.18-8.61 13.77 13.77 0 0 1 .84-9c.81-1.6 2-3 2.69-4.66.9-2.3.68-5.06 2.21-7 2.39-3 7.19-2.1 10.75-3.6 2.77-1.16 4.78-3.83 7.68-4.63 2.53-.7 5.22.19 7.59 1.32s4.67 2.55 7.25 3a49.86 49.86 0 0 0 5.6.25 7.41 7.41 0 0 1 5.1 2c1.26 1.39 1.44 3.85 0 5 3.3-.42 6.24 3 6.06 6.29s-2.8 6.13-5.87 7.39-6.52 1.2-9.82.8c-9.34-1.11-18.6-5.06-24.69-12.23" fill="#263238"/><path d="m237 294.64-8.31 46.1c-1.41 7.84 1 20.12 9.8 21.17 9.42 1 16-1.7 17.33-9 .63-3.47 1.45-13.6 1.54-13.95 0 0 11.93 1 14.87-10.45 1.42-5.54 3.42-17.19 5.1-27.75a22 22 0 0 0 -16.56-24.87l-1.11-.27c-12.18-2.23-20.84 6.83-22.66 19.02z" fill="#efb297"/><path d="m257.31 338.94a28.67 28.67 0 0 1 -13.9-8.07s1.83 9.81 13.55 11.57z" fill="#eb996e"/><g fill="#263238"><path d="m270.32 308.82a1.7 1.7 0 0 1 -2 1.27 1.6 1.6 0 0 1 -1.33-1.85 1.69 1.69 0 0 1 2-1.27 1.62 1.62 0 0 1 1.34 1.85z"/><path d="m273.44 305.78c-.26.17-1.28-1.06-3-1.48s-3.28.14-3.42-.12.23-.45.89-.73a4.71 4.71 0 0 1 2.8-.17 4.46 4.46 0 0 1 2.36 1.45c.4.55.49.98.37 1.05z"/><path d="m253.72 305.22a1.68 1.68 0 0 1 -2 1.27 1.61 1.61 0 0 1 -1.34-1.85 1.7 1.7 0 0 1 2-1.27 1.62 1.62 0 0 1 1.34 1.85z"/><path d="m256 301.89c-.25.16-1.27-1.06-3-1.49s-3.28.15-3.42-.12c-.07-.12.23-.45.9-.72a4.55 4.55 0 0 1 2.8-.17 4.44 4.44 0 0 1 2.36 1.44c.36.56.48.99.36 1.06z"/><path d="m259.22 316.55a11.62 11.62 0 0 1 3 .18c.46.06.91.08 1.06-.21a2.34 2.34 0 0 0 0-1.41c-.16-1.2-.32-2.45-.5-3.76-.66-5.34-1-9.69-.81-9.72s.93 4.29 1.59 9.63c.15 1.32.3 2.57.44 3.77a2.7 2.7 0 0 1 -.2 1.83 1.17 1.17 0 0 1 -.9.47 3 3 0 0 1 -.79-.08 11.56 11.56 0 0 1 -2.89-.7z"/><path d="m253.72 316.51c.29.05-.17 2 1.14 3.73s3.4 2.05 3.35 2.32-.54.26-1.41.07a4.9 4.9 0 0 1 -2.8-1.83 4.24 4.24 0 0 1 -.83-3.1c.09-.81.42-1.24.55-1.19z"/><path d="m258.14 295.07c-.29.44-2-.21-4.13-.47s-3.95-.1-4.12-.59c-.07-.24.33-.62 1.12-.92a7.23 7.23 0 0 1 6.28.81c.71.49.98.96.85 1.17z"/><path d="m274 300.51c-.41.33-1.53-.38-3-.76s-2.77-.39-2.95-.88c-.07-.23.22-.59.85-.84a4.47 4.47 0 0 1 4.78 1.33c.47.54.54.99.32 1.15z"/></g><path d="m235.81 303.38c-.17-.13-7.33-4.26-9 3.66s6.64 8 6.7 7.73 2.3-11.39 2.3-11.39z" fill="#efb297"/><path d="m231.73 311.26s-.16.07-.42.13a1.39 1.39 0 0 1 -1-.2c-.78-.48-1.2-2-.94-3.39a4.65 4.65 0 0 1 .8-1.9 1.62 1.62 0 0 1 1.26-.84.7.7 0 0 1 .73.55c.06.24 0 .39 0 .41s.2-.1.2-.44a.9.9 0 0 0 -.21-.56 1 1 0 0 0 -.72-.36 2 2 0 0 0 -1.7.93 4.8 4.8 0 0 0 -.94 2.11c-.28 1.6.22 3.27 1.3 3.84a1.54 1.54 0 0 0 1.31 0c.27-.09.35-.26.33-.28z" fill="#eb996e"/><path d="m280 290.07c-1.49 2.89-8.58 3.74-13.67 2-4.7-1.64-6.3-4.73-9.22-7.49-1.84-1.74-1.84-1.74-4.95-2.2-2.52-.36-4.65 2.07-6.63 3.66.8 6.39-2.28 12.54-5.27 18.24a3.19 3.19 0 0 1 -1.35 1.59c-1.1.49-2.36-.41-3-1.45a10.09 10.09 0 0 1 -.88-5.65 33.1 33.1 0 0 1 3.24-12.77 22.64 22.64 0 0 1 8.75-9.64 21.47 21.47 0 0 1 16-2 26.38 26.38 0 0 1 13.56 8.93 15.46 15.46 0 0 1 3.48 6.73" fill="#263238"/><path d="m263 308.68c.07 0 .07-.69.44-1.84a7.72 7.72 0 0 1 3-4 7.49 7.49 0 0 1 7.1-.73 7.44 7.44 0 0 1 -.58 13.94 7.48 7.48 0 0 1 -7-1.31 7.71 7.71 0 0 1 -2.66-4.21c-.27-1.18-.21-1.87-.28-1.87a1.4 1.4 0 0 0 -.06.5 5.67 5.67 0 0 0 .1 1.42 7.69 7.69 0 0 0 2.6 4.52 8 8 0 0 0 11.21-.94l.13-.16a8 8 0 0 0 -10.65-11.66l-.17.12a7.7 7.7 0 0 0 -3 4.29 5.6 5.6 0 0 0 -.22 1.41 1.4 1.4 0 0 0 .04.52z" fill="#263238"/><path d="m244.22 304.59c.06 0 .07-.69.44-1.84a7.72 7.72 0 0 1 3-4 7.49 7.49 0 0 1 7.1-.72 7.43 7.43 0 0 1 -.58 13.93 7.48 7.48 0 0 1 -7-1.31 7.7 7.7 0 0 1 -2.65-4.21c-.27-1.18-.21-1.87-.28-1.87a1.38 1.38 0 0 0 -.06.49 5.71 5.71 0 0 0 .1 1.43 7.67 7.67 0 0 0 2.6 4.52 8 8 0 0 0 11.21-.94l.14-.16a8 8 0 0 0 -10.65-11.66l-.17.12a7.66 7.66 0 0 0 -3 4.29 5.6 5.6 0 0 0 -.22 1.41 1.21 1.21 0 0 0 .02.52z" fill="#263238"/><path d="m259.79 305.51c.08.16 1.11-.27 2.27.14s1.72 1.38 1.88 1.29.05-.33-.2-.75a2.86 2.86 0 0 0 -3.33-1.15c-.41.17-.66.39-.62.47z" fill="#263238"/><path d="m233.58 302.1c0 .18 2.54.39 5.67.48s5.69 0 5.69-.17-2.53-.39-5.67-.48-5.68-.01-5.69.17z" fill="#263238"/><path d="m147.31 368.51 15.51 17.61 19.1-17.61 15.5 18.1s-17.5 18.18-26.79 22.16c-8.72 3.74-12.87.38-15.87-.37s-18.87-29.27-18.87-29.27z" fill="#efb297"/><path d="m157 346.26s-.82 1.24-3 5.13-2 8.56-3.15 12.24c-1.43 4.43-2.81 5.26-2.81 5.26l-12.14 8.24s-5.86-3.62-7.85-6.92-5.18-14.63-5.18-14.63l-5.52-9.95a1.6 1.6 0 0 1 .1-.87 2.67 2.67 0 0 1 3.63-1.07 2.73 2.73 0 0 1 1 .87s1.88-1.66 5.06.23a4.14 4.14 0 0 1 2.36 3.8c1.55.73 9 12.36 10.82 9.35a12.47 12.47 0 0 1 3.15-3.67c5.86-3.1 4.79-3.11 7.31-6.41s5.68-4.08 6.22-1.6z" fill="#efb297"/><path d="m125.47 360.86a2.17 2.17 0 0 1 -.08-.5c0-.37-.07-.85-.12-1.43-.1-1.3-.23-3.08-.38-5.26-.08-1.12-.16-2.34-.25-3.64 0-.65-.08-1.33-.13-2a6.14 6.14 0 0 1 .1-2.22 1.79 1.79 0 0 1 .76-1 2 2 0 0 1 1.22-.27 2.82 2.82 0 0 1 2.1 1.29 7.12 7.12 0 0 1 .88 2.35l.54 2.46 2.6 12-.2-.15a11.55 11.55 0 0 1 5 .84 11.8 11.8 0 0 1 3.34 2 11.56 11.56 0 0 1 1.7 1.86c.17.24.27.43.35.56s.11.2.1.2a15.25 15.25 0 0 0 -2.3-2.45 11.82 11.82 0 0 0 -8.17-2.68h-.16v-.16l-2.64-12q-.27-1.25-.54-2.46a6.44 6.44 0 0 0 -.82-2.2 2.37 2.37 0 0 0 -1.77-1.12 1.43 1.43 0 0 0 -1.56 1 5.49 5.49 0 0 0 -.1 2.06c0 .69.07 1.37.11 2 .06 1.3.13 2.52.19 3.64.1 2.18.18 4 .24 5.27v1.43a2.18 2.18 0 0 1 -.01.58z" fill="#eb996e"/><path d="m145.08 353.38a9.79 9.79 0 0 1 -1.28.94 11.11 11.11 0 0 0 -2.64 2.66 7.61 7.61 0 0 0 -1.3 3.47c0 .52 0 1.05-.1 1.57a3.62 3.62 0 0 1 -.21-1.6 7.08 7.08 0 0 1 1.24-3.69 9.65 9.65 0 0 1 2.84-2.67 4.49 4.49 0 0 1 1.45-.68z" fill="#eb996e"/><path d="m124.86 350.58a27.62 27.62 0 0 1 -1.61-3 15.91 15.91 0 0 1 -1.46-3.13 12.09 12.09 0 0 1 1.85 2.93 9.16 9.16 0 0 1 1.22 3.2z" fill="#eb996e"/><path d="m172.07 395.08a28.42 28.42 0 0 0 -9-11 7.19 7.19 0 0 1 1.82 1.1 21 21 0 0 1 6.44 7.89 7.48 7.48 0 0 1 .74 2.01z" fill="#eb996e"/><path d="m229.68 335.17s-22.47 6-32.26 12.66c-4.9 3.33-21.8 23.33-21.8 23.33l16.9 25 17.48-17.08z" fill="#e0e0e0"/><path d="m200.07 383.8 5.78 67.33 13.75 1h67l-.17-69.28-3-30.47-25.73-9.88c-9.18 8.91-23.89 6.66-28.08-5.2z" fill="#e0e0e0"/><path d="m198.35 362.82c.12 0 1 9.23 1.92 20.63s1.61 20.66 1.49 20.67-1-9.22-1.92-20.63-1.61-20.66-1.49-20.67z" fill="#263238"/><path d="m227.82 436.81-1.44.54a37.36 37.36 0 0 0 27.78-15c-8.39 5.48-16.89 11.05-26.34 14.46z"/><path d="m255 403.16a2.05 2.05 0 0 1 -.16.41l-.55 1.13c-.24.5-.55 1.09-.94 1.77s-.8 1.46-1.33 2.29a62.81 62.81 0 0 1 -3.92 5.67 63.83 63.83 0 0 1 -17.66 15.74c-.82.53-1.61.94-2.29 1.32s-1.28.68-1.78.92l-1.14.54a1.46 1.46 0 0 1 -.41.16 1.81 1.81 0 0 1 .37-.24l1.1-.61c.48-.26 1.07-.58 1.74-1s1.44-.82 2.25-1.36c1.66-1 3.57-2.36 5.62-3.93a68.39 68.39 0 0 0 11.88-11.8c1.59-2 2.93-3.94 4-5.59.54-.81 1-1.58 1.38-2.24s.73-1.25 1-1.73l.62-1.1a1.41 1.41 0 0 1 .22-.35z" fill="#263238"/><path d="m155.31 490.29 5.3 24.17s-23.08 11.72-22.53 16.29l47.52-6.83-6.72-38z" fill="#455a64"/><path d="m174.84 509.75a2 2 0 0 1 1.74 2 1.88 1.88 0 0 1 -1.93 1.73 2.07 2.07 0 0 1 -1.83-2.08 2 2 0 0 1 2.2-1.58" fill="#fff" opacity=".6"/><path d="m185.6 523.92-.68-3.83-45.65 8.19a3.34 3.34 0 0 0 -1.38 2.85z" fill="#fff" opacity=".6"/><path d="m159.8 514.36c0 .22 1.22.12 2.49.65s2.05 1.4 2.25 1.27-.39-1.4-1.94-2-2.89-.13-2.8.08z" fill="#263238"/><path d="m155.22 517.3c0 .24 1.06.45 2 1.28s1.38 1.82 1.6 1.77.18-1.35-1.05-2.35-2.58-.92-2.55-.7z" fill="#263238"/><path d="m153.49 523.75c.22 0 .33-1.21-.49-2.36s-2-1.46-2.06-1.25.73.76 1.39 1.72.93 1.9 1.16 1.89z" fill="#263238"/><path d="m159.21 508.71c.13.19 1.13-.31 2.45-.46s2.41.07 2.49-.15-1-.86-2.59-.66-2.5 1.11-2.35 1.27z" fill="#263238"/><path d="m156.37 495.08.93 4.3 23.17-4.38-.68-3.91z"/><path d="m158.23 503.82a4.57 4.57 0 0 0 2.36-.44 11.2 11.2 0 0 0 2.33-1.21 10.72 10.72 0 0 0 1.23-1 2.86 2.86 0 0 0 .61-.69 1 1 0 0 0 -.11-1.24 1.28 1.28 0 0 0 -1.11-.35 2.91 2.91 0 0 0 -.86.29 7.74 7.74 0 0 0 -1.38.77 8.34 8.34 0 0 0 -1.92 1.83c-.91 1.21-1.13 2.14-1 2.17s.52-.76 1.48-1.8a9.8 9.8 0 0 1 1.89-1.57 9.18 9.18 0 0 1 1.28-.67c.48-.22.9-.3 1.07-.1s.08.11 0 .28a2.34 2.34 0 0 1 -.45.5 11.36 11.36 0 0 1 -1.12.94 13 13 0 0 1 -2.12 1.29 15.25 15.25 0 0 0 -2.18 1z" fill="#263238"/><path d="m158.59 504.09a3.87 3.87 0 0 0 .2-2.4 7.82 7.82 0 0 0 -1.65-3.85 2 2 0 0 0 -1.73-.92 1.1 1.1 0 0 0 -.87.84 3.06 3.06 0 0 0 -.08.91 5.08 5.08 0 0 0 .29 1.59 5.53 5.53 0 0 0 1.45 2.26c1.15 1.06 2.16 1.16 2.16 1.07s-.83-.42-1.75-1.47a5.57 5.57 0 0 1 -1.15-2.09 4.88 4.88 0 0 1 -.2-1.37c0-.52.1-1 .29-.94s.7.26 1 .62a8.59 8.59 0 0 1 .82 1.18 8.79 8.79 0 0 1 .89 2.28c.28 1.37.19 2.28.33 2.29z" fill="#263238"/><path d="m153.65 498.38s-16.3-66.71-16.48-75.83c-.19-9.7 8.7-17.86 14.66-19.24s19.23 3.21 26.56 12.37 30.68 26.56 30.68 26.56c9.65 7.24 24 10.32 37 3.53 0 0 19.09 29.68 20.33 28.93 2.24-1.35.78 2.38-1 7-3.53 9.11-10.53 16.88-18.65 17.07l-46.64 2.1-18.16-20.3 1.68 14z" fill="#2f455c"/><path d="m183.12 488.58a4.29 4.29 0 0 1 -.16-.71c-.09-.47-.24-1.16-.38-2.05a74.94 74.94 0 0 1 -.86-7.62 107.8 107.8 0 0 1 -.12-11.37c.07-2.14.18-4.38.33-6.7a71.54 71.54 0 0 0 .21-7.17 88.47 88.47 0 0 0 -1.54-13.78 76.77 76.77 0 0 0 -2.86-11 40.1 40.1 0 0 0 -3.07-7c-.41-.81-.85-1.36-1.09-1.77a5.73 5.73 0 0 1 -.38-.62 4.9 4.9 0 0 1 .45.57 16.83 16.83 0 0 1 1.16 1.73 37.23 37.23 0 0 1 3.22 7 73.25 73.25 0 0 1 3 11 86 86 0 0 1 1.58 13.84 69.56 69.56 0 0 1 -.22 7.22c-.15 2.32-.27 4.56-.35 6.69-.18 4.27-.16 8.12 0 11.34s.48 5.82.73 7.61c.11.9.23 1.59.29 2.06a3.53 3.53 0 0 1 .06.73z" fill="#455a64"/><path d="m212.39 454.91c-.13 0 0-2.87-.52-6.34s-1.36-6.19-1.23-6.23a6.79 6.79 0 0 1 .69 1.75 28.82 28.82 0 0 1 1.25 9 6.57 6.57 0 0 1 -.19 1.82z" fill="#455a64"/><path d="m203.48 499.56-23.29 8.33s2.31 25.79-1.85 27.75l-19.44-43.89 35.76-14.48z" fill="#455a64"/><path d="m176.62 493.34a2 2 0 0 0 -2.58-.43 1.88 1.88 0 0 0 -.45 2.55 2.05 2.05 0 0 0 2.73.44 2 2 0 0 0 .18-2.71" fill="#fff"/><path d="m158.9 491.75 3.6-1.46 17.3 43a3.32 3.32 0 0 1 -1.68 2.68z" fill="#fff" opacity=".6"/><path d="m180.7 508.53c-.22.08-.75-1-1.88-1.76s-2.27-1-2.27-1.24 1.4-.41 2.75.57 1.62 2.39 1.4 2.43z" fill="#263238"/><path d="m180.63 514c-.19.14-.94-.66-2.15-1s-2.28-.2-2.35-.42 1.1-.85 2.6-.35 2.11 1.66 1.9 1.77z" fill="#263238"/><path d="m176.09 518.86c-.13-.18.84-.91 2.26-.83s2.3.91 2.15 1.08-1-.21-2.2-.27-2.1.23-2.21.02z" fill="#263238"/><path d="m185.8 506c-.24 0-.34-1.13-.91-2.33s-1.34-2-1.2-2.19 1.29.43 1.94 1.84.37 2.76.17 2.68z" fill="#263238"/><path d="m198.86 501.2-4.15 1.49-8.54-22 3.68-1.5z" opacity=".3"/><path d="m190.47 504.27a4.47 4.47 0 0 1 -.88-2.24 11 11 0 0 1 -.22-2.62 11.48 11.48 0 0 1 .17-1.55 3 3 0 0 1 .26-.89 1 1 0 0 1 1.12-.56 1.28 1.28 0 0 1 .87.76 3 3 0 0 1 .22.88 8.33 8.33 0 0 1 .08 1.58 8.6 8.6 0 0 1 -.53 2.6c-.55 1.41-1.22 2.09-1.29 2s.37-.84.74-2.21a10 10 0 0 0 .33-2.44 8.75 8.75 0 0 0 -.12-1.44c-.06-.52-.22-.92-.48-1-.1 0-.13 0-.23.15a2.41 2.41 0 0 0 -.18.65 10.11 10.11 0 0 0 -.2 1.45 12.85 12.85 0 0 0 0 2.48 16.71 16.71 0 0 1 .34 2.4z" fill="#263238"/><path d="m190 504.11c-.06-.06.55-.81 1.92-1.45a7.8 7.8 0 0 1 4.15-.64 2 2 0 0 1 1.7 1 1.12 1.12 0 0 1 -.25 1.18 3.08 3.08 0 0 1 -.73.56 5.3 5.3 0 0 1 -1.5.6 5.52 5.52 0 0 1 -2.68 0c-1.5-.42-2.13-1.22-2.06-1.27a18.44 18.44 0 0 0 2.18.7 5.48 5.48 0 0 0 2.38-.13 4.94 4.94 0 0 0 1.27-.55c.45-.26.76-.59.64-.75a1.38 1.38 0 0 0 -1-.49 7.66 7.66 0 0 0 -1.43-.07 8.5 8.5 0 0 0 -2.4.46c-1.35.4-2.07.95-2.19.85z" fill="#263238"/><path d="m199.88 472s46.79-43.76 62.15-41.43 19.09 9.77 20.48 15.82.93 24.21-20 34.92-65.63 22.34-65.63 22.34l-9.32-26.07z" fill="#2f455c"/><path d="m199.88 472s-.26.14-.8.39l-2.36 1.1-9.14 4.19v-.12c2.32 6.43 5.52 15.33 9.37 26.05l-.19-.1c11-2.95 23.86-6.66 37.88-11.37 7-2.37 14.29-5 21.63-8.18 1.85-.77 3.64-1.68 5.48-2.55.92-.42 1.78-1 2.68-1.47l1.33-.75c.45-.25.85-.57 1.28-.86a36.06 36.06 0 0 0 9.14-8.41 31.19 31.19 0 0 0 5.62-11.7c.3-1 .43-2.1.63-3.15s.25-2.11.25-3.17a21.36 21.36 0 0 0 -.62-6.22 18.42 18.42 0 0 0 -2.43-5.63 16.76 16.76 0 0 0 -4.15-4.33 22.31 22.31 0 0 0 -5.2-2.8 37.11 37.11 0 0 0 -5.57-1.65l-2.81-.5-1.39-.08c-.46 0-.92.08-1.38.13a23.17 23.17 0 0 0 -5.28 1.48 64.63 64.63 0 0 0 -9.42 4.79 178.41 178.41 0 0 0 -15.69 10.76c-9.28 7-16.42 13.19-21.34 17.45-2.45 2.14-4.34 3.83-5.62 5l-1.45 1.3c-.32.29-.5.43-.5.43l.47-.47 1.43-1.33c1.25-1.16 3.12-2.87 5.56-5 4.88-4.3 12-10.5 21.26-17.57a179.16 179.16 0 0 1 15.69-10.83 67 67 0 0 1 9.47-4.83 23.34 23.34 0 0 1 5.37-1.52l1.43-.14 1.45.09 2.84.5a37.1 37.1 0 0 1 5.63 1.67 22.37 22.37 0 0 1 5.3 2.84 17.22 17.22 0 0 1 4.25 4.43 18.73 18.73 0 0 1 2.49 5.75 21.92 21.92 0 0 1 .65 6.35 32 32 0 0 1 -.26 3.22c-.2 1.06-.33 2.14-.63 3.19a31.82 31.82 0 0 1 -5.7 11.86 36.57 36.57 0 0 1 -9.25 8.51c-.43.28-.84.61-1.29.86l-1.35.76c-.9.49-1.77 1.05-2.7 1.48-1.84.87-3.65 1.79-5.5 2.55-7.36 3.2-14.66 5.81-21.67 8.18-14 4.69-26.92 8.37-37.92 11.29h-.15l-.05-.13c-3.8-10.74-7-19.65-9.25-26.1v-.08h.08l9.17-4.1 2.39-1z" fill="#455a64"/><path d="m224.81 440.55c-.72-1.31.76-3.61-.64-4.1-5.4-1.9-1.26-10.45-6.79-8.95l-7.38 13.11c3.23 2 1.85 7.51 4.67 10 1.64 1.46 4.12 1.38 6.26.9 8.14-1.82 15-6.12 17.11-14.19.36-1.42-12.5 4.55-13.23 3.23z" fill="#e0e0e0"/></svg>