<svg width="32" height="32" viewBox="0 0 32 32" fill="none" xmlns="http://www.w3.org/2000/svg">
<g clip-path="url(#clip0_903_12452)">
<path d="M31.9565 24.3439L31.9525 19.7356C31.9585 19.4894 31.9478 19.2411 31.9739 18.9969C32 18.7527 31.8962 18.7096 31.6745 18.7109C29.9451 18.7197 28.2157 18.7109 26.487 18.7183C26.2878 18.7207 26.0905 18.6783 25.9096 18.5942C24.4401 17.9196 22.9177 17.4352 21.2961 17.3354C19.1219 17.2005 17.0523 17.9263 16.0014 20.1795C15.9143 20.3664 15.8004 20.4291 15.5941 20.4285C13.7978 20.4183 12.002 20.4285 10.2057 20.4136C9.89554 20.4102 9.82924 20.5047 9.85201 20.788C9.87612 21.0916 9.85737 21.3985 9.85737 21.7419C9.71001 21.6745 9.61959 21.6326 9.53118 21.5895C7.86206 20.7687 6.19316 19.9477 4.52448 19.1265C2.8366 18.3001 1.1648 18.7561 0.0971541 20.3077C-0.0528794 20.5263 -0.0280961 20.6146 0.190256 20.7516C4.51176 23.4581 8.82923 26.1703 13.1427 28.888C13.2217 28.9451 13.3133 28.9818 13.4097 28.995C13.506 29.0082 13.604 28.9974 13.6953 28.9636C17.3291 27.797 20.9643 26.6346 24.6008 25.4765C24.8133 25.4101 25.0348 25.3777 25.2572 25.3807C27.1876 25.3839 29.1177 25.3839 31.0476 25.3807C32.0617 25.3828 32.0616 25.3828 31.9565 24.3439Z" fill="#F7F9FA"/>
<path d="M31.9512 19.7356L31.9552 24.3438C29.6685 24.3438 27.3819 24.3438 25.0952 24.3438C24.895 24.342 24.6958 24.3723 24.5051 24.4335C20.9655 25.5655 17.4247 26.6971 13.8829 27.8281C13.7759 27.8678 13.6608 27.8803 13.5479 27.8647C13.435 27.849 13.3276 27.8057 13.2352 27.7384C11.6431 26.7265 10.0436 25.7274 8.44683 24.7243L1.44348 20.3231C2.11327 19.6668 3.08849 19.5541 4.04965 20.0263C5.67992 20.8271 7.28675 21.6798 8.94583 22.4138C9.67858 22.7382 10.0235 23.1336 9.85607 23.9269C9.85607 23.9377 9.85607 23.9498 9.85607 23.9606C9.80316 24.2251 9.92841 24.2662 10.1662 24.2655C12.6317 24.2568 15.0965 24.2602 17.562 24.2602C18.2318 24.2602 18.2117 24.2602 18.2318 23.5781C18.2419 23.288 18.1535 23.2347 17.8829 23.2361C15.6411 23.2482 13.3953 23.2395 11.1568 23.2482C10.9264 23.2482 10.846 23.1963 10.8594 22.9541C10.8815 22.5614 10.8815 22.1677 10.8594 21.7749C10.8433 21.5051 10.9318 21.4376 11.1943 21.4416C12.834 21.4531 14.4763 21.4416 16.1133 21.4551C16.4093 21.4585 16.5587 21.3769 16.6859 21.0983C16.9827 20.448 17.2934 19.799 17.8581 19.3207C18.7837 18.5375 19.8762 18.3088 21.0423 18.356C22.6947 18.4235 24.2298 18.9422 25.7154 19.633C25.8657 19.7043 26.0302 19.74 26.1963 19.7376C28.1151 19.7344 30.0333 19.7338 31.9512 19.7356ZM20.8996 20.0513C20.8525 19.8445 20.83 19.6327 20.8326 19.4205C20.8326 19.3031 20.7657 19.262 20.6578 19.2775C19.9164 19.3841 19.195 19.5474 18.5594 19.9791C17.9874 20.367 17.9807 20.4135 18.5064 20.8615C18.6337 20.9701 18.7616 21.0956 18.9458 20.958C19.4394 20.5882 20.028 20.3688 20.6417 20.3258C20.7864 20.3144 20.9438 20.2665 20.8996 20.0513ZM22.1863 19.3247C22.0778 19.345 21.9364 19.2033 21.9103 19.4084C21.8809 19.6391 21.8608 19.8718 21.8433 20.1039C21.8348 20.1479 21.8411 20.1935 21.8611 20.2336C21.8811 20.2736 21.9137 20.3058 21.9539 20.3252C22.3993 20.5458 22.6786 20.4176 22.7924 19.9353C22.903 19.463 22.903 19.463 22.4636 19.374C22.3658 19.3537 22.2673 19.3389 22.1876 19.3247H22.1863Z" fill="#FBD6A7"/>
<path d="M31.9511 19.7355C30.0311 19.7355 28.1125 19.7355 26.1956 19.7355C26.0295 19.7379 25.865 19.7022 25.7147 19.6309C24.2291 18.9401 22.6939 18.4166 21.0416 18.3539C19.8754 18.3074 18.783 18.5354 17.8574 19.3186C17.2927 19.7969 16.9819 20.4459 16.6852 21.0962C16.558 21.3748 16.4086 21.4564 16.1126 21.453C14.4729 21.4369 12.8306 21.453 11.1936 21.4395C10.933 21.4395 10.8446 21.5036 10.8587 21.7728C10.8808 22.1656 10.8808 22.5593 10.8587 22.952C10.8453 23.1942 10.9257 23.2468 11.1561 23.2461C13.3979 23.2374 15.6437 23.2461 17.8821 23.234C18.1501 23.234 18.2412 23.2859 18.2311 23.576C18.2083 24.2574 18.2251 24.2581 17.5613 24.2581C15.0958 24.2581 12.631 24.2547 10.1655 24.2634C9.92769 24.2634 9.80244 24.223 9.85535 23.9585C9.85535 23.9477 9.85535 23.9356 9.85535 23.9248C10.0228 23.1315 9.67786 22.7361 8.94511 22.4117C7.28603 21.6777 5.6792 20.825 4.04893 20.0242C3.08777 19.552 2.11121 19.6647 1.44276 20.3211L8.44611 24.7222C10.0429 25.7253 11.6424 26.7244 13.2345 27.7363C13.3269 27.8036 13.4343 27.8469 13.5472 27.8626C13.6601 27.8782 13.7751 27.8657 13.8821 27.826C17.4213 26.6887 20.9621 25.5571 24.5044 24.4314C24.6951 24.3702 24.8943 24.3399 25.0945 24.3417C27.3811 24.3417 29.6678 24.3417 31.9545 24.3417C32.0596 25.3806 32.0596 25.3806 31.0456 25.3806C29.1152 25.3806 27.1851 25.3806 25.2552 25.3806C25.0328 25.3776 24.8113 25.4099 24.5988 25.4764C20.9641 26.6394 17.3289 27.8018 13.6933 28.9634C13.602 28.9972 13.504 29.008 13.4076 28.9948C13.3113 28.9817 13.2197 28.9449 13.1407 28.8879C8.82633 26.1706 4.50885 23.4584 0.188242 20.7514C-0.0301103 20.6165 -0.0548936 20.5261 0.0951399 20.3076C1.16279 18.756 2.83459 18.2999 4.52247 19.1263C6.19293 19.9439 7.86183 20.7649 9.52916 21.5893C9.61758 21.6325 9.708 21.673 9.85535 21.7418C9.85535 21.3984 9.87411 21.0915 9.85 20.7879C9.82722 20.5045 9.89353 20.4101 10.2036 20.4135C12 20.4317 13.7957 20.4182 15.5921 20.4283C15.8011 20.4283 15.9123 20.3663 15.9994 20.1794C17.0503 17.9262 19.1199 17.201 21.2941 17.3352C22.9156 17.4351 24.4381 17.9215 25.9076 18.5941C26.0885 18.6782 26.2857 18.7206 26.485 18.7182C28.2137 18.7135 29.9431 18.7182 31.6725 18.7108C31.8942 18.7108 31.9994 18.7452 31.9719 18.9968C31.9444 19.2484 31.9585 19.4893 31.9511 19.7355Z" fill="#040403"/>
<path d="M20.8995 20.0513C20.9424 20.2665 20.785 20.3144 20.643 20.3259C20.0293 20.3688 19.4407 20.5882 18.9471 20.958C18.7629 21.0929 18.635 20.9701 18.5077 20.8615C17.9819 20.4136 17.9886 20.367 18.5606 19.9791C19.1962 19.5481 19.9176 19.3841 20.6591 19.2776C20.7669 19.262 20.8359 19.3032 20.8339 19.4206C20.8308 19.6327 20.8528 19.8444 20.8995 20.0513Z" fill="#F7F9FA"/>
<path d="M22.1876 19.3249C22.2673 19.3391 22.3657 19.3539 22.4629 19.3742C22.9023 19.4659 22.9023 19.4659 22.7917 19.9354C22.6779 20.4178 22.3986 20.5426 21.9532 20.3253C21.913 20.306 21.8804 20.2738 21.8604 20.2337C21.8404 20.1937 21.8341 20.1481 21.8426 20.1041C21.8621 19.872 21.8822 19.6393 21.9096 19.4086C21.9377 19.2035 22.0791 19.3451 22.1876 19.3249Z" fill="#F7F9FA"/>
<path d="M15.497 10.5153C15.4649 10.9875 15.4649 10.9875 14.9779 10.9875C13.4816 10.9875 11.986 10.9929 10.4903 10.9814C10.3888 10.9771 10.2876 10.9956 10.194 11.0355C10.1004 11.0754 10.0168 11.1357 9.94912 11.2121C9.09648 12.0837 8.2311 12.9432 7.37712 13.8141C7.31945 13.8789 7.24818 13.9301 7.16849 13.9638C7.08879 13.9975 7.00266 14.013 6.9163 14.009C5.47268 14.0009 4.02882 14.0009 2.58475 14.009C2.49331 14.0129 2.40217 13.9962 2.31794 13.9601C2.23371 13.9241 2.15851 13.8696 2.09781 13.8006C1.47289 13.1577 0.839277 12.5229 0.203644 11.8915C0.145644 11.842 0.0996639 11.7798 0.0692443 11.7096C0.0388248 11.6394 0.0247745 11.5632 0.028159 11.4867C0.0415549 11.09 0.0462434 10.6913 0.028159 10.2953C0.0181122 10.0795 0.0951324 10.039 0.290042 10.0397C1.76359 10.0471 3.23713 10.0356 4.71536 10.0511C4.98328 10.0511 5.03485 9.97422 5.02949 9.72259C5.01275 8.90699 5.01007 8.09072 5.02949 7.2758C5.03686 7.00595 4.95046 6.95739 4.70196 6.95941C3.24784 6.97223 1.79373 6.95941 0.339606 6.97088C0.110537 6.97088 0.00940289 6.93512 0.0261477 6.67135C0.0536092 6.21329 -0.0796844 5.70329 0.0797262 5.30662C0.233778 4.9221 0.669813 4.65158 0.983946 4.33317C1.36439 3.94797 1.75153 3.56816 2.12729 3.17757C2.17751 3.11927 2.23999 3.07297 2.3102 3.04205C2.38042 3.01113 2.45658 2.99635 2.53318 2.9988C4.00672 3.00554 5.48183 3.00554 6.9585 2.9988C7.03447 2.99749 7.10981 3.01294 7.17923 3.04405C7.24865 3.07517 7.31048 3.1212 7.36037 3.17891C8.2311 4.06197 9.11054 4.93626 9.97792 5.8227C10.0396 5.89059 10.1154 5.94393 10.1999 5.97891C10.2845 6.0139 10.3756 6.02966 10.4669 6.02508C14.4454 6.02058 18.424 6.02058 22.4026 6.02508C22.5988 6.02508 22.7147 5.97516 22.8272 5.79976C23.4213 4.86721 24.3066 4.16023 25.3435 3.79019C26.3804 3.42015 27.5101 3.40808 28.5547 3.75589C29.5992 4.1037 30.4991 4.79162 31.1127 5.71127C31.7263 6.63092 32.0187 7.73005 31.9438 8.83549C31.8192 10.9322 30.3034 12.7941 28.282 13.3331C26.1969 13.8896 23.9893 13.0457 22.8473 11.2418C22.7247 11.0475 22.5961 10.9861 22.3751 10.9875C20.5781 10.9969 18.7803 10.9929 16.9833 10.9929C16.4957 10.9929 16.4957 10.9929 16.4642 10.5207C16.497 10.0484 16.497 10.0484 16.9853 10.0484C18.9692 10.0484 20.9531 10.0545 22.9371 10.0417C23.1835 10.0417 23.2967 10.1233 23.4059 10.3358C24.2766 12.027 26.0268 12.8541 27.8674 12.4628C30.3771 11.9292 31.7884 8.97311 30.5928 6.755C30.5848 6.70171 30.5827 6.64437 30.5178 6.62008C30.5245 6.52766 30.4622 6.46492 30.4207 6.39544C29.5908 5.00305 27.931 4.22118 26.3456 4.50654C25.0938 4.73051 24.1192 5.37678 23.5017 6.52024L23.4937 6.5425C23.4823 6.56813 23.4709 6.59377 23.4588 6.61941L23.4629 6.61536C23.3959 6.63425 23.3959 6.68754 23.3905 6.74151L23.3965 6.73409C23.3523 6.74691 23.3443 6.78131 23.3463 6.82111L23.2405 6.97357C23.1065 6.96953 22.9726 6.96278 22.8386 6.96278C18.5903 6.96278 14.3418 6.96413 10.0931 6.96683C9.99714 6.97134 9.90135 6.95473 9.81239 6.91814C9.72344 6.88156 9.64347 6.82589 9.57806 6.755C8.71804 5.87801 7.84664 5.00777 6.98261 4.13213C6.93317 4.07335 6.87161 4.02611 6.80221 3.99373C6.73281 3.96134 6.65723 3.94457 6.58073 3.94459C5.35501 3.95269 4.12929 3.94864 2.90357 3.94932C2.81114 3.94932 2.71402 3.93582 2.63566 4.01138L1.02815 5.63043C0.933044 5.72623 0.953808 5.85103 0.97792 5.95627C1.00672 6.08444 1.13332 6.02373 1.21704 6.02777C1.31952 6.02898 1.42196 6.0238 1.5238 6.01226C2.9029 6.01698 4.28201 6.02845 5.66111 6.01968C5.91161 6.01968 5.96654 6.09186 5.96453 6.33202C5.95314 7.72104 5.95849 9.10938 5.95849 10.4984C5.95849 10.9706 5.9585 10.9706 5.50974 11.0111C4.05941 11.0057 2.6082 11.0012 1.15609 10.9976C0.977253 10.9976 0.892185 11.171 0.993324 11.3349C1.05112 11.4081 1.11875 11.4728 1.19426 11.5272C1.63699 11.9818 2.08509 12.4311 2.52045 12.8926C2.57589 12.953 2.64409 13.0001 2.72002 13.0305C2.79595 13.0608 2.87767 13.0737 2.95917 13.068C4.15274 13.0612 5.34653 13.0612 6.54055 13.068C6.62206 13.0718 6.7034 13.0574 6.77877 13.026C6.85414 12.9945 6.92168 12.9466 6.97658 12.8858C7.84731 12.0014 8.72407 11.1278 9.58877 10.242C9.65093 10.174 9.72721 10.1206 9.81218 10.0856C9.89715 10.0507 9.98873 10.035 10.0804 10.0397C11.71 10.0464 13.3396 10.0397 14.9699 10.0397C15.4642 10.0451 15.4642 10.0451 15.497 10.5153Z" fill="#040505"/>
<path d="M15.497 10.5151C15.4641 10.0429 15.4641 10.0429 14.9725 10.0429C13.3422 10.0429 11.7126 10.0463 10.083 10.0429C9.99136 10.0382 9.89978 10.0539 9.81481 10.0889C9.72984 10.1238 9.65356 10.1772 9.5914 10.2453C8.72469 11.131 7.84526 12.0047 6.97921 12.8891C6.92431 12.9499 6.85677 12.9977 6.7814 13.0292C6.70603 13.0607 6.62469 13.075 6.54318 13.0712C5.34961 13.0645 4.15582 13.0645 2.9618 13.0712C2.8803 13.0769 2.79858 13.0641 2.72265 13.0337C2.64672 13.0034 2.57853 12.9562 2.52309 12.8958C2.08773 12.4344 1.63963 11.9851 1.1969 11.5304C2.46348 11.5304 3.73072 11.5304 4.99797 11.521C5.57399 11.5176 5.50969 11.6181 5.51103 11.011C5.95979 10.9732 5.95979 10.9732 5.95979 10.4983C5.95979 9.10924 5.95443 7.7209 5.96582 6.33188C5.96582 6.09172 5.91291 6.01751 5.66241 6.01954C4.28331 6.02831 2.9042 6.01954 1.5251 6.01212C1.9109 5.53112 2.38578 5.13513 2.7977 4.68382C2.85451 4.6174 2.92576 4.56508 3.00592 4.53091C3.08607 4.49675 3.17298 4.48166 3.25986 4.48683C4.24669 4.49538 5.23329 4.49538 6.21967 4.48683C6.30636 4.48268 6.3929 4.49781 6.47312 4.53116C6.55335 4.5645 6.62529 4.61524 6.68384 4.67977C7.53046 5.54259 8.3898 6.39327 9.23307 7.25946C9.30819 7.34291 9.40072 7.40857 9.50402 7.45172C9.60732 7.49488 9.71882 7.51446 9.83052 7.50907C14.0368 7.50232 18.2431 7.49558 22.4494 7.51649C22.8908 7.51649 23.1192 7.3701 23.2445 6.9768L23.3503 6.82367L23.4005 6.73732L23.3945 6.74474C23.4082 6.74267 23.4213 6.7375 23.4328 6.72962C23.4443 6.72174 23.4539 6.71135 23.4608 6.69923C23.4678 6.6871 23.472 6.67356 23.473 6.6596C23.474 6.64564 23.4719 6.63162 23.4668 6.61859V6.62264C23.5117 6.61184 23.5298 6.58958 23.501 6.54573L23.509 6.52347C23.8258 6.44252 23.9779 6.14974 24.2116 5.96017C25.7984 4.66358 28.2585 4.67032 29.8104 5.99997C30.0509 6.20236 30.2873 6.41688 30.5251 6.62601C30.5205 6.63982 30.5189 6.65444 30.5202 6.66893C30.5216 6.68342 30.5259 6.69746 30.533 6.71016C30.5401 6.72287 30.5497 6.73394 30.5612 6.74268C30.5728 6.75143 30.586 6.75764 30.6001 6.76093C31.7957 8.97904 30.3844 11.9352 27.8747 12.4688C26.0341 12.8601 24.286 12.033 23.4132 10.3417C23.3041 10.1292 23.1909 10.0463 22.9444 10.0476C20.9605 10.0604 18.9765 10.0544 16.9926 10.0544C16.5043 10.0544 16.5043 10.0544 16.4715 10.5266L15.497 10.5151ZM16.4615 8.03054H10.6015C9.98726 8.03054 10.0053 8.03054 9.98056 8.64916C9.96917 8.93789 10.0609 8.98646 10.3262 8.98646C14.3262 8.97747 18.3264 8.97544 22.3268 8.98039C22.9759 8.98039 22.9618 8.98039 22.9792 8.32939C22.9859 8.07102 22.9002 8.02312 22.6644 8.0238C20.5968 8.03661 18.5291 8.03054 16.4615 8.03054ZM27.0341 6.02696C25.7234 5.98918 24.572 7.07395 24.5325 8.38471C24.4896 9.8115 25.5445 10.9482 26.9484 10.986C28.2699 11.0224 29.4153 9.93023 29.4548 8.59586C29.466 8.26641 29.4121 7.93801 29.296 7.62978C29.18 7.32156 29.0042 7.03967 28.7789 6.80057C28.5536 6.56147 28.2833 6.36993 27.9837 6.23711C27.6842 6.10429 27.3614 6.03285 27.0341 6.02696ZM7.01471 9.51468C7.02141 10.0733 6.94774 10.0125 7.48357 10.0125C8.0194 10.0125 7.95242 10.0739 7.95242 9.52142C7.95242 8.9534 8.02343 9.00737 7.50367 9.00805C6.94506 9.0094 7.02208 8.93856 7.01471 9.51468ZM7.01471 7.50907C7.02141 8.06562 6.94774 8.00356 7.48357 8.00356C8.0194 8.00356 7.95242 8.0663 7.95242 7.51042C7.95242 6.94308 8.0194 6.99907 7.50098 6.99974C6.94439 7.00042 7.02208 6.93161 7.01471 7.50907Z" fill="#BAD7FB"/>
<path d="M23.2418 6.97327C23.1185 7.3659 22.8881 7.51296 22.4467 7.51296C18.2404 7.49205 14.0341 7.49879 9.82785 7.50554C9.71614 7.51093 9.60464 7.49135 9.50134 7.44819C9.39804 7.40504 9.30552 7.33938 9.2304 7.25594C8.38713 6.38974 7.52778 5.53906 6.68117 4.67624C6.62262 4.61171 6.55067 4.56097 6.47045 4.52763C6.39022 4.49428 6.30369 4.47915 6.217 4.4833C5.23062 4.49185 4.24401 4.49185 3.25719 4.4833C3.1703 4.47813 3.0834 4.49322 3.00324 4.52738C2.92309 4.56155 2.85184 4.61387 2.79503 4.68029C2.3811 5.13362 1.90621 5.52759 1.52242 6.00859C1.42058 6.02013 1.31814 6.02531 1.21566 6.0241C1.13194 6.01938 1.00534 6.08077 0.976541 5.95259C0.952429 5.84736 0.931665 5.72255 1.02678 5.62676L2.63428 4.0077C2.70929 3.93215 2.80641 3.94564 2.90219 3.94564C4.12791 3.94564 5.35364 3.94901 6.57936 3.94092C6.65585 3.9409 6.73143 3.95766 6.80083 3.99005C6.87024 4.02244 6.93179 4.06967 6.98123 4.12846C7.84526 5.00545 8.71666 5.87232 9.57668 6.75133C9.642 6.8231 9.72216 6.87956 9.8115 6.91674C9.90084 6.95392 9.99719 6.97092 10.0938 6.96653C14.342 6.96023 18.5905 6.95889 22.8392 6.96248C22.9739 6.96248 23.1078 6.96923 23.2418 6.97327Z" fill="#549CF1"/>
<path d="M30.5218 6.61994C30.284 6.41081 30.0475 6.19965 29.8071 5.9939C28.2552 4.66425 25.795 4.65751 24.2083 5.9541C23.9765 6.14366 23.8225 6.43644 23.5057 6.51739C24.1232 5.37394 25.0978 4.72767 26.3496 4.5037C27.935 4.22104 29.5948 5.0029 30.4246 6.39259C30.4662 6.46747 30.5284 6.53021 30.5218 6.61994Z" fill="#57A1F9"/>
<path d="M5.50903 11.0048C5.50903 11.612 5.57198 11.5114 4.99596 11.5148C3.72872 11.5222 2.46147 11.5216 1.19489 11.5243C1.11938 11.4699 1.05175 11.4052 0.993953 11.332C0.892814 11.1647 0.977881 10.9907 1.15672 10.9947C2.60838 10.996 4.05915 10.9994 5.50903 11.0048Z" fill="#57A1F9"/>
<path d="M23.4669 6.61523C23.472 6.62817 23.4741 6.64209 23.473 6.65595C23.472 6.66981 23.4678 6.68327 23.4609 6.6953C23.4539 6.70734 23.4444 6.71766 23.4329 6.72548C23.4214 6.7333 23.4083 6.73844 23.3945 6.74049C23.3986 6.68691 23.4026 6.63399 23.4669 6.61523Z" fill="#57A1F9"/>
<path d="M30.5947 6.75408C30.5807 6.75081 30.5674 6.74464 30.5559 6.73596C30.5443 6.72728 30.5347 6.71629 30.5276 6.70368C30.5206 6.69107 30.5162 6.67712 30.5149 6.66273C30.5135 6.64834 30.5152 6.63383 30.5197 6.62012C30.5847 6.64088 30.5867 6.69782 30.5947 6.75408Z" fill="#57A1F9"/>
<path d="M23.4006 6.73389L23.3503 6.81961C23.3483 6.78077 23.3563 6.74661 23.4006 6.73389Z" fill="#57A1F9"/>
<path d="M23.4977 6.54248C23.5265 6.58602 23.5084 6.60946 23.4635 6.61884L23.4977 6.54248Z" fill="#57A1F9"/>
<path d="M16.4615 8.0303C18.5291 8.0303 20.5968 8.03367 22.6644 8.0249C22.9002 8.0249 22.9859 8.07212 22.9792 8.3305C22.9618 8.98082 22.9792 8.98149 22.3269 8.98149C18.3269 8.98149 14.3266 8.98352 10.3262 8.98756C10.0583 8.98756 9.96918 8.93764 9.98057 8.65026C10.0054 8.03232 9.98727 8.03165 10.6015 8.03165L16.4615 8.0303Z" fill="#0C0D10"/>
<path d="M27.0341 6.02684C27.3614 6.03273 27.6842 6.10417 27.9837 6.23698C28.2832 6.3698 28.5535 6.56135 28.7789 6.80045C29.0042 7.03955 29.18 7.32143 29.296 7.62966C29.412 7.93788 29.466 8.26629 29.4547 8.59574C29.4152 9.93011 28.2699 11.0243 26.9484 10.9859C25.5418 10.9474 24.4896 9.81138 24.5325 8.38458C24.572 7.07382 25.7233 5.98906 27.0341 6.02684ZM25.4675 8.50197C25.4664 8.80656 25.5552 9.1046 25.7226 9.35828C25.89 9.61196 26.1284 9.80985 26.4076 9.92685C26.6868 10.0438 26.9943 10.0747 27.2909 10.0154C27.5875 9.95614 27.86 9.80947 28.0738 9.594C28.2875 9.37852 28.4329 9.10396 28.4915 8.80514C28.5501 8.50632 28.5192 8.1967 28.4028 7.91558C28.2864 7.63446 28.0897 7.39449 27.8377 7.22613C27.5856 7.05777 27.2897 6.9686 26.9872 6.96994C26.7875 6.96994 26.5898 7.00957 26.4053 7.08658C26.2209 7.16359 26.0533 7.27646 25.9121 7.41874C25.771 7.56102 25.6591 7.72992 25.5828 7.91579C25.5065 8.10165 25.4673 8.30084 25.4675 8.50197Z" fill="#040505"/>
<path d="M7.01475 9.5146C7.02212 8.93849 6.94778 9.00932 7.50236 9.00798C8.02212 9.00798 7.95045 8.95333 7.95112 9.52135C7.95112 10.0739 8.0181 10.0125 7.48227 10.0125C6.94643 10.0125 7.02145 10.0732 7.01475 9.5146Z" fill="#F7F9FA"/>
<path d="M7.01475 7.50912C7.02212 6.93165 6.94777 7.00046 7.49968 6.99979C8.02078 6.99979 7.95112 6.94312 7.95112 7.51047C7.95112 8.06634 8.0181 8.0036 7.48227 8.0036C6.94643 8.0036 7.02145 8.06567 7.01475 7.50912Z" fill="#F7F9FA"/>
<path d="M25.4675 8.50214C25.4679 8.19755 25.5581 7.89995 25.7267 7.64709C25.8953 7.39423 26.1347 7.1975 26.4145 7.08188C26.6943 6.96625 27.0018 6.93694 27.2982 6.99764C27.5945 7.05835 27.8663 7.20635 28.079 7.42286C28.2917 7.63938 28.4358 7.91464 28.4929 8.21375C28.5501 8.51285 28.5177 8.82231 28.3999 9.10286C28.2822 9.38341 28.0844 9.62241 27.8315 9.78954C27.5787 9.95667 27.2823 10.0444 26.9799 10.0416C26.5767 10.0391 26.1911 9.87558 25.9075 9.58696C25.624 9.29833 25.4657 8.90817 25.4675 8.50214Z" fill="#F7F9FA"/>
</g>
<defs>
<clipPath id="clip0_903_12452">
<rect width="32" height="26" fill="white" transform="translate(0 3)"/>
</clipPath>
</defs>
</svg>
