<svg width="32" height="32" viewBox="0 0 32 32" fill="none" xmlns="http://www.w3.org/2000/svg">
<g clip-path="url(#clip0_903_12449)">
<path d="M10.356 31.9998H5.2714C5.14528 31.9798 5.01915 31.9642 4.89618 31.9373C4.26557 31.8085 3.75352 31.4997 3.40038 30.9602C3.13315 30.5417 2.99588 30.0545 3.00561 29.5593C3.00561 21.3757 3.00561 13.1921 3.00561 5.00848C3.00646 4.9562 3.01046 4.90401 3.01759 4.8522C3.01947 4.81694 3.03334 4.78335 3.05693 4.7569C3.08052 4.73045 3.11244 4.7127 3.1475 4.70654C3.24914 4.68854 3.35203 4.67829 3.45525 4.6759C3.55804 4.68591 3.66082 4.69153 3.76298 4.70716C3.81149 4.70895 3.85731 4.72967 3.8905 4.76479C3.92368 4.79991 3.94154 4.8466 3.94018 4.8947C3.94775 4.9766 3.95279 5.05912 3.95279 5.14101C3.95279 11.8001 3.95279 18.4591 3.95279 25.1182C3.95279 25.1607 3.95279 25.2032 3.95279 25.2432C3.96099 25.3683 4.00451 25.4177 4.13504 25.4245C4.39233 25.4377 4.64899 25.4245 4.90565 25.4202C4.97627 25.4233 5.04689 25.4295 5.11752 25.4295H19.7022C19.7603 25.4295 19.8183 25.4345 19.8757 25.4339C19.8953 25.4366 19.9153 25.4349 19.9341 25.4289C19.953 25.4229 19.9702 25.4128 19.9846 25.3993C19.9989 25.3857 20.01 25.3692 20.017 25.3508C20.0241 25.3325 20.0268 25.3128 20.0251 25.2933C20.0251 25.2707 20.0251 25.2482 20.0251 25.2257C20.022 25.0138 20.0182 24.8013 20.015 24.5887L20.0056 23.9373C20.0119 23.6947 20.0201 23.4528 20.0251 23.2109C20.0251 23.0577 19.9766 23.0015 19.8233 22.9896C19.5818 22.9708 19.3409 22.9508 19.1025 22.9108C18.2174 22.7629 17.3616 22.4768 16.5669 22.0631C14.8605 21.176 13.5064 19.7436 12.7239 17.9982C11.9413 16.2528 11.7763 14.2965 12.2554 12.4465C12.6565 10.9343 13.4397 9.64145 14.564 8.55057C15.4157 7.71844 16.4355 7.07458 17.5563 6.66137C18.0952 6.45704 18.6569 6.31747 19.2293 6.24565C19.3762 6.22877 19.5269 6.24002 19.6751 6.23314C19.8851 6.22314 19.9999 6.1375 20.0346 5.96621C20.0465 5.915 20.0516 5.86245 20.0497 5.80992C20.0377 5.62238 20.0201 5.43171 20.0049 5.24291C20.0087 4.94034 20.0121 4.63798 20.015 4.33583C20.0182 3.89385 20.0226 3.45124 20.022 3.00926C20.022 2.69231 20.0428 2.37411 19.9772 2.06029C19.8725 1.56017 19.5988 1.20321 19.1 1.0338C18.8667 0.960161 18.6227 0.925513 18.378 0.931273H5.83957C5.71344 0.931273 5.59301 0.939401 5.46941 0.943777C5.38404 0.937933 5.2983 0.940235 5.21338 0.950653C4.91505 0.97572 4.63333 1.0974 4.41167 1.29691C4.19001 1.49643 4.04073 1.7627 3.98685 2.05466C3.9345 2.33473 3.95279 2.6173 3.95279 2.89924C3.95279 3.10929 3.96226 3.31871 3.94334 3.52813C3.93072 3.66567 3.88028 3.71568 3.74218 3.73693C3.64758 3.75006 3.55299 3.75631 3.45714 3.76569C3.35685 3.76141 3.25686 3.75181 3.1576 3.73693C3.1209 3.73262 3.08681 3.71591 3.06108 3.6896C3.03536 3.6633 3.01957 3.62902 3.01634 3.59252C3.01079 3.55314 3.00741 3.51349 3.00625 3.47375C3.00625 3.2737 3.00625 3.07407 3.00625 2.87486C3.00625 2.5529 2.993 2.23158 3.04912 1.91151C3.13304 1.46254 3.34781 1.04779 3.66688 0.718487C3.98594 0.389185 4.39534 0.159764 4.84448 0.0585687C4.94744 0.0460066 5.04956 0.0274273 5.15032 0.00292969H18.7853C18.7923 0.0229344 18.8099 0.0160585 18.8232 0.0173088C19.549 0.0841995 20.1241 0.411152 20.5391 1.00442C20.8193 1.40914 20.9687 1.88884 20.9673 2.37974C20.9786 3.07657 20.982 3.77361 20.9773 4.47086C20.9736 4.93284 20.9666 5.39482 20.9654 5.85681C20.9654 6.10124 21.0404 6.18063 21.2807 6.20314C21.5014 6.22439 21.7221 6.24502 21.9409 6.28066C22.8039 6.4181 23.6378 6.69698 24.4085 7.10585C26.1256 8.01857 27.4083 9.34638 28.2369 11.0968C28.7061 12.087 28.9344 13.1373 28.9861 14.2269C28.9795 14.3173 28.9838 14.4082 28.9987 14.4976V14.7076C28.9838 14.7971 28.9795 14.8879 28.9861 14.9783C28.9658 15.425 28.9104 15.8693 28.8202 16.3074C28.5416 17.6514 27.9353 18.9074 27.0542 19.9656C26.1732 21.0238 25.0442 21.8521 23.7659 22.3782C23.137 22.6398 22.4798 22.8286 21.8072 22.9408C21.601 22.9758 21.3916 22.9858 21.1835 23.0033C21.041 23.0152 20.99 23.0659 20.971 23.209C20.9675 23.2387 20.9658 23.2685 20.966 23.2984C20.966 23.5635 20.9698 23.8279 20.9704 24.093C20.9729 24.7906 20.9746 25.4881 20.9754 26.1853C20.9754 26.7724 20.9717 27.36 20.971 27.9476C20.971 28.4803 20.971 29.0104 20.971 29.5449C20.9741 29.7749 20.9461 30.0043 20.8878 30.2269C20.6356 31.1509 20.0386 31.725 19.0969 31.9492C18.9941 31.9736 18.8888 31.988 18.7847 32.0067H13.6099C13.439 31.9579 13.4277 31.9442 13.4069 31.7648C13.3999 31.7023 13.398 31.6397 13.3936 31.5729C13.4226 31.5016 13.3999 31.4303 13.3936 31.3584C13.3842 31.1665 13.4516 31.0877 13.6459 31.0646C13.6669 31.0633 13.6879 31.0633 13.7089 31.0646C14.238 31.069 14.7677 31.0765 15.2968 31.0765C16.3386 31.0765 17.3778 31.0765 18.4215 31.0715C18.5072 31.0715 18.593 31.0715 18.6781 31.0634C19.1921 31.014 19.602 30.7958 19.8523 30.3319C19.9762 30.0902 20.0369 29.8215 20.0289 29.5505C20.0289 28.7453 20.0289 27.9401 20.0289 27.1349C20.0289 26.953 20.0339 26.7705 20.0289 26.5879C20.0289 26.4441 19.9709 26.3885 19.8265 26.3823C19.5824 26.371 19.3378 26.3823 19.0931 26.3823C17.9109 26.3856 16.7281 26.3866 15.5446 26.3854H4.80664C4.61745 26.3854 4.43332 26.3854 4.24666 26.3854C3.99442 26.3854 3.95153 26.4266 3.95216 26.6755C3.95216 27.5923 3.95216 28.5092 3.95216 29.4261C3.95005 29.5461 3.95489 29.6661 3.96666 29.7856C3.98984 30.0659 4.09357 30.3339 4.26557 30.5576C4.55439 30.9177 4.95042 31.0577 5.39626 31.0646C5.96381 31.0752 6.53136 31.0727 7.09891 31.0734H10.1479C10.2136 31.0731 10.2793 31.0762 10.3446 31.0827C10.479 31.0971 10.5338 31.1453 10.5515 31.279C10.5654 31.3778 10.5723 31.4772 10.5824 31.5766C10.5773 31.6329 10.5729 31.6891 10.5679 31.746C10.5553 31.9248 10.5363 31.9486 10.356 31.9998ZM20.4956 7.09647C16.3815 7.09647 13.0165 10.3754 12.9283 14.4445C12.84 18.6079 16.2232 22.0381 20.4129 22.09C24.5869 22.1413 27.9613 18.8249 28.0484 14.7545C28.0704 13.7572 27.8914 12.7656 27.5218 11.8378C27.1523 10.91 26.5995 10.0646 25.8961 9.35135C25.1926 8.63808 24.3525 8.07122 23.4252 7.68402C22.4978 7.29682 21.5018 7.09706 20.4956 7.09647Z" fill="#030304"/>
<path d="M12.2479 31.9999H11.6879C11.558 31.9668 11.5189 31.8712 11.5145 31.7499C11.5145 31.6874 11.5056 31.6248 11.5012 31.5623C11.505 31.4526 11.5157 31.3432 11.5334 31.2347C11.5592 31.1241 11.6046 31.0784 11.715 31.0659C11.9004 31.0455 12.0875 31.0445 12.2731 31.0628C12.3853 31.0747 12.4238 31.1135 12.4459 31.226C12.4679 31.3385 12.4654 31.4492 12.4768 31.5611C12.4724 31.6173 12.4667 31.6742 12.4623 31.7305C12.4478 31.9243 12.4276 31.9493 12.2479 31.9999Z" fill="#030304"/>
<path d="M28.9874 14.2214C28.9914 14.2198 28.9958 14.2198 28.9998 14.2214V14.4915C28.9851 14.4023 28.9809 14.3116 28.9874 14.2214Z" fill="#ABB7C6"/>
<path d="M28.9999 14.9723H28.9936H28.9874C28.9809 14.8819 28.9851 14.7911 28.9999 14.7017V14.9723Z" fill="#ABB7C6"/>
<path d="M5.46945 0.951597C5.59558 0.947221 5.71601 0.939093 5.83961 0.939093H18.3812C18.6259 0.933332 18.8699 0.967981 19.1032 1.04162C19.6002 1.21103 19.8757 1.56799 19.9804 2.06811C20.0435 2.38068 20.0252 2.70013 20.0252 3.01708C20.0252 3.45906 20.0214 3.90166 20.0182 4.34364C20.0157 4.64621 20.0124 4.94857 20.0082 5.25073C19.6714 5.24208 19.3347 5.2687 19.0036 5.33012C18.5065 5.41589 18.0163 5.53706 17.5368 5.69271C16.9336 5.88874 16.3515 6.14337 15.7988 6.45288C15.1882 6.79628 14.62 7.20894 14.1056 7.68255C13.8543 7.91336 13.6156 8.15731 13.3905 8.41334C13.113 8.72851 12.8552 9.06025 12.6187 9.4067C12.3314 9.83248 12.0808 10.2815 11.8695 10.7489C11.6496 11.2278 11.4733 11.7254 11.3429 12.2355C11.2302 12.6737 11.1478 13.119 11.0964 13.5683C11.0623 13.8652 11.0415 14.1628 11.0276 14.4604C11.0187 14.7546 11.0265 15.0491 11.051 15.3425C11.0729 15.6447 11.111 15.9457 11.1651 16.2439C11.2271 16.5892 11.3113 16.9302 11.4174 17.2648C11.6464 17.9892 11.9554 18.6863 12.3387 19.3434C12.6802 19.9288 13.0875 20.4741 13.5526 20.9688C13.7653 21.1956 13.9902 21.411 14.2261 21.6139C14.5577 21.9002 14.9069 22.1657 15.2716 22.4091C15.6924 22.6882 16.1353 22.933 16.5959 23.1412C17.0762 23.3596 17.5754 23.5347 18.0873 23.6644C18.4587 23.759 18.8357 23.83 19.2161 23.877C19.4803 23.9088 19.7452 23.9282 20.0101 23.9489L20.0195 24.6003C20.0227 24.8128 20.0264 25.0254 20.0296 25.2373C20.0296 25.2598 20.0296 25.2823 20.0296 25.3048C20.0305 25.3241 20.027 25.3433 20.0195 25.3611C20.012 25.3789 20.0006 25.3948 19.9861 25.4078C19.9716 25.4207 19.9544 25.4302 19.9358 25.4358C19.9172 25.4413 19.8975 25.4427 19.8783 25.4398C19.8209 25.4398 19.7629 25.4355 19.7048 25.4355H5.12199C5.05136 25.4355 4.98072 25.4292 4.9101 25.4261V25.3211C4.9101 17.638 4.9101 9.95475 4.9101 2.27128C4.91312 1.95834 5.00254 1.6522 5.16865 1.38607C5.25631 1.23416 5.36603 1.09476 5.46945 0.951597ZM7.87396 13.8921C8.52727 13.8921 9.18038 13.8921 9.83327 13.8921C9.91397 13.8919 9.9946 13.8873 10.0748 13.8784C10.1839 13.8665 10.2797 13.8265 10.3024 13.7058C10.3423 13.5047 10.3502 13.2986 10.3258 13.0951C10.3223 13.0556 10.3039 13.0189 10.2744 12.9922C10.2448 12.9656 10.2062 12.951 10.1662 12.9513C10.1085 12.9448 10.0503 12.9421 9.99218 12.9432C9.61949 12.9432 9.24617 12.9494 8.87348 12.95C7.94523 12.95 7.01718 12.95 6.08935 12.95C6.00498 12.9494 5.92067 12.9548 5.8371 12.9663C5.69837 12.9857 5.62521 13.0451 5.60629 13.1751C5.57939 13.3708 5.57771 13.5691 5.60126 13.7652C5.60267 13.7956 5.61491 13.8246 5.6358 13.8469C5.6567 13.8692 5.68489 13.8835 5.71538 13.8871C5.75268 13.8933 5.79047 13.896 5.82827 13.8953L7.87396 13.8921ZM7.91117 16.2477C8.52097 16.2477 9.1314 16.2477 9.73994 16.2477C9.86083 16.2514 9.98181 16.2439 10.1013 16.2252C10.2495 16.1964 10.3081 16.1327 10.3251 15.9851C10.342 15.826 10.3443 15.6658 10.3321 15.5063C10.3207 15.3381 10.2741 15.2975 10.1063 15.2987C9.82445 15.2987 9.54194 15.3056 9.26005 15.3056H6.1896C6.06618 15.301 5.9426 15.3064 5.82008 15.3218C5.7717 15.3246 5.72572 15.3437 5.68972 15.3758C5.65373 15.408 5.62986 15.4513 5.62206 15.4988C5.58899 15.6859 5.58073 15.8765 5.59747 16.0658C5.60945 16.1945 5.66367 16.2389 5.79295 16.2533C5.8207 16.2533 5.84845 16.2533 5.87619 16.2533L7.91117 16.2477ZM7.91117 18.5757C8.53169 18.5757 9.152 18.5757 9.7721 18.5757C9.88059 18.5792 9.98917 18.5742 10.0969 18.5607C10.152 18.5586 10.2043 18.5363 10.2437 18.498C10.2831 18.4598 10.3068 18.4084 10.31 18.3538C10.3299 18.2153 10.3387 18.0755 10.3365 17.9356C10.3396 17.6855 10.2804 17.628 10.025 17.6286C9.41265 17.6286 8.79971 17.6355 8.18676 17.6361C7.52398 17.6361 6.86247 17.6318 6.19718 17.6324C6.06379 17.6268 5.93018 17.6354 5.79863 17.658C5.75559 17.6638 5.71551 17.6829 5.68413 17.7127C5.65275 17.7425 5.63168 17.7813 5.62395 17.8237C5.58605 18.0229 5.57862 18.2267 5.60189 18.4282C5.61324 18.5245 5.66494 18.5632 5.76331 18.5757C5.85635 18.5814 5.94965 18.5814 6.04268 18.5757H7.91117ZM7.89667 11.5547H9.83327C9.924 11.5567 10.0147 11.5508 10.1044 11.5372C10.2041 11.5191 10.2835 11.4747 10.3031 11.3684C10.3412 11.1669 10.3489 10.9608 10.3258 10.757C10.3237 10.7216 10.3087 10.6881 10.2835 10.6629C10.2583 10.6377 10.2247 10.6225 10.1889 10.6201C10.1517 10.6137 10.1139 10.6103 10.0761 10.6101C9.66301 10.6101 9.24932 10.6139 8.83564 10.6145H6.08998C6.01935 10.6145 5.94872 10.6145 5.87872 10.6232C5.7053 10.6395 5.62647 10.7014 5.60755 10.8514C5.5857 11.0227 5.58148 11.1957 5.59494 11.3678C5.6044 11.5153 5.658 11.5553 5.80935 11.5553C5.91718 11.5553 6.02565 11.5516 6.13412 11.5516L7.89667 11.5547ZM12.835 2.82078C13.178 2.82078 13.5211 2.82078 13.8635 2.82078C13.9619 2.82269 14.0602 2.81388 14.1567 2.79453C14.2007 2.78751 14.2414 2.76695 14.273 2.73577C14.3045 2.70458 14.3254 2.66434 14.3327 2.62074C14.366 2.42115 14.3719 2.21801 14.3503 2.01685C14.3478 1.98135 14.3321 1.94801 14.3065 1.92313C14.2808 1.89825 14.2468 1.88356 14.211 1.88181C14.1761 1.87712 14.1408 1.87524 14.1056 1.87619H12.019C11.908 1.87333 11.7971 1.8834 11.6885 1.90619C11.6444 1.913 11.6035 1.93348 11.5718 1.96469C11.5401 1.99591 11.5191 2.03626 11.512 2.07999C11.4841 2.29038 11.4868 2.50365 11.5201 2.71326C11.5233 2.74109 11.5364 2.76688 11.5571 2.78592C11.5779 2.80497 11.6048 2.81601 11.633 2.81703C11.6657 2.821 11.6986 2.82246 11.7314 2.82141L12.835 2.82078ZM18.1176 1.87619C18.0072 1.87619 17.8962 1.87619 17.7853 1.87619C17.6963 1.87619 17.6635 1.9087 17.649 1.99309C17.6344 2.1272 17.6309 2.26225 17.6383 2.39693C17.6323 2.49887 17.6349 2.60111 17.6459 2.70263C17.6465 2.7184 17.6503 2.73388 17.657 2.7482C17.6637 2.76252 17.6732 2.77539 17.6849 2.78607C17.6966 2.79676 17.7103 2.80504 17.7253 2.81046C17.7402 2.81588 17.7561 2.81833 17.772 2.81766C18.0041 2.82099 18.2353 2.82099 18.4657 2.81766C18.481 2.81937 18.4966 2.81779 18.5112 2.81302C18.5259 2.80826 18.5394 2.80043 18.5508 2.79006C18.5621 2.77968 18.5711 2.76701 18.5771 2.7529C18.5831 2.73879 18.586 2.72356 18.5855 2.70826C18.5855 2.47445 18.6025 2.24065 18.5855 2.00684C18.5792 1.90745 18.542 1.87744 18.4405 1.87619C18.3389 1.87494 18.2267 1.87619 18.1182 1.87619H18.1176ZM18.588 4.21549C18.588 4.10608 18.588 3.99606 18.588 3.88666C18.588 3.79664 18.5508 3.75413 18.4619 3.75288C18.2305 3.74913 17.9984 3.75288 17.7682 3.75288C17.7531 3.75167 17.7379 3.75358 17.7235 3.7585C17.7092 3.76343 17.696 3.77125 17.6849 3.78147C17.6737 3.79169 17.6648 3.8041 17.6588 3.8179C17.6527 3.8317 17.6496 3.8466 17.6497 3.86165C17.6308 4.01856 17.6446 4.17423 17.6402 4.33239C17.6358 4.41198 17.6371 4.49178 17.644 4.57119C17.6444 4.58817 17.6482 4.60489 17.6554 4.62034C17.6625 4.63578 17.6727 4.64963 17.6854 4.66103C17.698 4.67244 17.7129 4.68117 17.7291 4.68668C17.7453 4.69219 17.7625 4.69438 17.7796 4.6931C18.0041 4.6931 18.2279 4.69747 18.4518 4.6931C18.5533 4.6931 18.5887 4.64746 18.5906 4.54494C18.5924 4.44241 18.5887 4.32551 18.5887 4.21549H18.588ZM9.62958 2.3513C9.61811 2.45825 9.62023 2.5662 9.6359 2.67262C9.65166 2.76702 9.68508 2.79765 9.77841 2.80953C9.90633 2.82036 10.0348 2.82308 10.1631 2.81766C10.2561 2.8205 10.3492 2.81295 10.4406 2.79515C10.4743 2.79212 10.5057 2.77697 10.5289 2.75256C10.5522 2.72815 10.5656 2.69616 10.5667 2.66262C10.5828 2.4586 10.5802 2.25355 10.5591 2.04998C10.5427 1.92495 10.4992 1.88619 10.3769 1.88057C10.1878 1.86669 9.99782 1.86983 9.80931 1.88994C9.69076 1.90557 9.63904 1.95683 9.63148 2.07749C9.62517 2.16688 9.63021 2.2594 9.63021 2.3513H9.62958Z" fill="#9CB4F2"/>
<path d="M20.4956 7.09668C21.502 7.09711 22.4981 7.29674 23.4256 7.68386C24.3531 8.07099 25.1933 8.63782 25.8969 9.35111C26.6005 10.0644 27.1534 10.9098 27.523 11.8377C27.8927 12.7656 28.0718 13.7573 28.0497 14.7547C27.9626 18.825 24.5883 22.1414 20.4142 22.0902C16.2245 22.0383 12.8413 18.6081 12.9295 14.4446C13.0166 10.3737 16.3815 7.0973 20.4956 7.09668ZM18.0564 14.6134C18.0564 15.6412 18.0627 16.6683 18.0532 17.6954C18.0514 17.7872 18.0745 17.8779 18.12 17.9578C18.1656 18.0378 18.232 18.1042 18.3123 18.15C18.3926 18.1958 18.4839 18.2194 18.5765 18.2183C18.6692 18.2171 18.7598 18.1914 18.839 18.1436C20.6299 17.1146 22.4225 16.0879 24.2168 15.0635C24.5876 14.8516 24.5883 14.3759 24.2168 14.1633C22.4221 13.1352 20.627 12.1076 18.8314 11.0807C18.7536 11.0316 18.6637 11.0046 18.5715 11.0026C18.4792 11.0006 18.3882 11.0237 18.3083 11.0694C18.2284 11.1151 18.1627 11.1816 18.1183 11.2618C18.0738 11.3419 18.0525 11.4326 18.0564 11.524V14.6134Z" fill="#FBEC8D"/>
<path d="M13.3937 31.5659H12.4768C12.4655 31.454 12.4673 31.3415 12.4459 31.2308C12.4245 31.1202 12.3828 31.0796 12.2731 31.0677C12.0875 31.0493 11.9004 31.0504 11.715 31.0708C11.6047 31.0833 11.5593 31.129 11.5334 31.2396C11.5158 31.348 11.505 31.4574 11.5013 31.5672H10.585C10.5749 31.4678 10.568 31.3684 10.5541 31.2696C10.5345 31.1371 10.4816 31.0877 10.3473 31.0733C10.2819 31.0668 10.2162 31.0636 10.1505 31.0639H7.1015C6.53395 31.0639 5.9664 31.0639 5.39885 31.0552C4.95301 31.0464 4.55699 30.9083 4.26817 30.5482C4.09618 30.3244 3.99245 30.0565 3.96927 29.7761C3.9575 29.6567 3.95266 29.5367 3.95476 29.4167C3.95476 28.4998 3.95476 27.5829 3.95476 26.666C3.95476 26.416 3.99575 26.3766 4.24925 26.3759C4.43844 26.3759 4.62258 26.3759 4.80924 26.3759H15.5454C16.7284 26.3759 17.9112 26.3749 19.0938 26.3728C19.3385 26.3728 19.5831 26.3634 19.8272 26.3728C19.9716 26.3791 20.0265 26.4353 20.0296 26.5785C20.0334 26.761 20.0296 26.9436 20.0296 27.1255C20.0296 27.9307 20.0296 28.7359 20.0296 29.5411C20.0377 29.8121 19.977 30.0808 19.8531 30.3225C19.6008 30.7864 19.1928 31.0045 18.6789 31.0539C18.5937 31.0621 18.508 31.0614 18.4222 31.0621C17.3804 31.0621 16.3412 31.0677 15.2975 31.0671C14.7685 31.0671 14.2387 31.0596 13.7097 31.0552C13.6887 31.0538 13.6676 31.0538 13.6466 31.0552C13.4574 31.0783 13.3874 31.1571 13.3943 31.349C13.4 31.4234 13.4227 31.4947 13.3937 31.5659ZM11.9742 30.1243C12.7499 30.1243 13.4051 29.4936 13.4063 28.7446C13.4083 28.5576 13.373 28.3721 13.3025 28.1987C13.2321 28.0252 13.1279 27.8672 12.9958 27.7336C12.8638 27.6001 12.7065 27.4937 12.5329 27.4205C12.3594 27.3472 12.1729 27.3086 11.9843 27.3068C11.7977 27.3061 11.6127 27.3419 11.44 27.4121C11.2673 27.4823 11.1102 27.5856 10.9778 27.716C10.7102 27.9793 10.5592 28.3372 10.5579 28.7109C10.5565 29.0846 10.705 29.4435 10.9706 29.7087C11.2362 29.9739 11.5972 30.1236 11.9742 30.125V30.1243Z" fill="#ABB7C6"/>
<path d="M20.0088 23.9443C19.7439 23.9237 19.4791 23.9043 19.2149 23.8724C18.8344 23.8254 18.4574 23.7544 18.0861 23.6599C17.5741 23.5302 17.075 23.355 16.5947 23.1366C16.134 22.9285 15.6911 22.6837 15.2704 22.4046C14.9056 22.1612 14.5565 21.8956 14.2249 21.6094C13.9889 21.4064 13.7641 21.191 13.5514 20.9642C13.0862 20.4695 12.679 19.9243 12.3374 19.3389C11.9541 18.6817 11.6451 17.9846 11.4161 17.2602C11.3101 16.9257 11.2258 16.5847 11.1639 16.2394C11.1098 15.9411 11.0717 15.6402 11.0497 15.3379C11.0253 15.0446 11.0175 14.7501 11.0264 14.4558C11.0403 14.1583 11.0611 13.8607 11.0951 13.5638C11.1466 13.1144 11.229 12.6691 11.3417 12.2309C11.4727 11.7223 11.6494 11.2262 11.8695 10.7487C12.0818 10.2821 12.3332 9.83392 12.6212 9.40903C12.8578 9.06258 13.1155 8.73084 13.3931 8.41567C13.6182 8.15963 13.8569 7.91569 14.1082 7.68487C14.6226 7.21127 15.1908 6.79861 15.8014 6.45521C16.354 6.1457 16.9362 5.89107 17.5393 5.69503C18.0188 5.53939 18.509 5.41821 19.0061 5.33245C19.3372 5.27102 19.6739 5.24441 20.0107 5.25305C20.0258 5.4406 20.0435 5.62814 20.0555 5.82006C20.0574 5.87259 20.0523 5.92514 20.0403 5.97635C20.0056 6.14764 19.8909 6.23328 19.6809 6.24329C19.5327 6.25016 19.382 6.23891 19.235 6.25579C18.6626 6.32761 18.1009 6.46718 17.562 6.67151C16.4403 7.0844 15.4197 7.72828 14.5673 8.56071C13.4429 9.65159 12.6597 10.9444 12.2586 12.4566C11.9638 13.592 11.91 14.7757 12.1005 15.9328C12.2909 17.0898 12.7216 18.1951 13.3652 19.1787C14.0088 20.1623 14.8513 21.0028 15.8394 21.6469C16.8275 22.2911 17.9398 22.7249 19.1058 22.9209C19.3441 22.961 19.585 22.9835 19.8265 22.9997C19.9798 23.0116 20.0309 23.0679 20.0283 23.221C20.0233 23.4598 20.0151 23.7018 20.0088 23.9443Z" fill="#6C8EEB"/>
<path d="M5.46944 0.95168C5.36602 1.09484 5.25629 1.23425 5.16548 1.38928C4.99937 1.65541 4.90997 1.96155 4.90694 2.27449C4.90694 9.95837 4.90694 17.6416 4.90694 25.3243V25.4293C4.65028 25.4355 4.39363 25.4468 4.13634 25.4337C4.0058 25.4268 3.96228 25.3805 3.95409 25.2524C3.95409 25.2099 3.95409 25.1674 3.95409 25.1273C3.95409 18.4683 3.95409 11.8092 3.95409 5.15016C3.95409 5.06827 3.94904 4.98575 3.94148 4.90386C3.94284 4.85575 3.92498 4.80906 3.8918 4.77394C3.85861 4.73882 3.81278 4.71811 3.76427 4.71631C3.66211 4.70068 3.55933 4.69506 3.45654 4.68506C3.45654 4.38123 3.45654 4.07741 3.45654 3.77359C3.55176 3.76421 3.64573 3.75796 3.74158 3.74483C3.88157 3.72545 3.93076 3.67357 3.94274 3.53604C3.96166 3.32661 3.95156 3.11719 3.95219 2.90714C3.95219 2.6252 3.93391 2.34451 3.98625 2.06256C4.04171 1.77169 4.19191 1.5069 4.41382 1.30883C4.63572 1.11075 4.91707 0.990333 5.21467 0.966059C5.29894 0.953217 5.38425 0.948402 5.46944 0.95168Z" fill="#6C8EEB"/>
<path d="M7.87399 13.8918H5.83146C5.79366 13.8925 5.75587 13.8898 5.71857 13.8837C5.68808 13.88 5.65989 13.8657 5.63899 13.8434C5.6181 13.8211 5.60585 13.7922 5.60443 13.7617C5.58088 13.5656 5.58258 13.3673 5.60948 13.1716C5.6284 13.0416 5.70154 12.9841 5.84028 12.9628C5.92385 12.9513 6.00815 12.9459 6.09252 12.9466C7.02036 12.9466 7.94841 12.9466 8.87667 12.9466C9.24936 12.9466 9.62268 12.9415 9.99537 12.9397C10.0535 12.9386 10.1116 12.9413 10.1694 12.9478C10.2094 12.9475 10.248 12.9621 10.2775 12.9888C10.3071 13.0154 10.3255 13.0521 10.329 13.0916C10.3534 13.2951 10.3455 13.5012 10.3056 13.7024C10.2829 13.823 10.1871 13.863 10.078 13.8749C9.99779 13.8839 9.91715 13.8884 9.83645 13.8887C9.18398 13.8887 8.53088 13.8887 7.87715 13.8887L7.87399 13.8918Z" fill="#030304"/>
<path d="M7.9112 16.25H5.87875C5.851 16.25 5.82325 16.25 5.79551 16.25C5.66939 16.2381 5.61201 16.1937 5.60003 16.0625C5.58329 15.8732 5.59155 15.6826 5.62461 15.4955C5.63242 15.448 5.65628 15.4047 5.69228 15.3725C5.72827 15.3404 5.77426 15.3213 5.82263 15.3185C5.94516 15.3031 6.06874 15.2977 6.19216 15.3023H9.26259C9.54448 15.3023 9.83015 15.2979 10.1089 15.2954C10.2766 15.2954 10.3233 15.3348 10.3346 15.503C10.3468 15.6625 10.3445 15.8227 10.3277 15.9818C10.3107 16.1294 10.252 16.1931 10.1038 16.2219C9.98436 16.2406 9.86338 16.2481 9.74249 16.2444C9.13269 16.2444 8.52226 16.2444 7.91373 16.2444L7.9112 16.25Z" fill="#030304"/>
<path d="M7.91243 18.5755H6.04395C5.95091 18.5811 5.85761 18.5811 5.76458 18.5755C5.66557 18.563 5.61449 18.5242 5.60314 18.428C5.57987 18.2265 5.58732 18.0227 5.62522 17.8235C5.63295 17.7811 5.65402 17.7423 5.6854 17.7125C5.71678 17.6827 5.75686 17.6636 5.7999 17.6578C5.93144 17.6352 6.06505 17.6266 6.19844 17.6322C6.86184 17.6322 7.52273 17.6359 8.18802 17.6359C8.80097 17.6359 9.41391 17.6309 10.0262 17.6284C10.2816 17.6284 10.3415 17.6847 10.3378 17.9354C10.34 18.0752 10.3311 18.2151 10.3113 18.3536C10.308 18.4082 10.2844 18.4596 10.245 18.4978C10.2056 18.5361 10.1532 18.5584 10.0981 18.5605C9.99043 18.5739 9.88184 18.5789 9.77336 18.5755C9.15284 18.5763 8.53253 18.5763 7.91243 18.5755Z" fill="#030304"/>
<path d="M7.89667 11.5548H6.13097C6.02251 11.5548 5.91405 11.5598 5.80621 11.5585C5.65361 11.5585 5.60126 11.516 5.5918 11.371C5.57833 11.1989 5.58256 11.0258 5.60441 10.8546C5.62648 10.7046 5.70215 10.6427 5.87557 10.6264C5.94557 10.6202 6.0162 10.6177 6.08683 10.6177H8.8325C9.24618 10.6177 9.65986 10.6139 10.0729 10.6133C10.1107 10.6135 10.1485 10.6168 10.1858 10.6233C10.2215 10.6257 10.2551 10.6409 10.2803 10.6661C10.3055 10.6913 10.3206 10.7248 10.3226 10.7602C10.3457 10.964 10.3381 11.17 10.2999 11.3716C10.2804 11.4754 10.2009 11.5223 10.1013 11.5404C10.0116 11.554 9.92084 11.5599 9.83012 11.5579L7.89667 11.5548Z" fill="#030304"/>
<path d="M12.8356 2.82069H11.7321C11.6992 2.82175 11.6663 2.82028 11.6337 2.81632C11.6055 2.81529 11.5785 2.80426 11.5578 2.78521C11.5371 2.76616 11.524 2.74038 11.5208 2.71254C11.4875 2.50293 11.4848 2.28966 11.5126 2.07927C11.5198 2.03555 11.5407 1.99519 11.5725 1.96398C11.6042 1.93276 11.645 1.91229 11.6892 1.90548C11.7978 1.88269 11.9087 1.87262 12.0196 1.87547H14.1063C14.1415 1.87452 14.1767 1.87641 14.2116 1.8811C14.2475 1.88284 14.2814 1.89754 14.3071 1.92242C14.3328 1.94729 14.3484 1.98063 14.351 2.01613C14.3726 2.2173 14.3666 2.42043 14.3333 2.62002C14.3261 2.66362 14.3052 2.70386 14.2736 2.73505C14.2421 2.76624 14.2014 2.78679 14.1574 2.79381C14.0609 2.81316 13.9626 2.82197 13.8641 2.82007C13.5217 2.82007 13.1787 2.82007 12.8356 2.82007V2.82069Z" fill="#030304"/>
<path d="M18.1182 1.87597C18.2267 1.87597 18.3351 1.87597 18.4436 1.87597C18.5521 1.87597 18.5823 1.90723 18.5886 2.00662C18.6038 2.24043 18.5842 2.47423 18.5886 2.70804C18.5891 2.72334 18.5862 2.73857 18.5802 2.75268C18.5742 2.76679 18.5653 2.77946 18.5539 2.78983C18.5425 2.80021 18.5291 2.80804 18.5144 2.8128C18.4997 2.81756 18.4842 2.81915 18.4688 2.81744C18.2372 2.82077 18.006 2.82077 17.7752 2.81744C17.7593 2.81811 17.7434 2.81566 17.7284 2.81024C17.7135 2.80482 17.6998 2.79653 17.688 2.78585C17.6763 2.77517 17.6669 2.7623 17.6602 2.74798C17.6535 2.73366 17.6497 2.71818 17.649 2.70241C17.638 2.60089 17.6355 2.49865 17.6415 2.39671C17.634 2.26203 17.6376 2.12698 17.6522 1.99287C17.6667 1.90848 17.6995 1.87784 17.7884 1.87597C17.8969 1.87159 18.0079 1.87597 18.1182 1.87597Z" fill="#FEFEFE"/>
<path d="M18.5886 4.21525C18.5886 4.32528 18.5886 4.43531 18.5886 4.54471C18.5886 4.65411 18.5514 4.69037 18.4499 4.69287C18.2261 4.69724 18.0022 4.69287 17.7777 4.69287C17.7606 4.69415 17.7434 4.69196 17.7272 4.68645C17.711 4.68094 17.6961 4.67221 17.6835 4.6608C17.6708 4.6494 17.6606 4.63555 17.6534 4.6201C17.6463 4.60466 17.6425 4.58794 17.6421 4.57096C17.6352 4.49155 17.6339 4.41175 17.6383 4.33216C17.6427 4.17524 17.6288 4.01958 17.6478 3.86142C17.6477 3.84637 17.6508 3.83147 17.6569 3.81767C17.6629 3.80387 17.6718 3.79146 17.683 3.78124C17.6941 3.77101 17.7073 3.76319 17.7216 3.75827C17.736 3.75335 17.7512 3.75143 17.7663 3.75264C17.9978 3.75264 18.2298 3.74889 18.46 3.75264C18.5495 3.75264 18.5861 3.7964 18.5861 3.88643C18.5905 3.99708 18.5886 4.10585 18.5886 4.21525Z" fill="#FEFEFE"/>
<path d="M9.63024 2.35135C9.63024 2.25946 9.6252 2.16694 9.63024 2.07504C9.63781 1.95689 9.68953 1.90562 9.80808 1.88749C9.99659 1.86738 10.1865 1.86424 10.3756 1.87812C10.498 1.88374 10.5415 1.92563 10.5579 2.04753C10.579 2.2511 10.5815 2.45615 10.5654 2.66018C10.5644 2.69372 10.5509 2.7257 10.5277 2.75011C10.5045 2.77452 10.473 2.78967 10.4393 2.79271C10.348 2.81051 10.2549 2.81806 10.1618 2.81521C10.0336 2.82063 9.9051 2.81791 9.77718 2.80708C9.68385 2.79333 9.65106 2.76457 9.63466 2.67018C9.61984 2.5645 9.61835 2.4574 9.63024 2.35135Z" fill="#030304"/>
<path d="M18.0564 14.6134V11.524C18.0525 11.4326 18.0739 11.3419 18.1183 11.2617C18.1627 11.1816 18.2284 11.1151 18.3083 11.0694C18.3882 11.0237 18.4793 11.0006 18.5715 11.0026C18.6637 11.0046 18.7536 11.0316 18.8314 11.0807C20.6266 12.1072 22.4217 13.1348 24.2169 14.1633C24.5883 14.3759 24.5877 14.851 24.2169 15.0635C22.4238 16.0909 20.6312 17.1176 18.839 18.1436C18.7598 18.1914 18.6692 18.2172 18.5766 18.2183C18.4839 18.2194 18.3927 18.1958 18.3123 18.15C18.232 18.1042 18.1656 18.0378 18.1201 17.9579C18.0745 17.8779 18.0514 17.7873 18.0533 17.6954C18.0627 16.6683 18.0564 15.6412 18.0564 14.6134ZM22.9752 14.6134L19.0761 12.3823V16.8452L22.9752 14.6134Z" fill="#030304"/>
<path d="M11.9742 30.1243C11.7876 30.1237 11.6029 30.0866 11.4307 30.0152C11.2585 29.9437 11.1022 29.8394 10.9706 29.7081C10.705 29.4429 10.5565 29.084 10.5579 28.7102C10.5592 28.3365 10.7102 27.9787 10.9778 27.7153C11.2453 27.452 11.6073 27.3048 11.9843 27.3062C12.1729 27.308 12.3594 27.3466 12.5329 27.4198C12.7065 27.4931 12.8638 27.5995 12.9958 27.733C13.1279 27.8665 13.2321 28.0246 13.3025 28.198C13.373 28.3715 13.4083 28.557 13.4063 28.744C13.4051 29.4936 12.7524 30.1281 11.9742 30.1243ZM11.9837 29.1816C12.1081 29.1816 12.2274 29.1326 12.3154 29.0454C12.4034 28.9582 12.4529 28.8399 12.4529 28.7165C12.4529 28.5931 12.4034 28.4748 12.3154 28.3876C12.2274 28.3004 12.1081 28.2514 11.9837 28.2514C11.8593 28.2514 11.7399 28.3004 11.6519 28.3876C11.5639 28.4748 11.5145 28.5931 11.5145 28.7165C11.5145 28.8399 11.5639 28.9582 11.6519 29.0454C11.7399 29.1326 11.8593 29.1816 11.9837 29.1816Z" fill="#030304"/>
<path d="M22.9733 14.6135L19.0742 16.8452V12.3823L22.9733 14.6135Z" fill="#FEFEFE"/>
<path d="M11.9836 29.1817C11.8592 29.1817 11.7399 29.1327 11.6519 29.0455C11.5639 28.9582 11.5145 28.8399 11.5145 28.7166C11.5145 28.5932 11.5639 28.4749 11.6519 28.3877C11.7399 28.3005 11.8592 28.2515 11.9836 28.2515C12.1081 28.2515 12.2274 28.3005 12.3154 28.3877C12.4034 28.4749 12.4528 28.5932 12.4528 28.7166C12.4528 28.8399 12.4034 28.9582 12.3154 29.0455C12.2274 29.1327 12.1081 29.1817 11.9836 29.1817Z" fill="#ABB7C6"/>
</g>
<defs>
<clipPath id="clip0_903_12449">
<rect width="26" height="32" fill="white" transform="translate(3)"/>
</clipPath>
</defs>
</svg>
