<svg width="32" height="24" viewBox="0 0 32 24" fill="none" xmlns="http://www.w3.org/2000/svg">
<path d="M32 4.00005V2.07845C32.0002 1.91051 31.9673 1.74418 31.9031 1.58898C31.8389 1.43378 31.7448 1.29277 31.626 1.17401C31.5073 1.05526 31.3663 0.961104 31.2111 0.896933C31.0559 0.832762 30.8895 0.799839 30.7216 0.80005H1.2816C1.11351 0.79984 0.947021 0.83274 0.791644 0.896871C0.636267 0.961003 0.495043 1.05511 0.376035 1.17382C0.257028 1.29253 0.162567 1.43352 0.0980472 1.58874C0.0335271 1.74395 0.000210985 1.91036 1.00134e-06 2.07845V4.00005H3.2V7.20005H1.00134e-06V10.4001H3.2V13.6001H1.00134e-06V16.8001H3.2V20.0001H1.00134e-06V21.9184C-0.000209582 22.0868 0.0327963 22.2536 0.0971281 22.4091C0.16146 22.5647 0.255854 22.7061 0.374903 22.8251C0.493953 22.9442 0.635319 23.0386 0.790905 23.1029C0.946491 23.1673 1.11324 23.2003 1.2816 23.2001H30.7216C30.8897 23.1998 31.0561 23.1665 31.2113 23.102C31.3665 23.0375 31.5075 22.943 31.6262 22.824C31.7449 22.705 31.839 22.5638 31.9032 22.4084C31.9673 22.253 32.0002 22.0865 32 21.9184V20.0001H28.8V16.8001H32V13.6001H28.8V10.4001H32V7.20005H28.8V4.00005H32ZM12.8 16.8001V7.20005L20.8 12L12.8 16.8001Z" fill="#F65B36"/>
</svg>
