<svg width="59" height="60" viewBox="0 0 59 60" fill="none" xmlns="http://www.w3.org/2000/svg">
<g clip-path="url(#clip0_192_9653)">
<path d="M53.8884 27.5636C54.2225 28.9799 54.6756 30.3634 54.9854 31.7879C55.7945 35.5334 56.1413 39.327 56.1875 43.1556C56.1945 43.7561 55.9101 44.092 55.3599 44.257C53.8838 44.6955 52.3714 44.9972 50.8413 45.1583C50.4657 45.1981 50.3073 45.3046 50.253 45.7353C49.7131 50.0521 50.3535 54.1745 52.3336 58.0254C53.0388 59.396 52.6157 60.1135 51.1673 59.9813C50.4414 59.9146 49.7051 59.9813 48.9711 59.9685C48.3156 59.9685 47.9168 59.6102 47.9307 59.0648C47.94 58.5381 48.3214 58.2092 48.9479 58.1998C49.4103 58.1928 49.8727 58.1998 50.3929 58.1998C50.1247 57.5069 49.853 56.8515 49.6172 56.1843C48.4554 52.8864 48.0649 49.3606 48.4763 45.8841C48.5306 45.4042 48.4012 45.3315 47.9769 45.3701C46.9974 45.4451 46.0135 45.4381 45.0351 45.3491C44.6513 45.3187 44.5588 45.4509 44.5161 45.8173C44.0017 50.2569 44.7207 54.4648 46.7875 58.4246C46.9458 58.7277 47.0649 59.0403 46.9424 59.3739C46.7921 59.7835 46.4719 59.9696 46.0419 59.9685C45.079 59.9685 44.1161 59.9778 43.1521 59.9685C42.5741 59.9603 42.2111 59.5986 42.2077 59.0859C42.2042 58.5732 42.5695 58.2209 43.144 58.2034C43.5093 58.1805 43.8757 58.1805 44.241 58.2034C44.6872 58.2455 44.6548 58.0711 44.5149 57.7492C42.8379 53.9593 42.2375 49.771 42.781 45.6547C42.833 45.2497 42.6828 45.1536 42.3371 45.122C41.1095 45.0131 39.9027 44.7639 38.6971 44.5157C37.74 44.3191 37.5065 43.92 37.8105 42.9813C39.4982 37.768 41.0182 32.5089 42.1453 27.1388C42.4123 25.8676 42.41 25.8829 41.3141 25.1969C38.3087 23.3125 36.0211 20.7023 34.1358 17.7141C32.0817 14.4578 32.0956 14.4485 32.0956 10.5742C32.0956 10.1259 32.0817 9.67641 32.1014 9.22811C32.1268 8.64989 32.4909 8.26472 32.9775 8.26589C33.4642 8.26707 33.8503 8.65689 33.8595 9.22926C33.878 10.4969 33.8595 11.7645 33.8676 13.0309C33.8676 13.265 33.8549 13.491 33.9647 13.7157C35.8801 17.6333 38.3573 21.0745 42.0112 23.5313C42.2285 23.6776 42.4585 23.8052 42.7047 23.955C42.9648 23.1708 42.6643 22.0823 43.915 22.0355C44.5993 22.3714 44.7311 22.6207 44.6086 23.3733C44.3103 25.2781 43.9501 27.17 43.5277 29.049C42.5128 33.5483 41.2494 37.9751 39.853 42.3655C39.7502 42.6921 39.6473 42.9133 40.1432 42.9999C42.3974 43.4143 44.6849 43.6153 46.9759 43.6004C48.3989 43.5805 49.8207 43.5478 51.2228 43.2599C52.1695 43.2201 53.0723 42.959 53.9971 42.7729C54.3438 42.7039 54.4062 42.5388 54.3958 42.2111C54.3369 40.3009 54.2317 38.3964 53.9913 36.4991C53.389 31.7294 52.203 27.1353 49.9166 22.8899C49.6276 22.3527 49.6207 21.8985 50.09 21.4854C50.7778 21.2513 51.0887 21.3683 51.4586 21.9945C51.5546 22.1572 51.6759 22.3058 51.7846 22.4627C52.5151 24.1564 53.2561 25.8372 53.8884 27.5636Z" fill="#040403"/>
<path d="M18.2025 22.0472C18.94 22.149 19.1134 22.3199 19.2313 23.062C19.2683 23.2961 19.303 23.5232 19.3469 23.7538C19.3908 23.9843 19.429 24.2138 19.4798 24.5029C20.5833 24.0135 21.6133 23.3692 22.5396 22.5891C25.4849 20.1826 27.6188 17.1382 29.2648 13.7169C29.3557 13.5022 29.3953 13.2688 29.3804 13.0356C29.3804 11.8078 29.3804 10.5777 29.3804 9.34989C29.3804 8.6792 29.7272 8.27063 30.2554 8.27531C30.7837 8.27999 31.1259 8.6932 31.1282 9.36155C31.1282 10.7462 31.1282 12.1309 31.1282 13.5156C31.135 13.7303 31.0931 13.9437 31.0057 14.1395C28.8857 18.6528 26.0571 22.5669 21.794 25.259C21.3709 25.5259 20.9421 25.8138 20.4763 25.9718C19.8636 26.179 19.8127 26.5044 19.9399 27.0885C21.0843 32.3954 22.565 37.6064 24.2354 42.7647C24.633 43.996 24.4758 44.2746 23.2493 44.5485C22.1063 44.8135 20.9481 45.0066 19.7815 45.1267C19.4348 45.1594 19.2914 45.2684 19.3411 45.6652C19.8757 49.8037 19.2655 54.0113 17.5783 57.8194C17.4327 58.153 17.5066 58.2197 17.8326 58.2056C18.236 58.1881 18.6418 58.1881 19.0452 58.2056C19.5469 58.229 19.8913 58.5767 19.9098 59.0437C19.9171 59.1612 19.9006 59.2789 19.8612 59.3897C19.8219 59.5005 19.7606 59.602 19.6812 59.6879C19.6017 59.7739 19.5057 59.8424 19.3992 59.8895C19.2926 59.9365 19.1776 59.9609 19.0614 59.9614C18.0407 59.9848 17.0189 59.993 15.9993 59.9614C15.2364 59.9368 14.9104 59.2685 15.2919 58.5205C16.0402 57.0726 16.6335 55.5477 17.0616 53.972C17.7829 51.2635 17.9043 48.5187 17.5934 45.7412C17.5622 45.4626 17.4893 45.3269 17.1749 45.3491C16.0977 45.4293 15.0164 45.4368 13.9383 45.3714C13.7337 45.3574 13.5707 45.3362 13.61 45.6628C14.1383 49.9807 13.4944 54.1219 11.7443 58.091C11.7385 58.1039 11.7524 58.1272 11.7709 58.1998C12.246 58.1998 12.7373 58.1904 13.2286 58.1998C13.8158 58.2139 14.1706 58.5509 14.1729 59.0741C14.1753 59.5973 13.8088 59.9556 13.2378 59.9638C12.313 59.979 11.3883 59.9743 10.4635 59.9638C9.50874 59.9556 9.13307 59.3504 9.57232 58.4901C10.6231 56.4746 11.3537 54.3041 11.7374 52.0583C12.0924 49.9209 12.1256 47.7412 11.8357 45.5937C11.7952 45.2964 11.6946 45.2133 11.4207 45.1805C9.89115 45.0131 8.37842 44.7148 6.89866 44.2887C6.07333 44.0394 5.9242 43.8334 5.93113 42.9532C5.94629 39.6384 6.25579 36.3317 6.85588 33.0731C6.98303 32.3943 7.20268 32.194 7.94479 32.1051C8.63835 32.5323 8.72504 32.75 8.54818 33.6607C7.9968 36.4897 7.79449 39.3527 7.68815 42.2274C7.67659 42.5236 7.74134 42.6957 8.06038 42.7624C9.00016 42.945 9.92374 43.2153 10.8878 43.261C10.9029 43.2731 10.9202 43.2822 10.9386 43.2879C14.6665 43.8345 18.3748 43.6508 22.0703 42.9777C22.3697 42.9239 22.3835 42.7624 22.3015 42.5189C22.0703 41.8166 21.8468 41.1143 21.631 40.4121C20.304 36.1234 19.1354 31.7926 18.2176 27.3939C18.1378 27.0123 18.0372 26.9258 17.6558 27.0311C17.0643 27.1992 16.4599 27.3167 15.849 27.3822C14.7047 27.4993 13.5522 27.6292 12.4148 27.3061C11.8264 26.5886 11.9281 26.0854 12.7442 25.6605C14.2469 25.7459 15.7392 25.7002 17.2177 25.3409C17.6939 25.2238 17.7956 25.0202 17.702 24.5801C17.6084 24.1634 17.5598 23.7362 17.4858 23.3148C17.383 22.705 17.5783 22.2509 18.2025 22.0472Z" fill="#030403"/>
<path d="M51.2309 43.2715C49.8288 43.5582 48.407 43.5911 46.984 43.611C44.693 43.6259 42.4055 43.4249 40.1513 43.0105C39.6554 42.9239 39.7583 42.7026 39.8612 42.376C41.2575 37.9855 42.5198 33.5588 43.5359 29.0595C43.9605 27.1805 44.3208 25.2886 44.6167 23.3838C44.7323 22.6277 44.6028 22.3819 43.9231 22.046C43.9324 21.936 43.9405 21.826 43.9497 21.7148C45.2843 21.9894 46.6614 21.9715 47.9885 21.6621C48.3596 22.6617 48.7526 23.6519 49.0936 24.6667C49.2716 25.1934 49.4982 25.7201 49.4913 26.296C49.0566 26.0279 48.6174 25.9448 48.2359 26.365C47.8325 26.8063 47.9886 27.2429 48.2868 27.6865C49.0718 28.8405 49.7607 30.0585 50.3466 31.3279C50.7651 32.2491 51.1477 33.1855 51.224 34.2096C51.3119 35.3801 50.4992 35.9654 49.3999 35.5651C48.8451 35.3614 48.4185 34.9611 47.9747 34.59C47.5007 34.1932 47.0499 33.7625 46.4928 33.4839C45.9721 33.216 45.3704 33.1582 44.8093 33.3223C44.2482 33.4863 43.7695 33.8599 43.47 34.3676C43.3844 34.4984 43.3345 34.65 43.3256 34.8066C43.3167 34.9633 43.3489 35.1196 43.4191 35.2595C43.6931 35.8319 44.3589 35.9033 44.8733 35.4257C45.4351 34.9037 45.5437 34.892 46.1333 35.3578C46.4974 35.6446 46.8488 35.9431 47.2002 36.2521C48.459 37.3372 49.8415 37.8124 51.4598 37.1546C51.528 39.1982 51.3986 41.236 51.2309 43.2715Z" fill="#FF9783"/>
<path d="M6.61307 10.1527L6.34257 10.1739C5.81893 10.065 5.57619 9.70557 5.5103 9.20226C5.45366 8.76216 5.39471 8.32214 5.33691 7.88204C5.34269 6.96556 5.37273 6.05259 5.63397 5.16536C6.29979 2.90516 7.8372 1.47825 9.98723 0.790004C13.3285 -0.298415 16.9287 -0.257334 20.245 0.907052C23.0597 1.87153 24.5219 4.18441 24.4618 7.18318C24.4491 7.76842 24.1682 8.08445 23.611 8.17341C23.2943 8.15 23.0331 7.98146 22.7603 7.84101C21.2807 7.07668 19.7549 6.49851 18.0753 6.3323C15.2132 6.04787 12.8077 7.84215 12.2725 10.7145C12.2187 10.9617 12.0945 11.1877 11.9153 11.3642C11.4437 11.6159 11.0588 11.4917 10.6519 11.1628C10.4902 11.0237 10.3005 10.9219 10.096 10.8644C9.89157 10.8068 9.6772 10.7949 9.46777 10.8295C9.25833 10.8641 9.05885 10.9444 8.88308 11.0649C8.70732 11.1853 8.55948 11.3429 8.44983 11.5269C8.33574 11.7026 8.26043 11.9012 8.22906 12.1091C8.19769 12.317 8.211 12.5293 8.26806 12.7315C8.32512 12.9338 8.42459 13.1211 8.5597 13.2809C8.69481 13.4406 8.86235 13.569 9.05091 13.6572C9.56531 13.9077 9.76414 14.2786 9.87164 14.8159C10.2543 16.7203 11.2518 18.2033 12.9325 19.1866L12.9476 19.1467L12.9372 19.1877L13.0909 19.2684C13.1312 19.3077 13.175 19.3434 13.2215 19.3749C17.2858 21.6398 22.5372 18.6223 22.684 13.9286C22.7233 12.6833 22.6944 11.4367 22.7048 10.1913C22.7048 9.48905 22.9071 9.24563 23.6087 9.06304C24.0653 9.15082 24.4422 9.37556 24.4433 9.88238C24.4433 11.6135 24.6445 13.3598 24.3139 15.0699C23.6735 18.3765 21.691 20.5174 18.5527 21.586C18.4267 21.6293 18.3007 21.675 18.1758 21.7194C16.8051 22.0042 15.389 21.9778 14.0295 21.6422L12.3187 20.9504C10.6808 19.9485 9.39078 18.6306 8.63595 16.8222C8.6183 16.7879 8.60321 16.7522 8.59086 16.7156C8.36567 15.8253 7.89547 15.018 7.23495 14.3876C6.25356 13.4044 6.28361 12.1144 6.77257 10.8456C7.63721 9.41061 8.86712 8.79502 10.5189 9.14031C10.6889 9.17542 10.8068 9.19524 10.89 9.00211C11.0808 8.56201 11.2865 8.12786 11.4865 7.69127C11.6888 7.62221 11.757 7.42431 11.8749 7.27566C13.0539 5.7751 14.5636 4.86563 16.4524 4.60813C18.3839 4.3436 20.193 4.81187 21.9685 5.51182C22.1476 5.58322 22.3153 5.7342 22.5615 5.67333C22.2147 4.23715 21.3362 3.31015 20.0693 2.76588C17.873 1.82247 15.5611 1.71239 13.2123 1.95351C12.2598 1.95351 11.3489 2.17944 10.4611 2.50366C8.48681 3.22351 7.32627 4.60111 7.12398 6.75363C7.06813 7.47252 7.1113 8.19583 7.25228 8.90267C7.36787 9.51249 7.18757 9.92329 6.61307 10.1527Z" fill="#040403"/>
<path d="M47.9838 21.6621C46.6567 21.9715 45.2796 21.9895 43.945 21.7148C42.6457 21.3145 41.4343 20.7433 40.4194 19.8069C38.6015 18.1308 37.6768 16.0461 37.6452 13.553C37.6302 12.4422 37.6371 11.3291 37.6452 10.2195C37.6452 9.47041 37.8093 9.26795 38.5156 9.05726C39.2161 9.24922 39.408 9.48092 39.4126 10.1961C39.4195 11.2671 39.423 12.3381 39.4126 13.4079C39.3917 14.5009 39.6357 15.5824 40.1235 16.5577C41.7904 19.8713 46.0985 21.1787 49.0357 19.2591L49.1872 19.1737L49.1456 19.162L49.186 19.1772C50.8552 18.2163 51.8447 16.7426 52.2342 14.8722C52.3567 14.2869 52.5521 13.889 53.1127 13.6291C53.6734 13.3693 53.9357 12.8273 53.8814 12.187C53.8659 11.8938 53.7612 11.6126 53.5815 11.3821C53.4019 11.1516 53.1561 10.983 52.8781 10.8995C52.3001 10.697 51.788 10.8504 51.3349 11.2577C51.0575 11.5059 50.7396 11.6089 50.3778 11.4333C50.2087 11.3606 50.0662 11.2362 49.9702 11.0776C49.8743 10.919 49.8297 10.7339 49.8426 10.5484C49.8332 10.4315 49.8332 10.3141 49.8426 10.1972C49.9223 9.69626 49.7374 9.51836 49.2554 9.68457C46.9088 9.80161 44.8189 9.17898 43.1139 7.46774C43.0145 7.36708 42.9266 7.29325 42.7671 7.37401C41.4239 8.04704 39.9732 8.14891 38.511 8.177C38.1226 8.11965 37.8082 7.94994 37.7018 7.54261C36.9898 4.96053 37.607 1.98395 40.5917 0.731538C41.4234 0.37043 42.3118 0.161635 43.2156 0.11475C46.2025 -0.00229789 49.1825 0.0210842 52.0666 0.993753C52.832 1.25382 53.5615 1.61182 54.2374 2.05896C54.7206 2.37616 54.931 2.77403 54.6524 3.34054C54.4917 3.5922 54.2918 3.78657 53.9739 3.79593C53.5832 3.80764 53.2942 3.56183 52.9809 3.38158C52.1394 2.91339 51.269 2.52476 50.3061 2.3925C50.0102 2.31642 49.7154 2.22975 49.4172 2.16538C48.1457 1.89148 46.8545 1.922 45.5714 1.84475C44.2074 1.76282 42.8376 1.82478 41.5256 2.27191C39.8842 2.83023 38.9571 4.37876 39.2138 6.06659C39.2461 6.28196 39.3166 6.39793 39.5363 6.36516C40.5026 6.22119 41.4898 6.15564 42.329 5.54582C43.0654 5.01325 43.3405 5.03779 43.9473 5.73774C45.6385 7.69946 47.7434 8.29526 50.1963 7.65852C50.7812 7.50752 51.2112 7.59885 51.5742 8.06704L51.5961 8.25656C51.5907 8.29028 51.5935 8.32488 51.6042 8.35726C51.6042 8.69553 51.4123 9.15202 52.0735 9.05955C53.6571 8.83833 54.8963 9.84256 55.3911 10.9533C55.6788 11.577 55.7592 12.2783 55.6202 12.9521C55.4812 13.6259 55.1303 14.2359 54.62 14.6908C54.1843 15.0602 53.8765 15.5609 53.7415 16.1199C53.4237 17.3489 52.6804 18.3438 51.921 19.327C51.2424 19.8783 50.6043 20.4834 49.8333 20.9107L47.9838 21.6621Z" fill="#040303"/>
<path d="M11.9153 11.3596C12.0945 11.183 12.2186 10.9571 12.2725 10.7099C12.8077 7.83751 15.2132 6.04322 18.0753 6.32765C19.7502 6.49386 21.2807 7.07203 22.7603 7.83636C23.0331 7.97682 23.2943 8.14535 23.611 8.16876C23.611 8.46489 23.611 8.76109 23.611 9.05839C22.9094 9.24099 22.7117 9.47855 22.7071 10.1867C22.6967 11.4321 22.7256 12.6787 22.6863 13.9241C22.5395 18.6177 17.2881 21.6352 13.2238 19.3703C13.1772 19.3388 13.1335 19.3031 13.0932 19.2637C13.0833 19.2324 13.0616 19.2063 13.0328 19.1912C13.004 19.176 12.9704 19.1731 12.9395 19.183L12.9498 19.142L12.9348 19.1819C12.959 19.1082 12.9678 19.0301 12.9607 18.9527C12.9535 18.8753 12.9305 18.8002 12.8932 18.7323C12.18 17.13 11.9904 15.4234 11.9419 13.6993C11.9176 12.9151 11.9222 12.1379 11.9153 11.3596ZM17.5089 18.2818C18.0198 18.3145 18.4336 17.9974 18.511 17.5233C18.5885 17.0493 18.2706 16.6407 17.7516 16.5272C17.6198 16.4991 17.4857 16.4792 17.3528 16.464C16.9683 16.4337 16.5958 16.3142 16.2642 16.1146C15.9327 15.9151 15.6509 15.6409 15.4409 15.3134C15.0721 14.7632 14.5566 14.631 14.1231 14.9401C13.6897 15.2491 13.6411 15.7746 14.0075 16.3353C14.8306 17.6111 16.0512 18.1624 17.5089 18.2818V18.2818ZM21.3304 11.2425C21.3304 10.9909 21.3512 10.7369 21.3304 10.4875C21.283 10.0123 20.9836 9.74659 20.5362 9.71381C20.0889 9.68104 19.7363 9.91163 19.6427 10.367C19.5306 10.9191 19.5306 11.4886 19.6427 12.0407C19.734 12.4925 20.0658 12.7289 20.5281 12.6997C20.9905 12.6704 21.2702 12.4035 21.3304 11.9389C21.3442 11.7069 21.3442 11.4745 21.3304 11.2425V11.2425ZM16.4396 11.2062C16.4261 11.4401 16.4261 11.6746 16.4396 11.9085C16.4951 12.3989 16.7864 12.6833 17.2707 12.7032C17.7551 12.7231 18.0949 12.4445 18.1527 11.9681C18.2099 11.4665 18.2099 10.9599 18.1527 10.4583C18.0995 9.97019 17.7481 9.70097 17.273 9.71736C16.798 9.73374 16.4882 10.0112 16.4385 10.5121C16.4274 10.7434 16.4278 10.975 16.4396 11.2062V11.2062Z" fill="#F9D0BC"/>
<path d="M49.0348 19.259C46.0976 21.1786 41.7894 19.8713 40.1225 16.5577C39.6348 15.5824 39.3907 14.5009 39.4117 13.4079C39.4221 12.3381 39.4186 11.267 39.4117 10.1961C39.4117 9.48089 39.2151 9.2492 38.5146 9.05724C38.5146 8.76345 38.5146 8.47191 38.5146 8.17343C39.9769 8.14534 41.4276 8.04358 42.7708 7.37056C42.9303 7.28979 43.0182 7.36351 43.1176 7.46417C44.8226 9.17541 46.9125 9.79348 49.2591 9.68111C49.2822 9.91521 49.2926 10.1492 49.3296 10.3716C49.733 12.8706 50.0046 15.3695 49.5076 17.8931C49.422 18.3297 49.1608 18.7124 49.1874 19.1806L49.1469 19.1654L49.1885 19.1772L49.0348 19.259ZM44.44 18.29C46.0513 18.1729 47.3298 17.6111 48.1609 16.2521C48.4857 15.7243 48.4002 15.2092 47.9598 14.9224C47.5367 14.6462 47.0547 14.7633 46.716 15.2479C46.537 15.5245 46.3171 15.7716 46.064 15.9806C45.5496 16.3762 44.9324 16.4277 44.3301 16.5401C44.22 16.5546 44.1139 16.591 44.0178 16.6474C43.9218 16.7038 43.8377 16.7789 43.7705 16.8684C43.7033 16.9578 43.6543 17.06 43.6264 17.1688C43.5984 17.2775 43.5921 17.3909 43.6077 17.5022C43.6318 17.712 43.7287 17.9064 43.8811 18.0506C44.0336 18.1949 44.2316 18.2797 44.44 18.29V18.29ZM40.741 11.1675C40.7407 11.4347 40.7557 11.7016 40.786 11.967C40.8612 12.427 41.1502 12.688 41.6137 12.7021C42.0772 12.7161 42.3951 12.468 42.4806 12.015C42.5806 11.4797 42.5806 10.9303 42.4806 10.3951C42.3939 9.93389 42.0564 9.69282 41.6068 9.71037C41.4015 9.7057 41.2021 9.7802 41.049 9.91887C40.896 10.0575 40.8007 10.25 40.7826 10.4571C40.7525 10.6854 40.7595 10.9206 40.7467 11.1675H40.741ZM45.671 11.253C45.6861 11.0016 45.6861 10.7495 45.671 10.498C45.6098 10.0041 45.2977 9.74197 44.8237 9.70569C44.7127 9.69987 44.6016 9.71647 44.4971 9.75472C44.3925 9.79297 44.2965 9.85203 44.2148 9.92835C44.1331 10.0047 44.0672 10.0968 44.0211 10.1993C43.975 10.3017 43.9496 10.4125 43.9464 10.525C43.9129 10.9895 43.9129 11.4558 43.9464 11.9202C43.9892 12.4095 44.2932 12.6915 44.7868 12.7032C45.2803 12.7149 45.5762 12.4317 45.6629 11.9542C45.688 11.7213 45.6927 11.4867 45.6768 11.253H45.671Z" fill="#F9D0BC"/>
<path d="M50.3052 2.3936C51.2681 2.52586 52.1385 2.90981 52.98 3.38268C53.2933 3.55942 53.5823 3.80874 53.973 3.79703C54.2908 3.78767 54.4908 3.59341 54.6515 3.34176C54.8665 3.824 55.3763 4.05921 55.619 4.51921C55.2572 4.94878 55.1925 5.37364 55.4884 5.90035C57.2581 9.04777 57.4974 12.4703 57.0824 15.9607C56.6998 19.19 55.6733 22.2403 54.2053 25.129C53.8759 25.7763 53.7545 26.3382 54.2354 26.9328C54.2007 27.1891 54.0504 27.3798 53.8886 27.5636C53.2563 25.8371 52.5153 24.1564 51.7963 22.4662C51.816 21.4198 51.772 20.3711 51.9119 19.3293C52.6714 18.3485 53.4146 17.3523 53.7325 16.1233C53.8675 15.5643 54.1753 15.0636 54.611 14.6942C55.1213 14.2393 55.4722 13.6294 55.6112 12.9556C55.7502 12.2818 55.6698 11.5805 55.382 10.9569C54.8873 9.84607 53.6481 8.84183 52.0645 9.06305C51.4033 9.15552 51.6021 8.69903 51.594 8.36076C51.6067 8.35023 51.6299 8.33504 51.6276 8.33036C51.6156 8.30606 51.6021 8.28253 51.5871 8.26006C51.5802 8.19685 51.5721 8.13363 51.5651 8.07043C51.6299 6.99008 51.3282 5.96364 51.1178 4.92659C50.9398 4.0499 50.4843 3.26795 50.3052 2.3936Z" fill="#5A3C2D"/>
<path d="M12.3189 20.9493L14.0297 21.641C14.0226 21.8351 13.9782 22.0259 13.899 22.2028C13.4806 23.3476 13.0159 24.4771 12.75 25.6745C11.934 26.0994 11.8323 26.6026 12.4206 27.3202C12.0634 27.3763 12.1328 27.7123 12.0842 27.9219C11.8022 29.1239 11.5329 30.3307 11.3074 31.5503C10.9374 33.5048 10.7224 35.4861 10.6647 37.4753C10.6296 39.4127 10.7068 41.3503 10.8959 43.2785C9.93188 43.2328 9.00829 42.9625 8.06852 42.7799C7.74948 42.7178 7.68475 42.5459 7.69631 42.245C7.80266 39.3703 8.00494 36.5096 8.55632 33.6782C8.73318 32.7676 8.64764 32.5499 7.95293 32.1227C8.05003 31.7013 8.14674 31.2803 8.24307 30.8597C9.01523 30.8386 9.18747 30.7076 9.40826 29.9327C10.1076 27.4653 10.9919 25.0717 12.2368 22.8279C12.5304 22.2976 12.4206 21.8658 12.0056 21.4748L12.3189 20.9493Z" fill="#F8B03B"/>
<path d="M54.2351 26.9328C53.7543 26.3382 53.8756 25.7763 54.2051 25.1291C55.6731 22.2403 56.6996 19.19 57.0822 15.9607C57.4972 12.4703 57.2579 9.04779 55.4881 5.90037C55.1922 5.37365 55.257 4.94879 55.6188 4.51922C56.4279 4.28513 56.666 4.37291 57.0799 5.10446C58.467 7.5695 58.9629 10.2639 58.9976 13.0637C59.0554 17.8276 57.6648 22.2146 55.5587 26.4072C55.2628 27.0018 54.7553 26.9644 54.2351 26.9328Z" fill="#040303"/>
<path d="M5.57053 12.0208C6.13578 12.5628 6.17854 12.8203 5.81558 13.491C4.82958 15.2935 3.69667 17.0096 2.42869 18.6212C2.1397 18.9934 1.82761 19.2861 1.31206 19.1479C0.820792 19.0169 0.712128 18.6072 0.611562 18.1776C0.169995 16.2955 -0.102805 14.3958 0.033595 12.4563C0.12607 11.1583 0.452045 9.9304 1.22074 8.85824C1.76705 8.09701 2.53821 7.53137 3.4228 7.243C4.20652 6.97496 4.51746 7.11659 4.88273 7.88676C4.84458 8.40645 4.60532 8.75517 4.09209 8.90499C3.06215 9.20697 2.45182 9.94907 2.127 10.9381C1.55944 12.6447 1.72127 14.3723 2.01141 16.2053C2.83968 15.0993 3.58023 13.9286 4.22617 12.7044C4.52787 12.125 4.92321 11.8476 5.57053 12.0208Z" fill="#040303"/>
<path d="M11.4911 7.68534C11.2911 8.12193 11.0853 8.5562 10.8946 8.99631C10.8114 9.18943 10.6935 9.1695 10.5235 9.13439C8.87171 8.78909 7.64181 9.4048 6.77717 10.8398C6.72284 10.6057 6.66737 10.381 6.61304 10.1527C7.191 9.91863 7.36784 9.51253 7.25687 8.89686C7.1159 8.19002 7.07273 7.46671 7.12858 6.74782C7.33087 4.5953 8.49141 3.2177 10.4657 2.49785C11.3535 2.17363 12.2644 1.95004 13.2169 1.9477C12.3124 3.10308 11.7332 4.48464 11.5408 5.94608C11.4691 6.51377 11.2113 7.1001 11.4911 7.68534Z" fill="#F65B36"/>
<path d="M5.57054 12.0208C4.92321 11.8476 4.53018 12.125 4.22617 12.7043C3.58023 13.9286 2.83968 15.0993 2.01141 16.2053C1.71896 14.3723 1.55713 12.6447 2.12701 10.9381C2.45645 9.94905 3.06678 9.20695 4.09209 8.90497C4.60533 8.75515 4.84459 8.40644 4.88273 7.88674H5.33472C5.39252 8.32684 5.45031 8.76686 5.50811 9.20696C5.574 9.71612 5.81674 10.0697 6.34038 10.1786C6.12965 10.8113 5.87232 11.4271 5.57054 12.0208Z" fill="#F65B36"/>
<path d="M12.0056 21.4655C12.4217 21.8564 12.5316 22.2848 12.2368 22.8185C10.9919 25.0623 10.1076 27.456 9.40823 29.9234C9.18744 30.6982 9.0152 30.8293 8.24304 30.8504C7.67663 30.594 7.50903 30.161 7.67664 29.5628C8.41297 26.9503 9.34349 24.4128 10.6485 22.0355C11.015 21.3648 11.2623 21.2653 12.0056 21.4655Z" fill="#030403"/>
<path d="M12.75 25.6698C13.0159 24.4724 13.4805 23.3429 13.899 22.1982C13.9782 22.0212 14.0225 21.8304 14.0296 21.6363C15.3891 21.972 16.8052 21.9984 18.1759 21.7136C18.184 21.8248 18.1933 21.936 18.2026 22.046C17.5784 22.2508 17.383 22.6991 17.4916 23.3242C17.5656 23.7455 17.6142 24.1727 17.7078 24.5894C17.8061 25.0295 17.6997 25.2343 17.2235 25.3502C15.745 25.7096 14.2539 25.7553 12.75 25.6698Z" fill="#F4C076"/>
<path d="M32.4839 4.71112C32.4766 4.95842 32.4546 5.20512 32.4181 5.44976C32.389 5.64561 32.29 5.8239 32.1398 5.95075C31.9896 6.07761 31.7986 6.14419 31.6031 6.13798C31.1731 6.15086 30.8471 5.93198 30.7524 5.49891C30.6304 4.94623 30.6304 4.37313 30.7524 3.82046C30.8483 3.38621 31.172 3.18139 31.6101 3.19544C32.0482 3.20948 32.3372 3.44585 32.4192 3.88127C32.4572 4.15633 32.4788 4.43343 32.4839 4.71112Z" fill="#0A0908"/>
<path d="M27.6291 4.69828C28.1736 4.70765 29.0579 5.61009 29.0648 6.16138C29.0733 6.32682 29.0332 6.49115 28.9494 6.63346C28.8657 6.77578 28.7421 6.88969 28.5943 6.96083C28.4533 7.04698 28.2887 7.08526 28.1247 7.0701C27.9606 7.05495 27.8057 6.98705 27.6823 6.87647C27.4036 6.64165 27.1467 6.38154 26.9148 6.09931C26.8066 5.97369 26.7408 5.8165 26.7269 5.65044C26.713 5.48438 26.7517 5.31814 26.8373 5.17585C26.9096 5.02727 27.0229 4.90306 27.1634 4.8183C27.3039 4.73355 27.4657 4.69187 27.6291 4.69828Z" fill="#0A0908"/>
<path d="M34.9543 7.06739C34.7945 7.066 34.6383 7.01984 34.5028 6.93411C34.3673 6.84838 34.2579 6.72638 34.1867 6.58159C34.103 6.43643 34.0655 6.26879 34.0792 6.10128C34.0928 5.93378 34.157 5.77452 34.263 5.64521C34.4967 5.36157 34.756 5.10057 35.0375 4.86565C35.1661 4.75908 35.3244 4.69596 35.4902 4.68505C35.656 4.67413 35.8211 4.71603 35.9622 4.80484C36.1111 4.87923 36.2347 4.99697 36.3171 5.14295C36.3994 5.28893 36.4369 5.4565 36.4246 5.62418C36.4038 6.13802 35.4906 7.04749 34.9543 7.06739Z" fill="#040403"/>
<path d="M47.9839 21.6621L49.8241 20.9142L50.1016 21.4912C49.6322 21.909 49.6392 22.3632 49.9282 22.8958C52.2146 27.1458 53.396 31.7353 54.0028 36.505C54.2433 38.4024 54.3496 40.3067 54.4074 42.2169C54.4178 42.5505 54.3542 42.7097 54.0086 42.7787C53.0839 42.9648 52.1776 43.2259 51.2344 43.2657C51.402 41.2314 51.5314 39.1936 51.4586 37.1499C52.6804 36.4558 53.0977 35.3684 52.9694 34.0071C52.8769 33.0286 52.5753 32.1098 52.2169 31.205C51.5407 29.4996 50.5639 27.9639 49.6057 26.4177L49.4901 26.2691V26.2913C49.497 25.7131 49.2704 25.1887 49.0924 24.662C48.748 23.6554 48.3549 22.6617 47.9839 21.6621Z" fill="#F65B36"/>
<path d="M50.1017 21.4912L49.8242 20.9142C50.5952 20.4869 51.2333 19.8818 51.9118 19.3305C51.772 20.371 51.8159 21.4198 51.7962 22.4662C51.6876 22.3117 51.5651 22.163 51.4703 21.998C51.1004 21.3741 50.7894 21.2547 50.1017 21.4912Z" fill="#6A4A3C"/>
<path d="M10.8913 43.2692C10.7022 41.341 10.625 39.4032 10.6601 37.4659C10.7178 35.4767 10.9327 33.4954 11.3028 31.5409C11.5282 30.326 11.7975 29.1192 12.0796 27.9124C12.1281 27.7029 12.0588 27.3669 12.416 27.3107C13.5534 27.6338 14.7059 27.5004 15.8502 27.3868C16.4611 27.3213 17.0655 27.2038 17.6569 27.0357C18.0384 26.9304 18.139 27.0169 18.2187 27.3985C19.1366 31.7972 20.3052 36.128 21.6322 40.4167C21.8503 41.119 22.0738 41.8213 22.3027 42.5235C22.3824 42.767 22.3686 42.9285 22.0715 42.9824C18.3725 43.6554 14.6735 43.8391 10.9398 43.2925C10.9224 43.2876 10.906 43.2798 10.8913 43.2692V43.2692Z" fill="#F4C076"/>
<path d="M49.6023 26.4224C50.5605 27.9686 51.5373 29.5043 52.2135 31.2097C52.5719 32.1144 52.8736 33.0332 52.966 34.0117C53.0944 35.373 52.6771 36.4604 51.4552 37.1545C49.8369 37.8123 48.4498 37.3371 47.1956 36.2521C46.8488 35.9489 46.4928 35.6445 46.1287 35.3578C45.5392 34.8896 45.4351 34.9036 44.8687 35.4257C44.3543 35.9032 43.6885 35.8318 43.4146 35.2595C43.3444 35.1195 43.3121 34.9633 43.321 34.8066C43.33 34.6499 43.3798 34.4984 43.4654 34.3676C43.765 33.8599 44.2437 33.4863 44.8048 33.3222C45.3659 33.1582 45.9675 33.216 46.4882 33.4839C47.0488 33.7624 47.4961 34.1932 47.9701 34.59C48.414 34.961 48.8405 35.3614 49.3954 35.565C50.4946 35.97 51.3073 35.3754 51.2194 34.2096C51.1431 33.1854 50.757 32.249 50.3421 31.3279C49.7561 30.0584 49.0672 28.8404 48.2822 27.6865C47.984 27.2428 47.8279 26.8062 48.2313 26.365C48.6128 25.9495 49.052 26.0279 49.4867 26.2959V26.2738C49.5225 26.3229 49.563 26.372 49.6023 26.4224Z" fill="#040301"/>
<path d="M11.4911 7.6854C11.2114 7.10016 11.4692 6.51499 11.5408 5.94614C11.7333 4.4847 12.3124 3.10313 13.2169 1.94776C15.5623 1.70664 17.8731 1.8166 20.074 2.76001C21.3455 3.30428 22.2252 4.2314 22.5662 5.66758C22.3246 5.72844 22.1523 5.57735 21.9731 5.50595C20.1976 4.80366 18.3898 4.3355 16.457 4.60237C14.5682 4.85988 13.0586 5.77286 11.8795 7.2699C11.7616 7.41855 11.6934 7.61634 11.4911 7.6854Z" fill="#FF9783"/>
<path d="M11.9155 11.3596C11.9224 12.138 11.9155 12.9151 11.9397 13.6935C11.9883 15.4234 12.1779 17.13 12.8911 18.7265C12.9284 18.7944 12.9514 18.8695 12.9585 18.9469C12.9657 19.0243 12.9569 19.1022 12.9327 19.176C11.252 18.1928 10.2544 16.7098 9.87178 14.8054C9.76428 14.2682 9.56545 13.8972 9.05106 13.6467C8.8625 13.5585 8.69495 13.4302 8.55984 13.2704C8.42474 13.1107 8.32527 12.9233 8.26821 12.7211C8.21115 12.5189 8.19783 12.3066 8.22921 12.0987C8.26058 11.8908 8.33589 11.6922 8.44998 11.5164C8.55963 11.3324 8.70746 11.1748 8.88323 11.0544C9.05899 10.934 9.25847 10.8537 9.46791 10.819C9.67735 10.7844 9.89171 10.7963 10.0962 10.8539C10.3006 10.9115 10.4903 11.0132 10.652 11.1524C11.0589 11.4871 11.4438 11.6112 11.9155 11.3596Z" fill="#F7B796"/>
<path d="M12.9373 19.183C12.9682 19.1731 13.0018 19.176 13.0306 19.1911C13.0595 19.2062 13.0812 19.2323 13.091 19.2637L12.9373 19.183Z" fill="#F7B796"/>
<path d="M50.305 2.39363C50.4842 3.26798 50.9396 4.04993 51.1141 4.92662C51.3245 5.96601 51.6262 6.99011 51.5615 8.07046C51.1985 7.60227 50.7685 7.51106 50.1836 7.66205C47.7307 8.29879 45.6258 7.703 43.9346 5.74127C43.3301 5.03899 43.055 5.01667 42.3163 5.54924C41.4771 6.15672 40.49 6.22227 39.5236 6.36858C39.304 6.40135 39.2335 6.2855 39.2011 6.07013C38.9468 4.37761 39.8738 2.83376 41.513 2.27544C42.8284 1.82832 44.1982 1.76624 45.5587 1.84817C46.8418 1.92542 48.1365 1.89502 49.4045 2.16891C49.7143 2.23094 50.0091 2.31755 50.305 2.39363Z" fill="#6A4A3C"/>
<path d="M49.1849 19.1772C49.163 18.7172 49.4161 18.3298 49.5051 17.8897C50.0022 15.3662 49.7363 12.8671 49.3271 10.3681C49.2902 10.1399 49.2797 9.90818 49.2566 9.6776C49.7386 9.51139 49.9236 9.68929 49.8438 10.1903C49.8345 10.3071 49.8345 10.4245 49.8438 10.5414C49.8309 10.727 49.8755 10.912 49.9715 11.0706C50.0674 11.2293 50.2099 11.3536 50.379 11.4262C50.7408 11.596 51.0587 11.4988 51.3361 11.2507C51.7893 10.8433 52.3048 10.6901 52.8793 10.8925C53.1574 10.976 53.4031 11.1446 53.5827 11.3751C53.7624 11.6057 53.8671 11.8868 53.8826 12.1801C53.937 12.8203 53.6861 13.3564 53.1139 13.6221C52.5418 13.8878 52.358 14.2857 52.2354 14.8651C51.8378 16.7425 50.8541 18.2163 49.1849 19.1772Z" fill="#F7B796"/>
<path d="M49.0347 19.259L49.1861 19.1736L49.0347 19.259Z" fill="#F7B796"/>
<path d="M51.5869 8.26006C51.602 8.28253 51.6155 8.30606 51.6274 8.33036C51.6274 8.33036 51.6066 8.35023 51.5939 8.36077C51.5841 8.32818 51.5817 8.29372 51.5869 8.26006V8.26006Z" fill="#6A4A3C"/>
<path d="M17.509 18.2818C16.0525 18.1647 14.8307 17.6111 14.0042 16.3353C13.6413 15.7746 13.6898 15.2479 14.1198 14.9401C14.5498 14.6322 15.0688 14.7633 15.4376 15.3134C15.6476 15.6409 15.9294 15.9151 16.2609 16.1147C16.5925 16.3142 16.9649 16.4337 17.3495 16.464C17.4824 16.4792 17.6165 16.4991 17.7483 16.5272C18.2673 16.6442 18.5805 17.054 18.5077 17.5234C18.4349 17.9927 18.0165 18.3145 17.509 18.2818Z" fill="#040403"/>
<path d="M21.3305 11.2425C21.3427 11.4764 21.3408 11.711 21.3247 11.9447C21.2646 12.4129 20.9779 12.6763 20.5225 12.7055C20.0671 12.7348 19.7284 12.4984 19.6371 12.0466C19.5249 11.4944 19.5249 10.9249 19.6371 10.3727C19.7307 9.91739 20.0809 9.68563 20.5306 9.71957C20.9803 9.75352 21.2774 10.0181 21.3247 10.4933C21.3513 10.7368 21.3305 10.9908 21.3305 11.2425Z" fill="#040403"/>
<path d="M16.4397 11.2062C16.428 10.9722 16.428 10.7378 16.4397 10.5039C16.4894 10.0029 16.8015 9.72551 17.2743 9.70913C17.7471 9.69274 18.1008 9.96196 18.1539 10.45C18.2112 10.9517 18.2112 11.4584 18.1539 11.96C18.0961 12.4364 17.7644 12.7162 17.272 12.6951C16.7796 12.674 16.4964 12.3908 16.4409 11.9003C16.4273 11.6692 16.4269 11.4374 16.4397 11.2062V11.2062Z" fill="#040403"/>
<path d="M44.4398 18.2899C44.2311 18.2803 44.0325 18.1957 43.8796 18.0514C43.7267 17.9071 43.6295 17.7124 43.6053 17.5022C43.5897 17.3909 43.596 17.2775 43.6239 17.1687C43.6519 17.0599 43.7009 16.9578 43.7681 16.8683C43.8353 16.7789 43.9193 16.7037 44.0154 16.6474C44.1115 16.591 44.2176 16.5546 44.3277 16.5401C44.9323 16.423 45.5496 16.3762 46.0616 15.9805C46.3147 15.7715 46.5346 15.5244 46.7136 15.2478C47.0523 14.7633 47.5343 14.6462 47.9574 14.9224C48.3978 15.2092 48.4833 15.7242 48.1585 16.2521C47.3251 17.6111 46.0512 18.1764 44.4398 18.2899Z" fill="#040403"/>
<path d="M40.7466 11.1675C40.7593 10.9205 40.7524 10.6853 40.7871 10.4571C40.8052 10.25 40.9005 10.0575 41.0535 9.91884C41.2066 9.78017 41.406 9.70567 41.6113 9.71035C42.0609 9.69279 42.3985 9.93386 42.4852 10.395C42.5851 10.9303 42.5851 11.4797 42.4852 12.015C42.3996 12.4703 42.0817 12.7173 41.6182 12.702C41.1547 12.6868 40.8657 12.4269 40.7905 11.9669C40.7606 11.7016 40.7459 11.4346 40.7466 11.1675Z" fill="#0A0908"/>
<path d="M45.6767 11.253C45.6949 11.4868 45.6926 11.7219 45.6697 11.9553C45.583 12.4329 45.2848 12.7149 44.7935 12.7043C44.3022 12.6938 43.9959 12.4106 43.9531 11.9213C43.9196 11.4569 43.9196 10.9906 43.9531 10.5261C43.9564 10.4136 43.9818 10.3028 44.0279 10.2004C44.074 10.0979 44.1398 10.0058 44.2216 9.92947C44.3033 9.85314 44.3993 9.7942 44.5038 9.75595C44.6084 9.7177 44.7195 9.70098 44.8305 9.7068C45.3044 9.74309 45.6166 10.0052 45.6778 10.4992C45.6929 10.7506 45.6929 11.0027 45.6778 11.2541L45.6767 11.253Z" fill="#040403"/>
<path d="M49.6022 26.4224C49.5629 26.3721 49.5224 26.323 49.4866 26.2738C49.5224 26.323 49.5629 26.3721 49.6022 26.4224Z" fill="#F7CC54"/>
</g>
<defs>
<clipPath id="clip0_192_9653">
<rect width="59" height="60" fill="white"/>
</clipPath>
</defs>
</svg>
