<svg width="32" height="32" viewBox="0 0 32 32" fill="none" xmlns="http://www.w3.org/2000/svg">
<g clip-path="url(#clip0_903_12443)">
<path d="M26.6264 4.68702L27.5019 5.5359C27.3843 5.7153 27.0548 5.77656 27.3562 6.13162C30.4435 9.76469 31.6536 13.9566 30.8118 18.6492C29.9476 23.4675 27.2474 27.0193 22.9582 29.3528C21.0284 30.4017 18.9391 30.9361 16.7491 31.0462C15.3409 31.1168 13.9426 31.013 12.5744 30.6392C12.0828 30.4211 11.5826 30.2198 11.1023 29.9791C10.5964 29.7259 10.1286 29.359 9.50706 29.5709C9.16375 29.4503 8.85983 29.2509 8.53965 29.0827C8.42386 29.0143 8.28657 28.992 8.15507 29.0202C7.91244 29.0727 7.6673 29.1146 7.42217 29.1584C6.15814 29.3826 4.89412 29.6063 3.63009 29.8297C3.64948 29.7178 3.66761 29.6059 3.68762 29.494C3.96903 27.9363 4.25043 26.3788 4.53184 24.8214C4.59437 24.4664 4.70193 24.1188 4.45492 23.7769C4.20791 23.435 4.04532 23.0324 3.85584 22.6517C2.99162 20.9083 2.52199 19.0518 2.39442 17.1233C2.31971 16.0654 2.35071 15.0027 2.48697 13.951C2.96725 10.2912 4.74607 6.92553 7.49971 4.46636C8.86774 3.23265 10.4444 2.25202 12.156 1.57028C12.2379 1.53777 12.3492 1.53715 12.3561 1.40963L12.3661 1.419C12.4462 1.44963 12.5193 1.45651 12.5656 1.36462C14.2878 0.927053 16.0313 0.84829 17.7922 1.05957C20.8745 1.42838 23.5791 2.64482 25.9217 4.67451C26.285 4.98894 26.2825 4.99206 26.6264 4.68702ZM12.1885 9.13459C11.5252 8.76911 10.8618 8.40302 10.1981 8.03629C9.83474 7.83438 9.83536 7.83251 9.83536 8.23445V16.7883C9.83536 17.2765 9.83536 17.2765 10.3131 17.3115L10.3169 18.5254C9.83536 18.5729 9.83536 18.5729 9.83536 19.0786C9.83536 20.677 9.83912 22.276 9.83161 23.8744C9.83161 24.1182 9.87288 24.1613 10.0968 24.0332C10.7884 23.6369 11.4906 23.2587 12.1885 22.8736C12.1967 23.3806 12.1954 23.3787 12.6444 23.1193C13.0759 22.8692 13.509 22.6223 13.9439 22.3785C15.3767 21.5751 16.8096 20.7729 18.2425 19.9719C20.0351 18.9651 21.8278 17.956 23.6204 16.9446C24.1601 16.6408 24.6985 16.3351 25.2882 16.0013C24.9424 15.8138 24.6441 15.6506 24.3502 15.4843C22.2778 14.3154 20.2054 13.1463 18.133 11.9769C16.3041 10.9463 14.4748 9.9168 12.645 8.8883C12.1935 8.63326 12.1967 8.62513 12.1885 9.13459ZM16.5628 30.4329C18.8916 30.3385 21.1434 29.7328 23.2083 28.5145C26.6077 26.5086 28.8589 23.6019 29.9357 19.7988C30.1065 19.1968 30.0896 19.2099 29.4899 19.0605C29.2166 18.9924 29.1422 19.0736 29.0796 19.3243C28.383 22.106 26.9216 24.4214 24.7473 26.2804C22.3597 28.3213 19.5738 29.3621 16.4415 29.494C16.0037 29.5122 16.0037 29.5022 16.0037 29.9516C16.0044 30.4411 16.0044 30.4411 16.5628 30.4329V30.4329ZM29.3198 18.2266C29.2973 18.3473 29.3323 18.4142 29.4849 18.4492C30.244 18.6311 30.2465 18.6367 30.3234 17.8522C30.3253 17.8211 30.3297 17.7901 30.3366 17.7597C30.366 17.6522 30.3109 17.6165 30.2153 17.589C29.558 17.4015 29.3417 17.5509 29.3198 18.2266ZM30.0077 16.0032C29.4824 16.0032 29.4411 16.0063 29.4967 16.7183C29.5324 17.1758 29.9733 16.9364 30.1927 16.9302C30.6718 16.9158 30.3804 16.4926 30.4298 16.2657C30.5211 15.8363 30.1477 16.0707 30.0077 16.0013V16.0032Z" fill="#FE7856"/>
<path d="M26.6264 4.68683C26.2825 4.99375 26.285 4.99062 25.921 4.67557C23.5791 2.64588 20.8745 1.42944 17.7916 1.06063C16.0306 0.849352 14.2897 0.926864 12.5644 1.36568C12.4949 1.37131 12.4212 1.36568 12.3655 1.42007L12.3555 1.41132C12.2838 1.42037 12.2126 1.43331 12.1423 1.45007C7.40842 2.80966 4.03845 5.74261 2.08926 10.2639C1.01993 12.7381 0.720389 15.3466 1.07621 18.0202C1.34878 20.0771 2.04918 22.0542 3.13233 23.8242C3.21613 23.9617 3.27491 24.0905 3.23864 24.2618C3.15985 24.6268 3.09794 24.9962 3.0304 25.3638C2.75588 26.864 2.48385 28.3693 2.20432 29.8708C2.16805 30.0664 2.22559 30.1089 2.40881 30.0702C2.81403 29.9845 3.22175 29.9095 3.62823 29.8301C4.89267 29.6063 6.15669 29.3825 7.4203 29.1588C7.66543 29.115 7.91056 29.0731 8.1532 29.0206C8.2847 28.9924 8.422 29.0147 8.53778 29.0831C8.85796 29.2513 9.16312 29.4507 9.50519 29.5713C10.4715 30.0691 11.503 30.4287 12.5694 30.6396C13.9376 31.0147 15.3359 31.1172 16.7441 31.0466C18.9328 30.9365 21.0234 30.4021 22.9532 29.3532C27.2449 27.0197 29.9426 23.4679 30.8068 18.6496C31.6485 13.957 30.4385 9.76512 27.3512 6.13205C27.0498 5.77699 27.3793 5.71574 27.4969 5.53633C27.8477 5.25066 27.8508 5.24816 28.1541 5.60572C30.2559 8.08298 31.5166 10.929 31.8874 14.1596C32.7004 21.24 28.832 27.9186 22.2647 30.7303C19.7095 31.8236 17.0362 32.2061 14.2659 31.9011C12.2255 31.6821 10.2469 31.0699 8.43961 30.0983C8.27595 30.0086 8.08515 29.9817 7.90306 30.0227C5.68643 30.4294 3.46897 30.8344 1.25068 31.2378C1.18126 31.2503 1.10997 31.251 1.00804 31.2597C1.20628 30.1658 1.39889 29.0969 1.59399 28.0286C1.80994 26.8422 2.02777 25.6563 2.24747 24.4712C2.28249 24.2836 2.22871 24.1324 2.13616 23.9711C1.0894 22.1811 0.413149 20.199 0.147577 18.1427C-0.307046 14.6328 0.279524 11.2947 2.03486 8.21113C4.42366 4.01422 7.99686 1.32318 12.7282 0.360526C17.9986 -0.711516 22.6999 0.606188 26.759 4.15674C26.8972 4.27801 26.9466 4.36365 26.7827 4.49367C26.7242 4.55257 26.6718 4.61729 26.6264 4.68683V4.68683Z" fill="#040303"/>
<path d="M10.3131 17.314C9.83537 17.279 9.83537 17.279 9.83537 16.7908V8.23445C9.83537 7.83251 9.83537 7.83438 10.1981 8.03629C10.8609 8.40385 11.5244 8.76995 12.1885 9.13459C12.293 9.20022 12.3955 9.27086 12.5012 9.33087C16.2708 11.452 20.0412 13.5722 23.8124 15.6912L24.3233 15.9807C24.2395 16.1088 24.1244 16.1394 24.0288 16.1932C21.2468 17.7588 18.4645 19.3235 15.6817 20.887C14.5142 21.5446 13.3517 22.211 12.1867 22.8736C11.4888 23.2587 10.7865 23.6368 10.0949 24.0332C9.87101 24.1582 9.82849 24.1182 9.82974 23.8744C9.83724 22.276 9.83349 20.677 9.83349 19.0786C9.83349 18.5729 9.83349 18.5729 10.315 18.5254C10.7734 18.5711 10.7734 18.5711 10.7734 19.0643C10.7734 20.1444 10.7734 21.2246 10.7734 22.3048C10.7734 22.4679 10.7734 22.5817 10.986 22.4542C11.3837 22.2129 11.7896 21.986 12.1923 21.7528C12.2501 21.7317 12.3067 21.7072 12.3617 21.6797C15.641 19.8356 18.9197 17.9908 22.1978 16.1451C22.2666 16.1063 22.3541 16.09 22.3941 16.0019C22.3378 15.9038 22.2303 15.8769 22.144 15.8306C20.0595 14.6567 17.975 13.4853 15.8906 12.3163C14.6586 11.6256 13.423 10.9411 12.1892 10.2535C11.8227 10.041 11.4575 9.82657 11.0892 9.61654C10.7765 9.43651 10.7715 9.43901 10.7715 9.79532C10.7715 12.1319 10.7715 14.4685 10.7715 16.8052C10.7753 17.2734 10.7753 17.2734 10.3131 17.314Z" fill="#040303"/>
<path d="M3.63013 29.8297C3.22366 29.9091 2.81719 29.9841 2.41072 30.0698C2.22749 30.1085 2.16996 30.066 2.20623 29.8704C2.48576 28.3701 2.75778 26.8661 3.03231 25.3634C3.09984 24.9958 3.16175 24.6264 3.24054 24.2614C3.27681 24.0907 3.21803 23.9619 3.13423 23.8238C2.05051 22.0541 1.34947 20.0772 1.07624 18.0204C0.71854 15.3468 1.01808 12.7383 2.08804 10.2592C4.03723 5.74097 7.40719 2.80801 12.141 1.44842C12.2114 1.43166 12.2825 1.41873 12.3543 1.40967C12.3474 1.53469 12.2361 1.53469 12.1542 1.56969C10.4426 2.25143 8.8659 3.23206 7.49787 4.46577C4.74424 6.92494 2.96542 10.2906 2.48513 13.9504C2.34887 15.0021 2.31787 16.0648 2.39258 17.1227C2.51765 19.0512 2.98978 20.9077 3.854 22.6511C4.0416 23.0324 4.20232 23.4319 4.45308 23.7763C4.70384 24.1207 4.59441 24.4639 4.53 24.8208C4.24734 26.3777 3.96594 27.9353 3.68578 29.4934C3.66765 29.6059 3.64952 29.7178 3.63013 29.8297Z" fill="#FC3F61"/>
<path d="M10.3132 17.3137C10.7751 17.2756 10.7751 17.2756 10.7751 16.8087C10.7751 14.472 10.7751 12.1354 10.7751 9.79881C10.7751 9.4425 10.7751 9.44 11.0927 9.62003C11.4608 9.83006 11.8259 10.0445 12.1922 10.257C12.1922 11.0071 12.1922 11.7529 12.1922 12.5005C12.1947 14.983 12.1974 17.465 12.2003 19.9467C12.1016 20.0767 11.9416 20.1129 11.8128 20.1967C11.7503 20.2354 11.6559 20.2817 11.7003 20.3561C11.849 20.6061 11.8922 20.9256 12.1835 21.0781L12.1947 21.7551C11.7922 21.9882 11.3865 22.2151 10.9889 22.4564C10.7776 22.5814 10.7757 22.4702 10.7764 22.307C10.7789 21.2269 10.7789 20.1467 10.7764 19.0665C10.7764 18.5733 10.7764 18.5733 10.3182 18.5277L10.3132 17.3137Z" fill="#F9C075"/>
<path d="M16.5628 30.433C16.0044 30.4411 16.0044 30.4411 16.0044 29.9517C16.0044 29.5022 16.0044 29.5141 16.4421 29.4941C19.5745 29.3622 22.3604 28.3214 24.7479 26.2805C26.9222 24.4214 28.3836 22.1061 29.0803 19.3244C29.1428 19.0743 29.2172 18.9925 29.4905 19.0606C30.0902 19.21 30.1071 19.1969 29.9364 19.7988C28.8595 23.6019 26.6083 26.5086 23.2089 28.5146C21.1434 29.7329 18.8916 30.3386 16.5628 30.433Z" fill="#F7F9FA"/>
<path d="M12.1885 22.8734C13.3535 22.2108 14.5161 21.5444 15.6836 20.8868C18.4643 19.3203 21.2466 17.7557 24.0306 16.193C24.1263 16.1392 24.2414 16.1086 24.3252 15.9804L23.8143 15.691C20.0434 13.5715 16.2731 11.4514 12.5031 9.33065C12.3955 9.26814 12.293 9.20001 12.1904 9.13437C12.1985 8.62742 12.1954 8.63429 12.6463 8.88808C14.4748 9.9195 16.3043 10.949 18.1349 11.9767C20.2081 13.1435 22.2805 14.3127 24.352 15.4841C24.6472 15.6504 24.9455 15.811 25.2901 16.0011C24.7004 16.3349 24.1645 16.6405 23.6223 16.9443C21.8296 17.9541 20.037 18.9632 18.2443 19.9717C16.8127 20.7756 15.3799 21.5778 13.9457 22.3783C13.5113 22.6221 13.0782 22.869 12.6463 23.1191C12.1954 23.3772 12.1967 23.3803 12.1885 22.8734Z" fill="#FC3F61"/>
<path d="M29.3198 18.2264C29.3423 17.5506 29.558 17.4012 30.2149 17.5888C30.3106 17.6163 30.3656 17.6513 30.3362 17.7594C30.3293 17.7899 30.325 17.8208 30.3231 17.8519C30.2462 18.6345 30.2437 18.6308 29.4848 18.4489C29.3323 18.4126 29.2973 18.347 29.3198 18.2264Z" fill="#F7F9FA"/>
<path d="M30.0075 16.0012C30.1475 16.0688 30.5207 15.8343 30.4294 16.2638C30.3813 16.4938 30.6713 16.9139 30.1925 16.9283C29.9731 16.9345 29.5324 17.1739 29.4968 16.7164C29.4411 16.0062 29.4824 16.0012 30.0075 16.0012Z" fill="#F7F9FA"/>
<path d="M12.5744 30.6375C11.508 30.4266 10.4765 30.067 9.51019 29.5692C10.1318 29.3573 10.5995 29.7242 11.1054 29.9774C11.582 30.218 12.0822 30.4193 12.5744 30.6375Z" fill="#FC3F61"/>
<path d="M12.3661 1.41815C12.4218 1.36189 12.4955 1.3694 12.5649 1.36377C12.5199 1.45566 12.4462 1.44878 12.3661 1.41815Z" fill="#FC3F61"/>
<path d="M12.1986 19.9445C12.1961 17.4621 12.1933 14.98 12.1904 12.4984C12.1904 11.7482 12.1904 11.0025 12.1904 10.2549C13.4242 10.9425 14.6599 11.6257 15.8918 12.3177C17.9763 13.4846 20.0608 14.656 22.1452 15.832C22.2309 15.8801 22.3385 15.9051 22.3954 16.0033C22.3553 16.0914 22.2703 16.1077 22.199 16.1464C18.921 17.9926 15.6423 19.8374 12.363 21.6811C12.308 21.7086 12.2514 21.733 12.1936 21.7542C12.1898 21.5287 12.1863 21.3031 12.1829 21.0772C13.8088 20.1577 15.4347 19.2313 17.07 18.3212C17.7622 17.9355 17.7685 17.9511 17.3645 17.2797C17.302 17.1735 17.2644 17.1328 17.1306 17.2097C16.1301 17.7836 15.1295 18.358 14.1152 18.9069C13.4755 19.2519 12.8683 19.6557 12.1986 19.9445ZM19.7026 16.8134C19.8165 16.8134 20.4168 16.4384 20.4205 16.3658C20.4255 16.259 20.0097 15.6482 19.9315 15.6476C19.8409 15.6476 19.218 16.037 19.2155 16.0952C19.2111 16.1958 19.6289 16.814 19.7014 16.814L19.7026 16.8134ZM18.3332 17.5873C18.5208 17.571 19.056 17.206 19.0479 17.0997C19.0385 16.9747 18.6433 16.4121 18.5677 16.4177C18.3901 16.4277 17.8742 16.8128 17.8879 16.9253C17.9035 17.0603 18.2619 17.5935 18.3319 17.5873H18.3332Z" fill="#FDF3CB"/>
<path d="M12.1986 19.9443C12.8683 19.6555 13.4755 19.251 14.1146 18.9054C15.1289 18.3565 16.1294 17.7802 17.13 17.2082C17.2638 17.1313 17.3001 17.172 17.3639 17.2782C17.7678 17.9496 17.7616 17.934 17.0693 18.3197C15.4353 19.2298 13.8107 20.1562 12.1823 21.0757C11.8903 20.9232 11.8471 20.6019 11.6983 20.3537C11.6539 20.2793 11.7502 20.2331 11.8108 20.1943C11.9397 20.1105 12.0997 20.0743 12.1986 19.9443Z" fill="#F7F9FA"/>
<path d="M19.7012 16.8138C19.6287 16.8138 19.2111 16.1962 19.2143 16.0955C19.2143 16.0374 19.8394 15.6473 19.93 15.6479C20.0081 15.6479 20.4238 16.2593 20.4188 16.3662C20.4151 16.4387 19.815 16.8138 19.7012 16.8138Z" fill="#F7F9FA"/>
<path d="M18.3318 17.5871C18.2617 17.5933 17.9036 17.0601 17.8867 16.9251C17.8729 16.8126 18.3868 16.425 18.5662 16.4175C18.6418 16.4131 19.0369 16.9745 19.0462 17.0995C19.0544 17.2058 18.523 17.5708 18.3318 17.5871Z" fill="#F7F9FA"/>
</g>
<defs>
<clipPath id="clip0_903_12443">
<rect width="32" height="32" fill="white"/>
</clipPath>
</defs>
</svg>
