<svg width="113" height="85" viewBox="0 0 113 85" fill="none" xmlns="http://www.w3.org/2000/svg">
<path d="M12.2004 67.2095H34.1162V62.0631H12.2004V67.2095Z" fill="#F65B36"/>
<path opacity="0.3" d="M12.2004 67.2095H34.1162V62.0631H12.2004V67.2095Z" fill="black"/>
<path d="M28.2343 67.1658L28.8497 73.7408L36.4277 127.844H38.5924L32.6137 73.7408L32.1264 67.1658H28.2343Z" fill="#F65B36"/>
<path opacity="0.3" d="M28.2343 67.1658L28.8497 73.7408L36.4277 127.844H38.5924L32.6137 73.7408L32.1264 67.1658H28.2343Z" fill="black"/>
<path d="M7.72107 127.844H9.89203L17.4701 73.7408L18.0823 67.1658H14.1902L13.706 73.7408L7.72107 127.844Z" fill="#F65B36"/>
<path opacity="0.3" d="M7.72107 127.844H9.89203L17.4701 73.7408L18.0823 67.1658H14.1902L13.706 73.7408L7.72107 127.844Z" fill="black"/>
<path opacity="0.3" d="M32.6137 73.5069H28.8497L28.2343 67.1658H32.1264L32.6137 73.5069Z" fill="black"/>
<path opacity="0.3" d="M13.7061 73.5069H17.4701L18.0823 67.1658H14.1902L13.7061 73.5069Z" fill="black"/>
<path d="M87.3781 127.844H92.098L89.118 7.42648L87.2407 7.61051L87.3781 127.844Z" fill="#F65B36"/>
<g opacity="0.3">
<path opacity="0.3" d="M87.3781 127.844H92.098L89.118 7.42648L87.2407 7.61051L87.3781 127.844Z" fill="black"/>
</g>
<path d="M57.8062 127.844H63.2758L77.1793 8.60548L75.2707 8.79575L57.8062 127.844Z" fill="#F65B36"/>
<path opacity="0.3" d="M57.8062 127.844H63.2758L77.1793 8.60548L75.2707 8.79575L57.8062 127.844Z" fill="black"/>
<path d="M77.8665 71.6698H82.3334L82.6957 0L81.0995 0.159072L77.8665 71.6698Z" fill="#F65B36"/>
<path opacity="0.3" d="M77.8665 71.6698H82.3334L82.6957 0L81.0995 0.159072L77.8665 71.6698Z" fill="black"/>
<path opacity="0.3" d="M67.8582 59.312H71.2662L70.2978 67.6368H66.6368L67.8582 59.312Z" fill="black"/>
<path opacity="0.3" d="M78.4256 59.312H82.3927L82.3521 67.6368H78.0508L78.4256 59.312Z" fill="black"/>
<path opacity="0.3" d="M90.608 67.6368H87.3094L87.3 59.312H90.4019L90.608 67.6368Z" fill="black"/>
<path d="M94.8656 34.5779V45.0268L110.821 127.844H115.388L94.8656 34.5779Z" fill="#F65B36"/>
<g opacity="0.3">
<path opacity="0.3" d="M94.8656 34.5779V45.0268L110.821 127.844H115.388L94.8656 34.5779Z" fill="black"/>
</g>
<path opacity="0.3" d="M101.91 66.5889L100.951 76.6198L94.8656 45.0268V34.5779L101.91 66.5889Z" fill="black"/>
<path d="M97.3427 64.3555H64.6033L67.5833 17.9128L96.6055 17.3201L97.3427 64.3555Z" fill="white"/>
<path d="M97.502 64.5115H64.4378L67.4334 17.7599L96.7523 17.1611L97.502 64.5115ZM64.7689 64.1996H97.1834L96.4524 17.4792L67.7458 18.0656L64.7689 64.1996Z" fill="#E9E9E9"/>
<path d="M96.771 17.1642L98.0798 19.4193L99.0357 64.3555H97.3426L96.771 17.1642Z" fill="#DBDBDB"/>
<path d="M63.1664 66.2769H100.46V64.1529H63.1664V66.2769Z" fill="#F65B36"/>
<path opacity="0.3" d="M63.1664 66.2769H100.46V64.1529H63.1664V66.2769Z" fill="black"/>
<path d="M73.8432 30.1426C70.4071 32.616 74.571 36.4213 77.0668 37.3819C79.3596 38.2553 86.7503 40.7037 87.4468 36.6645C87.8873 34.241 85.5539 32.7751 83.1393 32.0359C80.2655 30.1083 76.2078 28.4396 73.8432 30.1426Z" fill="#FEE9E4"/>
<path d="M23.5831 108.78L39.3484 112.745C39.3484 112.745 54.0297 86.2607 53.7173 79.5298C53.3768 72.5587 45.6457 55.3041 42.5533 46.842C41.5256 44.0349 42.344 43.2551 42.344 43.2551H29.2745C29.2745 43.2551 37.9521 72.5743 38.0614 77.7519C38.1207 80.4749 23.5831 108.78 23.5831 108.78Z" fill="#37474F"/>
<path d="M39.1515 71.1302C38.1114 66.7635 37.0149 62.428 35.8311 58.1081C34.6472 53.7882 33.4071 49.4371 32.0327 45.1515C31.8671 44.6306 31.6922 45.6662 31.5204 45.1515C31.5141 45.1366 31.5025 45.1246 31.4879 45.1177C31.4732 45.1108 31.4566 45.1095 31.4411 45.1142C31.4256 45.1188 31.4123 45.129 31.4039 45.1428C31.3955 45.1566 31.3925 45.1731 31.3954 45.1889C32.6168 49.4558 33.8631 52.1569 35.0252 56.4394C36.1872 60.7219 37.2992 65.0168 38.3488 69.3274C38.6091 70.3962 38.8642 71.465 39.1141 72.5338C39.4022 73.6332 39.6254 74.7487 39.7825 75.8743C39.9128 76.9502 39.8397 78.041 39.567 79.09C39.2675 80.1189 38.8787 81.1198 38.405 82.0812C36.5162 86.163 34.6347 90.25 32.7605 94.3422C30.8863 98.4438 30.5739 99.3764 28.7715 103.509C28.5466 104.024 28.3217 104.535 28.1062 105.053C28.1062 105.087 28.1406 105.115 28.1593 105.081C30.2209 101.026 30.5395 100.053 32.4512 95.933C34.3629 91.8127 36.2996 87.6394 38.2113 83.4848C39.0734 81.6134 40.0855 79.7014 40.2136 77.6054C40.3385 75.4189 39.6513 73.2262 39.1515 71.1302Z" fill="#263238"/>
<path d="M41.0164 43.2489C40.9602 43.5171 37.6991 54.8206 37.293 55.0639C36.8213 55.354 49.1286 71.885 50.5905 79.9946C51.5276 85.1847 53.6517 115.433 53.6517 115.433H37.9833C37.9833 115.433 36.4465 89.7447 35.9342 81.2796C35.7343 77.9952 22.9178 63.8971 21.8776 53.0552C21.5653 49.8582 24.1642 43.2551 24.1642 43.2551L41.0164 43.2489Z" fill="#37474F"/>
<path d="M37.5866 103.179C37.3992 98.9241 37.2305 94.6604 36.9213 90.4091C36.7432 88.0043 36.3996 85.6712 36.1591 83.2696C36.1591 83.1448 36.0466 83.1136 36.0497 83.2446C36.1591 87.5177 36.512 91.7441 36.7432 96.0141C36.9743 100.284 37.1868 101.282 37.4304 105.537C37.5678 107.944 37.6865 110.356 37.874 112.76C37.876 112.767 37.88 112.772 37.8853 112.776C37.8906 112.78 37.8971 112.782 37.9036 112.782C37.9102 112.782 37.9166 112.78 37.922 112.776C37.9273 112.772 37.9313 112.767 37.9333 112.76C37.9427 108.484 37.774 107.442 37.5866 103.179Z" fill="#263238"/>
<path d="M50.6092 80.1692C50.4738 79.0451 50.2546 77.9327 49.9533 76.8412C49.632 75.7827 49.2062 74.7588 48.6819 73.7845C47.6167 71.7384 46.3985 69.7578 45.2271 67.7709C44.0557 65.7841 42.8344 63.7505 41.5974 61.7668C40.9039 60.6543 40.2053 59.5418 39.5014 58.4294C38.7892 57.3034 38.0364 56.2055 37.2992 55.1013C37.268 55.0577 37.1993 55.1013 37.2274 55.1419C38.4269 57.1506 39.6139 59.1655 40.8134 61.1741C42.0129 63.1828 43.1967 65.1977 44.3806 67.2158C45.5645 69.2338 46.7109 71.1863 47.8167 73.1981C48.3643 74.156 48.8364 75.155 49.2286 76.1862C49.5935 77.2562 49.858 78.3578 50.0189 79.4768C50.4374 82.0781 50.7779 84.695 51.3027 87.2744C51.3047 87.2807 51.3087 87.2861 51.314 87.29C51.3194 87.2938 51.3258 87.2959 51.3324 87.2959C51.3389 87.2959 51.3454 87.2938 51.3507 87.29C51.356 87.2861 51.36 87.2807 51.362 87.2744C51.1902 84.8977 50.9216 82.5241 50.6092 80.1692Z" fill="#263238"/>
<path d="M39.339 54.1687C37.7379 54.752 36.1901 55.472 34.7128 56.3209C34.7 56.3267 34.69 56.3373 34.685 56.3505C34.68 56.3637 34.6805 56.3782 34.6863 56.3911C34.6921 56.4039 34.7028 56.4139 34.7159 56.4189C34.7291 56.4238 34.7437 56.4234 34.7566 56.4176C36.3184 55.7501 37.9052 55.1076 39.4234 54.3559C39.4461 54.3434 39.4633 54.3229 39.4715 54.2983C39.4798 54.2737 39.4784 54.247 39.4678 54.2234C39.4571 54.1998 39.438 54.181 39.4141 54.1709C39.3902 54.1608 39.3634 54.16 39.339 54.1687Z" fill="#263238"/>
<path d="M39.8106 45.0611C39.8106 45.008 39.7107 44.9956 39.7107 45.0611C39.7107 46.9107 39.6045 46.9762 39.4483 48.7041C39.3764 49.5057 38.7298 53.9348 37.3398 53.6104C37.1055 53.5574 36.9868 53.3297 36.9494 52.9866C36.9525 52.5222 37.0145 52.06 37.1337 51.6111C37.2867 50.6754 37.4117 49.7397 37.4898 48.8039C37.6523 47.581 37.6333 46.3408 37.4335 45.1234C37.4309 45.1135 37.425 45.1046 37.4168 45.0983C37.4086 45.0921 37.3986 45.0886 37.3882 45.0886C37.3779 45.0886 37.3678 45.0921 37.3597 45.0983C37.3515 45.1046 37.3456 45.1135 37.3429 45.1234C37.3853 47.0238 37.2441 48.9238 36.9212 50.797C36.7463 51.9511 36.1653 53.6853 37.371 53.8631C38.5768 54.0408 39.3952 51.137 39.5576 50.3416C39.9668 48.1489 39.9856 47.313 39.8106 45.0611Z" fill="#263238"/>
<path d="M37.3773 53.732C37.2528 54.0304 37.1484 54.3368 37.065 54.6491C36.9763 54.8907 36.9329 55.1466 36.9369 55.4039C36.9369 55.4538 37.0056 55.4569 37.0337 55.4257C37.1741 55.1973 37.2794 54.9492 37.3461 54.6896C37.4523 54.4058 37.5648 54.1251 37.6585 53.8381C37.6614 53.8043 37.6531 53.7704 37.635 53.7417C37.6169 53.713 37.5899 53.691 37.5581 53.679C37.5263 53.667 37.4914 53.6657 37.4588 53.6753C37.4262 53.6848 37.3976 53.7048 37.3773 53.732Z" fill="#263238"/>
<path d="M38.0302 85.378C37.8865 83.1947 37.8927 80.8835 36.9619 78.8529C36.4649 77.8658 35.8948 76.917 35.2563 76.0146C34.6191 75.0435 33.9944 74.0683 33.3821 73.0889C30.9082 69.1651 28.5467 65.1634 26.382 61.0587C25.3386 59.0812 24.3797 57.0445 23.8549 54.8611C23.3453 52.5655 23.2491 50.1976 23.5706 47.8682C23.6425 47.2881 23.7206 46.711 23.8205 46.134C23.8205 46.0935 23.7643 46.0748 23.7549 46.1184C23.2468 48.3364 23.073 50.6176 23.2395 52.8868C23.4761 55.0547 24.087 57.1652 25.045 59.1249C26.0009 61.1897 27.1348 63.1797 28.2562 65.1509C29.4078 67.1887 30.5958 69.2067 31.8203 71.205C33.0385 73.1887 34.3192 75.135 35.5906 77.0876C36.2383 78.0104 36.7437 79.0249 37.0899 80.0975C37.3724 81.2153 37.5326 82.3605 37.5679 83.5128C37.8802 88.3505 39.111 104.426 39.5451 109.239C39.5993 109.85 39.6545 110.46 39.7107 111.07C39.7107 111.126 39.7982 111.123 39.795 111.07C39.5982 106.238 38.3488 90.197 38.0302 85.378Z" fill="#263238"/>
<path d="M29.3869 45.9188C29.3869 45.8845 29.3307 45.897 29.3307 45.9188C29.287 47.2631 29.3307 48.648 28.8059 49.9174C28.3311 51.0808 27.3784 51.898 26.307 52.5094C25.686 52.8555 25.0468 53.1678 24.3922 53.4451C24.3453 53.4638 24.3641 53.5387 24.414 53.5231C25.6635 53.1301 26.913 52.7028 27.9469 51.8793C29.0496 50.9966 29.5306 49.7147 29.5837 48.3298C29.6034 47.5215 29.5374 46.7133 29.3869 45.9188Z" fill="#263238"/>
<path d="M45.1803 11.4719C44.0526 10.4707 41.1195 9.32911 38.4519 11.9834C34.6628 15.7544 36.4371 25.62 37.0399 27.1109C37.0399 27.1109 43.8777 29.2693 49.7939 25.6387C49.7939 25.6387 46.3204 19.0419 46.7546 15.5984C46.8527 14.8343 46.7603 14.0579 46.4857 13.338C46.211 12.6182 45.7626 11.9772 45.1803 11.4719Z" fill="#263238"/>
<path d="M47.4762 19.3101L47.5418 19.4723C47.8397 20.1584 48.1994 20.8161 48.6163 21.4373C49.002 22.0425 49.4722 22.5897 50.0126 23.0623C50.0282 23.0623 50.0532 23.0623 50.0376 23.0405C49.5068 22.5345 49.0635 21.9443 48.7257 21.2938C48.3709 20.6778 48.0528 20.0415 47.7729 19.3881C47.2015 18.0603 46.8016 16.6652 46.5828 15.2366C46.5828 15.2085 46.5297 15.2148 46.5328 15.2366C46.5453 15.4445 46.5641 15.6442 46.5891 15.8355C46.585 15.8344 46.5808 15.8343 46.5767 15.8353C46.5727 15.8362 46.5689 15.8382 46.5658 15.841C46.5627 15.8438 46.5603 15.8473 46.5589 15.8513C46.5575 15.8552 46.5572 15.8594 46.5578 15.8635C46.6924 17.1998 46.9678 18.5181 47.3794 19.7967C47.8316 21.0478 48.4527 22.2315 49.2255 23.315C49.6527 23.9298 50.1179 24.5173 50.6186 25.0741C50.6186 25.0741 50.6405 25.0741 50.6186 25.0741C49.2418 23.3509 48.1782 21.4001 47.4762 19.3101Z" fill="#263238"/>
<path d="M39.6639 11.3752C36.2653 13.5586 35.3719 17.7412 35.4875 21.4248C35.5087 22.5559 35.6416 23.6821 35.8842 24.7872C35.8857 24.7905 35.8881 24.7934 35.8911 24.7954C35.8942 24.7973 35.8977 24.7984 35.9014 24.7984C35.905 24.7984 35.9086 24.7973 35.9117 24.7954C35.9147 24.7934 35.9171 24.7905 35.9186 24.7872C35.6193 22.8483 35.6025 20.8764 35.8686 18.9327C36.131 17.1143 36.5808 15.2241 37.5804 13.6303C38.1125 12.7534 38.8286 12.0021 39.6795 11.4282C39.7201 11.4126 39.6951 11.3752 39.6639 11.3752Z" fill="#263238"/>
<path d="M38.6955 25.4765C38.8829 27.8719 42.1316 38.3956 46.6734 41.7486C48.3977 43.0243 59.0463 39.7742 61.3547 38.6639C62.2918 38.2085 59.8772 30.6572 58.787 30.9005C57.6282 31.1532 49.5159 33.165 48.7194 32.9186C47.9229 32.6722 44.2931 26.9923 41.2507 23.9637C39.4358 22.164 38.5612 23.7891 38.6955 25.4765Z" fill="#DFA098"/>
<path d="M60.1053 38.9165C60.6644 38.8323 62.9572 38.5235 64.6034 36.7893C64.8095 35.3327 65.4405 32.276 65.6373 31.5181C65.7092 30.6416 66.3714 28.8045 66.4557 28.8264C66.615 28.8669 67.1742 29.0135 67.8676 29.1383C68.7829 29.2973 69.9324 29.4221 70.6946 29.2194C70.8766 29.1946 71.0483 29.1205 71.1909 29.005C71.3336 28.8895 71.4418 28.737 71.5036 28.5644C71.6692 27.9405 70.3166 27.5319 68.7579 26.9019C66.6369 26.0442 63.9817 25.1022 62.8916 25.6543C61.2766 26.4902 59.9397 28.8607 59.5367 29.5687C58.9234 30.565 58.0541 31.3792 57.019 31.9267C57.0815 36.3277 59.7117 38.9758 60.1053 38.9165Z" fill="#DFA098"/>
<path d="M74.2493 30.6011C74.2493 30.6011 70.8414 29.55 67.3616 28.3055C63.8818 27.061 55.8727 25.9038 55.6603 26.1221C55.4479 26.3405 63.2227 29.104 66.7775 29.9149C70.3322 30.7259 73.9932 31.3372 73.9932 31.3372L74.2493 30.6011Z" fill="#F65B36"/>
<path d="M74.3367 30.5824L72.0221 29.7527L71.6941 31.0315L74.0806 31.4432L74.3367 30.5824Z" fill="#DBDBDB"/>
<path d="M74.3367 30.5855C74.6312 30.4954 74.9429 30.4766 75.246 30.5309C75.5492 30.5851 75.835 30.7108 76.0797 30.8974C76.2774 31.06 76.5063 31.1804 76.7524 31.2512C76.9984 31.322 77.2564 31.3417 77.5104 31.3091C77.5104 31.3091 75.6362 32.7283 74.0743 31.4339L74.3367 30.5855Z" fill="#263238"/>
<path d="M77.6042 31.306C77.4855 31.2311 76.8982 31.3746 76.4421 31.1001C75.9861 30.8257 75.2864 32.1419 75.9767 32.0359C76.7608 31.9236 77.8197 31.4432 77.6042 31.306Z" fill="#37474F"/>
<path d="M63.6288 37.5161C64.1973 37.1886 67.8239 34.2192 68.2425 33.2492C68.6611 32.2792 71.4724 30.782 69.8356 30.1738C68.1988 29.5656 66.0278 32.2667 65.6967 31.9392C65.6251 31.8111 65.604 31.661 65.6373 31.5181C65.4405 32.2729 63.8349 36.0595 63.6288 37.5161Z" fill="#DFA098"/>
<path d="M48.4882 32.0515L41.4318 35.1331C41.4318 35.1331 39.2453 29.6279 38.5206 26.1128C37.7959 22.5976 38.9204 21.1472 42.5407 24.9774C44.6658 27.2122 46.652 29.5746 48.4882 32.0515Z" fill="#F65B36"/>
<path opacity="0.1" d="M47.2232 32.6067L41.435 35.1362C41.435 35.1362 39.2266 29.628 38.5175 26.1097C38.1208 24.1353 38.2988 22.8097 39.1672 22.713C40.9915 24.8963 45.1678 29.9305 47.2232 32.6067Z" fill="black"/>
<path d="M41.3007 33.7701C42.2461 33.2461 43.2061 32.746 44.1807 32.2698C44.6618 32.0359 45.1397 31.7926 45.6239 31.568C46.108 31.3434 46.639 31.1376 47.142 30.9036C47.1455 30.9003 47.1497 30.8978 47.1543 30.8964C47.1589 30.8949 47.1638 30.8946 47.1686 30.8954C47.1733 30.8961 47.1778 30.898 47.1818 30.9008C47.1857 30.9036 47.1889 30.9073 47.1912 30.9116C47.1934 30.9158 47.1947 30.9206 47.1948 30.9254C47.1949 30.9302 47.1939 30.935 47.1919 30.9394C47.1898 30.9437 47.1868 30.9476 47.183 30.9506C47.1792 30.9536 47.1748 30.9557 47.1701 30.9567C46.6953 31.1968 46.233 31.4744 45.7644 31.7177C45.2959 31.961 44.7805 32.2074 44.2838 32.4507C43.3092 32.929 42.3221 33.3833 41.3225 33.8137C41.2944 33.8324 41.2726 33.7857 41.3007 33.7701Z" fill="#263238"/>
<path d="M21.3997 46.527L44.8492 48.6885C44.9554 48.5981 43.3967 27.5881 42.0753 24.7186C40.5322 21.3687 38.1676 20.9383 35.7842 22.2233C31.1987 24.6499 21.3559 46.4584 21.3997 46.527Z" fill="#F65B36"/>
<path opacity="0.1" d="M40.9477 22.9157L35.475 22.3917C35.5757 22.3238 35.68 22.2614 35.7874 22.2046C35.8655 22.164 35.9404 22.1235 36.0185 22.0892L40.5697 22.5259C40.7035 22.6481 40.8297 22.7783 40.9477 22.9157ZM42.0785 24.7217L33.8632 23.9326C33.7726 24.0386 33.682 24.1446 33.5914 24.2445L42.2159 25.0991C42.1791 24.9722 42.1331 24.8482 42.0785 24.7279V24.7217ZM42.6283 26.8239L32.4013 25.8414C32.3232 25.9506 32.2483 26.0598 32.1702 26.1752L42.6907 27.1826C42.672 27.0641 42.6501 26.9456 42.6283 26.8302V26.8239ZM42.9719 28.9043L31.1206 27.7659L30.9082 28.0996L43.025 29.263C43.0062 29.1539 42.9875 29.026 42.9719 28.9106V28.9043ZM43.2561 30.9785L29.9492 29.7091L29.7524 30.0428L43.2998 31.3372C43.2842 31.2218 43.2686 31.1033 43.2561 30.9847V30.9785ZM43.506 33.0527L28.8247 31.646L28.6342 31.9797L43.5529 33.4114C43.531 33.2991 43.5185 33.1774 43.506 33.0589V33.0527ZM43.7309 35.1237L27.7439 33.5923L27.5627 33.926L43.7684 35.4856C43.7601 35.367 43.7476 35.2485 43.7309 35.13V35.1237ZM43.9433 37.1917L26.71 35.5386L26.5319 35.8786L43.9777 37.5504C43.9683 37.4381 43.9558 37.3164 43.9433 37.1979V37.1917ZM44.1401 39.2596L25.7104 37.4911L25.5417 37.8311L44.1838 39.6152C44.162 39.5029 44.1526 39.3844 44.1401 39.2659V39.2596ZM44.3244 41.3276L24.7233 39.4561L24.5546 39.7961L44.3556 41.6925C44.3463 41.5708 44.3369 41.4523 44.3182 41.3338L44.3244 41.3276ZM44.4962 43.3892L23.7675 41.4024L23.605 41.7424L44.5337 43.7479C44.5181 43.6357 44.5087 43.5171 44.4962 43.3955V43.3892ZM44.6586 45.4541L22.8335 43.3643C22.7772 43.4787 22.7241 43.5909 22.6742 43.7012L44.6836 45.8128C44.6774 45.7036 44.668 45.5819 44.6586 45.4603V45.4541ZM44.8023 47.5189L21.9214 45.3355L21.7714 45.6724L44.8242 47.8838C44.818 47.7715 44.8086 47.653 44.8023 47.5251V47.5189Z" fill="black"/>
<path d="M32.5887 25.4359C27.2972 31.9017 20.6844 41.7954 22.5586 44.6338C24.4328 47.4721 31.0425 52.7433 36.7089 54.0502C37.8053 54.306 41.1008 45.1702 39.9419 44.849C36.915 44.0068 31.5079 40.1891 31.1331 39.6526C30.9582 39.3937 34.9315 31.5025 36.334 26.983C38.0302 21.5215 35.753 21.5652 32.5887 25.4359Z" fill="#DFA098"/>
<path d="M35.3594 53.757C38.8392 55.3353 45.5551 54.7676 46.4266 54.412C46.8304 54.2751 47.171 53.997 47.3856 53.6291C48.7288 53.1176 49.0318 52.3191 49.0318 52.3191C49.0318 52.3191 50.7592 52.1819 50.8498 51.1245C50.956 49.9362 48.5008 50.3759 47.0139 49.774C46.5922 49.6024 45.5832 49.0971 44.8554 48.6885L44.8117 48.6636C44.5407 48.5257 44.2852 48.3595 44.0495 48.1677C42.3658 47.0292 39.9231 45.2139 39.0516 44.6431L35.3594 53.757Z" fill="#DFA098"/>
<path d="M42.4439 50.8719C43.4394 51.2777 44.4611 51.6164 45.502 51.8856C46.6578 52.105 47.8282 52.2395 49.0037 52.2879C49.0099 52.29 49.0154 52.294 49.0192 52.2993C49.0231 52.3046 49.0252 52.311 49.0252 52.3176C49.0252 52.3241 49.0231 52.3305 49.0192 52.3359C49.0154 52.3412 49.0099 52.3452 49.0037 52.3472C46.719 52.4939 44.4377 52.0139 42.4065 50.9592C42.3596 50.9343 42.3908 50.8532 42.4439 50.8719Z" fill="#263238"/>
<path d="M40.8821 52.6061C42.9768 53.3114 45.1787 53.646 47.3887 53.5948C47.3887 53.5948 47.3887 53.6135 47.3887 53.6166C45.2677 53.9285 42.8281 53.5075 40.854 52.709C40.7884 52.684 40.8102 52.5842 40.8821 52.6061Z" fill="#263238"/>
<path d="M46.8483 45.6256C51.3995 44.6244 64.2035 46.1902 64.0661 49.2593C63.8974 52.9211 44.0745 51.5019 44.212 49.0285C44.2963 47.653 48.8694 48.1458 48.8975 47.3411C48.935 46.7266 45.2553 45.9968 46.8483 45.6256Z" fill="#F65B36"/>
<path opacity="0.2" d="M46.8483 45.6256C51.3995 44.6244 64.2035 46.1902 64.0661 49.2593C63.8974 52.9211 44.0745 51.5019 44.212 49.0285C44.2963 47.653 48.8694 48.1458 48.8975 47.3411C48.935 46.7266 45.2553 45.9968 46.8483 45.6256Z" fill="black"/>
<path d="M50.528 48.8538C50.8 48.9102 51.0471 49.051 51.234 49.2562C51.2842 49.3094 51.3214 49.3735 51.3425 49.4434C51.3636 49.5134 51.3681 49.5873 51.3557 49.6593C51.3433 49.7313 51.3142 49.7995 51.2709 49.8584C51.2275 49.9172 51.1711 49.9652 51.1059 49.9986C50.5124 50.3292 49.0224 50.167 48.9193 49.3155C48.8194 48.5419 49.8533 48.6355 50.528 48.8538Z" fill="#455A64"/>
<path d="M54.0016 50.1732L53.9235 50.1326C53.8349 50.0979 53.7518 50.0506 53.6767 49.9923C53.6007 49.9331 53.5405 49.8559 53.5018 49.7677C53.4695 49.7144 53.4574 49.6514 53.4674 49.5899C53.4752 49.5011 53.509 49.4165 53.5645 49.3466C53.6201 49.2767 53.6949 49.2247 53.7798 49.1969C54.0514 49.1176 54.3344 49.0849 54.617 49.1002C55.0262 49.0628 55.326 48.8414 55.7477 48.9006C56.1694 48.9599 56.7379 49.25 56.8067 49.6773C56.966 50.8095 54.5951 50.4383 54.0016 50.1732Z" fill="#263238"/>
<path d="M50.9248 46.8764C51.056 47.3037 51.512 47.3286 51.8869 47.338C52.2617 47.3473 52.6397 47.3661 53.0145 47.3692C53.2558 47.4107 53.5041 47.3747 53.7236 47.2662L53.7579 47.2288C53.8257 47.1969 53.8808 47.1435 53.9147 47.0768C53.9487 47.0102 53.9594 46.9342 53.9454 46.8608C53.911 46.527 53.5768 46.4147 53.2706 46.3337C53.1629 46.293 53.0522 46.2607 52.9395 46.237C52.4398 46.0685 51.8837 45.7847 51.359 46.0217C51.1959 46.0885 51.0623 46.2115 50.9826 46.3684C50.9029 46.5253 50.8824 46.7056 50.9248 46.8764Z" fill="#C7C7C7"/>
<path d="M55.7914 46.6206C55.2979 47.1508 56.1256 47.6468 56.5754 47.7216C57.0253 47.7965 58.3091 47.9524 58.2903 47.2506C58.2903 46.8327 57.8405 46.6643 57.4126 46.6268C56.8628 46.4023 56.1288 46.2619 55.7914 46.6206Z" fill="#F65B36"/>
<path d="M61.8108 48.3829C62.3105 49.0441 61.5359 49.696 60.9143 49.774C60.4233 49.8129 59.9295 49.7941 59.443 49.7178C59.2863 49.7173 59.1342 49.665 59.0105 49.5691C58.8867 49.4732 58.7983 49.339 58.7589 49.1876C58.659 48.517 59.3305 48.3018 59.9428 48.2519C60.605 47.9961 61.4078 47.8682 61.8108 48.3829Z" fill="#EBEBEB"/>
<path d="M44.037 48.1583C43.6996 47.7715 43.8996 47.5906 44.7992 47.7622C45.6988 47.9337 49.1067 49.3685 49.5066 48.1396C49.9064 46.9107 45.0678 44.9519 43.5528 44.7804C42.0378 44.6088 39.0453 44.6338 39.0453 44.6338C39.9106 45.2045 42.3533 47.0198 44.037 48.1583Z" fill="#DFA098"/>
<path d="M34.3474 35.4918L27.7626 31.1719C27.7626 31.1719 31.2518 26.381 33.8476 23.9045C36.4434 21.4279 38.2613 21.5808 36.9431 26.6586C35.6249 31.7364 34.3474 35.4918 34.3474 35.4918Z" fill="#F65B36"/>
<path d="M28.8309 30.3297C29.7763 30.8413 30.7134 31.3767 31.6422 31.9361C32.0952 32.2105 32.5512 32.4819 33.001 32.7657C33.4509 33.0496 33.9069 33.3895 34.3692 33.6765C34.4005 33.6952 34.3692 33.7482 34.3411 33.7295C33.8819 33.4644 33.404 33.2273 32.9479 32.9653C32.4919 32.7033 32.0108 32.4008 31.5454 32.117C30.6249 31.5576 29.717 30.9764 28.8215 30.3734C28.784 30.3547 28.8028 30.3141 28.8309 30.3297Z" fill="#263238"/>
<path d="M36.284 29.0478C36.031 30.1395 35.7374 31.2312 35.4219 32.301C35.2688 32.8406 35.1095 33.374 34.9315 33.9104C34.7534 34.4469 34.591 34.9803 34.4129 35.5105L34.3817 35.5979L34.3067 35.5479C33.9381 35.2922 33.5758 35.0239 33.2166 34.7526C33.6101 34.974 34.0006 35.1986 34.3848 35.4325L34.2786 35.47C34.4223 34.9272 34.5691 34.3877 34.7284 33.8512C34.8877 33.3147 35.0408 32.772 35.2095 32.2386C35.5374 31.1657 35.8842 30.0896 36.284 29.0478Z" fill="#263238"/>
<path d="M36.4215 29.6966C36.3722 29.9493 36.2803 30.1919 36.1497 30.414C36.0841 30.5262 36.0185 30.6354 35.9467 30.7415C35.8748 30.8475 35.7936 30.9473 35.7093 31.0534C35.828 30.8226 35.9623 30.6073 36.081 30.3828C36.1466 30.2736 36.2028 30.1613 36.2622 30.049C36.3215 29.9367 36.3778 29.8151 36.4215 29.6966Z" fill="#263238"/>
<path d="M40.451 25.9662C39.0641 26.0286 37.3586 23.9357 37.0868 22.2233C37.0868 22.1048 37.5928 21.1254 38.1707 19.9027C38.5174 19.1604 38.886 18.3245 39.1672 17.5385L43.6778 20.5016C43.0431 21.385 42.5186 22.3423 42.1159 23.3524C42.0778 23.4607 42.0506 23.5725 42.0347 23.6862C41.6661 24.7529 41.0789 25.9412 40.451 25.9662Z" fill="#DFA098"/>
<path d="M43.6934 20.5016C43.0587 21.385 42.5342 22.3423 42.1316 23.3524C42.092 23.4603 42.0648 23.5722 42.0503 23.6861C42.0417 23.7032 42.0344 23.721 42.0285 23.7392C41.8547 23.7029 41.6843 23.6518 41.5193 23.5863C38.6612 22.4728 39.0204 18.992 39.2953 17.6102L43.6934 20.5016Z" fill="#263238"/>
<path d="M38.9235 12.0333C38.0395 13.7644 38.0708 19.2072 39.1672 20.6295C40.754 22.6724 43.8152 23.3805 45.6707 21.3687C47.47 19.4193 47.3013 12.3234 46.0362 10.9822C44.1713 9.02656 40.2261 9.47882 38.9235 12.0333Z" fill="#DFA098"/>
<path d="M43.6403 16.2409C43.6403 16.2409 43.6122 16.2565 43.6122 16.2721C43.6122 16.6402 43.5716 17.0644 43.2343 17.1829V17.2047C43.6466 17.1486 43.709 16.5872 43.6403 16.2409Z" fill="#263238"/>
<path d="M43.3154 15.8542C42.722 15.8043 42.6689 16.9895 43.2155 17.0363C43.7621 17.0831 43.8121 15.8947 43.3154 15.8542Z" fill="#263238"/>
<path d="M45.7332 16.269C45.7332 16.269 45.7613 16.2877 45.7613 16.3033C45.7332 16.6683 45.7613 17.0956 46.0737 17.239C46.0737 17.239 46.0737 17.2609 46.0737 17.2578C45.6801 17.1767 45.6489 16.6121 45.7332 16.269Z" fill="#263238"/>
<path d="M46.0799 15.901C46.6765 15.8823 46.6671 17.0706 46.1143 17.0862C45.5614 17.1018 45.5832 15.9135 46.0799 15.901Z" fill="#263238"/>
<path d="M42.8719 15.2896C43.0343 15.2553 43.1843 15.1961 43.3404 15.1493C43.5122 15.121 43.67 15.0378 43.7903 14.9122C43.8219 14.8648 43.8364 14.8081 43.8313 14.7513C43.8262 14.6946 43.8018 14.6413 43.7622 14.6003C43.6754 14.5312 43.5719 14.4864 43.4621 14.4705C43.3523 14.4546 43.2402 14.4682 43.1374 14.5099C42.9157 14.5605 42.7209 14.6917 42.5908 14.8779C42.5623 14.9227 42.5477 14.9748 42.5486 15.0277C42.5494 15.0807 42.5659 15.1323 42.5957 15.1761C42.6256 15.2199 42.6677 15.2539 42.7168 15.2741C42.7659 15.2943 42.8198 15.2997 42.8719 15.2896Z" fill="#263238"/>
<path d="M46.5672 15.3239C46.4094 15.2841 46.254 15.2351 46.1018 15.1774C45.9305 15.1505 45.7732 15.067 45.6551 14.9403C45.6234 14.8929 45.6089 14.8361 45.614 14.7794C45.6192 14.7227 45.6436 14.6694 45.6832 14.6284C45.7702 14.5598 45.8739 14.5156 45.9837 14.5002C46.0935 14.4849 46.2054 14.499 46.3079 14.5411C46.5297 14.5934 46.7237 14.727 46.8515 14.9153C46.8792 14.9603 46.8933 15.0124 46.8918 15.0652C46.8904 15.118 46.8735 15.1692 46.8434 15.2126C46.8132 15.256 46.771 15.2896 46.7219 15.3094C46.6729 15.3292 46.6191 15.3342 46.5672 15.3239Z" fill="#263238"/>
<path d="M43.0936 19.3382C43.178 19.4286 43.2592 19.5503 43.406 19.569C43.543 19.5717 43.6791 19.5462 43.8058 19.4941C43.8058 19.4941 43.8277 19.4941 43.8058 19.5128C43.7504 19.5829 43.6769 19.6364 43.5932 19.6678C43.5095 19.6991 43.4189 19.707 43.331 19.6906C43.2569 19.6681 43.1912 19.624 43.1422 19.564C43.0933 19.504 43.0633 19.4308 43.0562 19.3538C43.0686 19.3319 43.0686 19.3257 43.0936 19.3382Z" fill="#263238"/>
<path d="M39.339 16.5684C39.6514 16.3501 40.2105 14.7157 40.2105 14.7157C40.2105 14.7157 43.5372 13.858 44.2713 11.0384C44.2713 11.0384 45.5832 12.9098 46.8702 13.4525C46.8702 13.4525 47.1826 10.4863 44.5149 9.74706C44.5149 9.74706 41.9691 8.38403 39.3859 10.6391C36.8026 12.8942 38.5144 16.531 38.5144 16.531L39.339 16.5684Z" fill="#263238"/>
<path d="M44.2556 10.4832C44.2951 10.9747 44.2023 11.4679 43.987 11.9117C43.7928 12.3619 43.5351 12.782 43.2217 13.1593C42.9143 13.5503 42.545 13.8885 42.1284 14.1605C41.6314 14.4331 41.0966 14.6307 40.5416 14.7469C40.5229 14.7469 40.5416 14.7812 40.5416 14.7781C41.1211 14.6743 41.6841 14.4938 42.2159 14.2416C42.6697 13.9795 43.0762 13.6432 43.4185 13.2467C43.779 12.8717 44.0567 12.4254 44.2338 11.9367C44.375 11.462 44.4018 10.9607 44.3119 10.4738C44.3181 10.4395 44.2494 10.4395 44.2556 10.4832Z" fill="#263238"/>
<path d="M45.2553 9.41957C44.793 8.96419 43.6559 8.01911 42.5377 7.74463C41.4194 7.47016 39.7982 7.69473 39.2453 7.74463C38.7892 7.79454 37.3274 7.63859 36.1029 8.00975C35.739 8.15498 35.4209 8.39516 35.1819 8.70518C34.9429 9.0152 34.7916 9.38366 34.7441 9.77202C34.7284 10.583 36.4309 10.4676 36.4402 10.7857C36.4402 10.9947 35.9592 11.9366 36.3496 12.5043C36.7401 13.072 36.7339 12.9971 36.9588 13.3153C37.5054 14.0826 39.1453 10.5767 40.7259 9.88431C42.3065 9.19188 45.2553 9.41957 45.2553 9.41957Z" fill="#F65B36"/>
<path opacity="0.1" d="M45.1303 9.45076C45.1303 9.45076 42.319 9.19499 40.729 9.89366C39.1391 10.5923 37.7584 13.9983 37.2055 13.2467C36.965 12.9098 36.9306 12.5293 37.0025 11.9429C37.5397 11.0072 38.5393 9.59423 39.7888 8.82382C40.9602 8.11268 42.5064 8.1158 44.012 8.51192C44.4108 8.79257 44.7849 9.10666 45.1303 9.45076Z" fill="black"/>
<path d="M36.7557 14.9684C37.7709 14.0077 38.911 12.3608 40.426 11.3284C41.941 10.296 45.1272 10.5705 45.5176 10.7483C46.4735 11.1756 46.5078 11.7214 46.6953 11.684C46.8827 11.6466 46.3329 10.1775 46.1205 9.90926C45.7806 9.53966 45.3637 9.249 44.8991 9.05776C44.4712 8.90804 41.7567 8.17194 40.3823 8.92052C39.0079 9.66909 36.4714 12.2922 36.4121 13.1843C36.3965 13.3964 36.6058 13.6178 36.5839 13.9204C36.5527 14.3196 36.4714 14.7594 36.4839 15.0495C36.5089 15.2834 36.6963 15.0276 36.7557 14.9684Z" fill="#F65B36"/>
<path d="M40.8821 10.7826C40.7089 10.5619 40.5563 10.326 40.426 10.0777C40.2913 9.82997 40.1864 9.56717 40.1136 9.2948C40.1136 9.27297 40.0762 9.27609 40.0793 9.2948C40.1174 9.58558 40.2007 9.86865 40.3261 10.1338C40.457 10.393 40.635 10.6256 40.8509 10.82C40.8821 10.845 40.9102 10.8075 40.8821 10.7826Z" fill="#263238"/>
<path d="M36.9681 14.4288C36.9681 14.3539 36.9463 14.2791 36.94 14.2011C36.9307 14.115 36.9307 14.0282 36.94 13.9422C36.9806 13.7841 37.0027 13.6219 37.0056 13.4587C36.9874 13.3267 36.9549 13.197 36.9088 13.072C36.8442 12.9346 36.8298 12.779 36.8682 12.6322C36.8682 12.6135 36.8463 12.601 36.8401 12.6322C36.7808 12.9063 36.7937 13.1911 36.8776 13.4587C36.8714 13.6335 36.8526 13.8076 36.8213 13.9796C36.7997 14.1436 36.8326 14.3102 36.915 14.4537C36.9307 14.46 36.9681 14.4537 36.9681 14.4288Z" fill="#263238"/>
<path d="M37.6616 13.5586C37.6147 13.4213 37.5585 13.2934 37.5241 13.15C37.4931 13.0133 37.4712 12.8747 37.4585 12.7351C37.4585 12.5948 37.4585 12.4575 37.4304 12.3172C37.4023 12.1768 37.3867 12.0053 37.3804 11.8275C37.3804 11.8056 37.3492 11.8275 37.3492 11.8275C37.3492 11.9959 37.3305 12.1675 37.3305 12.3359C37.3299 12.4831 37.3403 12.6301 37.3617 12.7757C37.3778 12.9156 37.4081 13.0536 37.4523 13.1874C37.4907 13.324 37.5566 13.4513 37.6459 13.5617C37.6459 13.5617 37.6647 13.5586 37.6616 13.5586Z" fill="#263238"/>
<path d="M38.3363 12.7913C38.2073 12.555 38.1116 12.302 38.052 12.0396C37.9989 11.7838 37.9615 11.5218 37.924 11.2629C37.9225 11.2596 37.9201 11.2567 37.9171 11.2548C37.914 11.2528 37.9104 11.2517 37.9068 11.2517C37.9031 11.2517 37.8996 11.2528 37.8965 11.2548C37.8935 11.2567 37.8911 11.2596 37.8896 11.2629C37.8744 11.5354 37.8922 11.8088 37.9427 12.077C37.9671 12.2075 38.008 12.3343 38.0645 12.4544C38.1315 12.5821 38.2133 12.7014 38.3082 12.81C38.3082 12.81 38.3488 12.81 38.3363 12.7913Z" fill="#263238"/>
<path d="M39.0266 12.0739C38.9566 11.9716 38.9058 11.8575 38.8767 11.737C38.8392 11.6029 38.8017 11.4688 38.7674 11.3347C38.733 11.2006 38.7018 11.0758 38.6705 10.9479C38.6302 10.8189 38.6174 10.6829 38.6331 10.5487C38.6331 10.53 38.6081 10.5237 38.6018 10.5487C38.5666 10.6786 38.556 10.814 38.5706 10.9479C38.5821 11.0952 38.6061 11.2413 38.6424 11.3846C38.6792 11.5253 38.724 11.6638 38.7767 11.7994C38.8164 11.9231 38.8926 12.0318 38.9954 12.1113C39.0079 12.1176 39.0454 12.0957 39.0266 12.0739Z" fill="#263238"/>
<path d="M39.7045 11.0883C39.6514 10.9729 39.5983 10.8575 39.5546 10.7358C39.5108 10.6142 39.4733 10.4956 39.4359 10.374C39.3984 10.2524 39.3578 10.1214 39.3296 9.99036C39.3282 9.98702 39.3258 9.98418 39.3227 9.98218C39.3197 9.98019 39.3161 9.97913 39.3125 9.97913C39.3088 9.97913 39.3053 9.98019 39.3022 9.98218C39.2991 9.98418 39.2967 9.98702 39.2953 9.99036C39.2989 10.1234 39.3135 10.2559 39.339 10.3865C39.3653 10.5157 39.4008 10.6429 39.4452 10.767C39.4898 10.8892 39.5409 11.0089 39.5983 11.1257C39.6504 11.2428 39.7246 11.3487 39.8169 11.4376C39.8208 11.4398 39.8251 11.441 39.8295 11.4409C39.8339 11.4409 39.8382 11.4398 39.842 11.4375C39.8458 11.4353 39.849 11.4321 39.8512 11.4283C39.8533 11.4245 39.8545 11.4202 39.8544 11.4158C39.8146 11.3023 39.7644 11.1926 39.7045 11.0883Z" fill="#263238"/>
<path d="M41.7911 10.5331C41.7442 10.3833 41.6974 10.2399 41.638 10.0995C41.5747 9.95549 41.5038 9.81494 41.4256 9.67844C41.2767 9.41094 41.0998 9.16 40.8977 8.92987C40.8977 8.92987 40.8602 8.92987 40.8696 8.92987C41.1601 9.46635 41.4756 9.99035 41.763 10.5299L41.7911 10.5331Z" fill="#263238"/>
<path d="M42.6438 9.95915C42.5942 9.81486 42.5282 9.67672 42.4471 9.54744C42.2667 9.27978 42.0572 9.03291 41.8223 8.81134C41.8067 8.81134 41.7848 8.81134 41.7973 8.83005C41.9723 9.07958 42.1566 9.32598 42.319 9.58175C42.3971 9.70963 42.4783 9.84063 42.5439 9.97475C42.6095 10.1089 42.6438 10.2586 42.7032 10.3958H42.7282C42.7285 10.2462 42.6999 10.0979 42.6438 9.95915Z" fill="#263238"/>
<path d="M43.5466 9.89054C43.5033 9.75686 43.4479 9.6274 43.381 9.50378C43.2447 9.2599 43.0684 9.04059 42.8594 8.85501C42.8594 8.85501 42.825 8.85501 42.8375 8.87996C43.0092 9.09835 43.1618 9.33106 43.2936 9.57552C43.3581 9.70028 43.4206 9.82504 43.481 9.94981C43.5435 10.0746 43.5809 10.218 43.6528 10.3366H43.6715C43.6439 10.1843 43.6021 10.035 43.5466 9.89054Z" fill="#263238"/>
<path d="M44.2713 9.64414C44.2057 9.52874 44.1307 9.41957 44.0589 9.30728C43.9925 9.19086 43.9082 9.0856 43.809 8.99538C43.7934 8.99538 43.7778 8.99537 43.7871 9.02033C43.9183 9.23866 44.0433 9.46324 44.1682 9.68469C44.2699 9.89853 44.3495 10.1222 44.4056 10.3522H44.4244C44.4458 10.1062 44.3924 9.85944 44.2713 9.64414Z" fill="#263238"/>
<path d="M45.0147 9.75954C44.9011 9.52372 44.7431 9.31193 44.5493 9.13573C44.5493 9.13573 44.5118 9.13573 44.5243 9.16068C44.6891 9.34609 44.823 9.55671 44.921 9.7845C45.0251 10.0122 45.1037 10.2507 45.1553 10.4956H45.1771C45.1793 10.2412 45.1237 9.98954 45.0147 9.75954Z" fill="#263238"/>
<path d="M45.7582 10.5112C45.7544 10.4545 45.7461 10.3982 45.7332 10.3428C45.7079 10.2353 45.6712 10.1307 45.6238 10.0309C45.5226 9.81488 45.399 9.60999 45.2552 9.41956C45.2552 9.40084 45.2146 9.41956 45.2271 9.43827C45.3648 9.62208 45.4791 9.82218 45.5676 10.034C45.6092 10.1355 45.6436 10.2397 45.6707 10.3459C45.6844 10.3993 45.6948 10.4535 45.7019 10.5081C45.7067 10.5618 45.7161 10.6151 45.73 10.6672H45.7582C45.7683 10.6157 45.7683 10.5627 45.7582 10.5112Z" fill="#263238"/>
<path d="M46.2923 10.7701C46.2683 10.6788 46.238 10.5891 46.2018 10.5019C46.1667 10.4146 46.127 10.3293 46.0831 10.2461C46.0362 10.1619 45.9831 10.0777 45.9425 9.99348C45.9425 9.97164 45.9019 9.99348 45.9144 10.0091C45.9603 10.0945 45.9999 10.1831 46.0331 10.2742C46.0674 10.3615 46.0987 10.4457 46.133 10.53C46.1674 10.6142 46.1986 10.7015 46.2299 10.7888C46.2556 10.8785 46.2879 10.966 46.3267 11.0508C46.3267 11.0664 46.3517 11.0508 46.3517 11.0508C46.3428 10.9553 46.3229 10.8611 46.2923 10.7701Z" fill="#263238"/>
<path d="M39.2609 16.5716C39.2609 16.5716 38.3238 14.6658 37.4867 14.9715C36.6495 15.2772 37.1462 17.9003 38.0052 18.4025C38.1118 18.4728 38.2316 18.5206 38.3573 18.5429C38.4831 18.5653 38.6121 18.5618 38.7364 18.5326C38.8607 18.5034 38.9778 18.4491 39.0803 18.3731C39.1829 18.2971 39.2688 18.2009 39.3328 18.0905L39.2609 16.5716Z" fill="#DFA098"/>
<path d="M37.6491 15.7201C37.6491 15.7201 37.6303 15.7201 37.6491 15.7419C38.2488 16.1037 38.4893 16.7525 38.6299 17.4044C38.6026 17.3344 38.5605 17.2713 38.5065 17.2191C38.4525 17.167 38.3878 17.1271 38.3169 17.1022C38.246 17.0773 38.1705 17.068 38.0957 17.075C38.0209 17.0819 37.9485 17.1049 37.8834 17.1424C37.8646 17.1424 37.8834 17.1798 37.8834 17.1798C38.003 17.163 38.1249 17.184 38.2319 17.24C38.3389 17.2959 38.4257 17.384 38.48 17.4917C38.5739 17.6682 38.6482 17.8543 38.7018 18.0469C38.7205 18.1093 38.8298 18.0968 38.8205 18.025C38.9673 17.1829 38.5143 15.9415 37.6491 15.7201Z" fill="#263238"/>
</svg>
