<svg width="113" height="86" viewBox="0 0 113 86" fill="none" xmlns="http://www.w3.org/2000/svg">
<mask id="mask0_715_17248" style="mask-type:alpha" maskUnits="userSpaceOnUse" x="0" y="0" width="113" height="86">
<rect width="113" height="86" rx="8" fill="#C4C4C4"/>
</mask>
<g mask="url(#mask0_715_17248)">
<mask id="mask1_715_17248" style="mask-type:alpha" maskUnits="userSpaceOnUse" x="-2" y="9" width="113" height="86">
<rect x="-2" y="9" width="113" height="86" rx="8" fill="#C4C4C4"/>
</mask>
<g mask="url(#mask1_715_17248)">
</g>
<path d="M12.2004 68.2095H34.1162V63.063H12.2004V68.2095Z" fill="#348ADA"/>
<path opacity="0.3" d="M12.2004 68.2095H34.1162V63.063H12.2004V68.2095Z" fill="black"/>
<path d="M28.2344 68.166L28.8497 74.741L36.4278 128.844H38.5925L32.6138 74.741L32.1265 68.166H28.2344Z" fill="#348ADA"/>
<path opacity="0.3" d="M28.2344 68.166L28.8497 74.741L36.4278 128.844H38.5925L32.6138 74.741L32.1265 68.166H28.2344Z" fill="black"/>
<path d="M7.7207 128.844H9.89166L17.4697 74.741L18.082 68.166H14.1899L13.7057 74.741L7.7207 128.844Z" fill="#348ADA"/>
<path opacity="0.3" d="M7.7207 128.844H9.89166L17.4697 74.741L18.082 68.166H14.1899L13.7057 74.741L7.7207 128.844Z" fill="black"/>
<path opacity="0.3" d="M32.6138 74.5071H28.8497L28.2344 68.166H32.1265L32.6138 74.5071Z" fill="black"/>
<path opacity="0.3" d="M13.7061 74.5071H17.4701L18.0823 68.166H14.1902L13.7061 74.5071Z" fill="black"/>
<path d="M87.3777 128.844H92.0976L89.1176 8.42627L87.2402 8.61029L87.3777 128.844Z" fill="#348ADA"/>
<g opacity="0.3">
<path opacity="0.3" d="M87.3777 128.844H92.0976L89.1176 8.42627L87.2402 8.61029L87.3777 128.844Z" fill="black"/>
</g>
<path d="M57.8066 128.844H63.2762L77.1797 9.60547L75.2712 9.79573L57.8066 128.844Z" fill="#348ADA"/>
<path opacity="0.3" d="M57.8066 128.844H63.2762L77.1797 9.60547L75.2712 9.79573L57.8066 128.844Z" fill="black"/>
<path d="M77.8662 72.6698H82.3331L82.6954 1L81.0992 1.15907L77.8662 72.6698Z" fill="#348ADA"/>
<path opacity="0.3" d="M77.8662 72.6698H82.3331L82.6954 1L81.0992 1.15907L77.8662 72.6698Z" fill="black"/>
<path opacity="0.3" d="M67.8581 60.312H71.2661L70.2977 68.6368H66.6367L67.8581 60.312Z" fill="black"/>
<path opacity="0.3" d="M78.4256 60.312H82.3927L82.3521 68.6368H78.0508L78.4256 60.312Z" fill="black"/>
<path opacity="0.3" d="M90.6078 68.6368H87.3092L87.2998 60.312H90.4016L90.6078 68.6368Z" fill="black"/>
<path d="M94.8652 35.5781V46.027L110.821 128.844H115.388L94.8652 35.5781Z" fill="#348ADA"/>
<g opacity="0.3">
<path opacity="0.3" d="M94.8652 35.5781V46.027L110.821 128.844H115.388L94.8652 35.5781Z" fill="black"/>
</g>
<path opacity="0.3" d="M101.909 67.5891L100.95 77.62L94.8652 46.027V35.5781L101.909 67.5891Z" fill="black"/>
<path d="M97.3428 65.3557H64.6035L67.5835 18.9129L96.6056 18.3203L97.3428 65.3557Z" fill="white"/>
<path d="M97.5017 65.5116H64.4375L67.4331 18.76L96.752 18.1611L97.5017 65.5116ZM64.7686 65.1997H97.1831L96.4521 18.4793L67.7455 19.0657L64.7686 65.1997Z" fill="#E9E9E9"/>
<path d="M96.7715 18.1641L98.0803 20.4191L99.0362 65.3554H97.3431L96.7715 18.1641Z" fill="#DBDBDB"/>
<path d="M63.1663 67.2769H100.46V65.1528H63.1663V67.2769Z" fill="#348ADA"/>
<path opacity="0.3" d="M63.1663 67.2769H100.46V65.1528H63.1663V67.2769Z" fill="black"/>
<path d="M73.8436 31.1424C70.4075 33.6158 74.5714 37.4211 77.0672 38.3818C79.36 39.2551 86.7506 41.7036 87.4472 37.6644C87.8877 35.2409 85.5543 33.7749 83.1397 33.0357C80.2659 31.1081 76.2082 29.4394 73.8436 31.1424Z" fill="#FEE9E4"/>
<path d="M23.583 109.781L39.3482 113.745C39.3482 113.745 54.0295 87.261 53.7172 80.53C53.3767 73.5589 45.6456 56.3043 42.5531 47.8423C41.5254 45.0351 42.3438 44.2554 42.3438 44.2554H29.2744C29.2744 44.2554 37.9519 73.5745 38.0613 78.7522C38.1206 81.4751 23.583 109.781 23.583 109.781Z" fill="#37474F"/>
<path d="M39.1518 72.1302C38.1116 67.7635 37.0152 63.428 35.8313 59.1081C34.6474 54.7882 33.4073 50.4371 32.0329 46.1515C31.8674 45.6306 31.6924 46.6662 31.5206 46.1515C31.5144 46.1366 31.5028 46.1246 31.4881 46.1177C31.4735 46.1108 31.4568 46.1095 31.4413 46.1142C31.4258 46.1188 31.4126 46.129 31.4041 46.1428C31.3957 46.1566 31.3927 46.1731 31.3957 46.1889C32.617 50.4558 33.8634 53.1569 35.0254 57.4394C36.1874 61.7219 37.2994 66.0168 38.349 70.3274C38.6093 71.3962 38.8644 72.465 39.1143 73.5338C39.4024 74.6332 39.6256 75.7487 39.7828 76.8743C39.913 77.9502 39.8399 79.041 39.5672 80.09C39.2677 81.1189 38.8789 82.1198 38.4052 83.0812C36.5164 87.163 34.6349 91.25 32.7607 95.3422C30.8865 99.4438 30.5742 100.376 28.7718 104.509C28.5469 105.024 28.322 105.535 28.1064 106.053C28.1064 106.087 28.1408 106.115 28.1595 106.081C30.2212 102.026 30.5398 101.053 32.4515 96.933C34.3632 92.8127 36.2999 88.6394 38.2116 84.4848C39.0737 82.6134 40.0858 80.7014 40.2138 78.6054C40.3388 76.4189 39.6516 74.2262 39.1518 72.1302Z" fill="#263238"/>
<path d="M41.0164 44.249C40.9602 44.5173 37.6991 55.8207 37.293 56.064C36.8213 56.3541 49.1286 72.8851 50.5905 80.9947C51.5276 86.1848 53.6517 116.433 53.6517 116.433H37.9833C37.9833 116.433 36.4465 90.7449 35.9342 82.2797C35.7343 78.9954 22.9178 64.8972 21.8776 54.0554C21.5653 50.8583 24.1642 44.2553 24.1642 44.2553L41.0164 44.249Z" fill="#37474F"/>
<path d="M37.5867 104.179C37.3993 99.9243 37.2306 95.6605 36.9214 91.4092C36.7433 89.0044 36.3997 86.6714 36.1592 84.2697C36.1592 84.1449 36.0467 84.1137 36.0499 84.2447C36.1592 88.5179 36.5122 92.7442 36.7433 97.0142C36.9745 101.284 37.1869 102.282 37.4305 106.537C37.568 108.945 37.6867 111.356 37.8741 113.76C37.8761 113.767 37.8801 113.772 37.8854 113.776C37.8908 113.78 37.8972 113.782 37.9038 113.782C37.9103 113.782 37.9167 113.78 37.9221 113.776C37.9274 113.772 37.9314 113.767 37.9334 113.76C37.9428 109.484 37.7741 108.442 37.5867 104.179Z" fill="#263238"/>
<path d="M50.6092 81.1691C50.4738 80.045 50.2545 78.9325 49.9532 77.841C49.632 76.7826 49.2061 75.7586 48.6819 74.7843C47.6167 72.7382 46.3984 70.7576 45.2271 68.7708C44.0557 66.784 42.8343 64.7503 41.5973 62.7666C40.9039 61.6541 40.2052 60.5417 39.5014 59.4292C38.7892 58.3032 38.0363 57.2053 37.2992 56.1012C37.2679 56.0575 37.1992 56.1012 37.2273 56.1417C38.4268 58.1504 39.6138 60.1653 40.8133 62.174C42.0128 64.1827 43.1967 66.1976 44.3805 68.2156C45.5644 70.2336 46.7108 72.1862 47.8166 74.198C48.3642 75.1558 48.8363 76.1549 49.2285 77.186C49.5934 78.2561 49.858 79.3577 50.0188 80.4766C50.4374 83.0779 50.7778 85.6948 51.3026 88.2743C51.3047 88.2805 51.3087 88.2859 51.314 88.2898C51.3193 88.2937 51.3257 88.2957 51.3323 88.2957C51.3389 88.2957 51.3453 88.2937 51.3506 88.2898C51.3559 88.2859 51.3599 88.2805 51.362 88.2743C51.1902 85.8976 50.9215 83.5239 50.6092 81.1691Z" fill="#263238"/>
<path d="M39.3391 55.1686C37.7379 55.7519 36.1901 56.4719 34.7129 57.3208C34.7001 57.3266 34.69 57.3372 34.6851 57.3504C34.6801 57.3636 34.6805 57.3782 34.6863 57.391C34.6921 57.4038 34.7028 57.4138 34.716 57.4188C34.7292 57.4237 34.7438 57.4233 34.7566 57.4175C36.3185 56.75 37.9053 56.1075 39.4234 55.3558C39.4462 55.3433 39.4634 55.3228 39.4716 55.2982C39.4798 55.2737 39.4785 55.2469 39.4679 55.2233C39.4572 55.1997 39.438 55.1809 39.4142 55.1708C39.3903 55.1607 39.3635 55.1599 39.3391 55.1686Z" fill="#263238"/>
<path d="M39.8103 46.0612C39.8103 46.0081 39.7104 45.9957 39.7104 46.0612C39.7104 47.9108 39.6042 47.9763 39.448 49.7042C39.3761 50.5058 38.7295 54.9349 37.3395 54.6105C37.1052 54.5575 36.9865 54.3298 36.9491 53.9867C36.9522 53.5223 37.0142 53.0601 37.1333 52.6112C37.2864 51.6755 37.4114 50.7398 37.4894 49.804C37.6519 48.5811 37.633 47.341 37.4332 46.1236C37.4306 46.1136 37.4247 46.1048 37.4165 46.0985C37.4083 46.0922 37.3983 46.0887 37.3879 46.0887C37.3776 46.0887 37.3675 46.0922 37.3593 46.0985C37.3512 46.1048 37.3453 46.1136 37.3426 46.1236C37.385 48.0239 37.2438 49.9239 36.9209 51.7971C36.746 52.9512 36.165 54.6854 37.3707 54.8632C38.5765 55.0409 39.3949 52.1371 39.5573 51.3417C39.9665 49.149 39.9853 48.3131 39.8103 46.0612Z" fill="#263238"/>
<path d="M37.3772 54.7321C37.2527 55.0304 37.1483 55.3368 37.0649 55.6491C36.9762 55.8907 36.9328 56.1466 36.9368 56.4039C36.9368 56.4538 37.0055 56.4569 37.0336 56.4257C37.174 56.1973 37.2793 55.9492 37.346 55.6896C37.4522 55.4058 37.5646 55.1251 37.6584 54.8381C37.6612 54.8043 37.653 54.7705 37.6349 54.7418C37.6168 54.713 37.5897 54.691 37.5579 54.679C37.5261 54.667 37.4913 54.6657 37.4587 54.6753C37.4261 54.6849 37.3975 54.7048 37.3772 54.7321Z" fill="#263238"/>
<path d="M38.0305 86.3779C37.8868 84.1946 37.8931 81.8833 36.9622 79.8528C36.4652 78.8657 35.8952 77.9169 35.2567 77.0145C34.6195 76.0434 33.9947 75.0682 33.3825 74.0888C30.9085 70.165 28.547 66.1633 26.3823 62.0586C25.339 60.0811 24.38 58.0444 23.8553 55.861C23.3457 53.5654 23.2494 51.1975 23.571 48.8681C23.6429 48.288 23.7209 47.7109 23.8209 47.1339C23.8209 47.0934 23.7647 47.0746 23.7553 47.1183C23.2471 49.3363 23.0734 51.6175 23.2399 53.8867C23.4765 56.0545 24.0873 58.1651 25.0454 60.1248C26.0012 62.1896 27.1351 64.1796 28.2565 66.1508C29.4081 68.1886 30.5962 70.2066 31.8207 72.2049C33.0389 74.1886 34.3196 76.1349 35.5909 78.0875C36.2386 79.0103 36.744 80.0248 37.0903 81.0973C37.3727 82.2152 37.533 83.3604 37.5682 84.5127C37.8806 89.3504 39.1113 105.426 39.5455 110.239C39.5997 110.85 39.6548 111.46 39.7111 112.07C39.7111 112.126 39.7985 112.123 39.7954 112.07C39.5986 107.238 38.3491 91.1969 38.0305 86.3779Z" fill="#263238"/>
<path d="M29.3869 46.9188C29.3869 46.8845 29.3307 46.8969 29.3307 46.9188C29.287 48.2631 29.3307 49.6479 28.8059 50.9174C28.3311 52.0808 27.3784 52.898 26.307 53.5093C25.686 53.8554 25.0468 54.1678 24.3922 54.4451C24.3453 54.4638 24.3641 54.5386 24.414 54.523C25.6635 54.13 26.913 53.7027 27.9469 52.8793C29.0496 51.9966 29.5306 50.7147 29.5837 49.3298C29.6034 48.5214 29.5374 47.7133 29.3869 46.9188Z" fill="#263238"/>
<path d="M45.1808 12.4721C44.0531 11.4709 41.12 10.3293 38.4523 12.9836C34.6633 16.7546 36.4376 26.6202 37.0404 28.1111C37.0404 28.1111 43.8782 30.2695 49.7944 26.6389C49.7944 26.6389 46.3209 20.0421 46.7551 16.5986C46.8532 15.8346 46.7608 15.0581 46.4862 14.3382C46.2115 13.6184 45.7631 12.9774 45.1808 12.4721Z" fill="#263238"/>
<path d="M47.4757 20.3101L47.5413 20.4722C47.8392 21.1583 48.1989 21.816 48.6159 22.4373C49.0015 23.0425 49.4717 23.5897 50.0121 24.0623C50.0278 24.0623 50.0527 24.0623 50.0371 24.0404C49.5063 23.5345 49.063 22.9443 48.7252 22.2938C48.3704 21.6778 48.0523 21.0414 47.7725 20.388C47.201 19.0602 46.8011 17.6652 46.5823 16.2366C46.5823 16.2085 46.5292 16.2147 46.5324 16.2366C46.5449 16.4445 46.5636 16.6441 46.5886 16.8354C46.5846 16.8343 46.5803 16.8343 46.5762 16.8352C46.5722 16.8362 46.5684 16.8382 46.5653 16.8409C46.5622 16.8437 46.5598 16.8473 46.5584 16.8512C46.5571 16.8551 46.5567 16.8594 46.5573 16.8635C46.6919 18.1997 46.9673 19.5181 47.3789 20.7966C47.8311 22.0478 48.4522 23.2315 49.225 24.3149C49.6522 24.9297 50.1175 25.5173 50.6181 26.0741C50.6181 26.0741 50.64 26.0741 50.6181 26.0741C49.2413 24.3509 48.1777 22.4 47.4757 20.3101Z" fill="#263238"/>
<path d="M39.6636 12.375C36.265 14.5583 35.3716 18.741 35.4872 22.4246C35.5084 23.5557 35.6413 24.6819 35.8839 25.787C35.8854 25.7903 35.8878 25.7931 35.8908 25.7951C35.8939 25.7971 35.8974 25.7982 35.9011 25.7982C35.9047 25.7982 35.9083 25.7971 35.9114 25.7951C35.9144 25.7931 35.9168 25.7903 35.9183 25.787C35.619 23.8481 35.6022 21.8762 35.8683 19.9325C36.1307 18.1141 36.5805 16.2239 37.5801 14.6301C38.1122 13.7532 38.8283 13.0019 39.6792 12.428C39.7198 12.4124 39.6948 12.375 39.6636 12.375Z" fill="#263238"/>
<path d="M38.6951 26.4765C38.8825 28.872 42.1311 39.3957 46.673 42.7487C48.3972 44.0244 59.0459 40.7743 61.3543 39.6639C62.2914 39.2085 59.8768 31.6573 58.7866 31.9006C57.6277 32.1532 49.5155 34.165 48.719 33.9186C47.9224 33.6722 44.2927 27.9924 41.2502 24.9638C39.4354 23.1641 38.5608 24.7891 38.6951 26.4765Z" fill="#DFA098"/>
<path d="M60.1057 39.9163C60.6649 39.8321 62.9577 39.5233 64.6039 37.7891C64.81 36.3325 65.441 33.2758 65.6378 32.5179C65.7096 31.6414 66.3719 29.8043 66.4562 29.8261C66.6155 29.8667 67.1747 30.0133 67.8681 30.138C68.7834 30.2971 69.9329 30.4219 70.6951 30.2191C70.8771 30.1944 71.0488 30.1203 71.1914 30.0047C71.3341 29.8892 71.4423 29.7368 71.5041 29.5641C71.6696 28.9403 70.3171 28.5317 68.7584 27.9017C66.6374 27.0439 63.9822 26.102 62.8921 26.654C61.2771 27.4899 59.9402 29.8604 59.5372 30.5685C58.9239 31.5648 58.0545 32.379 57.0195 32.9265C57.082 37.3275 59.7122 39.9755 60.1057 39.9163Z" fill="#DFA098"/>
<path d="M74.2495 31.6009C74.2495 31.6009 70.8416 30.5497 67.3618 29.3052C63.882 28.0607 55.8729 26.9036 55.6605 27.1219C55.4481 27.3402 63.2229 30.1037 66.7777 30.9147C70.3324 31.7256 73.9934 32.337 73.9934 32.337L74.2495 31.6009Z" fill="#348ADA"/>
<path d="M74.337 31.5826L72.0223 30.7529L71.6943 32.0317L74.0808 32.4435L74.337 31.5826Z" fill="#DBDBDB"/>
<path d="M74.3366 31.5854C74.631 31.4953 74.9428 31.4766 75.2459 31.5308C75.549 31.5851 75.8348 31.7107 76.0796 31.8973C76.2773 32.0599 76.5062 32.1803 76.7522 32.2511C76.9983 32.3219 77.2563 32.3417 77.5103 32.309C77.5103 32.309 75.6361 33.7282 74.0742 32.4338L74.3366 31.5854Z" fill="#263238"/>
<path d="M77.6041 32.3061C77.4854 32.2312 76.8981 32.3747 76.4421 32.1002C75.986 31.8258 75.2863 33.142 75.9766 33.036C76.7607 32.9237 77.8196 32.4433 77.6041 32.3061Z" fill="#37474F"/>
<path d="M63.6289 38.5163C64.1974 38.1888 67.824 35.2194 68.2426 34.2494C68.6612 33.2794 71.4725 31.7822 69.8357 31.174C68.1989 30.5658 66.0279 33.2669 65.6968 32.9394C65.6252 32.8113 65.6041 32.6612 65.6374 32.5183C65.4406 33.2732 63.8351 37.0597 63.6289 38.5163Z" fill="#DFA098"/>
<path d="M48.4885 33.0517L41.4321 36.1333C41.4321 36.1333 39.2456 30.6281 38.5209 27.113C37.7962 23.5978 38.9207 22.1474 42.541 25.9776C44.6661 28.2124 46.6523 30.5748 48.4885 33.0517Z" fill="#348ADA"/>
<path opacity="0.1" d="M47.223 33.6066L41.4348 36.1361C41.4348 36.1361 39.2263 30.6279 38.5172 27.1096C38.1205 25.1352 38.2986 23.8096 39.167 23.7129C40.9912 25.8962 45.1676 30.9304 47.223 33.6066Z" fill="black"/>
<path d="M41.3002 34.7701C42.2456 34.2461 43.2056 33.746 44.1802 33.2698C44.6613 33.0359 45.1392 32.7926 45.6234 32.5681C46.1075 32.3435 46.6386 32.1376 47.1415 31.9037C47.145 31.9004 47.1492 31.8979 47.1538 31.8964C47.1584 31.895 47.1633 31.8946 47.1681 31.8954C47.1728 31.8962 47.1774 31.898 47.1813 31.9009C47.1852 31.9037 47.1884 31.9073 47.1907 31.9116C47.193 31.9159 47.1942 31.9206 47.1943 31.9254C47.1944 31.9303 47.1934 31.935 47.1914 31.9394C47.1893 31.9438 47.1863 31.9476 47.1825 31.9506C47.1787 31.9536 47.1743 31.9557 47.1696 31.9567C46.6948 32.1969 46.2325 32.4745 45.7639 32.7178C45.2954 32.9611 44.78 33.2075 44.2833 33.4507C43.3087 33.929 42.3216 34.3833 41.3221 34.8138C41.2939 34.8325 41.2721 34.7857 41.3002 34.7701Z" fill="#263238"/>
<path d="M21.3996 47.5271L44.849 49.6886C44.9552 49.5981 43.3965 28.5881 42.0752 25.7186C40.5321 22.3687 38.1675 21.9383 35.7841 23.2233C31.1985 25.65 21.3558 47.4584 21.3996 47.5271Z" fill="#348ADA"/>
<path opacity="0.1" d="M40.9478 23.9159L35.4751 23.3919C35.5758 23.324 35.6801 23.2615 35.7874 23.2048C35.8655 23.1642 35.9405 23.1237 36.0186 23.0894L40.5698 23.526C40.7035 23.6483 40.8297 23.7785 40.9478 23.9159ZM42.0785 25.7218L33.8633 24.9327C33.7727 25.0388 33.6821 25.1448 33.5915 25.2446L42.216 26.0992C42.1791 25.9724 42.1332 25.8484 42.0785 25.7281V25.7218ZM42.6283 27.8241L32.4014 26.8416C32.3233 26.9508 32.2483 27.0599 32.1702 27.1753L42.6908 28.1828C42.672 28.0643 42.6502 27.9457 42.6283 27.8303V27.8241ZM42.9719 29.9045L31.1207 28.766L30.9083 29.0998L43.025 30.2632C43.0063 30.154 42.9875 30.0261 42.9719 29.9107V29.9045ZM43.2562 31.9787L29.9493 30.7092L29.7525 31.043L43.2999 32.3374C43.2843 32.222 43.2687 32.1034 43.2562 31.9849V31.9787ZM43.5061 34.0529L28.8248 32.6462L28.6342 32.9799L43.5529 34.4115C43.5311 34.2993 43.5186 34.1776 43.5061 34.0591V34.0529ZM43.731 36.1239L27.744 34.5924L27.5628 34.9262L43.7685 36.4857C43.7601 36.3672 43.7476 36.2487 43.731 36.1301V36.1239ZM43.9434 38.1918L26.71 36.5387L26.532 36.8787L43.9777 38.5505C43.9684 38.4383 43.9559 38.3166 43.9434 38.1981V38.1918ZM44.1402 40.2598L25.7104 38.4913L25.5418 38.8313L44.1839 40.6154C44.162 40.5031 44.1527 40.3845 44.1402 40.266V40.2598ZM44.3245 42.3277L24.7234 40.4563L24.5547 40.7963L44.3557 42.6926C44.3463 42.571 44.337 42.4525 44.3182 42.334L44.3245 42.3277ZM44.4963 44.3894L23.7675 42.4026L23.6051 42.7426L44.5338 44.7481C44.5181 44.6358 44.5088 44.5173 44.4963 44.3957V44.3894ZM44.6587 46.4542L22.8335 44.3645C22.7773 44.4788 22.7242 44.5911 22.6742 44.7013L44.6837 46.8129C44.6774 46.7038 44.6681 46.5821 44.6587 46.4605V46.4542ZM44.8024 48.5191L21.9214 46.3357L21.7715 46.6726L44.8243 48.884C44.818 48.7717 44.8086 48.6532 44.8024 48.5253V48.5191Z" fill="black"/>
<path d="M32.5886 26.4359C27.2971 32.9017 20.6843 42.7954 22.5585 45.6337C24.4327 48.4721 31.0424 53.7433 36.7087 55.0502C37.8052 55.3059 41.1006 46.1702 39.9418 45.8489C36.9149 45.0068 31.5078 41.1891 31.133 40.6526C30.958 40.3937 34.9314 32.5025 36.3339 27.9829C38.0301 22.5215 35.7529 22.5651 32.5886 26.4359Z" fill="#DFA098"/>
<path d="M35.3594 54.757C38.8392 56.3352 45.5551 55.7675 46.4266 55.412C46.8303 55.275 47.1709 54.997 47.3855 54.6291C48.7287 54.1176 49.0317 53.3191 49.0317 53.3191C49.0317 53.3191 50.7591 53.1818 50.8497 52.1245C50.9559 50.9361 48.5007 51.3759 47.0138 50.7739C46.5921 50.6024 45.5832 50.0971 44.8554 49.6885L44.8116 49.6635C44.5407 49.5257 44.2852 49.3594 44.0495 49.1676C42.3658 48.0291 39.9231 46.2139 39.0516 45.6431L35.3594 54.757Z" fill="#DFA098"/>
<path d="M42.4442 51.8719C43.4397 52.2778 44.4613 52.6164 45.5023 52.8856C46.6581 53.1051 47.8284 53.2396 49.0039 53.288C49.0102 53.29 49.0156 53.294 49.0195 53.2993C49.0233 53.3046 49.0254 53.311 49.0254 53.3176C49.0254 53.3242 49.0233 53.3306 49.0195 53.3359C49.0156 53.3412 49.0102 53.3452 49.0039 53.3472C46.7192 53.4939 44.4379 53.0139 42.4067 51.9593C42.3599 51.9343 42.3911 51.8532 42.4442 51.8719Z" fill="#263238"/>
<path d="M40.8817 53.6061C42.9764 54.3114 45.1784 54.646 47.3884 54.5949C47.3884 54.5949 47.3884 54.6136 47.3884 54.6167C45.2674 54.9286 42.8278 54.5075 40.8536 53.7091C40.788 53.6841 40.8099 53.5843 40.8817 53.6061Z" fill="#263238"/>
<path d="M46.848 46.6255C51.3992 45.6243 64.2032 47.1901 64.0658 50.2592C63.8971 53.921 44.0742 52.5018 44.2116 50.0284C44.296 48.6529 48.8691 49.1457 48.8972 48.341C48.9347 47.7265 45.255 46.9967 46.848 46.6255Z" fill="#348ADA"/>
<path opacity="0.2" d="M46.848 46.6255C51.3992 45.6243 64.2032 47.1901 64.0658 50.2592C63.8971 53.921 44.0742 52.5018 44.2116 50.0284C44.296 48.6529 48.8691 49.1457 48.8972 48.341C48.9347 47.7265 45.255 46.9967 46.848 46.6255Z" fill="black"/>
<path d="M50.5276 49.8538C50.7995 49.9101 51.0466 50.051 51.2335 50.2562C51.2837 50.3094 51.3209 50.3735 51.342 50.4434C51.3631 50.5134 51.3676 50.5873 51.3552 50.6593C51.3428 50.7313 51.3138 50.7995 51.2704 50.8583C51.227 50.9172 51.1706 50.9652 51.1054 50.9985C50.5119 51.3292 49.0219 51.167 48.9189 50.3155C48.8189 49.5419 49.8528 49.6355 50.5276 49.8538Z" fill="#455A64"/>
<path d="M54.0015 51.1732L53.9234 51.1327C53.8348 51.0979 53.7517 51.0506 53.6766 50.9923C53.6005 50.9331 53.5404 50.8559 53.5017 50.7677C53.4694 50.7144 53.4572 50.6514 53.4673 50.59C53.4751 50.5011 53.5089 50.4165 53.5644 50.3466C53.6199 50.2768 53.6948 50.2247 53.7797 50.1969C54.0512 50.1176 54.3343 50.0849 54.6168 50.1003C55.026 50.0628 55.3259 49.8414 55.7476 49.9006C56.1693 49.9599 56.7378 50.25 56.8065 50.6773C56.9658 51.8095 54.595 51.4383 54.0015 51.1732Z" fill="#263238"/>
<path d="M50.9249 47.8764C51.0561 48.3037 51.5121 48.3287 51.887 48.338C52.2618 48.3474 52.6398 48.3661 53.0146 48.3692C53.2559 48.4108 53.5042 48.3747 53.7237 48.2663L53.7581 48.2288C53.8258 48.197 53.8809 48.1435 53.9149 48.0769C53.9488 48.0102 53.9596 47.9342 53.9455 47.8608C53.9111 47.5271 53.5769 47.4148 53.2708 47.3337C53.163 47.2931 53.0523 47.2607 52.9397 47.237C52.4399 47.0686 51.8839 46.7847 51.3591 47.0218C51.196 47.0885 51.0625 47.2115 50.9827 47.3684C50.903 47.5253 50.8825 47.7056 50.9249 47.8764Z" fill="#C7C7C7"/>
<path d="M55.7916 47.6208C55.2981 48.151 56.1259 48.647 56.5757 48.7218C57.0255 48.7967 58.3093 48.9526 58.2906 48.2509C58.2906 47.8329 57.8408 47.6645 57.4128 47.6271C56.8631 47.4025 56.129 47.2621 55.7916 47.6208Z" fill="#348ADA"/>
<path d="M61.8108 49.3827C62.3106 50.044 61.5359 50.6959 60.9143 50.7738C60.4234 50.8128 59.9296 50.794 59.4431 50.7177C59.2864 50.7172 59.1343 50.6649 59.0105 50.569C58.8868 50.473 58.7983 50.3389 58.759 50.1874C58.659 49.5168 59.3306 49.3016 59.9428 49.2517C60.6051 48.996 61.4079 48.8681 61.8108 49.3827Z" fill="#EBEBEB"/>
<path d="M44.0366 49.1581C43.6992 48.7714 43.8991 48.5905 44.7987 48.762C45.6984 48.9336 49.1063 50.3683 49.5061 49.1394C49.906 47.9105 45.0674 45.9517 43.5524 45.7802C42.0374 45.6086 39.0449 45.6336 39.0449 45.6336C39.9102 46.2044 42.3529 48.0197 44.0366 49.1581Z" fill="#DFA098"/>
<path d="M34.3474 36.4919L27.7627 32.172C27.7627 32.172 31.2519 27.3812 33.8476 24.9046C36.4434 22.4281 38.2614 22.5809 36.9432 27.6588C35.625 32.7366 34.3474 36.4919 34.3474 36.4919Z" fill="#348ADA"/>
<path d="M28.8311 31.3297C29.7766 31.8412 30.7137 32.3766 31.6425 32.936C32.0954 33.2105 32.5515 33.4818 33.0013 33.7656C33.4511 34.0495 33.9072 34.3895 34.3695 34.6764C34.4007 34.6951 34.3695 34.7481 34.3413 34.7294C33.8822 34.4643 33.4042 34.2273 32.9482 33.9653C32.4921 33.7033 32.0111 33.4007 31.5456 33.1169C30.6252 32.5575 29.7172 31.9764 28.8218 31.3733C28.7843 31.3546 28.803 31.3141 28.8311 31.3297Z" fill="#263238"/>
<path d="M36.2843 30.0479C36.0312 31.1395 35.7376 32.2312 35.4221 33.301C35.2691 33.8406 35.1097 34.374 34.9317 34.9105C34.7536 35.447 34.5912 35.9803 34.4132 36.5106L34.3819 36.5979L34.307 36.548C33.9384 36.2922 33.576 36.024 33.2168 35.7526C33.6104 35.9741 34.0008 36.1987 34.3851 36.4326L34.2788 36.47C34.4225 35.9273 34.5694 35.3877 34.7287 34.8512C34.888 34.3147 35.041 33.772 35.2097 33.2387C35.5377 32.1657 35.8844 31.0896 36.2843 30.0479Z" fill="#263238"/>
<path d="M36.4212 30.6968C36.3719 30.9495 36.28 31.1921 36.1494 31.4142C36.0838 31.5264 36.0182 31.6356 35.9464 31.7417C35.8745 31.8477 35.7933 31.9475 35.709 32.0536C35.8277 31.8228 35.962 31.6075 36.0807 31.383C36.1463 31.2738 36.2025 31.1615 36.2619 31.0492C36.3212 30.9369 36.3775 30.8153 36.4212 30.6968Z" fill="#263238"/>
<path d="M40.4511 26.9663C39.0642 27.0287 37.3587 24.9358 37.0869 23.2234C37.0869 23.1049 37.593 22.1255 38.1708 20.9028C38.5176 20.1605 38.8862 19.3246 39.1673 18.5386L43.6779 21.5017C43.0432 22.3851 42.5187 23.3424 42.116 24.3525C42.078 24.4608 42.0508 24.5726 42.0348 24.6862C41.6662 25.753 41.079 26.9413 40.4511 26.9663Z" fill="#DFA098"/>
<path d="M43.6931 21.5017C43.0584 22.3851 42.5339 23.3424 42.1313 24.3525C42.0917 24.4604 42.0645 24.5723 42.05 24.6863C42.0414 24.7034 42.0341 24.7211 42.0282 24.7393C41.8544 24.7031 41.684 24.6519 41.519 24.5865C38.6608 23.473 39.0201 19.9921 39.295 18.6104L43.6931 21.5017Z" fill="#263238"/>
<path d="M38.9232 13.0332C38.0392 14.7643 38.0705 20.207 39.1669 21.6293C40.7537 23.6723 43.8149 24.3803 45.6704 22.3686C47.4696 20.4191 47.301 13.3233 46.0359 11.9821C44.171 10.0264 40.2258 10.4787 38.9232 13.0332Z" fill="#DFA098"/>
<path d="M43.6405 17.2407C43.6405 17.2407 43.6123 17.2563 43.6123 17.2719C43.6123 17.64 43.5717 18.0642 43.2344 18.1827V18.2045C43.6467 18.1484 43.7092 17.5869 43.6405 17.2407Z" fill="#263238"/>
<path d="M43.3154 16.8541C42.7219 16.8042 42.6688 17.9894 43.2154 18.0362C43.762 18.083 43.812 16.8946 43.3154 16.8541Z" fill="#263238"/>
<path d="M45.7336 17.269C45.7336 17.269 45.7617 17.2878 45.7617 17.3034C45.7336 17.6683 45.7617 18.0956 46.074 18.2391C46.074 18.2391 46.074 18.2609 46.074 18.2578C45.6805 18.1767 45.6492 17.6121 45.7336 17.269Z" fill="#263238"/>
<path d="M46.0795 16.9011C46.6762 16.8824 46.6668 18.0707 46.1139 18.0863C45.561 18.1019 45.5829 16.9136 46.0795 16.9011Z" fill="#263238"/>
<path d="M42.8722 16.2894C43.0346 16.2551 43.1846 16.1959 43.3408 16.1491C43.5125 16.1208 43.6703 16.0376 43.7906 15.912C43.8222 15.8647 43.8367 15.8079 43.8316 15.7511C43.8265 15.6944 43.8021 15.6411 43.7625 15.6001C43.6757 15.531 43.5722 15.4862 43.4624 15.4703C43.3526 15.4544 43.2405 15.468 43.1377 15.5097C42.916 15.5603 42.7212 15.6915 42.5911 15.8777C42.5627 15.9225 42.548 15.9746 42.5489 16.0276C42.5498 16.0805 42.5662 16.1321 42.5961 16.1759C42.626 16.2197 42.668 16.2538 42.7171 16.2739C42.7662 16.2941 42.8201 16.2995 42.8722 16.2894Z" fill="#263238"/>
<path d="M46.5675 16.3239C46.4096 16.284 46.2542 16.2351 46.102 16.1773C45.9308 16.1504 45.7735 16.067 45.6553 15.9403C45.6237 15.8929 45.6092 15.8361 45.6143 15.7794C45.6194 15.7226 45.6438 15.6693 45.6834 15.6284C45.7705 15.5598 45.8742 15.5155 45.984 15.5002C46.0938 15.4848 46.2057 15.4989 46.3082 15.541C46.5299 15.5933 46.7239 15.7269 46.8517 15.9153C46.8795 15.9603 46.8935 16.0123 46.8921 16.0651C46.8906 16.1179 46.8738 16.1692 46.8436 16.2126C46.8134 16.2559 46.7712 16.2896 46.7222 16.3094C46.6731 16.3291 46.6193 16.3342 46.5675 16.3239Z" fill="#263238"/>
<path d="M43.0941 20.3384C43.1785 20.4288 43.2597 20.5505 43.4065 20.5692C43.5435 20.5719 43.6796 20.5464 43.8063 20.4943C43.8063 20.4943 43.8282 20.4943 43.8063 20.5131C43.7509 20.5831 43.6774 20.6366 43.5937 20.668C43.51 20.6993 43.4194 20.7072 43.3315 20.6908C43.2574 20.6683 43.1917 20.6242 43.1427 20.5642C43.0938 20.5042 43.0638 20.431 43.0566 20.354C43.0691 20.3322 43.0691 20.3259 43.0941 20.3384Z" fill="#263238"/>
<path d="M39.3387 17.5685C39.6511 17.3502 40.2102 15.7158 40.2102 15.7158C40.2102 15.7158 43.5369 14.858 44.271 12.0384C44.271 12.0384 45.5829 13.9098 46.8699 14.4526C46.8699 14.4526 47.1823 11.4863 44.5146 10.7471C44.5146 10.7471 41.9688 9.38408 39.3856 11.6392C36.8023 13.8942 38.5141 17.5311 38.5141 17.5311L39.3387 17.5685Z" fill="#263238"/>
<path d="M44.2556 11.4832C44.295 11.9748 44.2023 12.468 43.9869 12.9118C43.7927 13.362 43.535 13.7821 43.2216 14.1594C42.9143 14.5504 42.545 14.8886 42.1284 15.1606C41.6313 15.4332 41.0966 15.6308 40.5415 15.747C40.5228 15.747 40.5415 15.7813 40.5415 15.7782C41.121 15.6743 41.684 15.4939 42.2158 15.2417C42.6696 14.9796 43.0761 14.6432 43.4184 14.2467C43.7789 13.8718 44.0567 13.4255 44.2337 12.9367C44.375 12.4621 44.4017 11.9608 44.3118 11.4739C44.3181 11.4396 44.2493 11.4396 44.2556 11.4832Z" fill="#263238"/>
<path d="M45.2555 10.4196C44.7931 9.96425 43.6561 9.01917 42.5378 8.7447C41.4196 8.47022 39.7984 8.69479 39.2455 8.7447C38.7894 8.7946 37.3275 8.63865 36.103 9.00982C35.7392 9.15504 35.4211 9.39522 35.1821 9.70524C34.943 10.0153 34.7918 10.3837 34.7442 10.7721C34.7286 11.583 36.431 11.4676 36.4404 11.7858C36.4404 11.9948 35.9594 12.9367 36.3498 13.5044C36.7403 14.072 36.734 13.9972 36.9589 14.3153C37.5056 15.0826 39.1455 11.5768 40.7261 10.8844C42.3067 10.1919 45.2555 10.4196 45.2555 10.4196Z" fill="#348ADA"/>
<path opacity="0.1" d="M45.1298 10.4509C45.1298 10.4509 42.3185 10.1952 40.7286 10.8938C39.1386 11.5925 37.758 14.9985 37.2051 14.2468C36.9646 13.91 36.9302 13.5294 37.002 12.9431C37.5393 12.0073 38.5389 10.5944 39.7884 9.82399C40.9597 9.11285 42.506 9.11597 44.0116 9.51209C44.4104 9.79274 44.7845 10.1068 45.1298 10.4509Z" fill="black"/>
<path d="M36.7556 15.9682C37.7708 15.0075 38.9109 13.3607 40.4259 12.3283C41.9409 11.2959 45.1271 11.5703 45.5175 11.7481C46.4734 12.1754 46.5077 12.7213 46.6951 12.6838C46.8826 12.6464 46.3328 11.1773 46.1204 10.9091C45.7805 10.5395 45.3636 10.2488 44.899 10.0576C44.4711 9.90787 41.7566 9.17177 40.3822 9.92035C39.0077 10.6689 36.4713 13.2921 36.412 14.1841C36.3963 14.3962 36.6056 14.6177 36.5838 14.9202C36.5525 15.3194 36.4713 15.7592 36.4838 16.0493C36.5088 16.2832 36.6962 16.0275 36.7556 15.9682Z" fill="#348ADA"/>
<path d="M40.8821 11.7828C40.7089 11.5622 40.5563 11.3262 40.426 11.0779C40.2913 10.8302 40.1864 10.5674 40.1136 10.295C40.1136 10.2732 40.0762 10.2763 40.0793 10.295C40.1174 10.5858 40.2007 10.8689 40.3261 11.134C40.457 11.3932 40.635 11.6258 40.8509 11.8202C40.8821 11.8452 40.9102 11.8078 40.8821 11.7828Z" fill="#263238"/>
<path d="M36.9684 15.4289C36.9684 15.354 36.9465 15.2791 36.9403 15.2012C36.9309 15.1151 36.9309 15.0283 36.9403 14.9423C36.9809 14.7842 37.0029 14.622 37.0059 14.4588C36.9876 14.3268 36.9552 14.1971 36.909 14.0721C36.8444 13.9347 36.83 13.7791 36.8684 13.6323C36.8684 13.6136 36.8466 13.6011 36.8403 13.6323C36.781 13.9064 36.7939 14.1912 36.8778 14.4588C36.8716 14.6336 36.8528 14.8077 36.8216 14.9797C36.7999 15.1437 36.8329 15.3103 36.9153 15.4538C36.9309 15.4601 36.9684 15.4538 36.9684 15.4289Z" fill="#263238"/>
<path d="M37.6612 14.5587C37.6143 14.4214 37.5581 14.2935 37.5238 14.1501C37.4928 14.0134 37.4709 13.8748 37.4582 13.7352C37.4582 13.5949 37.4582 13.4576 37.4301 13.3173C37.4019 13.1769 37.3863 13.0054 37.3801 12.8276C37.3801 12.8057 37.3488 12.8276 37.3488 12.8276C37.3488 12.996 37.3301 13.1676 37.3301 13.336C37.3295 13.4832 37.34 13.6302 37.3613 13.7758C37.3774 13.9157 37.4077 14.0537 37.4519 14.1875C37.4904 14.3241 37.5562 14.4514 37.6456 14.5618C37.6456 14.5618 37.6643 14.5587 37.6612 14.5587Z" fill="#263238"/>
<path d="M38.3367 13.791C38.2077 13.5548 38.112 13.3018 38.0525 13.0393C37.9994 12.7836 37.9619 12.5216 37.9244 12.2627C37.9229 12.2594 37.9205 12.2565 37.9175 12.2545C37.9144 12.2525 37.9109 12.2515 37.9072 12.2515C37.9036 12.2515 37.9 12.2525 37.8969 12.2545C37.8939 12.2565 37.8915 12.2594 37.89 12.2627C37.8748 12.5352 37.8926 12.8085 37.9431 13.0768C37.9675 13.2072 38.0084 13.3341 38.065 13.4542C38.132 13.5818 38.2137 13.7012 38.3086 13.8098C38.3086 13.8098 38.3492 13.8098 38.3367 13.791Z" fill="#263238"/>
<path d="M39.0269 13.0739C38.9569 12.9716 38.9061 12.8575 38.8769 12.737C38.8395 12.6029 38.802 12.4688 38.7676 12.3347C38.7333 12.2006 38.702 12.0758 38.6708 11.9479C38.6304 11.8189 38.6176 11.6829 38.6333 11.5487C38.6333 11.53 38.6083 11.5237 38.6021 11.5487C38.5668 11.6787 38.5562 11.8141 38.5708 11.9479C38.5823 12.0953 38.6063 12.2413 38.6427 12.3846C38.6794 12.5253 38.7243 12.6638 38.777 12.7994C38.8166 12.9231 38.8929 13.0318 38.9957 13.1113C39.0081 13.1176 39.0456 13.0957 39.0269 13.0739Z" fill="#263238"/>
<path d="M39.7041 12.0881C39.651 11.9727 39.5979 11.8573 39.5542 11.7357C39.5105 11.614 39.473 11.4955 39.4355 11.3739C39.398 11.2522 39.3574 11.1212 39.3293 10.9902C39.3278 10.9869 39.3254 10.9841 39.3224 10.9821C39.3193 10.9801 39.3158 10.979 39.3121 10.979C39.3085 10.979 39.3049 10.9801 39.3018 10.9821C39.2988 10.9841 39.2964 10.9869 39.2949 10.9902C39.2985 11.1233 39.3131 11.2558 39.3387 11.3864C39.3649 11.5156 39.4004 11.6427 39.4449 11.7669C39.4894 11.8891 39.5405 12.0088 39.5979 12.1256C39.65 12.2426 39.7243 12.3485 39.8166 12.4375C39.8204 12.4397 39.8247 12.4408 39.8291 12.4408C39.8335 12.4408 39.8379 12.4396 39.8417 12.4374C39.8455 12.4352 39.8486 12.432 39.8508 12.4282C39.853 12.4244 39.8541 12.42 39.8541 12.4156C39.8142 12.3021 39.764 12.1925 39.7041 12.0881Z" fill="#263238"/>
<path d="M41.7911 11.5329C41.7443 11.3832 41.6974 11.2397 41.6381 11.0993C41.5748 10.9553 41.5039 10.8148 41.4257 10.6783C41.2768 10.4108 41.0998 10.1598 40.8978 9.92969C40.8978 9.92969 40.8603 9.92969 40.8697 9.92969C41.1602 10.4662 41.4757 10.9902 41.763 11.5298L41.7911 11.5329Z" fill="#263238"/>
<path d="M42.6442 10.9593C42.5945 10.815 42.5285 10.6769 42.4474 10.5476C42.267 10.28 42.0575 10.0331 41.8226 9.81152C41.807 9.81152 41.7852 9.81152 41.7976 9.83024C41.9726 10.0798 42.1569 10.3262 42.3193 10.5819C42.3974 10.7098 42.4786 10.8408 42.5442 10.9749C42.6098 11.1091 42.6442 11.2588 42.7035 11.396H42.7285C42.7288 11.2464 42.7002 11.0981 42.6442 10.9593Z" fill="#263238"/>
<path d="M43.5468 10.8905C43.5035 10.7568 43.4481 10.6274 43.3812 10.5037C43.2449 10.2599 43.0686 10.0406 42.8596 9.85498C42.8596 9.85498 42.8252 9.85498 42.8377 9.87993C43.0094 10.0983 43.162 10.331 43.2938 10.5755C43.3583 10.7003 43.4208 10.825 43.4812 10.9498C43.5436 11.0745 43.5811 11.218 43.653 11.3365H43.6717C43.6441 11.1843 43.6023 11.035 43.5468 10.8905Z" fill="#263238"/>
<path d="M44.2712 10.6444C44.2056 10.529 44.1306 10.4198 44.0588 10.3075C43.9924 10.1911 43.9081 10.0858 43.8089 9.99561C43.7933 9.99561 43.7776 9.9956 43.787 10.0206C43.9182 10.2389 44.0432 10.4635 44.1681 10.6849C44.2698 10.8988 44.3494 11.1224 44.4055 11.3524H44.4243C44.4456 11.1064 44.3923 10.8597 44.2712 10.6444Z" fill="#263238"/>
<path d="M45.0145 10.7596C44.9008 10.5237 44.7428 10.3119 44.549 10.1357C44.549 10.1357 44.5115 10.1357 44.524 10.1607C44.6888 10.3461 44.8228 10.5567 44.9207 10.7845C45.0249 11.0122 45.1034 11.2507 45.155 11.4957H45.1769C45.179 11.2412 45.1235 10.9896 45.0145 10.7596Z" fill="#263238"/>
<path d="M45.758 11.511C45.7543 11.4543 45.7459 11.398 45.733 11.3426C45.7078 11.2351 45.6711 11.1305 45.6237 11.0307C45.5225 10.8147 45.3989 10.6098 45.2551 10.4194C45.2551 10.4007 45.2145 10.4194 45.227 10.4381C45.3646 10.6219 45.479 10.822 45.5675 11.0338C45.6091 11.1353 45.6435 11.2395 45.6706 11.3457C45.6843 11.3991 45.6947 11.4533 45.7018 11.5079C45.7066 11.5617 45.716 11.6149 45.7299 11.667H45.758C45.7681 11.6155 45.7681 11.5625 45.758 11.511Z" fill="#263238"/>
<path d="M46.2925 11.7702C46.2684 11.6789 46.2381 11.5893 46.2019 11.502C46.1668 11.4147 46.1272 11.3294 46.0832 11.2462C46.0363 11.162 45.9832 11.0778 45.9426 10.9936C45.9426 10.9717 45.902 10.9936 45.9145 11.0092C45.9604 11.0946 46.0001 11.1832 46.0332 11.2743C46.0676 11.3616 46.0988 11.4458 46.1332 11.5301C46.1675 11.6143 46.1988 11.7016 46.23 11.7889C46.2557 11.8786 46.2881 11.9661 46.3268 12.0509C46.3268 12.0665 46.3518 12.0509 46.3518 12.0509C46.3429 11.9554 46.323 11.8612 46.2925 11.7702Z" fill="#263238"/>
<path d="M39.2608 17.5718C39.2608 17.5718 38.3237 15.666 37.4865 15.9717C36.6494 16.2773 37.146 18.9005 38.0051 19.4026C38.1116 19.4729 38.2315 19.5207 38.3572 19.5431C38.4829 19.5655 38.6119 19.562 38.7363 19.5328C38.8606 19.5036 38.9776 19.4493 39.0802 19.3733C39.1827 19.2972 39.2687 19.2011 39.3326 19.0907L39.2608 17.5718Z" fill="#DFA098"/>
<path d="M37.649 16.7202C37.649 16.7202 37.6302 16.7202 37.649 16.742C38.2487 17.1039 38.4892 17.7526 38.6298 18.4045C38.6025 18.3346 38.5604 18.2714 38.5064 18.2193C38.4523 18.1671 38.3877 18.1272 38.3168 18.1023C38.2459 18.0775 38.1704 18.0682 38.0956 18.0751C38.0208 18.082 37.9483 18.105 37.8832 18.1425C37.8645 18.1425 37.8832 18.1799 37.8832 18.1799C38.0028 18.1631 38.1247 18.1842 38.2317 18.2401C38.3388 18.2961 38.4255 18.3841 38.4799 18.4918C38.5738 18.6683 38.6481 18.8545 38.7016 19.047C38.7204 19.1094 38.8297 19.0969 38.8203 19.0252C38.9672 18.1831 38.5142 16.9417 37.649 16.7202Z" fill="#263238"/>
</g>
</svg>
